<svg id="Layer_1" data-name="Layer 1" xmlns="http://www.w3.org/2000/svg" viewBox="0 0 471.752 315.911">
  <g>
    <polygon points="471.252 212.091 471.252 222.783 453.665 247.073 453.665 252.409 444.638 253.384 439.751 260.748 441.702 266.017 442.438 270.388 440.975 277.436 442.19 283.259 446.35 287.878 446.589 292.975 449.515 295.653 447.325 300.511 447.325 305.847 444.389 305.847 444.389 308.162 437.552 307.798 432.302 312.168 424.976 312.168 418.024 315.324 403.737 303.179 398.86 303.179 394.948 306.459 385.911 306.459 380.91 301.601 375.909 301.601 356.123 282.169 341.845 282.169 339.406 280.343 339.282 274.758 340.621 272.577 342.457 264.439 338.421 259.094 338.326 259.055 329.021 254.962 322.795 258.003 322.719 257.917 320.481 255.574 320.357 238.198 325.244 233.828 325.244 227.153 325.119 227.01 321.581 222.898 321.581 206.382 321.457 206.315 295.206 191.684 288.369 184.76 280.556 184.158 275.305 191.32 264.203 191.32 261.755 189.743 252.115 178.21 236.365 193.749 236.365 207.472 234.653 207.721 234.653 208.936 229.403 209.299 226.964 212.579 227.213 215.611 228.552 218.766 227.213 222.658 218.912 230.433 218.912 235.043 215.489 236.142 204.137 228.97 200.599 228.855 190.95 237.357 190.826 249.741 192.538 251.807 194.125 263.827 199.987 271.363 200.599 275.36 188.263 285.813 188.196 285.851 180.574 289.944 180.536 289.992 174.588 297.833 174.215 297.853 160.549 298.445 145.047 287.209 144.56 280.773 139.491 276.881 126.428 276.766 122.708 278.344 119.046 277.856 119.046 267.232 114.408 262.307 113.556 250.649 108.306 249.865 104.519 255.326 104.405 255.555 101.469 261.217 97.557 261.217 91.695 250.047 80.468 242.578 72.961 241.966 70.886 240.513 60.443 240.876 56.417 246.222 52.516 249.253 41.767 249.253 33.342 242.091 32.978 222.41 9.778 203.045 9.482 198.187 11.155 195.844 11.433 195.452 15.22 195.452 19.734 191.263 19.667 187.314 14.971 181.241 15.335 168.427 20.958 161.57 25.041 153.977 19.858 146.451 10.763 146.451 9.721 141.593 5.752 137.462 5.752 127.745 0.875 121.491 0.722 114.807 0.502 105.636 3.343 98.674 3.352 98.655 3.543 98.626 9.702 97.679 17.515 91.129 17.515 79.71 23.454 78.859 24.917 74.852 34.202 72.06 41.891 72.299 41.948 72.481 44.091 79.835 44.32 79.997 49.943 83.956 56.542 83.717 66.793 76.555 71.804 77.281 75.706 70.233 86.942 69.87 97.07 74.489 104.519 74.001 112.457 63.071 118.07 62.822 124.171 57.849 134.672 58.213 135.523 56.023 143.823 56.635 143.881 56.73 144.808 58.088 145.028 58.155 152.009 60.278 160.549 59.552 160.683 59.676 170.686 68.895 170.743 68.895 175.2 68.531 176.06 48.009 197.663 48.133 197.749 48.191 206.576 53.957 206.614 53.909 212.926 45.943 213.538 42.061 217.076 39.507 217.076 32.459 213.901 27.85 210.239 20.926 210.602 18.622 210.831 18.622 233.065 18.737 233.247 18.65 237.952 16.432 237.981 16.432 244.178 15.944 244.273 15.849 257.489 2.833 257.576 2.824 266.641 2.097 266.785 1.934 268.038 0.529 268.114 0.538 273.479 0.882 278.117 7.806 284.218 9.021 295.694 19.951 298.381 22.141 301.805 22.629 308.145 29.916 315.958 29.916 335.495 45.217 343.557 45.217 350.385 42.3 356.735 54.206 367.235 54.206 374.56 58.815 380.174 56.874 382.134 53.957 391.161 66.102 398.735 66.102 402.637 63.434 408.499 67.565 406.3 73.638 410.699 79.462 410.699 111.527 414.113 115.658 418.263 118.814 421.687 138.007 426.812 138.972 434.874 153.795 436.576 166.906 444.877 182.943 446.101 190.957 462.951 192.659 471.252 212.091" fill="#a4bbb2" stroke="#010101" strokeMiterlimit="10"/>
    <g>
      <g>
        <polygon points="134.948 249.438 136.444 256.69 118.218 254.976 120.138 248.045 118.3 247.871 120.983 238.191 119.864 238.085 122.021 230.304 122.018 230.304 121.181 230.225 121.636 228.579 123.235 222.815 121.8 222.68 122.445 220.352 124.701 212.208 124.704 212.205 126.155 206.967 128.796 197.442 130.492 205.666 131.34 209.785 132.968 217.682 132.97 217.685 132.97 217.688 134.239 223.85 133.015 223.734 133.012 223.734 133.392 225.572 133.394 225.577 134.611 231.486 134.06 231.434 135.738 239.579 134.442 239.457 134.44 239.457 136.528 249.585 134.95 249.438 134.948 249.438" fill="#213831"/>
        <polygon points="144.383 242.554 147.264 247.007 136.444 256.69 134.95 249.438 136.528 249.585 134.442 239.457 135.738 239.579 134.06 231.434 134.611 231.486 133.394 225.577 133.392 225.572 133.015 223.734 134.239 223.85 132.97 217.688 132.97 217.685 131.345 209.793 130.497 205.674 128.799 197.427 141.623 217.243 139.319 219.304 142.585 224.353 141.434 225.382 145.163 231.144 142.956 233.119 147.346 239.902 144.383 242.554" fill="#3d5f54"/>
        <polygon points="128.794 197.442 126.155 206.967 126.152 206.972 124.704 212.205 124.701 212.208 122.445 220.352 121.8 222.68 123.235 222.815 121.636 228.579 121.181 230.225 122.018 230.304 119.864 238.085 120.983 238.191 118.3 247.871 120.138 248.045 118.218 254.976 111.956 243.592 114.11 240.25 112.04 236.487 115.788 230.675 114.41 228.168 117.455 223.449 116.567 221.835 119.14 217.846 117.528 214.912 128.794 197.442" fill="#192924"/>
      </g>
      <g>
        <polygon points="163.334 106.461 164.83 113.714 146.604 111.999 148.524 105.068 146.686 104.895 149.369 95.214 148.25 95.109 150.407 87.328 150.404 87.328 149.567 87.249 150.022 85.603 151.621 79.838 150.186 79.704 150.831 77.376 153.088 69.231 153.09 69.229 154.541 63.991 157.182 54.466 158.878 62.69 159.726 66.809 161.354 74.706 161.356 74.709 161.356 74.711 162.626 80.873 161.401 80.757 161.398 80.757 161.778 82.595 161.78 82.601 162.997 88.51 162.446 88.457 164.124 96.602 162.828 96.481 162.826 96.481 164.914 106.609 163.337 106.461 163.334 106.461" fill="#213831"/>
        <polygon points="172.769 99.578 175.65 104.031 164.83 113.714 163.337 106.461 164.914 106.609 162.828 96.481 164.124 96.602 162.446 88.457 162.997 88.51 161.78 82.601 161.778 82.595 161.401 80.757 162.626 80.873 161.356 74.711 161.356 74.709 159.731 66.816 158.884 62.698 157.185 54.45 170.009 74.266 167.705 76.328 170.971 81.376 169.82 82.406 173.549 88.168 171.342 90.143 175.732 96.926 172.769 99.578" fill="#3d5f54"/>
        <polygon points="157.18 54.466 154.541 63.991 154.539 63.996 153.09 69.229 153.088 69.231 150.831 77.376 150.186 79.704 151.621 79.838 150.022 85.603 149.567 87.249 150.404 87.328 148.25 95.109 149.369 95.214 146.686 104.895 148.524 105.068 146.604 111.999 140.342 100.615 142.496 97.274 140.426 93.511 144.174 87.699 142.796 85.192 145.841 80.473 144.953 78.859 147.526 74.869 145.914 71.936 157.18 54.466" fill="#192924"/>
      </g>
      <g>
        <polygon points="353.905 167.058 355.4 174.31 337.175 172.596 339.095 165.665 337.256 165.491 339.94 155.811 338.821 155.705 340.977 147.924 340.975 147.924 340.137 147.845 340.593 146.199 342.191 140.435 340.756 140.3 341.401 137.972 343.658 129.827 343.661 129.825 345.112 124.587 347.753 115.062 349.449 123.286 350.297 127.405 351.924 135.302 351.927 135.305 351.927 135.307 353.196 141.469 351.972 141.354 351.969 141.354 352.348 143.192 352.351 143.197 353.567 149.106 353.017 149.053 354.695 157.198 353.399 157.077 353.396 157.077 355.485 167.205 353.907 167.058 353.905 167.058" fill="#213831"/>
        <polygon points="363.34 160.174 366.221 164.627 355.4 174.31 353.907 167.058 355.485 167.205 353.399 157.077 354.695 157.198 353.017 149.053 353.567 149.106 352.351 143.197 352.348 143.192 351.972 141.354 353.196 141.469 351.927 135.307 351.927 135.305 350.302 127.413 349.454 123.294 347.756 115.046 360.58 134.862 358.276 136.924 361.541 141.972 360.39 143.002 364.119 148.764 361.913 150.739 366.302 157.522 363.34 160.174" fill="#3d5f54"/>
        <polygon points="347.75 115.062 345.112 124.587 345.109 124.592 343.661 129.825 343.658 129.827 341.401 137.972 340.756 140.3 342.191 140.435 340.593 146.199 340.137 147.845 340.975 147.924 338.821 155.705 339.94 155.811 337.256 165.491 339.095 165.665 337.175 172.596 330.913 161.212 333.067 157.87 330.997 154.107 334.744 148.295 333.367 145.788 336.411 141.069 335.524 139.455 338.097 135.465 336.485 132.532 347.75 115.062" fill="#192924"/>
      </g>
      <g>
        <polygon points="243.729 175.64 238.348 185.427 236.697 179.468 238.275 179.319 235.971 170.997 236.933 170.906 235.079 164.217 235.801 164.149 235.411 162.743 235.411 162.741 234.035 157.778 235.267 157.663 234.71 155.657 234.71 155.655 232.772 148.662 232.772 148.657 232.765 148.634 231.524 144.152 231.522 144.15 229.256 135.966 238.941 150.984 237.555 153.504 239.767 156.936 239.004 158.324 241.621 162.381 240.437 164.536 243.659 169.532 241.877 172.77 243.729 175.64" fill="#3d5f54"/>
        <polygon points="222.677 186.901 223.963 180.666 223.961 180.666 222.607 180.793 224.402 172.086 224.4 172.086 223.284 172.19 224.728 165.188 224.726 165.188 224.253 165.233 225.299 160.158 225.299 160.155 225.627 158.568 225.625 158.568 224.574 158.668 225.665 153.37 225.668 153.368 227.067 146.577 227.796 143.036 229.254 135.966 231.522 144.15 232.765 148.634 232.772 148.657 232.772 148.662 234.71 155.655 234.71 155.657 235.267 157.663 234.035 157.778 235.411 162.741 235.411 162.743 235.801 164.149 235.079 164.217 236.933 170.906 235.971 170.997 235.968 170.997 238.275 179.319 236.697 179.468 236.695 179.468 238.348 185.427 222.677 186.901" fill="#213831"/>
        <polygon points="229.251 135.952 227.791 143.043 227.062 146.581 225.665 153.37 224.574 158.668 225.625 158.568 225.299 160.155 225.299 160.158 224.253 165.233 224.726 165.188 223.284 172.19 224.4 172.086 222.607 180.793 223.961 180.666 222.677 186.901 213.377 178.576 215.854 174.75 213.305 172.468 217.079 166.637 215.181 164.939 218.387 159.985 217.4 159.1 220.207 154.763 218.224 152.988 229.251 135.952" fill="#192924"/>
      </g>
      <g>
        <polygon points="37.885 145.907 37.676 146.41 37.564 146.372 37.885 145.907" fill="#21423d"/>
        <polygon points="37.885 145.907 37.676 146.41 37.564 146.372 37.885 145.907" fill="#21423d"/>
        <polygon points="37.885 145.907 37.676 146.41 37.564 146.372 37.885 145.907" fill="#2a4f48"/>
        <g>
          <polygon points="43.878 126.292 39.742 136.278 37.54 141.598 35.821 145.744 37.008 146.17 35.972 148.675 34.724 151.687 35.392 151.927 33.518 156.449 35.078 157.009 32.704 162.744 32.157 154.191 33.272 152.581 32.989 148.179 34.372 146.178 34.247 144.227 35.599 142.271 35.364 138.605 43.878 126.292" fill="#21423d"/>
          <polygon points="44.866 155.337 44.379 155.162 44.763 160.494 43.845 160.163 44.329 166.926 32.704 162.744 35.078 157.009 33.518 156.449 35.392 151.927 34.724 151.687 35.972 148.675 37.008 146.17 35.821 145.744 37.54 141.598 39.742 136.278 43.878 126.292 44.341 132.748 44.405 133.649 44.405 133.651 44.568 135.904 44.659 137.191 44.659 137.193 45.045 142.569 45.045 142.571 45.191 144.596 45.191 144.598 45.525 149.235 44.398 148.83 44.866 155.337" fill="#2a4f48"/>
          <polygon points="37.885 145.907 37.676 146.41 37.564 146.372 37.885 145.907" fill="#2a4f48"/>
          <polygon points="54.267 156.13 54.818 162.111 44.329 166.926 43.845 160.163 44.763 160.494 44.379 155.162 44.866 155.337 44.398 148.83 45.525 149.235 45.191 144.598 45.191 144.596 45.045 142.571 45.045 142.569 44.659 137.193 44.659 137.191 44.568 135.904 44.405 133.651 44.405 133.649 44.341 132.748 43.878 126.292 53.577 137.586 54.279 145.217 53.505 145.571 53.581 146.403 54.092 146.997 54.907 155.838 54.267 156.13" fill="#3e7063"/>
        </g>
      </g>
      <g>
        <polygon points="182.361 70.693 182.152 71.196 182.04 71.157 182.361 70.693" fill="#21423d"/>
        <polygon points="182.361 70.693 182.152 71.196 182.04 71.157 182.361 70.693" fill="#21423d"/>
        <polygon points="182.361 70.693 182.152 71.196 182.04 71.157 182.361 70.693" fill="#2a4f48"/>
        <g>
          <polygon points="188.354 51.078 184.218 61.064 182.016 66.384 180.297 70.53 181.484 70.956 180.448 73.46 179.2 76.473 179.869 76.712 177.995 81.234 179.555 81.795 177.18 87.53 176.633 78.977 177.748 77.367 177.465 72.964 178.848 70.963 178.723 69.013 180.075 67.057 179.84 63.391 188.354 51.078" fill="#21423d"/>
          <polygon points="189.342 80.123 188.855 79.948 189.239 85.28 188.321 84.949 188.805 91.712 177.18 87.53 179.555 81.795 177.995 81.234 179.869 76.712 179.2 76.473 180.448 73.46 181.484 70.956 180.297 70.53 182.016 66.384 184.218 61.064 188.354 51.078 188.817 57.534 188.882 58.435 188.882 58.437 189.044 60.69 189.136 61.977 189.136 61.979 189.521 67.354 189.521 67.357 189.668 69.382 189.668 69.384 190.001 74.021 188.874 73.616 189.342 80.123" fill="#2a4f48"/>
          <polygon points="182.361 70.693 182.152 71.196 182.04 71.157 182.361 70.693" fill="#2a4f48"/>
          <polygon points="198.743 80.916 199.294 86.897 188.805 91.712 188.321 84.949 189.239 85.28 188.855 79.948 189.342 80.123 188.874 73.616 190.001 74.021 189.668 69.384 189.668 69.382 189.521 67.357 189.521 67.354 189.136 61.979 189.136 61.977 189.044 60.69 188.882 58.437 188.882 58.435 188.817 57.534 188.354 51.078 198.053 62.372 198.755 70.002 197.981 70.357 198.058 71.189 198.568 71.783 199.383 80.623 198.743 80.916" fill="#3e7063"/>
        </g>
      </g>
      <g>
        <polygon points="198.02 167.438 198.02 190.399 197.485 190.256 197.485 199.019 197.277 198.963 197.277 210.711 187.17 208.015 182.116 199.988 187.063 193.101 185.416 190.482 188.927 185.592 187.083 182.664 198.02 167.438" fill="#1f3f33"/>
        <polygon points="206.195 205.518 197.277 210.541 197.277 198.963 197.485 199.019 197.485 190.256 198.02 190.399 198.02 167.545 204.453 186.65 202.232 187.902 204.584 194.884 202.928 195.818 206.195 205.518" fill="#468b72"/>
      </g>
      <g>
        <polygon points="34.674 84.008 34.674 106.969 34.139 106.826 34.139 115.59 33.93 115.533 33.93 127.281 23.823 124.585 18.77 116.559 23.716 109.671 22.07 107.052 25.58 102.162 23.737 99.234 34.674 84.008" fill="#1f3f33"/>
        <polygon points="42.848 122.088 33.93 127.112 33.93 115.533 34.139 115.59 34.139 106.826 34.674 106.969 34.674 84.115 41.106 103.221 38.886 104.472 41.237 111.455 39.582 112.388 42.848 122.088" fill="#468b72"/>
      </g>
      <g>
        <polygon points="264.44 98.165 265.935 105.417 247.71 103.703 249.63 96.772 247.792 96.598 250.475 86.918 249.356 86.813 251.513 79.031 251.51 79.031 250.673 78.952 251.128 77.306 252.727 71.542 251.291 71.408 251.937 69.08 254.193 60.935 254.196 60.932 255.647 55.695 258.288 46.17 259.984 54.394 260.832 58.512 262.459 66.41 262.462 66.412 262.462 66.415 263.731 72.577 262.507 72.461 262.504 72.461 262.883 74.299 262.886 74.304 264.103 80.214 263.552 80.161 265.23 88.306 263.934 88.185 263.931 88.185 266.02 98.313 264.442 98.165 264.44 98.165" fill="#213831"/>
        <polygon points="273.875 91.282 276.756 95.735 265.935 105.417 264.442 98.165 266.02 98.313 263.934 88.185 265.23 88.306 263.552 80.161 264.103 80.214 262.886 74.304 262.883 74.299 262.507 72.461 263.731 72.577 262.462 66.415 262.462 66.412 260.837 58.52 259.989 54.402 258.291 46.154 271.115 65.97 268.811 68.032 272.076 73.08 270.926 74.11 274.654 79.871 272.448 81.846 276.837 88.63 273.875 91.282" fill="#3d5f54"/>
        <polygon points="258.286 46.17 255.647 55.695 255.644 55.7 254.196 60.932 254.193 60.935 251.937 69.08 251.291 71.408 252.727 71.542 251.128 77.306 250.673 78.952 251.51 79.031 249.356 86.813 250.475 86.918 247.792 96.598 249.63 96.772 247.71 103.703 241.448 92.319 243.602 88.977 241.532 85.214 245.279 79.403 243.902 76.896 246.946 72.177 246.059 70.562 248.632 66.573 247.02 63.639 258.286 46.17" fill="#192924"/>
      </g>
      <g>
        <polygon points="88.175 115.467 82.794 125.254 81.144 119.296 82.722 119.146 80.417 110.824 81.379 110.734 79.525 104.044 80.247 103.976 79.858 102.57 79.858 102.568 78.481 97.605 79.713 97.49 79.156 95.484 79.156 95.482 77.218 88.489 77.218 88.484 77.211 88.462 75.971 83.979 75.968 83.977 73.702 75.793 83.387 90.812 82.002 93.331 84.213 96.763 83.45 98.151 86.068 102.208 84.884 104.363 88.105 109.36 86.323 112.597 88.175 115.467" fill="#3d5f54"/>
        <polygon points="67.123 126.728 68.409 120.493 68.407 120.493 67.053 120.62 68.848 111.913 68.846 111.913 67.73 112.017 69.174 105.015 69.172 105.015 68.699 105.06 69.745 99.985 69.745 99.983 70.073 98.396 70.071 98.396 69.021 98.495 70.112 93.198 70.114 93.195 71.513 86.404 72.242 82.863 73.7 75.793 75.968 83.977 77.211 88.462 77.218 88.484 77.218 88.489 79.156 95.482 79.156 95.484 79.713 97.49 78.481 97.605 79.858 102.568 79.858 102.57 80.247 103.976 79.525 104.044 81.379 110.734 80.417 110.824 80.415 110.824 82.722 119.146 81.144 119.296 81.141 119.296 82.794 125.254 67.123 126.728" fill="#213831"/>
        <polygon points="73.698 75.779 72.237 82.87 71.509 86.408 70.112 93.198 69.021 98.495 70.071 98.396 69.745 99.983 69.745 99.985 68.699 105.06 69.172 105.015 67.73 112.017 68.846 111.913 67.053 120.62 68.407 120.493 67.123 126.728 57.823 118.404 60.3 114.578 57.751 112.296 61.525 106.464 59.628 104.766 62.833 99.813 61.846 98.928 64.653 94.59 62.67 92.815 73.698 75.779" fill="#192924"/>
      </g>
      <g>
        <polygon points="106.729 169.866 101.348 179.653 99.697 173.695 101.275 173.545 98.971 165.223 99.933 165.133 98.079 158.443 98.801 158.375 98.411 156.969 98.411 156.967 97.035 152.004 98.266 151.889 97.71 149.883 97.71 149.881 95.772 142.888 95.772 142.883 95.765 142.861 94.524 138.378 94.522 138.376 92.256 130.192 101.941 145.211 100.555 147.73 102.767 151.162 102.004 152.55 104.621 156.607 103.437 158.762 106.659 163.759 104.877 166.996 106.729 169.866" fill="#3d5f54"/>
        <polygon points="85.677 181.127 86.963 174.892 86.961 174.892 85.607 175.019 87.402 166.312 87.4 166.312 86.284 166.416 87.728 159.414 87.726 159.414 87.253 159.459 88.299 154.384 88.299 154.382 88.627 152.795 88.625 152.795 87.574 152.894 88.665 147.597 88.668 147.594 90.067 140.803 90.796 137.262 92.254 130.192 94.522 138.376 95.765 142.861 95.772 142.883 95.772 142.888 97.71 149.881 97.71 149.883 98.266 151.889 97.035 152.004 98.411 156.967 98.411 156.969 98.801 158.375 98.079 158.443 99.933 165.133 98.971 165.223 98.968 165.223 101.275 173.545 99.697 173.695 99.695 173.695 101.348 179.653 85.677 181.127" fill="#213831"/>
        <polygon points="92.251 130.178 90.791 137.269 90.062 140.807 88.665 147.597 87.574 152.894 88.625 152.795 88.299 154.382 88.299 154.384 87.253 159.459 87.726 159.414 86.284 166.416 87.4 166.312 85.607 175.019 86.961 174.892 85.677 181.127 76.377 172.803 78.854 168.977 76.305 166.695 80.078 160.863 78.181 159.165 81.387 154.212 80.4 153.327 83.207 148.989 81.224 147.214 92.251 130.178" fill="#192924"/>
      </g>
      <g>
        <polygon points="82.673 213.024 82.465 213.527 82.352 213.489 82.673 213.024" fill="#21423d"/>
        <polygon points="82.673 213.024 82.465 213.527 82.352 213.489 82.673 213.024" fill="#21423d"/>
        <polygon points="82.673 213.024 82.465 213.527 82.352 213.489 82.673 213.024" fill="#2a4f48"/>
        <g>
          <polygon points="88.667 193.409 84.53 203.395 82.328 208.715 80.61 212.861 81.796 213.288 80.761 215.792 79.512 218.804 80.181 219.044 78.307 223.566 79.867 224.127 77.492 229.861 76.946 221.309 78.06 219.698 77.777 215.296 79.16 213.295 79.035 211.344 80.387 209.389 80.152 205.722 88.667 193.409" fill="#21423d"/>
          <polygon points="89.654 222.454 89.168 222.279 89.551 227.611 88.633 227.281 89.117 234.043 77.492 229.861 79.867 224.127 78.307 223.566 80.181 219.044 79.512 218.804 80.761 215.792 81.796 213.288 80.61 212.861 82.328 208.715 84.53 203.395 88.667 193.409 89.129 199.865 89.194 200.766 89.194 200.769 89.357 203.021 89.448 204.308 89.448 204.311 89.834 209.686 89.834 209.688 89.98 211.713 89.98 211.716 90.313 216.353 89.187 215.948 89.654 222.454" fill="#2a4f48"/>
          <polygon points="82.673 213.024 82.465 213.527 82.352 213.489 82.673 213.024" fill="#2a4f48"/>
          <polygon points="99.055 223.247 99.606 229.229 89.117 234.043 88.633 227.281 89.551 227.611 89.168 222.279 89.654 222.454 89.187 215.948 90.313 216.353 89.98 211.716 89.98 211.713 89.834 209.688 89.834 209.686 89.448 204.311 89.448 204.308 89.357 203.021 89.194 200.769 89.194 200.766 89.129 199.865 88.667 193.409 98.365 204.704 99.067 212.334 98.293 212.689 98.37 213.52 98.88 214.114 99.695 222.955 99.055 223.247" fill="#3e7063"/>
        </g>
      </g>
      <g>
        <polygon points="162.162 216.848 161.954 217.352 161.841 217.313 162.162 216.848" fill="#21423d"/>
        <polygon points="162.162 216.848 161.954 217.352 161.841 217.313 162.162 216.848" fill="#21423d"/>
        <polygon points="162.162 216.848 161.954 217.352 161.841 217.313 162.162 216.848" fill="#2a4f48"/>
        <g>
          <polygon points="168.156 197.234 164.019 207.22 161.817 212.54 160.099 216.685 161.285 217.112 160.25 219.616 159.001 222.629 159.67 222.868 157.796 227.39 159.356 227.951 156.981 233.686 156.435 225.133 157.549 223.522 157.266 219.12 158.649 217.119 158.524 215.169 159.876 213.213 159.641 209.546 168.156 197.234" fill="#21423d"/>
          <polygon points="169.143 226.278 168.656 226.103 169.04 231.436 168.122 231.105 168.606 237.868 156.981 233.686 159.356 227.951 157.796 227.39 159.67 222.868 159.001 222.629 160.25 219.616 161.285 217.112 160.099 216.685 161.817 212.54 164.019 207.22 168.156 197.234 168.618 203.69 168.683 204.591 168.683 204.593 168.846 206.846 168.937 208.133 168.937 208.135 169.323 213.51 169.323 213.513 169.469 215.538 169.469 215.54 169.802 220.177 168.676 219.772 169.143 226.278" fill="#2a4f48"/>
          <polygon points="162.162 216.848 161.954 217.352 161.841 217.313 162.162 216.848" fill="#2a4f48"/>
          <polygon points="178.544 227.072 179.095 233.053 168.606 237.868 168.122 231.105 169.04 231.436 168.656 226.103 169.143 226.278 168.676 219.772 169.802 220.177 169.469 215.54 169.469 215.538 169.323 213.513 169.323 213.51 168.937 208.135 168.937 208.133 168.846 206.846 168.683 204.593 168.683 204.591 168.618 203.69 168.156 197.234 177.854 208.528 178.556 216.158 177.782 216.513 177.859 217.344 178.369 217.939 179.184 226.779 178.544 227.072" fill="#3e7063"/>
        </g>
      </g>
      <g>
        <polygon points="49.603 195.914 49.603 218.875 49.068 218.732 49.068 227.496 48.86 227.439 48.86 239.187 38.753 236.491 33.699 228.465 38.646 221.577 36.999 218.958 40.51 214.068 38.667 211.14 49.603 195.914" fill="#1f3f33"/>
        <polygon points="57.778 233.994 48.86 239.018 48.86 227.439 49.068 227.496 49.068 218.732 49.603 218.875 49.603 196.021 56.036 215.126 53.815 216.378 56.167 223.361 54.511 224.294 57.778 233.994" fill="#468b72"/>
      </g>
      <g>
        <polygon points="277.937 7.978 277.937 30.939 277.402 30.796 277.402 39.56 277.193 39.503 277.193 51.251 267.086 48.555 262.033 40.529 266.979 33.641 265.333 31.022 268.843 26.132 267 23.204 277.937 7.978" fill="#1f3f33"/>
        <polygon points="286.111 46.058 277.193 51.082 277.193 39.503 277.402 39.56 277.402 30.796 277.937 30.939 277.937 8.085 284.369 27.19 282.149 28.442 284.5 35.425 282.845 36.358 286.111 46.058" fill="#468b72"/>
      </g>
      <g>
        <polygon points="360.419 82.469 355.038 92.256 353.387 86.298 354.965 86.148 352.661 77.826 353.623 77.736 351.769 71.046 352.491 70.978 352.101 69.572 352.101 69.57 350.725 64.607 351.957 64.492 351.4 62.486 351.4 62.484 349.462 55.491 349.462 55.486 349.455 55.464 348.214 50.981 348.212 50.979 345.946 42.795 355.631 57.813 354.245 60.333 356.457 63.765 355.694 65.153 358.311 69.21 357.127 71.365 360.349 76.361 358.567 79.599 360.419 82.469" fill="#3d5f54"/>
        <polygon points="339.367 93.73 340.653 87.495 340.651 87.495 339.297 87.622 341.092 78.915 341.09 78.915 339.974 79.019 341.418 72.017 341.416 72.017 340.943 72.062 341.989 66.987 341.989 66.984 342.317 65.397 342.315 65.397 341.264 65.497 342.355 60.2 342.358 60.197 343.757 53.406 344.486 49.865 345.944 42.795 348.212 50.979 349.455 55.464 349.462 55.486 349.462 55.491 351.4 62.484 351.4 62.486 351.957 64.492 350.725 64.607 352.101 69.57 352.101 69.572 352.491 70.978 351.769 71.046 353.623 77.736 352.661 77.826 352.658 77.826 354.965 86.148 353.387 86.298 353.385 86.298 355.038 92.256 339.367 93.73" fill="#213831"/>
        <polygon points="345.941 42.781 344.481 49.872 343.752 53.41 342.355 60.2 341.264 65.497 342.315 65.397 341.989 66.984 341.989 66.987 340.943 72.062 341.416 72.017 339.974 79.019 341.09 78.915 339.297 87.622 340.651 87.495 339.367 93.73 330.067 85.406 332.544 81.58 329.995 79.298 333.769 73.466 331.871 71.768 335.077 66.815 334.09 65.929 336.897 61.592 334.914 59.817 345.941 42.781" fill="#192924"/>
      </g>
      <g>
        <g>
          <path d="M436.555,366.153l.873-.212v-5.468l-8.6-22.012-.384.147-.236.082H428.2l-.3-.123-.008.017-.008.032-8.561,21.816-.025,5.615.865.212-4.48,10.227-.033,5.264,11.451,3.012.2-.792-9.509-2.5,10.137-3.828.106,11.181.816-.008-.106-11.3,10.178,3.845-9.508,2.5.2.792,11.45-3.012v-5.183Zm-16.446-5.5,1.739-4.431-1.739,5.076Zm0,4.759v-1.592l.261-.767.009-.016,1.567-3.257,1.518-1.085-.4.93-.049.1-2.53,5.778Zm5.664-2.465.531.922-.147.245Zm.433,3.942-.7-.171.424-.678Zm-1.534-.375-2.89-.694,1.959-5.705.2-.155,1.657,5.06Zm-.458.734-5.394,8.717v.008l-.572.1,3.265-9.484Zm-4.472,2.008.979-2.857.245.057-1.224,2.8-2.408,6.986-.71.131Zm-1.632,7.859-.49.8.269-.775Zm-1.649.155.539-.049-.539,1.559Zm11.4-.481-2.114.808,2.114-1Zm0-.58-1.38.131-9.8,4.644,2.449-3.958,7.353-.686,1.38-.653Zm0-.816-2.653.245,1.641-.3,1.012-.2Zm0-1.1-7.958,1.478,5.15-8.317,1.453.351,1.355,4.13Zm0-4.978-.425-1.281.425.106Zm0-2.024-.718-.172-.653-1.991.277-.449,1.094,1.91Zm0-2.343-.6-1.052.6-.988Zm0-3.591-1.069,1.731-2.131-3.73,2.718-2.236.482-.115Zm-3.4-2.881.311-.71.032-.024.767-.188Zm3.4-2.309-3.33.8-2.734,1.918,6.064-17.718Zm12.234,20.11-.718-.131-2.408-7.011Zm-1,1.534-.49-.8.221.017v.008Zm-.628-1.836-.572-.106-5.394-8.733,2.7-.653Zm-7.672-10.047.424.685-.71.172Zm-.384-2.163.531-.922L430.556,364Zm.71,1.151,1.657-5.068.2.163,1.959,5.705-2.881.693Zm1.437-5.762.057.016v.016Zm4.056,6.154-.384.089-2.546-5.811-.016-.057-.009-.008-.408-.93,1.519,1.085,1.558,3.232.017.033.269.8Zm0-4.759v.661l-1.779-5.19Zm-7.933-20,6.235,18.216-2.587-1.844-3.648-.914Zm3.583,17.816-1.118-.922.767.188.041.032Zm-3.583-1.518.653.155,2.718,2.245-2.122,3.721-1.135-1.828-.114.074Zm0,5.656.784,1.273-.784,1.38Zm0,4.277.114-.2,1.159-2.016.278.449-.661,2-.466.106-.016.009-.408.1Zm0,1.281.6-.147-.6,1.812Zm0,4.31.09-.286v-.008l1.444-4.391,1.453-.351,5.15,8.333-6.79-1.241-1.347-.269Zm0,2.611,3.061.563-3.061-.277Zm.057,1.657-.008-.22,2.244,1.069Zm1.494-.416,7.353.685,2.449,3.967Zm10.022,2.448-.539-1.559.539.049Z" transform="translate(-17.543 -92.324)" fill="#010101"/>
          <g>
            <polygon points="405.52 267.3 405.471 267.398 405.504 267.309 405.52 267.3" fill="#010101"/>
            <polygon points="406.598 266.941 406.557 266.958 406.565 266.949 406.598 266.941" fill="#010101"/>
          </g>
          <polygon points="406.598 266.941 406.557 266.958 406.565 266.949 406.598 266.941" fill="#010101"/>
        </g>
        <g>
          <polygon points="415.069 266.843 415.069 266.86 415.012 266.827 415.069 266.843" fill="#010101"/>
          <polygon points="415.069 266.843 415.069 266.86 415.012 266.827 415.069 266.843" fill="#010101"/>
        </g>
      </g>
      <g>
        <g>
          <path d="M395.851,347.886l.934-.227v-5.85l-9.2-23.547-.41.158-.254.087h-.008l-.323-.131-.009.017-.009.035-9.159,23.338-.026,6.007.926.227-4.793,10.939-.035,5.632,12.249,3.221.218-.846-10.171-2.672,10.843-4.1.114,11.961.873-.008-.113-12.084,10.887,4.112-10.171,2.672.218.847,12.249-3.222v-5.544ZM378.258,342l1.86-4.741-1.86,5.43Zm0,5.09v-1.7l.28-.821.008-.017,1.677-3.484,1.624-1.161-.428,1-.052.1-2.707,6.182Zm6.06-2.637.567.986-.157.262Zm.462,4.217-.751-.183.454-.725Zm-1.641-.4-3.091-.742,2.1-6.1.209-.166,1.772,5.414Zm-.489.786-5.771,9.325v.008l-.611.105,3.492-10.145Zm-4.785,2.148,1.048-3.056.262.061-1.31,3-2.575,7.473-.76.14Zm-1.746,8.408-.523.855.288-.829Zm-1.763.165.576-.052-.576,1.668Zm12.2-.515-2.262.865,2.262-1.074Zm0-.619-1.476.139-10.486,4.968,2.62-4.234,7.866-.734,1.476-.7Zm0-.874-2.838.262,1.755-.323,1.083-.218Zm0-1.178-8.513,1.58,5.509-8.9,1.554.376,1.45,4.418Zm0-5.326-.454-1.371.454.114Zm0-2.165-.769-.184-.7-2.13.3-.48,1.17,2.043Zm0-2.506-.646-1.126.646-1.057Zm0-3.842-1.144,1.851-2.279-3.99,2.908-2.392.515-.122Zm-3.641-3.082.332-.759.035-.026.82-.2Zm3.641-2.47-3.562.855-2.925,2.052,6.487-18.955Zm13.087,21.512-.768-.139-2.576-7.5Zm-1.074,1.642-.524-.856.236.018v.008Zm-.672-1.965-.611-.113-5.771-9.342,2.89-.7Zm-8.207-10.747.454.733-.76.183Zm-.41-2.314.567-.987-.41,1.24Zm.759,1.231,1.773-5.422.209.175,2.1,6.1-3.082.742Zm1.537-6.164.061.018v.017Zm4.339,6.583-.41.1-2.724-6.216-.018-.061-.008-.009-.437-1,1.624,1.161,1.668,3.457.017.035.288.856Zm0-5.09v.707l-1.9-5.553Zm-8.486-21.39,6.67,19.487-2.768-1.973-3.9-.978Zm3.833,19.059-1.2-.987.821.2.044.035Zm-3.833-1.624.7.166,2.908,2.4-2.27,3.981-1.214-1.956-.122.079Zm0,6.05.838,1.362-.838,1.476Zm0,4.575.122-.218,1.24-2.156.3.48-.708,2.139-.5.113-.018.009-.436.1Zm0,1.371.637-.157-.637,1.938Zm0,4.61.1-.306v-.008l1.545-4.7,1.554-.376,5.509,8.914-7.264-1.327-1.44-.288Zm0,2.794,3.274.6-3.274-.3Zm.061,1.772-.009-.235,2.4,1.143Zm1.6-.445,7.866.733,2.619,4.244Zm10.721,2.619-.576-1.667.576.052Z" transform="translate(-17.543 -92.324)" fill="#010101"/>
          <g>
            <polygon points="363.876 248.578 363.823 248.683 363.858 248.586 363.876 248.578" fill="#010101"/>
            <polygon points="365.028 248.194 364.984 248.211 364.993 248.202 365.028 248.194" fill="#010101"/>
          </g>
          <polygon points="365.028 248.194 364.984 248.211 364.993 248.202 365.028 248.194" fill="#010101"/>
        </g>
        <g>
          <polygon points="374.091 248.089 374.091 248.106 374.029 248.071 374.091 248.089" fill="#010101"/>
          <polygon points="374.091 248.089 374.091 248.106 374.029 248.071 374.091 248.089" fill="#010101"/>
        </g>
      </g>
      <g>
        <g>
          <path d="M408.146,290.8l.934-.227v-5.85l-9.2-23.547-.41.157-.254.087h-.008l-.324-.13-.008.017-.009.035-9.159,23.337-.026,6.007.926.227-4.794,10.94-.035,5.631,12.25,3.222.218-.847-10.171-2.671,10.843-4.095.114,11.961.873-.009-.114-12.083,10.888,4.112-10.172,2.672.219.847,12.249-3.222V301.83Zm-17.593-5.885,1.86-4.741-1.86,5.431Zm0,5.09v-1.7l.28-.821.008-.017,1.677-3.484,1.624-1.161-.428,1-.053.105-2.706,6.181Zm6.06-2.636.567.986-.157.262Zm.462,4.217-.751-.184.454-.724Zm-1.641-.4-3.091-.742,2.1-6.1.209-.166,1.772,5.413Zm-.489.786-5.771,9.324v.009l-.611.105,3.492-10.145Zm-4.785,2.147,1.048-3.055.262.061-1.31,2.994-2.575,7.474-.76.14Zm-1.746,8.408-.524.856.288-.83Zm-1.763.166.576-.052-.576,1.667Zm12.2-.515-2.262.864,2.262-1.074Zm0-.62-1.476.14-10.486,4.968,2.62-4.235,7.866-.733,1.476-.7Zm0-.873-2.838.262,1.755-.323,1.083-.218Zm0-1.179-8.513,1.581,5.509-8.9,1.554.375,1.45,4.418Zm0-5.325-.454-1.371.454.113Zm0-2.166-.769-.183-.7-2.13.3-.481,1.17,2.044Zm0-2.5-.647-1.127.647-1.056Zm0-3.842L397.7,287.52l-2.279-3.99,2.907-2.392.516-.123Zm-3.641-3.082.332-.76.035-.026.82-.2Zm3.641-2.471-3.563.856-2.924,2.052,6.487-18.955Zm13.087,21.513-.768-.14-2.576-7.5Zm-1.074,1.641-.524-.855.236.017v.009Zm-.672-1.964-.611-.114-5.771-9.342,2.89-.7Zm-8.207-10.748.454.734-.76.183Zm-.41-2.313.567-.987-.41,1.24Zm.759,1.231,1.773-5.422.209.174,2.1,6.1-3.082.742Zm1.537-6.164.061.017v.018Zm4.339,6.583-.41.1-2.724-6.217-.018-.061-.009-.008-.436-1,1.624,1.161,1.667,3.458.018.035.288.855Zm0-5.09v.707l-1.9-5.553Zm-8.486-21.391,6.67,19.487-2.768-1.973-3.9-.978Zm3.832,19.06-1.2-.987.821.2.044.035Zm-3.832-1.624.7.165,2.907,2.4-2.27,3.982-1.213-1.956-.122.079Zm0,6.05.838,1.362-.838,1.476Zm0,4.575.122-.218,1.24-2.157.3.48-.708,2.139-.5.114-.018.009-.436.1Zm0,1.371.637-.157-.637,1.938Zm0,4.61.1-.306v-.009l1.545-4.7,1.554-.375,5.509,8.914-7.264-1.327-1.44-.288Zm0,2.794,3.274.6-3.274-.3Zm.061,1.772-.009-.236,2.4,1.144Zm1.6-.445,7.866.733,2.619,4.243ZM412.1,304.2l-.576-1.668.576.053Z" transform="translate(-17.543 -92.324)" fill="#010101"/>
          <g>
            <polygon points="376.17 191.494 376.118 191.599 376.153 191.503 376.17 191.494" fill="#010101"/>
            <polygon points="377.323 191.11 377.279 191.128 377.288 191.119 377.323 191.11" fill="#010101"/>
          </g>
          <polygon points="377.323 191.11 377.279 191.128 377.288 191.119 377.323 191.11" fill="#010101"/>
        </g>
        <g>
          <polygon points="386.385 191.005 386.385 191.023 386.324 190.988 386.385 191.005" fill="#010101"/>
          <polygon points="386.385 191.005 386.385 191.023 386.324 190.988 386.385 191.005" fill="#010101"/>
        </g>
      </g>
      <g>
        <g>
          <path d="M409.575,194.638l1.087-.264v-6.8l-10.7-27.386-.478.183-.294.1h-.01l-.376-.153-.01.021-.01.04L388.13,187.52l-.03,6.986,1.076.264L383.6,207.493l-.041,6.549,14.246,3.747.254-.985L386.232,213.7l12.611-4.763.132,13.911,1.015-.01-.132-14.053,12.662,4.783-11.829,3.107.254.985,14.246-3.747v-6.448Zm-20.46-6.844,2.163-5.514-2.163,6.316Zm0,5.92v-1.98l.325-.955.01-.02,1.95-4.052,1.888-1.35-.5,1.158-.061.121-3.148,7.189Zm7.047-3.067.66,1.148-.183.3Zm.538,4.905-.873-.214.528-.842Zm-1.909-.467-3.594-.864,2.437-7.1.243-.193,2.062,6.295Zm-.568.913-6.712,10.845v.01l-.711.122,4.062-11.8Zm-5.565,2.5,1.219-3.554.3.071-1.523,3.483-3,8.692-.884.162Zm-2.031,9.778-.609,1,.335-.965Zm-2.051.193.671-.061-.671,1.94Zm14.185-.6-2.629,1.006,2.629-1.249Zm0-.721-1.716.163-12.195,5.777,3.047-4.924,9.148-.853,1.716-.812Zm0-1.015-3.3.305,2.041-.376,1.259-.254Zm0-1.371-9.9,1.838,6.407-10.347,1.808.437,1.685,5.138Zm0-6.194-.528-1.594.528.132Zm0-2.518-.893-.213-.812-2.478.345-.558,1.36,2.376Zm0-2.914-.751-1.31.751-1.229Zm0-4.468-1.33,2.153-2.65-4.641,3.381-2.782.6-.142Zm-4.234-3.584.386-.884.041-.03.954-.234Zm4.234-2.874-4.142,1-3.4,2.387,7.544-22.045Zm15.221,25.02-.893-.163-3-8.722Zm-1.249,1.909-.609-1,.274.021v.01Zm-.782-2.285-.71-.132-6.712-10.865,3.361-.812Zm-9.544-12.5.528.853-.884.214Zm-.478-2.69.661-1.148-.478,1.442Zm.884,1.431,2.061-6.305.244.2,2.437,7.1-3.585.863Zm1.787-7.168.071.02v.02Zm5.046,7.656-.477.111L406,186.464l-.02-.071-.01-.01-.508-1.158,1.889,1.35,1.939,4.021.02.041.335,1Zm0-5.92v.822l-2.213-6.457Zm-9.869-24.877,7.757,22.663-3.218-2.294-4.539-1.138Zm4.457,22.166-1.391-1.148.955.234.051.041Zm-4.457-1.889.812.193,3.381,2.792-2.64,4.631-1.411-2.275-.142.092Zm0,7.037.975,1.584-.975,1.716Zm0,5.321.142-.254,1.442-2.508.345.558-.822,2.488-.579.132-.02.01-.508.122Zm0,1.594.741-.183-.741,2.254Zm0,5.361.112-.355v-.011l1.8-5.462,1.807-.437,6.407,10.367-8.448-1.543-1.675-.335Zm0,3.249,3.808.7-3.808-.345Zm.071,2.062-.01-.275,2.792,1.331Zm1.858-.518,9.149.853,3.046,4.934Zm12.469,3.046-.67-1.94.67.061Z" transform="translate(-17.543 -92.324)" fill="#010101"/>
          <g>
            <polygon points="375.247 94.191 375.187 94.313 375.227 94.201 375.247 94.191" fill="#010101"/>
            <polygon points="376.588 93.744 376.537 93.764 376.547 93.754 376.588 93.744" fill="#010101"/>
          </g>
          <polygon points="376.588 93.744 376.537 93.764 376.547 93.754 376.588 93.744" fill="#010101"/>
        </g>
        <g>
          <polygon points="387.128 93.622 387.128 93.643 387.057 93.602 387.128 93.622" fill="#010101"/>
          <polygon points="387.128 93.622 387.128 93.643 387.057 93.602 387.128 93.622" fill="#010101"/>
        </g>
      </g>
      <g>
        <g>
          <path d="M346.386,205.529l.9-.219v-5.659l-8.9-22.78-.4.152-.245.085h-.008l-.313-.127-.008.017-.009.034-8.86,22.576-.025,5.811.895.22-4.637,10.583-.034,5.448,11.85,3.117.212-.82-9.84-2.584,10.49-3.961.11,11.571.844-.009L338.3,217.3l10.532,3.978L339,223.858l.211.819,11.85-3.117V216.2Zm-17.02-5.692,1.8-4.587-1.8,5.254Zm0,4.924v-1.647l.271-.794.008-.017,1.622-3.37,1.571-1.124-.414.963-.051.1-2.618,5.98Zm5.862-2.551.549.954-.152.254Zm.448,4.079-.727-.177.44-.7Zm-1.588-.388-2.99-.718,2.027-5.9.2-.16,1.714,5.236Zm-.473.76-5.583,9.021v.008l-.591.1,3.378-9.814Zm-4.629,2.078L330,205.783l.253.059-1.267,2.9-2.491,7.23-.735.135Zm-1.689,8.134-.507.827.279-.8Zm-1.706.16.558-.051-.558,1.614Zm11.8-.5-2.187.836,2.187-1.039Zm0-.6-1.427.135-10.144,4.806,2.534-4.1,7.61-.71,1.427-.676Zm0-.845-2.745.254,1.7-.313,1.047-.211Zm0-1.14-8.235,1.529,5.33-8.607,1.5.363,1.4,4.274Zm0-5.152-.439-1.326.439.11Zm0-2.095-.743-.177-.676-2.061.288-.464,1.131,1.976Zm0-2.424-.625-1.089.625-1.022Zm0-3.716-1.106,1.79-2.2-3.859,2.813-2.315.5-.118Zm-3.522-2.982.321-.734.034-.026.794-.194Zm3.522-2.39-3.446.828L331.115,198l6.275-18.337ZM350.051,216l-.743-.136-2.492-7.255Zm-1.039,1.587-.506-.827.228.017v.008Zm-.65-1.9-.591-.11-5.583-9.037,2.8-.676Zm-7.939-10.4.439.709-.735.178Zm-.4-2.238.549-.955-.4,1.2Zm.734,1.19L342.475,199l.2.169,2.027,5.9-2.982.718Zm1.487-5.963.059.017v.017Zm4.2,6.369-.4.093-2.635-6.014-.017-.059-.009-.008-.422-.963,1.571,1.123,1.613,3.345.017.033.279.828Zm0-4.924v.684l-1.842-5.372Zm-8.21-20.693,6.453,18.851-2.678-1.908-3.775-.946Zm3.708,18.438-1.157-.955.794.194.042.034Zm-3.708-1.571.676.16,2.812,2.323-2.2,3.851-1.174-1.892-.118.076Zm0,5.853.811,1.317-.811,1.428Zm0,4.426.118-.212,1.2-2.086.287.465-.684,2.069-.482.11-.017.008-.422.1Zm0,1.326.617-.152-.617,1.875Zm0,4.459.093-.3v-.009l1.5-4.544,1.5-.363,5.33,8.624-7.027-1.284-1.394-.279Zm0,2.7,3.167.583-3.167-.287Zm.059,1.715-.008-.228,2.322,1.106Zm1.546-.431,7.61.709,2.534,4.1Zm10.372,2.534-.558-1.613.558.05Z" transform="translate(-17.543 -92.324)" fill="#010101"/>
          <g>
            <polygon points="314.881 106.449 314.83 106.55 314.864 106.457 314.881 106.449" fill="#010101"/>
            <polygon points="315.996 106.077 315.953 106.094 315.962 106.085 315.996 106.077" fill="#010101"/>
          </g>
          <polygon points="315.996 106.077 315.953 106.094 315.962 106.085 315.996 106.077" fill="#010101"/>
        </g>
        <g>
          <polygon points="324.763 105.976 324.763 105.993 324.704 105.959 324.763 105.976" fill="#010101"/>
          <polygon points="324.763 105.976 324.763 105.993 324.704 105.959 324.763 105.976" fill="#010101"/>
        </g>
      </g>
      <g>
        <g>
          <path d="M208.528,228.1l.812-.2v-5.087l-8-20.477-.357.137-.22.076h-.008l-.281-.114-.007.015-.008.031-7.964,20.294L192.47,228l.805.2-4.168,9.513-.031,4.9,10.652,2.8.19-.737-8.845-2.323,9.43-3.561.1,10.4.76-.008-.1-10.508,9.468,3.576-8.845,2.323.189.737,10.652-2.8v-4.821Zm-15.3-5.117,1.617-4.123-1.617,4.723Zm0,4.426v-1.48l.243-.714.008-.015,1.458-3.03,1.412-1.009-.372.865-.046.091-2.353,5.376Zm5.269-2.293.494.858-.137.228Zm.4,3.667-.653-.159.4-.63Zm-1.428-.349-2.687-.645,1.822-5.307.182-.145,1.541,4.708Zm-.425.683-5.018,8.109v.008l-.532.091,3.037-8.823Zm-4.16,1.868.911-2.657.227.053-1.138,2.6-2.24,6.5-.661.122Zm-1.519,7.312-.455.744.25-.722Zm-1.534.144.5-.046-.5,1.45Zm10.607-.448-1.966.752,1.966-.934Zm0-.539-1.283.121-9.119,4.32,2.278-3.682,6.841-.638,1.283-.607Zm0-.759-2.468.227,1.527-.281.941-.189Zm0-1.025-7.4,1.374,4.791-7.737,1.352.327,1.26,3.841Zm0-4.632-.4-1.192.4.1Zm0-1.883-.668-.159-.608-1.853.259-.417,1.017,1.776Zm0-2.179L199.88,226l.562-.919Zm0-3.34-1,1.609-1.981-3.469,2.528-2.081.448-.106Zm-3.166-2.68.289-.661.03-.023.714-.174Zm3.166-2.149-3.1.744-2.543,1.784,5.641-16.483Zm11.381,18.708-.668-.122-2.24-6.522Zm-.934,1.427-.456-.744.205.015v.008Zm-.585-1.708-.531-.1-5.019-8.124,2.513-.607Zm-7.136-9.347.394.638-.66.16Zm-.357-2.011.493-.858-.357,1.078Zm.66,1.07,1.542-4.715.182.152,1.822,5.307-2.68.645Zm1.337-5.36.053.015v.015Zm3.773,5.724-.357.084-2.369-5.406-.015-.053-.008-.008-.379-.865,1.412,1.01,1.45,3.006.015.031.251.744Zm0-4.426v.615l-1.655-4.829Zm-7.38-18.6,5.8,16.946-2.407-1.716-3.394-.85Zm3.333,16.574-1.04-.858.714.175.038.03Zm-3.333-1.412.608.144,2.528,2.088-1.974,3.462-1.056-1.7-.106.069Zm0,5.261.729,1.185-.729,1.283Zm0,3.979.106-.19,1.079-1.875.258.417-.615,1.86-.433.1-.015.008-.38.091Zm0,1.192.554-.137-.554,1.686Zm0,4.008.084-.265v-.008l1.344-4.085,1.351-.326,4.791,7.752-6.317-1.154-1.253-.251Zm0,2.43,2.847.524-2.847-.258Zm.053,1.541-.007-.2,2.088.995Zm1.39-.387,6.84.638,2.278,3.69Zm9.323,2.278-.5-1.45.5.045Z" transform="translate(-17.543 -92.324)" fill="#010101"/>
          <g>
            <polygon points="178.434 129.702 178.389 129.794 178.419 129.71 178.434 129.702" fill="#010101"/>
            <polygon points="179.436 129.368 179.398 129.384 179.406 129.376 179.436 129.368" fill="#010101"/>
          </g>
          <polygon points="179.436 129.368 179.398 129.384 179.406 129.376 179.436 129.368" fill="#010101"/>
        </g>
        <g>
          <polygon points="187.317 129.277 187.317 129.292 187.264 129.262 187.317 129.277" fill="#010101"/>
          <polygon points="187.317 129.277 187.317 129.292 187.264 129.262 187.317 129.277" fill="#010101"/>
        </g>
      </g>
      <g>
        <g>
          <path d="M179.874,266.3l.66-.161V262.01l-6.5-16.639-.29.111-.179.062h-.006l-.229-.092-.006.012-.006.025-6.472,16.49-.018,4.244.654.161-3.387,7.73-.025,3.979,8.656,2.276.154-.6-7.187-1.888,7.662-2.893.08,8.452.617-.007-.08-8.538,7.693,2.906-7.187,1.888.154.6,8.655-2.276V274.1Zm-12.431-4.159,1.314-3.349-1.314,3.837Zm0,3.6v-1.2l.2-.58.006-.012,1.185-2.462,1.147-.82-.3.7-.037.074-1.912,4.368Zm4.281-1.863.4.7-.111.185Zm.327,2.98-.53-.13.321-.512Zm-1.16-.284-2.183-.524,1.48-4.313.148-.117,1.253,3.825Zm-.345.555-4.078,6.589v.006l-.432.074,2.468-7.169Zm-3.381,1.518.741-2.159.185.043-.926,2.116-1.82,5.281-.536.1Zm-1.234,5.941-.37.6.2-.586Zm-1.246.117.407-.037-.407,1.178Zm8.619-.364-1.6.611,1.6-.759Zm0-.438-1.043.1-7.409,3.51,1.851-2.992,5.558-.518,1.043-.494Zm0-.617-2,.185,1.24-.228.765-.154Zm0-.833-6.015,1.117,3.892-6.287,1.1.266,1.024,3.121Zm0-3.763-.321-.969.321.081Zm0-1.53-.543-.13-.494-1.5.21-.339.827,1.443Zm0-1.771-.457-.795.457-.747Zm0-2.714-.808,1.308-1.611-2.819,2.055-1.691.364-.086Zm-2.573-2.178.235-.536.024-.019.58-.142Zm2.573-1.746-2.517.605-2.067,1.45,4.584-13.394Zm9.247,15.2-.543-.1-1.819-5.3Zm-.758,1.16-.371-.6.167.012v.006Zm-.476-1.388-.431-.08-4.078-6.6,2.042-.494Zm-5.8-7.594.321.518-.537.13Zm-.29-1.635.4-.7-.29.876Zm.537.87,1.253-3.831.148.123,1.48,4.312-2.178.525Zm1.086-4.356.043.013v.012Zm3.066,4.652-.29.068-1.925-4.393-.012-.043-.006-.006-.309-.7,1.148.82,1.178,2.443.012.025.2.6Zm0-3.6v.5l-1.345-3.924Zm-6-15.114,4.713,13.769-1.956-1.394-2.757-.691Zm2.708,13.467-.845-.7.58.142.03.025Zm-2.708-1.147.493.117,2.054,1.7-1.6,2.813-.857-1.381-.086.055Zm0,4.275.592.962-.592,1.043Zm0,3.233.086-.155.876-1.524.21.34-.5,1.511-.352.08-.012.007-.308.074Zm0,.968.45-.111-.45,1.37Zm0,3.257.067-.215v-.007l1.092-3.319,1.1-.265,3.892,6.3-5.132-.938-1.018-.2Zm0,1.975,2.313.425-2.313-.209Zm.043,1.252-.006-.167,1.7.809Zm1.129-.315,5.558.519,1.851,3Zm7.576,1.851-.408-1.178.408.037Z" transform="translate(-17.543 -92.324)" fill="#010101"/>
          <g>
            <polygon points="152.133 169.044 152.096 169.118 152.12 169.051 152.133 169.044" fill="#010101"/>
            <polygon points="152.947 168.773 152.916 168.785 152.922 168.779 152.947 168.773" fill="#010101"/>
          </g>
          <polygon points="152.947 168.773 152.916 168.785 152.922 168.779 152.947 168.773" fill="#010101"/>
        </g>
        <g>
          <polygon points="159.351 168.699 159.351 168.711 159.308 168.687 159.351 168.699" fill="#010101"/>
          <polygon points="159.351 168.699 159.351 168.711 159.308 168.687 159.351 168.699" fill="#010101"/>
        </g>
      </g>
      <g>
        <g>
          <path d="M190.678,356.231l.782-.19v-4.9l-7.7-19.708-.343.131-.212.073H183.2l-.271-.109-.007.014-.007.029-7.666,19.534-.022,5.028.775.19-4.012,9.156-.03,4.714,10.253,2.7.183-.709-8.514-2.236,9.076-3.427.1,10.011.73-.007-.095-10.114,9.113,3.442-8.513,2.236.182.709,10.253-2.7V365.46Zm-14.725-4.926,1.556-3.968-1.556,4.545Zm0,4.261v-1.425l.234-.687.007-.015,1.4-2.916,1.359-.972-.358.833-.044.088-2.265,5.174Zm5.071-2.207.475.825-.131.22Zm.388,3.529-.629-.153.38-.607Zm-1.374-.336-2.587-.621,1.754-5.108.175-.139,1.483,4.531Zm-.41.658-4.83,7.8v.008l-.511.087,2.923-8.491Zm-4,1.8.877-2.557.219.051-1.1,2.506-2.156,6.256-.636.117Zm-1.462,7.038-.438.716.241-.694Zm-1.476.139.483-.044-.483,1.4Zm10.209-.431-1.893.723,1.893-.9Zm0-.519-1.235.117-8.777,4.158,2.193-3.545,6.584-.613,1.235-.585Zm0-.731-2.375.219,1.469-.27.906-.183Zm0-.987-7.125,1.323,4.611-7.446,1.3.314,1.213,3.7Zm0-4.457-.38-1.148.38.095Zm0-1.813-.643-.153-.585-1.783.249-.4.979,1.71Zm0-2.1-.541-.943.541-.884Zm0-3.215-.957,1.549-1.908-3.34,2.434-2,.431-.1Zm-3.047-2.58.277-.636.03-.022.687-.168Zm3.047-2.068-2.981.716-2.449,1.717,5.43-15.865Zm10.954,18.006-.643-.117L191.05,358.9Zm-.9,1.374-.438-.716.2.014v.008Zm-.562-1.644-.512-.095-4.83-7.819,2.419-.585Zm-6.87-9,.381.614-.636.153Zm-.343-1.937.475-.825-.343,1.037Zm.636,1.031,1.483-4.538.176.146,1.754,5.108-2.58.621Zm1.286-5.159.051.014v.015Zm3.632,5.51-.344.08-2.28-5.2-.014-.051-.007-.008-.366-.833,1.359.972,1.4,2.894.015.029.241.716Zm0-4.261v.592l-1.593-4.648Zm-7.1-17.9,5.583,16.311-2.317-1.651-3.266-.819Zm3.208,15.953-1-.826.687.168.036.03Zm-3.208-1.359.584.139,2.434,2.009-1.9,3.333-1.016-1.637-.1.065Zm0,5.064.7,1.14-.7,1.235Zm0,3.829.1-.182,1.038-1.805.248.4L184.422,357l-.416.1-.015.007-.365.088Zm0,1.148.533-.132-.533,1.622Zm0,3.858.08-.256v-.007L185,357.6l1.3-.314,4.612,7.461-6.08-1.11-1.206-.242Zm0,2.339,2.74.5-2.74-.249Zm.051,1.483-.007-.2,2.009.957Zm1.337-.373,6.585.614,2.192,3.552Zm8.974,2.193-.482-1.4.482.044Z" transform="translate(-17.543 -92.324)" fill="#010101"/>
          <g>
            <polygon points="161.055 258.061 161.011 258.148 161.04 258.068 161.055 258.061" fill="#010101"/>
            <polygon points="162.019 257.739 161.983 257.754 161.99 257.746 162.019 257.739" fill="#010101"/>
          </g>
          <polygon points="162.019 257.739 161.983 257.754 161.99 257.746 162.019 257.739" fill="#010101"/>
        </g>
        <g>
          <polygon points="169.605 257.651 169.605 257.666 169.554 257.637 169.605 257.651" fill="#010101"/>
          <polygon points="169.605 257.651 169.605 257.666 169.554 257.637 169.605 257.651" fill="#010101"/>
        </g>
      </g>
      <g>
        <g>
          <path d="M86.171,274.557l.782-.19v-4.9l-7.7-19.709-.344.132-.211.073h-.008l-.27-.11-.008.015-.007.029-7.666,19.534-.022,5.027.775.19-4.012,9.157-.029,4.713,10.253,2.7.182-.709-8.513-2.236,9.076-3.427.095,10.011.731-.007-.095-10.114,9.112,3.442-8.513,2.236.183.709,10.252-2.7v-4.64Zm-14.725-4.925L73,265.664l-1.557,4.545Zm0,4.26v-1.425l.234-.686.007-.015,1.4-2.916,1.36-.972-.358.833-.044.088-2.266,5.174Zm5.072-2.206.475.825-.132.22Zm.387,3.529-.628-.153.38-.607Zm-1.374-.336-2.587-.621L74.7,269.15l.176-.139,1.483,4.531Zm-.409.658-4.83,7.8v.008l-.512.087,2.923-8.491Zm-4,1.8.877-2.557.22.051-1.1,2.506-2.155,6.256-.636.117Zm-1.461,7.038-.439.716.241-.694Zm-1.476.139.482-.044-.482,1.4Zm10.209-.432L76.5,284.8l1.893-.9Zm0-.518-1.235.116-8.777,4.159,2.192-3.545,6.585-.614,1.235-.584Zm0-.731-2.375.219,1.468-.27.907-.183Zm0-.987-7.125,1.323,4.611-7.447,1.3.315,1.214,3.7Zm0-4.457-.38-1.148.38.1Zm0-1.813-.644-.153-.584-1.783.248-.4.98,1.71Zm0-2.1-.541-.943.541-.884Zm0-3.215-.958,1.549-1.907-3.34,2.433-2,.432-.1Zm-3.048-2.58.278-.636.029-.022.687-.168Zm3.048-2.068-2.982.716-2.448,1.717,5.43-15.865Zm10.954,18.006L88.7,283.5l-2.156-6.277Zm-.9,1.374-.438-.716.2.014v.008Zm-.563-1.644-.511-.095-4.831-7.82,2.419-.584Zm-6.869-9,.38.614-.636.153Zm-.343-1.937.475-.825-.344,1.037Zm.635,1.031,1.484-4.538.175.146,1.754,5.108-2.58.621Zm1.287-5.16.051.015v.015Zm3.631,5.51-.343.081-2.28-5.2-.015-.051-.007-.008-.365-.833,1.359.972,1.4,2.894.014.029.241.716Zm0-4.26v.592l-1.593-4.648Zm-7.1-17.9L84.7,267.944l-2.316-1.652-3.267-.818Zm3.208,15.953-1-.826.687.168.037.029Zm-3.208-1.359.585.138,2.433,2.01-1.9,3.332-1.015-1.637-.1.066Zm0,5.064.7,1.14-.7,1.235Zm0,3.829.1-.183,1.037-1.805.249.4-.592,1.791-.417.1-.014.007-.366.088Zm0,1.147.534-.131-.534,1.622Zm0,3.859.081-.256v-.007l1.293-3.932,1.3-.314,4.611,7.461-6.08-1.111-1.206-.241Zm0,2.338,2.741.5-2.741-.249Zm.051,1.484-.007-.2,2.01.957Zm1.338-.373,6.584.614,2.192,3.552Zm8.974,2.192L89,284.372l.483.044Z" transform="translate(-17.543 -92.324)" fill="#010101"/>
          <g>
            <polygon points="56.548 176.388 56.504 176.475 56.534 176.395 56.548 176.388" fill="#010101"/>
            <polygon points="57.513 176.066 57.476 176.081 57.484 176.073 57.513 176.066" fill="#010101"/>
          </g>
          <polygon points="57.513 176.066 57.476 176.081 57.484 176.073 57.513 176.066" fill="#010101"/>
        </g>
        <g>
          <polygon points="65.098 175.978 65.098 175.993 65.047 175.964 65.098 175.978" fill="#010101"/>
          <polygon points="65.098 175.978 65.098 175.993 65.047 175.964 65.098 175.978" fill="#010101"/>
        </g>
      </g>
      <g>
        <g>
          <path d="M141.151,195.341l1.025-.249V188.67l-10.1-25.85-.45.173-.278.095h-.01l-.355-.143-.009.019-.01.038-10.054,25.62-.029,6.594,1.016.249-5.262,12.01-.038,6.182,13.447,3.537.24-.93-11.166-2.933,11.9-4.495.125,13.131.958-.009-.125-13.266,11.952,4.515-11.166,2.933.24.929,13.447-3.536v-6.087Zm-19.313-6.46,2.041-5.205-2.041,5.962Zm0,5.588V192.6l.306-.9.01-.019,1.84-3.825,1.783-1.275-.47,1.093-.057.115-2.971,6.786Zm6.652-2.895.622,1.083-.172.288ZM129,196.2l-.824-.2.5-.8Zm-1.8-.441-3.394-.815,2.3-6.7.23-.182,1.946,5.943Zm-.537.862-6.336,10.237v.009l-.671.115,3.834-11.137Zm-5.253,2.358,1.151-3.355.287.068-1.438,3.287-2.827,8.2-.834.153Zm-1.917,9.23-.575.939.317-.91Zm-1.936.182.633-.057-.633,1.83Zm13.39-.565-2.482.949,2.482-1.179Zm0-.681-1.62.154-11.511,5.453,2.875-4.648,8.636-.805,1.62-.767Zm0-.958-3.115.287,1.927-.354,1.188-.24Zm0-1.294-9.345,1.735,6.048-9.767,1.706.412,1.591,4.85Zm0-5.847-.5-1.505.5.125Zm0-2.377-.843-.2-.767-2.339.326-.527,1.284,2.243Zm0-2.751-.709-1.236.709-1.16Zm0-4.217-1.255,2.032-2.5-4.38,3.192-2.626.565-.135Zm-4-3.383.365-.834.038-.029.9-.22Zm4-2.713-3.91.94-3.211,2.252,7.121-20.808Zm14.368,23.617-.844-.153-2.827-8.234Zm-1.179,1.8-.575-.939.258.019v.009Zm-.738-2.157-.671-.124-6.336-10.256,3.173-.767Zm-9.01-11.8.5.806-.833.2Zm-.45-2.539.623-1.083-.451,1.361Zm.833,1.351,1.946-5.952.23.192,2.3,6.7-3.384.815Zm1.687-6.767.067.019v.02Zm4.764,7.227-.451.106-2.99-6.825-.019-.067-.01-.009-.479-1.093,1.783,1.275,1.83,3.8.02.039.316.939Zm0-5.588v.777l-2.09-6.1ZM131.9,165.274l7.322,21.393-3.038-2.166-4.284-1.074Zm4.207,20.923-1.313-1.083.9.22.048.039Zm-4.207-1.783.766.182,3.192,2.636-2.492,4.371-1.332-2.147-.134.086Zm0,6.643.92,1.5-.92,1.62Zm0,5.022.134-.24,1.361-2.367.326.527-.777,2.348-.546.125-.019.009-.479.115Zm0,1.5.7-.173-.7,2.128Zm0,5.06.105-.335v-.01l1.7-5.156,1.706-.412,6.048,9.786-7.975-1.457-1.581-.317Zm0,3.068,3.594.661-3.594-.326Zm.067,1.945-.01-.259,2.636,1.256Zm1.754-.489,8.636.806,2.875,4.658Zm11.77,2.876-.633-1.831.633.058Z" transform="translate(-17.543 -92.324)" fill="#010101"/>
          <g>
            <polygon points="107.764 95.349 107.706 95.464 107.745 95.359 107.764 95.349" fill="#010101"/>
            <polygon points="109.029 94.928 108.981 94.947 108.991 94.937 109.029 94.928" fill="#010101"/>
          </g>
          <polygon points="109.029 94.928 108.981 94.947 108.991 94.937 109.029 94.928" fill="#010101"/>
        </g>
        <g>
          <polygon points="118.978 94.813 118.978 94.832 118.911 94.793 118.978 94.813" fill="#010101"/>
          <polygon points="118.978 94.813 118.978 94.832 118.911 94.793 118.978 94.813" fill="#010101"/>
        </g>
      </g>
      <g>
        <polygon points="440.286 244.302 441.782 251.555 423.557 249.84 425.476 242.909 423.638 242.736 426.322 233.055 425.203 232.95 427.359 225.168 427.357 225.168 426.519 225.09 426.975 223.444 428.573 217.679 427.138 217.545 427.783 215.217 430.04 207.072 430.043 207.07 431.494 201.832 434.135 192.307 435.831 200.531 436.679 204.649 438.306 212.547 438.309 212.55 438.309 212.552 439.578 218.714 438.353 218.598 438.351 218.598 438.73 220.436 438.733 220.442 439.949 226.351 439.399 226.298 441.076 234.443 439.781 234.322 439.778 234.322 441.866 244.45 440.289 244.302 440.286 244.302" fill="#213831"/>
        <polygon points="449.722 237.419 452.603 241.872 441.782 251.555 440.289 244.302 441.866 244.45 439.781 234.322 441.076 234.443 439.399 226.298 439.949 226.351 438.733 220.442 438.73 220.436 438.353 218.598 439.578 218.714 438.309 212.552 438.309 212.55 436.684 204.657 435.836 200.539 434.137 192.291 446.962 212.107 444.658 214.169 447.923 219.217 446.772 220.247 450.501 226.009 448.294 227.984 452.684 234.767 449.722 237.419" fill="#3d5f54"/>
        <polygon points="434.132 192.307 431.494 201.832 431.491 201.837 430.043 207.07 430.04 207.072 427.783 215.217 427.138 217.545 428.573 217.679 426.975 223.444 426.519 225.09 427.357 225.168 425.203 232.95 426.322 233.055 423.638 242.736 425.476 242.909 423.557 249.84 417.295 238.456 419.449 235.115 417.379 231.352 421.126 225.54 419.749 223.033 422.793 218.314 421.906 216.7 424.478 212.71 422.867 209.777 434.132 192.307" fill="#192924"/>
      </g>
      <g>
        <polygon points="360.848 222.148 355.467 231.934 353.816 225.976 355.394 225.827 353.09 217.505 354.052 217.414 352.198 210.724 352.92 210.656 352.53 209.25 352.53 209.248 351.154 204.286 352.386 204.17 351.829 202.164 351.829 202.162 349.891 195.169 349.891 195.165 349.884 195.142 348.643 190.659 348.641 190.657 346.375 182.473 356.06 197.492 354.674 200.012 356.886 203.444 356.123 204.831 358.74 208.888 357.556 211.043 360.778 216.04 358.996 219.277 360.848 222.148" fill="#3d5f54"/>
        <polygon points="339.796 233.408 341.082 227.174 341.08 227.174 339.726 227.3 341.521 218.593 341.519 218.593 340.403 218.698 341.847 211.695 341.845 211.695 341.372 211.741 342.418 206.665 342.418 206.663 342.746 205.076 342.744 205.076 341.693 205.175 342.784 199.878 342.787 199.876 344.186 193.084 344.915 189.543 346.373 182.473 348.641 190.657 349.884 195.142 349.891 195.165 349.891 195.169 351.829 202.162 351.829 202.164 352.386 204.17 351.154 204.286 352.53 209.248 352.53 209.25 352.92 210.656 352.198 210.724 354.052 217.414 353.09 217.505 353.087 217.505 355.394 225.827 353.816 225.976 353.814 225.976 355.467 231.934 339.796 233.408" fill="#213831"/>
        <polygon points="346.37 182.46 344.91 189.55 344.181 193.089 342.784 199.878 341.693 205.175 342.744 205.076 342.418 206.663 342.418 206.665 341.372 211.741 341.845 211.695 340.403 218.698 341.519 218.593 339.726 227.3 341.08 227.174 339.796 233.408 330.496 225.084 332.973 221.258 330.424 218.976 334.198 213.144 332.3 211.446 335.506 206.493 334.519 205.608 337.326 201.27 335.343 199.495 346.37 182.46" fill="#192924"/>
      </g>
      <g>
        <polygon points="260.388 128.305 260.18 128.809 260.067 128.77 260.388 128.305" fill="#21423d"/>
        <polygon points="260.388 128.305 260.18 128.809 260.067 128.77 260.388 128.305" fill="#21423d"/>
        <polygon points="260.388 128.305 260.18 128.809 260.067 128.77 260.388 128.305" fill="#2a4f48"/>
        <g>
          <polygon points="266.382 108.69 262.246 118.676 260.043 123.996 258.325 128.142 259.511 128.569 258.476 131.073 257.228 134.085 257.896 134.325 256.022 138.847 257.582 139.408 255.207 145.143 254.661 136.59 255.775 134.979 255.492 130.577 256.875 128.576 256.751 126.625 258.102 124.67 257.867 121.003 266.382 108.69" fill="#21423d"/>
          <polygon points="267.369 137.735 266.883 137.56 267.266 142.892 266.348 142.562 266.832 149.324 255.207 145.143 257.582 139.408 256.022 138.847 257.896 134.325 257.228 134.085 258.476 131.073 259.511 128.569 258.325 128.142 260.043 123.996 262.246 118.676 266.382 108.69 266.844 115.146 266.909 116.047 266.909 116.05 267.072 118.303 267.163 119.589 267.163 119.592 267.549 124.967 267.549 124.969 267.695 126.994 267.695 126.997 268.028 131.634 266.902 131.229 267.369 137.735" fill="#2a4f48"/>
          <polygon points="260.388 128.305 260.18 128.809 260.067 128.77 260.388 128.305" fill="#2a4f48"/>
          <polygon points="276.77 138.528 277.322 144.51 266.832 149.324 266.348 142.562 267.266 142.892 266.883 137.56 267.369 137.735 266.902 131.229 268.028 131.634 267.695 126.997 267.695 126.994 267.549 124.969 267.549 124.967 267.163 119.592 267.163 119.589 267.072 118.303 266.909 116.05 266.909 116.047 266.844 115.146 266.382 108.69 276.08 119.985 276.782 127.615 276.008 127.97 276.085 128.801 276.596 129.396 277.41 138.236 276.77 138.528" fill="#3e7063"/>
        </g>
      </g>
      <g>
        <polygon points="209.903 106.662 209.694 107.165 209.582 107.127 209.903 106.662" fill="#21423d"/>
        <polygon points="209.903 106.662 209.694 107.165 209.582 107.127 209.903 106.662" fill="#21423d"/>
        <polygon points="209.903 106.662 209.694 107.165 209.582 107.127 209.903 106.662" fill="#2a4f48"/>
        <g>
          <polygon points="215.896 87.047 211.76 97.033 209.558 102.353 207.84 106.499 209.026 106.925 207.99 109.43 206.742 112.442 207.411 112.681 205.537 117.204 207.097 117.764 204.722 123.499 204.175 114.946 205.29 113.336 205.007 108.933 206.39 106.932 206.265 104.982 207.617 103.026 207.382 99.36 215.896 87.047" fill="#21423d"/>
          <polygon points="216.884 116.092 216.397 115.917 216.781 121.249 215.863 120.918 216.347 127.681 204.722 123.499 207.097 117.764 205.537 117.204 207.411 112.681 206.742 112.442 207.99 109.43 209.026 106.925 207.84 106.499 209.558 102.353 211.76 97.033 215.896 87.047 216.359 93.503 216.424 94.404 216.424 94.406 216.587 96.659 216.678 97.946 216.678 97.948 217.063 103.323 217.063 103.326 217.21 105.351 217.21 105.353 217.543 109.99 216.416 109.585 216.884 116.092" fill="#2a4f48"/>
          <polygon points="209.903 106.662 209.694 107.165 209.582 107.127 209.903 106.662" fill="#2a4f48"/>
          <polygon points="226.285 116.885 226.836 122.866 216.347 127.681 215.863 120.918 216.781 121.249 216.397 115.917 216.884 116.092 216.416 109.585 217.543 109.99 217.21 105.353 217.21 105.351 217.063 103.326 217.063 103.323 216.678 97.948 216.678 97.946 216.587 96.659 216.424 94.406 216.424 94.404 216.359 93.503 215.896 87.047 225.595 98.341 226.297 105.971 225.523 106.326 225.6 107.158 226.11 107.752 226.925 116.592 226.285 116.885" fill="#3e7063"/>
        </g>
      </g>
      <g>
        <polygon points="129.838 133.15 129.838 156.111 129.302 155.969 129.302 164.732 129.094 164.675 129.094 176.423 118.987 173.727 113.934 165.701 118.88 158.813 117.233 156.194 120.744 151.304 118.901 148.376 129.838 133.15" fill="#1f3f33"/>
        <polygon points="138.012 171.23 129.094 176.254 129.094 164.675 129.302 164.732 129.302 155.969 129.838 156.111 129.838 133.257 136.27 152.363 134.05 153.614 136.401 160.597 134.745 161.53 138.012 171.23" fill="#468b72"/>
      </g>
      <g>
        <polygon points="233.466 28.644 233.466 51.605 232.931 51.462 232.931 60.225 232.723 60.169 232.723 71.917 222.616 69.221 217.562 61.195 222.509 54.307 220.862 51.688 224.372 46.798 222.529 43.87 233.466 28.644" fill="#1f3f33"/>
        <polygon points="241.641 66.724 232.723 71.747 232.723 60.169 232.931 60.225 232.931 51.462 233.466 51.605 233.466 28.751 239.899 47.856 237.678 49.108 240.029 56.09 238.374 57.024 241.641 66.724" fill="#468b72"/>
      </g>
      <g>
        <polygon points="413.174 174.532 414.67 181.784 396.444 180.07 398.364 173.139 396.526 172.965 399.209 163.285 398.09 163.179 400.247 155.398 400.244 155.398 399.407 155.319 399.863 153.673 401.461 147.909 400.026 147.774 400.671 145.446 402.928 137.302 402.93 137.299 404.381 132.061 407.023 122.536 408.718 130.76 409.566 134.879 411.194 142.776 411.196 142.779 411.196 142.782 412.466 148.944 411.241 148.828 411.239 148.828 411.618 150.666 411.62 150.671 412.837 156.58 412.287 156.528 413.964 164.673 412.668 164.551 412.666 164.551 414.754 174.679 413.177 174.532 413.174 174.532" fill="#213831"/>
        <polygon points="422.609 167.648 425.49 172.101 414.67 181.784 413.177 174.532 414.754 174.679 412.668 164.551 413.964 164.673 412.287 156.528 412.837 156.58 411.62 150.671 411.618 150.666 411.241 148.828 412.466 148.944 411.196 142.782 411.196 142.779 409.572 134.887 408.724 130.768 407.025 122.521 419.85 142.336 417.545 144.398 420.811 149.446 419.66 150.476 423.389 156.238 421.182 158.213 425.572 164.996 422.609 167.648" fill="#3d5f54"/>
        <polygon points="407.02 122.536 404.381 132.061 404.379 132.066 402.93 137.299 402.928 137.302 400.671 145.446 400.026 147.774 401.461 147.909 399.863 153.673 399.407 155.319 400.244 155.398 398.09 163.179 399.209 163.285 396.526 172.965 398.364 173.139 396.444 180.07 390.182 168.686 392.336 165.344 390.267 161.581 394.014 155.769 392.637 153.262 395.681 148.543 394.793 146.929 397.366 142.939 395.754 140.006 407.02 122.536" fill="#192924"/>
      </g>
      <g>
        <polygon points="308.922 167.244 303.541 177.031 301.891 171.072 303.469 170.923 301.164 162.601 302.126 162.51 300.272 155.821 300.994 155.753 300.605 154.347 300.605 154.345 299.229 149.382 300.46 149.267 299.903 147.261 299.903 147.259 297.965 140.266 297.965 140.261 297.959 140.238 296.718 135.756 296.716 135.754 294.45 127.57 304.134 142.588 302.749 145.108 304.961 148.54 304.198 149.928 306.815 153.985 305.631 156.14 308.852 161.136 307.071 164.374 308.922 167.244" fill="#3d5f54"/>
        <polygon points="287.871 178.505 289.157 172.27 289.154 172.27 287.801 172.397 289.596 163.69 289.593 163.69 288.477 163.794 289.922 156.792 289.919 156.792 289.446 156.837 290.492 151.762 290.492 151.759 290.821 150.172 290.818 150.172 289.768 150.272 290.859 144.974 290.861 144.972 292.26 138.181 292.989 134.64 294.447 127.57 296.716 135.754 297.959 140.238 297.965 140.261 297.965 140.266 299.903 147.259 299.903 147.261 300.46 149.267 299.229 149.382 300.605 154.345 300.605 154.347 300.994 155.753 300.272 155.821 302.126 162.51 301.164 162.601 301.162 162.601 303.469 170.923 301.891 171.072 301.889 171.072 303.541 177.031 287.871 178.505" fill="#213831"/>
        <polygon points="294.445 127.556 292.985 134.647 292.256 138.185 290.859 144.974 289.768 150.272 290.818 150.172 290.492 151.759 290.492 151.762 289.446 156.837 289.919 156.792 288.477 163.794 289.593 163.69 287.801 172.397 289.154 172.27 287.871 178.505 278.571 170.18 281.047 166.355 278.498 164.073 282.272 158.241 280.375 156.543 283.581 151.59 282.594 150.704 285.401 146.367 283.418 144.592 294.445 127.556" fill="#192924"/>
      </g>
    </g>
  </g>
</svg>
