<svg id="Layer_1" data-name="Layer 1" xmlns="http://www.w3.org/2000/svg" viewBox="0 0 365.823 425.359">
  <g>
    <polygon points="358.877 248.902 356.751 258.604 358.568 276.499 351.906 278.008 344.923 284.681 310.973 284.681 293.077 288.624 287.021 282.864 280.038 284.373 276.405 291.961 263.674 293.469 258.818 306.211 263.674 314.393 258.212 323.798 258.212 342.596 256.395 390.191 247.002 406.864 240.019 406.864 237.597 409.595 216.376 380.489 211.828 382.009 206.365 388.065 205.463 396.865 183.328 421.114 176.654 424.759 170.289 419.605 166.655 415.663 143.606 415.96 127.836 421.422 122.682 424.759 112.683 421.114 104.798 422.634 96.913 421.422 89.337 410.2 80.846 414.452 75.087 410.2 69.933 412.932 64.779 411.72 55.374 419.902 49.009 403.835 38.702 402.624 28.394 399.893 16.876 392.317 4.751 394.133 0.5 390.642 0.5 375.834 1.889 373.043 16.543 371.737 24.024 363.437 24.167 362.605 24.452 362.296 26.174 352.393 21.424 346.74 21.424 343.665 35.852 341.8 38.678 336.848 38.678 336.468 39.106 335.72 39.106 322.99 36.576 318.442 38.607 298.931 40.008 294.205 47.881 289.431 60.611 283.161 68.093 275.074 67.986 274.552 68.52 273.97 65.682 260.017 63.165 251.942 57.809 249.009 57.607 229.047 59.293 225.829 59.222 225.71 59.721 224.748 57.702 221.613 57.619 218.027 63.545 210.961 63.509 210.439 63.972 209.892 62.963 193.315 54.674 189.574 44.058 181.19 40.424 171.298 21.424 149.662 21.709 149.306 22.172 149.282 29.558 139.545 39.011 134.45 39.07 134.403 39.153 134.355 54.472 121.376 53.712 116.412 46.433 107.054 44.461 92.128 42.336 89.563 42.49 74.184 54.472 63.627 58.866 63.77 72.961 72.676 77.213 71.311 77.213 65.587 87.52 55.932 89.183 51.099 87.52 47.181 87.212 43.416 90.24 39.343 96.759 38.892 96.759 37.384 98.884 37.075 98.884 20.034 118.443 0.737 130.413 15.059 133.453 17.018 147.24 17.018 153.759 8.124 163.461 8.872 171.952 17.469 204.549 35.638 204.549 55.921 204.703 56.099 204.703 56.229 209.097 61.336 209.097 69.565 203.029 75.028 203.183 96.699 206.069 99.739 206.116 99.716 206.211 99.823 213.942 96.046 225.496 101.129 230.472 107.767 228.204 117.92 226.529 120.651 226.684 127.622 229.712 129.902 247.453 129.902 272.011 154.151 278.221 154.151 284.444 160.219 295.654 160.219 300.511 156.122 306.579 156.122 324.308 171.287 332.953 167.344 342.05 167.344 348.569 161.893 357.06 162.345 357.06 166.442 360.385 173.709 360.694 183.114 355.837 188.874 358.271 200.095 360.385 202.518 359.482 208.277 365.242 217.374 354.329 237.074 358.877 248.902" fill="#a4bbb2" stroke="#010101" strokeMiterlimit="10"/>
    <g>
      <polygon points="256.395 390.192 250.695 391.284 236.445 388.908 230.508 382.971 229.32 362.783 231.695 348.533 237.633 334.283 247.133 328.346 257.82 324.783 258.212 324.783 258.212 342.596 256.395 390.192" fill="#81bdb1" stroke="#010101" strokeMiterlimit="10"/>
      <g>
        <g>
          <path d="M210.43,399.906l1.123-.273v-7.027L200.5,364.319l-.493.189-.3.105h-.011l-.388-.157-.01.02-.011.042-11,28.035-.031,7.216,1.111.273L183.6,413.184l-.042,6.765,14.715,3.87.263-1.018-12.219-3.209,13.026-4.919.137,14.369,1.049-.011-.137-14.515,13.079,4.94-12.219,3.209.262,1.017,14.715-3.87v-6.66ZM189.3,392.837l2.234-5.695-2.234,6.523Zm0,6.114v-2.045l.335-.986.011-.021,2.013-4.185,1.951-1.395-.514,1.2-.063.126-3.251,7.426Zm7.278-3.167.682,1.185-.189.315Zm.556,5.066-.9-.221.546-.87Zm-1.972-.483-3.712-.891,2.517-7.332.252-.2,2.129,6.5Zm-.587.944-6.933,11.2v.01l-.734.126,4.2-12.187Zm-5.747,2.58,1.258-3.671.315.074-1.573,3.6-3.094,8.978-.913.168Zm-2.1,10.1-.629,1.028.346-1Zm-2.119.2.693-.063-.693,2Zm14.652-.619-2.716,1.038,2.716-1.29Zm0-.745-1.772.168-12.6,5.968,3.147-5.087,9.45-.881,1.772-.839Zm0-1.049-3.408.315,2.108-.388,1.3-.262Zm0-1.416-10.226,1.9,6.618-10.688,1.867.451,1.741,5.307Zm0-6.4-.545-1.647.545.136Zm0-2.6-.923-.221-.839-2.559.357-.577,1.405,2.455Zm0-3.011L198.484,397l.776-1.269Zm0-4.614-1.374,2.223-2.737-4.793,3.493-2.874.618-.147Zm-4.373-3.7.4-.912.042-.032.986-.241Zm4.373-2.968-4.279,1.028-3.513,2.465,7.792-22.77Zm15.722,25.843-.923-.168-3.094-9.009Zm-1.29,1.972-.629-1.028.283.021v.01Zm-.807-2.36-.735-.136-6.932-11.223,3.471-.839Zm-9.859-12.911.545.881-.912.22Zm-.493-2.779.681-1.186-.493,1.49Zm.912,1.478,2.129-6.513.252.21,2.517,7.331-3.7.892Zm1.846-7.4.073.021v.021Zm5.213,7.908-.493.115-3.273-7.467-.021-.074-.01-.01-.524-1.2,1.95,1.395,2,4.153.021.042.346,1.028Zm0-6.115v.85l-2.287-6.671ZM200.309,367l8.013,23.41L205,388.044l-4.688-1.175Zm4.6,22.9-1.437-1.185.986.241.052.042Zm-4.6-1.951.839.2,3.493,2.885-2.727,4.782-1.458-2.349-.147.094Zm0,7.268,1.007,1.637-1.007,1.772Zm0,5.5.147-.262,1.489-2.591.357.577-.85,2.57-.6.136-.021.011-.525.126Zm0,1.647.766-.189-.766,2.329Zm0,5.538.116-.367v-.011l1.856-5.643,1.867-.451,6.618,10.709-8.726-1.594-1.731-.346Zm0,3.356,3.933.724-3.933-.357Zm.074,2.129-.011-.283,2.884,1.374Zm1.919-.535,9.45.881,3.146,5.1ZM215.182,416l-.693-2,.693.063Z" transform="translate(-95.948 -31.682)" fill="#010101"/>
          <g>
            <polygon points="97.145 359.833 97.082 359.959 97.124 359.844 97.145 359.833" fill="#010101"/>
            <polygon points="98.529 359.372 98.477 359.393 98.488 359.382 98.529 359.372" fill="#010101"/>
          </g>
          <polygon points="98.529 359.372 98.477 359.393 98.488 359.382 98.529 359.372" fill="#010101"/>
        </g>
        <g>
          <polygon points="109.416 359.246 109.416 359.267 109.343 359.225 109.416 359.246" fill="#010101"/>
          <polygon points="109.416 359.246 109.416 359.267 109.343 359.225 109.416 359.246" fill="#010101"/>
        </g>
      </g>
      <g>
        <g>
          <path d="M298.763,394.453l1.122-.273v-7.027l-11.054-28.286-.493.188-.305.105h-.01l-.388-.157-.011.021-.01.042-11,28.035-.032,7.216,1.112.272-5.758,13.142-.042,6.765,14.715,3.87.262-1.017-12.218-3.21,13.026-4.919.136,14.369,1.049-.01-.136-14.516L301.8,414l-12.218,3.209.262,1.018,14.715-3.87V407.7Zm-21.134-7.069,2.234-5.695-2.234,6.524Zm0,6.115v-2.046l.336-.985.01-.021,2.014-4.185,1.951-1.395-.514,1.195-.063.126-3.251,7.426Zm7.279-3.168.682,1.185-.189.315Zm.556,5.066-.9-.22.545-.871Zm-1.972-.482-3.713-.892,2.517-7.331.252-.2,2.129,6.5Zm-.587.944-6.933,11.2v.01l-.734.126,4.195-12.187Zm-5.748,2.58,1.259-3.671.314.073-1.573,3.6-3.094,8.977-.912.168Zm-2.1,10.1-.629,1.028.346-1Zm-2.118.2.692-.063-.692,2Zm14.652-.619-2.716,1.039,2.716-1.291Zm0-.744-1.773.167-12.6,5.968,3.146-5.087,9.45-.881,1.773-.839Zm0-1.049-3.409.314,2.108-.388,1.3-.262Zm0-1.416-10.226,1.9,6.618-10.687,1.867.451,1.741,5.307Zm0-6.4-.545-1.647.545.137Zm0-2.6-.923-.22-.839-2.559.357-.577,1.405,2.454Zm0-3.01-.776-1.353.776-1.269Zm0-4.615-1.374,2.223-2.737-4.793,3.492-2.873.619-.147Zm-4.374-3.7.4-.913.042-.031.986-.241Zm4.374-2.968-4.279,1.027-3.514,2.465,7.793-22.77Zm15.722,25.842-.923-.167-3.094-9.01Zm-1.29,1.972-.63-1.028.284.021v.011Zm-.808-2.36-.734-.136-6.933-11.222,3.472-.839Zm-9.859-12.911.546.881-.913.221Zm-.493-2.779.682-1.185-.493,1.489Zm.913,1.479,2.129-6.513.252.209,2.517,7.332-3.7.891Zm1.846-7.4.073.021v.021Zm5.212,7.908-.493.116-3.272-7.468-.021-.073-.01-.011-.525-1.2,1.951,1.395,2,4.154.021.042.346,1.028Zm0-6.114v.849l-2.286-6.67Zm-10.194-25.7,8.013,23.409-3.325-2.37-4.688-1.175Zm4.6,22.895-1.437-1.185.986.241.053.042Zm-4.6-1.951.839.2,3.492,2.884-2.727,4.783-1.457-2.35-.147.1Zm0,7.269,1.007,1.636-1.007,1.773Zm0,5.5.147-.263,1.489-2.59.357.577-.85,2.569-.6.137-.021.01-.524.126Zm0,1.646.765-.189-.765,2.329Zm0,5.538.115-.367v-.01l1.857-5.643,1.866-.451,6.618,10.708-8.726-1.594-1.73-.346Zm0,3.356,3.933.724-3.933-.357Zm.073,2.129-.01-.283,2.884,1.374Zm1.92-.534,9.449.881,3.147,5.1Zm12.879,3.146-.692-2,.692.063Z" transform="translate(-95.948 -31.682)" fill="#010101"/>
          <g>
            <polygon points="185.478 354.38 185.415 354.506 185.457 354.391 185.478 354.38" fill="#010101"/>
            <polygon points="186.862 353.919 186.81 353.94 186.82 353.929 186.862 353.919" fill="#010101"/>
          </g>
          <polygon points="186.862 353.919 186.81 353.94 186.82 353.929 186.862 353.919" fill="#010101"/>
        </g>
        <g>
          <polygon points="197.749 353.793 197.749 353.814 197.675 353.772 197.749 353.793" fill="#010101"/>
          <polygon points="197.749 353.793 197.749 353.814 197.675 353.772 197.749 353.793" fill="#010101"/>
        </g>
      </g>
      <g>
        <g>
          <path d="M309.719,322.917l.895-.218v-5.606L301.8,294.526l-.393.15-.243.084h-.008l-.31-.126-.008.017-.009.034-8.777,22.366-.025,5.757.886.218-4.593,10.484-.034,5.4L300.021,342l.209-.812-9.748-2.56,10.392-3.925.109,11.464.837-.008-.109-11.581,10.435,3.941-9.749,2.56.21.812,11.739-3.088v-5.313Zm-16.861-5.64,1.783-4.544-1.783,5.2Zm0,4.878v-1.631l.268-.787.008-.017,1.607-3.338,1.556-1.113-.41.954-.05.1-2.594,5.924Zm5.807-2.527.544.946-.15.251Zm.444,4.042-.72-.176.435-.694Zm-1.573-.385-2.962-.711,2.008-5.849.2-.159,1.7,5.188Zm-.469.753-5.531,8.937v.008l-.586.1,3.348-9.723Zm-4.585,2.058,1-2.928.251.058-1.255,2.87-2.469,7.163-.728.134Zm-1.674,8.058-.5.82.276-.794Zm-1.69.159.552-.05-.552,1.6Zm11.69-.493-2.168.828,2.168-1.029Zm0-.594-1.415.134-10.049,4.761,2.51-4.059,7.539-.7,1.415-.67Zm0-.837-2.72.251,1.682-.31,1.038-.209Zm0-1.13-8.159,1.515,5.28-8.527,1.489.36,1.39,4.234Zm0-5.1-.436-1.314.436.109Zm0-2.075-.737-.176-.669-2.042.284-.46,1.122,1.958Zm0-2.4-.62-1.079.62-1.012Zm0-3.681-1.1,1.774-2.184-3.824,2.787-2.293.494-.117Zm-3.49-2.954.318-.728.034-.025.786-.193Zm3.49-2.368-3.414.82-2.8,1.966,6.218-18.166Zm12.543,20.618-.737-.134-2.468-7.188Zm-1.03,1.573-.5-.82.226.016v.009Zm-.644-1.883-.586-.109-5.531-8.953,2.77-.669Zm-7.866-10.3.436.7-.728.176Zm-.393-2.217.544-.945-.393,1.188Zm.728,1.18,1.7-5.2.2.167,2.008,5.849-2.954.711Zm1.473-5.908.058.017v.017Zm4.159,6.31-.394.092-2.61-5.958-.017-.059-.008-.008-.419-.954,1.557,1.113,1.6,3.314.016.033.277.82Zm0-4.879v.678l-1.825-5.322Zm-8.134-20.5,6.393,18.676-2.652-1.891-3.741-.937Zm3.674,18.266-1.147-.945.787.192.042.033Zm-3.674-1.556.67.159,2.786,2.3-2.176,3.815-1.163-1.874-.117.075Zm0,5.8.8,1.305-.8,1.414Zm0,4.384.117-.209,1.189-2.067.284.46-.678,2.05-.477.109-.016.009-.419.1Zm0,1.314.611-.151-.611,1.858Zm0,4.418.092-.293v-.008l1.481-4.5,1.49-.36,5.28,8.543-6.962-1.271-1.381-.277Zm0,2.678,3.138.577-3.138-.285Zm.059,1.7-.009-.226,2.3,1.1Zm1.531-.427,7.539.7,2.511,4.067Zm10.276,2.511-.553-1.6.553.051Z" transform="translate(-95.948 -31.682)" fill="#010101"/>
          <g>
            <polygon points="199.939 284.541 199.889 284.641 199.922 284.549 199.939 284.541" fill="#010101"/>
            <polygon points="201.044 284.173 201.002 284.189 201.01 284.181 201.044 284.173" fill="#010101"/>
          </g>
          <polygon points="201.044 284.173 201.002 284.189 201.01 284.181 201.044 284.173" fill="#010101"/>
        </g>
        <g>
          <polygon points="209.729 284.072 209.729 284.089 209.671 284.055 209.729 284.072" fill="#010101"/>
          <polygon points="209.729 284.072 209.729 284.089 209.671 284.055 209.729 284.072" fill="#010101"/>
        </g>
      </g>
      <g>
        <g>
          <path d="M246.418,308.3l1.122-.273V301l-11.055-28.287-.493.189-.3.105h-.01l-.388-.158-.011.021-.01.042-11,28.035-.031,7.216,1.112.273-5.758,13.142-.042,6.764,14.715,3.871.262-1.018-12.219-3.209,13.027-4.919.136,14.369,1.049-.011-.137-14.515,13.079,4.94-12.219,3.209.263,1.017,14.715-3.87v-6.66Zm-21.134-7.07,2.234-5.7-2.234,6.524Zm0,6.115V305.3l.335-.986.011-.021,2.014-4.185,1.951-1.4-.514,1.2-.063.126-3.252,7.425Zm7.279-3.167.681,1.185-.188.314Zm.556,5.065-.9-.22.545-.87Zm-1.972-.482-3.713-.891,2.517-7.332.252-.2,2.129,6.5Zm-.588.944-6.932,11.2v.011l-.734.126,4.195-12.188Zm-5.747,2.58,1.259-3.671.314.074-1.573,3.6-3.094,8.978-.913.168Zm-2.1,10.1-.629,1.028.346-1Zm-2.118.2.692-.062-.692,2Zm14.652-.618-2.717,1.038,2.717-1.29Zm0-.745-1.773.168-12.6,5.968,3.146-5.087,9.45-.881,1.773-.839Zm0-1.049-3.409.315,2.108-.388,1.3-.262Zm0-1.416-10.226,1.9,6.618-10.688,1.867.451,1.741,5.307Zm0-6.4-.546-1.646.546.136Zm0-2.6-.923-.22-.839-2.559.356-.577,1.406,2.454Zm0-3.01-.776-1.353.776-1.269Zm0-4.615-1.374,2.224-2.738-4.793,3.493-2.874.619-.147Zm-4.374-3.7.4-.912.042-.032.986-.241Zm4.374-2.968-4.279,1.028-3.514,2.465,7.793-22.77Zm15.722,25.843-.923-.168-3.094-9.009Zm-1.291,1.972-.629-1.028.283.021v.01Zm-.807-2.36-.734-.136-6.933-11.223,3.472-.839Zm-9.859-12.911.545.881-.912.22Zm-.493-2.78.682-1.185-.493,1.49Zm.912,1.479,2.13-6.513.251.21,2.518,7.331-3.7.892Zm1.846-7.4.074.021v.021Zm5.213,7.908-.493.115-3.272-7.467-.021-.074-.011-.01-.524-1.2,1.951,1.395,2,4.153.021.042.346,1.028Zm0-6.115v.85l-2.286-6.671ZM236.3,275.4l8.013,23.41-3.325-2.371-4.688-1.174Zm4.6,22.9-1.437-1.185.986.241.052.042Zm-4.6-1.951.839.2,3.492,2.884-2.727,4.783-1.458-2.349-.146.094Zm0,7.268,1.006,1.636-1.006,1.773Zm0,5.5.146-.262,1.49-2.591.356.577-.849,2.57-.6.136-.021.011-.524.125Zm0,1.647.765-.189L236.3,312.9Zm0,5.538.115-.368v-.01l1.856-5.643,1.867-.451,6.618,10.709-8.726-1.594-1.73-.347Zm0,3.356,3.933.723-3.933-.356Zm.073,2.129-.011-.283,2.885,1.374Zm1.919-.535,9.45.881,3.147,5.1Zm12.88,3.146-.692-2,.692.063Z" transform="translate(-95.948 -31.682)" fill="#010101"/>
          <g>
            <polygon points="133.132 268.229 133.069 268.355 133.111 268.239 133.132 268.229" fill="#010101"/>
            <polygon points="134.517 267.767 134.464 267.788 134.475 267.778 134.517 267.767" fill="#010101"/>
          </g>
          <polygon points="134.517 267.767 134.464 267.788 134.475 267.778 134.517 267.767" fill="#010101"/>
        </g>
        <g>
          <polygon points="145.403 267.642 145.403 267.663 145.33 267.621 145.403 267.642" fill="#010101"/>
          <polygon points="145.403 267.642 145.403 267.663 145.33 267.621 145.403 267.642" fill="#010101"/>
        </g>
      </g>
      <g>
        <g>
          <path d="M185.019,256.612l.971-.236V250.3l-9.565-24.474-.426.164-.264.09h-.009l-.335-.136-.01.019-.009.036-9.519,24.256-.027,6.243.962.236-4.982,11.37-.036,5.853L174.5,277.3l.227-.88-10.572-2.777,11.271-4.256.118,12.432.907-.009-.118-12.559,11.316,4.274L177.078,276.3l.227.88,12.732-3.349v-5.762ZM166.734,250.5l1.932-4.928-1.932,5.645Zm0,5.29v-1.769l.29-.853.009-.018,1.742-3.621,1.688-1.207-.444,1.035-.055.108-2.813,6.425Zm6.3-2.74.59,1.025-.163.272Zm.481,4.383-.78-.191.472-.753Zm-1.706-.418-3.212-.771,2.178-6.343.218-.172,1.842,5.626Zm-.508.817-6,9.692v.009l-.635.109,3.629-10.545Zm-4.973,2.232,1.089-3.176.272.064-1.361,3.112-2.677,7.768-.789.145ZM164.51,268.8l-.544.889.3-.862Zm-1.833.173.6-.055-.6,1.733Zm12.677-.536-2.35.9,2.35-1.117Zm0-.644-1.533.145-10.9,5.163,2.723-4.4,8.176-.762,1.533-.726Zm0-.908-2.949.273,1.824-.336,1.125-.227Zm0-1.225-8.847,1.643,5.726-9.247,1.615.39,1.506,4.592Zm0-5.535-.472-1.425.472.118Zm0-2.251-.8-.19-.726-2.214.308-.5,1.216,2.123Zm0-2.6-.671-1.171.671-1.1Zm0-3.993-1.188,1.924-2.369-4.147,3.022-2.486.535-.127Zm-3.784-3.2.345-.789.036-.028.853-.208Zm3.784-2.568-3.7.889-3.04,2.133,6.742-19.7Zm13.6,22.359-.8-.145-2.677-7.8Zm-1.116,1.706-.545-.889.245.018v.009Zm-.7-2.041-.635-.118-6-9.71,3-.726Zm-8.53-11.171.472.762-.79.191Zm-.426-2.405.589-1.025-.426,1.288Zm.789,1.28,1.842-5.635.218.181,2.178,6.343-3.2.771Zm1.6-6.407.064.018v.019Zm4.51,6.842-.426.1-2.832-6.461-.018-.063-.009-.009-.454-1.035,1.688,1.207L184.765,253l.018.037.3.889Zm0-5.29v.735l-1.978-5.771Zm-8.82-22.232L183.2,248.4l-2.877-2.051-4.056-1.016Zm3.983,19.809L179,246.93l.853.208.046.037Zm-3.983-1.688.726.173,3.022,2.5-2.36,4.138-1.261-2.033-.127.082Zm0,6.289.871,1.415-.871,1.534Zm0,4.755.127-.227,1.288-2.241.309.5-.735,2.223-.517.118-.019.009-.453.109Zm0,1.425.662-.164-.662,2.015Zm0,4.791.1-.318V263.2l1.606-4.882,1.615-.39,5.726,9.265-7.55-1.379-1.5-.3Zm0,2.9,3.4.626-3.4-.309Zm.063,1.842-.009-.245,2.5,1.189Zm1.661-.463,8.176.762,2.722,4.41Zm11.143,2.722-.6-1.733.6.055Z" transform="translate(-95.948 -31.682)" fill="#010101"/>
          <g>
            <polygon points="74.07 217.67 74.016 217.779 74.052 217.68 74.07 217.67" fill="#010101"/>
            <polygon points="75.268 217.271 75.223 217.289 75.232 217.28 75.268 217.271" fill="#010101"/>
          </g>
          <polygon points="75.268 217.271 75.223 217.289 75.232 217.28 75.268 217.271" fill="#010101"/>
        </g>
        <g>
          <polygon points="84.687 217.162 84.687 217.18 84.624 217.144 84.687 217.162" fill="#010101"/>
          <polygon points="84.687 217.162 84.687 217.18 84.624 217.144 84.687 217.162" fill="#010101"/>
        </g>
      </g>
      <g>
        <g>
          <path d="M191.536,139.161l1.085-.263v-6.79l-10.682-27.334-.477.183-.293.1h-.011l-.375-.152-.01.02-.01.041-10.631,27.09-.031,6.973,1.075.263-5.564,12.7-.041,6.537,14.219,3.74.253-.983-11.806-3.1,12.587-4.753.132,13.885,1.013-.01-.132-14.027,12.638,4.774-11.807,3.1.254.983,14.219-3.74v-6.435Zm-20.421-6.83,2.158-5.5-2.158,6.3Zm0,5.908v-1.976l.324-.953.01-.02,1.946-4.044,1.885-1.348-.5,1.156-.061.121-3.142,7.176Zm7.033-3.061.659,1.146-.182.3Zm.537,4.9-.871-.213.527-.842Zm-1.905-.467-3.588-.861,2.433-7.084.243-.193,2.057,6.284Zm-.568.912-6.7,10.824v.011l-.71.121,4.054-11.776Zm-5.553,2.494,1.216-3.548.3.071-1.52,3.477-2.99,8.675-.882.162Zm-2.027,9.759-.608.994.334-.963Zm-2.048.193.669-.061-.669,1.936Zm14.159-.6-2.625,1,2.625-1.246Zm0-.72-1.713.163-12.172,5.766,3.041-4.915,9.131-.851,1.713-.811Zm0-1.013-3.294.3,2.037-.375,1.257-.253Zm0-1.368-9.882,1.834,6.4-10.327,1.8.436,1.683,5.128Zm0-6.182-.527-1.592.527.132Zm0-2.514-.892-.213-.811-2.473.345-.557,1.358,2.372Zm0-2.909-.75-1.307.75-1.226Zm0-4.459-1.328,2.149-2.645-4.632,3.375-2.777.6-.142Zm-4.226-3.577.385-.882.04-.031.953-.233Zm4.226-2.869-4.135.994-3.4,2.381,7.53-22Zm15.192,24.972-.892-.162-2.99-8.705Zm-1.247,1.906-.608-.993.274.02v.01Zm-.78-2.28-.71-.132-6.7-10.844,3.355-.811Zm-9.527-12.476.527.851-.882.213Zm-.476-2.686.659-1.145-.477,1.439Zm.882,1.429,2.057-6.294.243.2,2.433,7.084-3.578.862Zm1.783-7.155.071.02v.02Zm5.037,7.641-.476.112L187.969,131l-.02-.071-.011-.01-.506-1.156,1.885,1.348,1.936,4.014.02.04.334.993Zm0-5.908v.821l-2.209-6.446Zm-9.851-24.83,7.743,22.62-3.213-2.29-4.53-1.135Zm4.449,22.124-1.388-1.145.953.233.05.04Zm-4.449-1.885.811.192,3.375,2.787-2.635,4.622-1.409-2.27-.142.091Zm0,7.023.973,1.581-.973,1.713Zm0,5.311.142-.254,1.439-2.5.345.557-.821,2.483-.578.132-.02.01-.507.122Zm0,1.591.74-.183-.74,2.25Zm0,5.351.112-.355v-.01l1.794-5.452,1.8-.436,6.395,10.347-8.432-1.54-1.673-.334Zm0,3.243,3.8.7-3.8-.344Zm.071,2.058-.01-.274,2.787,1.328Zm1.855-.517,9.131.851,3.041,4.925Zm12.445,3.04-.668-1.936.668.061Z" transform="translate(-95.948 -31.682)" fill="#010101"/>
          <g>
            <polygon points="78.835 99.371 78.774 99.493 78.815 99.382 78.835 99.371" fill="#010101"/>
            <polygon points="80.173 98.926 80.122 98.946 80.133 98.936 80.173 98.926" fill="#010101"/>
          </g>
          <polygon points="80.173 98.926 80.122 98.946 80.133 98.936 80.173 98.926" fill="#010101"/>
        </g>
        <g>
          <polygon points="90.693 98.804 90.693 98.824 90.622 98.784 90.693 98.804" fill="#010101"/>
          <polygon points="90.693 98.804 90.693 98.824 90.622 98.784 90.693 98.804" fill="#010101"/>
        </g>
      </g>
      <g>
        <g>
          <path d="M270.739,88.45l1.273-.309V80.166l-12.544-32.1-.56.214-.345.119h-.012l-.44-.179-.012.024-.012.048L245.6,80.107l-.036,8.188,1.262.31-6.534,14.913-.048,7.677,16.7,4.391.3-1.154-13.866-3.642,14.782-5.582.155,16.306,1.19-.012-.154-16.473,14.841,5.606-13.865,3.642.3,1.155,16.7-4.392v-7.558Zm-23.983-8.022,2.535-6.463-2.535,7.4Zm0,6.939V85.046l.381-1.119.012-.024,2.285-4.748,2.214-1.583-.583,1.356-.072.143L247.3,87.5Zm8.26-3.594.774,1.345-.214.357Zm.631,5.748-1.023-.25.618-.988Zm-2.237-.547L249.2,87.962l2.857-8.319.285-.227,2.416,7.38Zm-.667,1.071-7.867,12.711v.012l-.833.143,4.76-13.83Zm-6.522,2.928,1.428-4.166.357.083-1.785,4.083-3.511,10.188-1.036.19Zm-2.381,11.461-.714,1.167.393-1.131Zm-2.4.226.786-.071-.786,2.273Zm16.627-.7-3.082,1.179,3.082-1.464Zm0-.845-2.011.191-14.3,6.772,3.571-5.773,10.724-1,2.011-.952Zm0-1.19-3.868.357,2.392-.44,1.476-.3Zm0-1.607-11.6,2.155,7.51-12.129,2.118.512,1.976,6.023Zm0-7.26-.619-1.869.619.155Zm0-2.952-1.047-.25-.952-2.9.4-.654,1.595,2.785Zm0-3.415-.881-1.536.881-1.44Zm0-5.237L256.5,83.975,253.4,78.536l3.963-3.261.7-.167Zm-4.963-4.2.452-1.035.048-.036,1.119-.274Zm4.963-3.368-4.856,1.166-3.987,2.8,8.843-25.839ZM275.9,103.208l-1.047-.19-3.511-10.224Zm-1.464,2.238-.714-1.166.322.023v.012Zm-.916-2.678-.833-.155-7.867-12.735,3.939-.952ZM262.336,88.117l.619,1-1.036.25Zm-.559-3.154.773-1.345-.559,1.69Zm1.035,1.678,2.416-7.391.286.238,2.856,8.319-4.2,1.012Zm2.095-8.4.083.024v.024Zm5.915,8.974-.559.131-3.714-8.474-.024-.083-.011-.012-.6-1.357L268.132,79l2.274,4.713.023.048.393,1.166Zm0-6.939v.964l-2.6-7.569ZM259.253,51.114l9.094,26.565-3.773-2.69-5.321-1.333ZM264.478,77.1l-1.63-1.345,1.119.273.059.048Zm-5.225-2.214.952.226,3.964,3.273-3.095,5.427-1.654-2.666-.167.107Zm0,8.248,1.143,1.857L259.253,87Zm0,6.237.167-.3,1.69-2.94.4.655-.964,2.916-.679.154-.023.012-.6.143Zm0,1.868.869-.214-.869,2.642Zm0,6.284.131-.416v-.012l2.107-6.4,2.119-.512,7.51,12.152-9.9-1.809-1.964-.393Zm0,3.809,4.464.821-4.464-.4Zm.084,2.416-.012-.321,3.273,1.559Zm2.178-.607,10.723,1,3.571,5.784Zm14.615,3.571-.785-2.274.785.072Z" transform="translate(-95.948 -31.682)" fill="#010101"/>
          <g>
            <polygon points="155.117 47.246 155.045 47.389 155.093 47.258 155.117 47.246" fill="#010101"/>
            <polygon points="156.688 46.723 156.628 46.747 156.64 46.735 156.688 46.723" fill="#010101"/>
          </g>
          <polygon points="156.688 46.723 156.628 46.747 156.64 46.735 156.688 46.723" fill="#010101"/>
        </g>
        <g>
          <polygon points="169.042 46.58 169.042 46.604 168.959 46.556 169.042 46.58" fill="#010101"/>
          <polygon points="169.042 46.58 169.042 46.604 168.959 46.556 169.042 46.58" fill="#010101"/>
        </g>
      </g>
      <g>
        <g>
          <path d="M381.288,230.766l1.084-.264v-6.79L371.69,196.378l-.476.183-.294.1h-.01l-.375-.152-.01.02-.01.041-10.632,27.09-.03,6.973,1.074.263-5.564,12.7-.041,6.537,14.22,3.74.253-.983-11.807-3.1,12.587-4.753.132,13.885,1.014-.01-.132-14.027,12.638,4.774-11.807,3.1.253.983L386.892,250v-6.435Zm-20.422-6.831,2.159-5.5-2.159,6.3Zm0,5.908v-1.976l.325-.953.01-.02,1.946-4.044,1.885-1.348-.5,1.156-.061.121-3.141,7.176Zm7.034-3.06.659,1.145-.183.3Zm.537,4.9-.872-.213.527-.841Zm-1.905-.467-3.588-.861,2.432-7.084.244-.193,2.057,6.284Zm-.568.913-6.7,10.824v.01l-.71.121,4.054-11.776Zm-5.554,2.493,1.216-3.547.3.07-1.52,3.477-2.99,8.675-.881.162Zm-2.027,9.76-.608.993.335-.963Zm-2.047.192.669-.061-.669,1.936Zm14.158-.6-2.625,1,2.625-1.246Zm0-.719-1.713.162L356.61,249.18l3.04-4.915,9.131-.851,1.713-.811Zm0-1.014-3.294.3,2.038-.375,1.256-.253Zm0-1.368-9.881,1.834,6.395-10.327,1.8.436,1.682,5.128Zm0-6.182-.527-1.591.527.131Zm0-2.514-.892-.213-.81-2.472.344-.558,1.358,2.372Zm0-2.908-.75-1.308.75-1.226Zm0-4.46-1.327,2.149-2.646-4.632,3.375-2.777.6-.142Zm-4.226-3.577.385-.882.041-.03.952-.234Zm4.226-2.868-4.135.993-3.395,2.381,7.53-22Zm15.192,24.972-.892-.163-2.989-8.7Zm-1.246,1.905-.608-.993.273.02v.01Zm-.781-2.28-.709-.132-6.7-10.844,3.354-.811Zm-9.526-12.476.527.851-.882.213Zm-.477-2.686.659-1.145-.476,1.439Zm.882,1.429,2.057-6.294.244.2,2.432,7.084-3.578.862Zm1.784-7.155.071.02v.02Zm5.037,7.642-.477.111-3.162-7.216-.02-.071-.01-.01-.507-1.155,1.885,1.348L381,226.732l.02.04.335.994Zm0-5.909v.821l-2.21-6.446Zm-9.851-24.83,7.743,22.621-3.213-2.291-4.53-1.135Zm4.449,22.124-1.389-1.145.953.233.051.04Zm-4.449-1.885.81.192,3.375,2.787-2.635,4.622-1.408-2.27-.142.091Zm0,7.023.973,1.581-.973,1.713Zm0,5.311.142-.253,1.439-2.5.344.558-.821,2.483-.577.131-.02.011-.507.121Zm0,1.591.74-.182-.74,2.25Zm0,5.351.111-.354v-.011l1.794-5.452,1.8-.436,6.4,10.348-8.432-1.541-1.672-.334Zm0,3.243,3.8.7-3.8-.345Zm.071,2.058-.01-.274,2.787,1.328Zm1.854-.517,9.132.851,3.04,4.926Zm12.446,3.04-.669-1.935.669.06Z" transform="translate(-95.948 -31.682)" fill="#010101"/>
          <g>
            <polygon points="268.587 190.976 268.526 191.097 268.566 190.986 268.587 190.976" fill="#010101"/>
            <polygon points="269.925 190.53 269.874 190.55 269.884 190.54 269.925 190.53" fill="#010101"/>
          </g>
          <polygon points="269.925 190.53 269.874 190.55 269.884 190.54 269.925 190.53" fill="#010101"/>
        </g>
        <g>
          <polygon points="280.444 190.408 280.444 190.428 280.373 190.388 280.444 190.408" fill="#010101"/>
          <polygon points="280.444 190.408 280.444 190.428 280.373 190.388 280.444 190.408" fill="#010101"/>
        </g>
      </g>
      <g>
        <polygon points="75.11 348.68 76.967 357.686 54.336 355.557 56.719 346.95 54.437 346.734 57.769 334.714 56.379 334.583 59.057 324.92 59.054 324.92 58.014 324.822 58.58 322.778 60.565 315.62 58.783 315.453 59.584 312.563 62.386 302.449 62.39 302.445 64.191 295.941 67.471 284.114 69.577 294.326 70.63 299.44 72.651 309.247 72.654 309.25 72.654 309.254 74.23 316.905 72.71 316.761 72.706 316.761 73.177 319.044 73.181 319.05 74.691 326.388 74.008 326.323 76.091 336.437 74.482 336.287 74.479 336.287 77.072 348.863 75.113 348.68 75.11 348.68" fill="#213831"/>
        <polygon points="86.826 340.132 90.404 345.662 76.967 357.686 75.113 348.68 77.072 348.863 74.482 336.287 76.091 336.437 74.008 326.323 74.691 326.388 73.181 319.05 73.177 319.044 72.71 316.761 74.23 316.905 72.654 309.254 72.654 309.25 70.637 299.45 69.584 294.336 67.474 284.094 83.399 308.701 80.538 311.261 84.593 317.53 83.164 318.808 87.794 325.963 85.054 328.416 90.505 336.839 86.826 340.132" fill="#3d5f54"/>
        <polygon points="67.468 284.114 64.191 295.941 64.188 295.948 62.39 302.445 62.386 302.449 59.584 312.563 58.783 315.453 60.565 315.62 58.58 322.778 58.014 324.822 59.054 324.92 56.379 334.583 57.769 334.714 54.437 346.734 56.719 346.95 54.336 355.557 46.56 341.421 49.234 337.271 46.664 332.598 51.317 325.381 49.607 322.268 53.387 316.408 52.285 314.404 55.48 309.45 53.479 305.807 67.468 284.114" fill="#192924"/>
      </g>
      <g>
        <polygon points="127.807 165.684 129.665 174.69 107.033 172.561 109.417 163.954 107.134 163.739 110.466 151.718 109.077 151.587 111.755 141.924 111.751 141.924 110.712 141.826 111.277 139.783 113.262 132.625 111.48 132.458 112.281 129.567 115.084 119.453 115.087 119.45 116.889 112.946 120.168 101.118 122.274 111.33 123.327 116.445 125.348 126.251 125.351 126.255 125.351 126.258 126.927 133.91 125.407 133.766 125.404 133.766 125.875 136.048 125.878 136.055 127.389 143.393 126.705 143.327 128.788 153.441 127.179 153.291 127.176 153.291 129.769 165.867 127.81 165.684 127.807 165.684" fill="#213831"/>
        <polygon points="139.524 157.136 143.101 162.666 129.665 174.69 127.81 165.684 129.769 165.867 127.179 153.291 128.788 153.441 126.705 143.327 127.389 143.393 125.878 136.055 125.875 136.048 125.407 133.766 126.927 133.91 125.351 126.258 125.351 126.255 123.334 116.454 122.281 111.34 120.172 101.098 136.097 125.705 133.235 128.266 137.29 134.534 135.861 135.813 140.491 142.968 137.751 145.42 143.202 153.844 139.524 157.136" fill="#3d5f54"/>
        <polygon points="120.165 101.118 116.889 112.946 116.885 112.952 115.087 119.45 115.084 119.453 112.281 129.567 111.48 132.458 113.262 132.625 111.277 139.783 110.712 141.826 111.751 141.924 109.077 151.587 110.466 151.718 107.134 163.739 109.417 163.954 107.033 172.561 99.257 158.425 101.932 154.275 99.361 149.602 104.015 142.385 102.304 139.272 106.085 133.413 104.983 131.408 108.177 126.454 106.176 122.811 120.165 101.118" fill="#192924"/>
      </g>
      <g>
        <polygon points="327.967 248.316 321.285 260.469 319.236 253.07 321.195 252.885 318.333 242.551 319.528 242.438 317.226 234.131 318.122 234.047 317.639 232.301 317.639 232.298 315.93 226.136 317.459 225.993 316.767 223.502 316.767 223.499 314.361 214.815 314.361 214.81 314.353 214.782 312.812 209.215 312.809 209.213 309.995 199.05 322.022 217.7 320.301 220.828 323.048 225.09 322.1 226.813 325.35 231.851 323.88 234.527 327.88 240.732 325.668 244.752 327.967 248.316" fill="#3d5f54"/>
        <polygon points="301.826 262.299 303.423 254.557 303.42 254.557 301.739 254.715 303.968 243.903 303.965 243.903 302.579 244.032 304.373 235.337 304.37 235.337 303.783 235.393 305.081 229.091 305.081 229.088 305.489 227.117 305.486 227.117 304.182 227.241 305.537 220.663 305.54 220.66 307.277 212.226 308.182 207.829 309.992 199.05 312.809 209.213 314.353 214.782 314.361 214.81 314.361 214.815 316.767 223.499 316.767 223.502 317.459 225.993 315.93 226.136 317.639 232.298 317.639 232.301 318.122 234.047 317.226 234.131 319.528 242.438 318.333 242.551 318.331 242.551 321.195 252.885 319.236 253.07 319.233 253.07 321.285 260.469 301.826 262.299" fill="#213831"/>
        <polygon points="309.99 199.033 308.176 207.838 307.271 212.232 305.537 220.663 304.182 227.241 305.486 227.117 305.081 229.088 305.081 229.091 303.783 235.393 304.37 235.337 302.579 244.032 303.965 243.903 301.739 254.715 303.42 254.557 301.826 262.299 290.278 251.963 293.353 247.212 290.188 244.378 294.874 237.136 292.518 235.028 296.499 228.877 295.273 227.778 298.759 222.391 296.296 220.187 309.99 199.033" fill="#192924"/>
      </g>
      <g>
        <polygon points="39.11 372.089 38.851 372.713 38.711 372.666 39.11 372.089" fill="#21423d"/>
        <polygon points="39.11 372.089 38.851 372.713 38.711 372.666 39.11 372.089" fill="#21423d"/>
        <polygon points="39.11 372.089 38.851 372.713 38.711 372.666 39.11 372.089" fill="#2a4f48"/>
        <g>
          <polygon points="46.552 347.731 41.416 360.132 38.681 366.738 36.548 371.886 38.021 372.416 36.735 375.526 35.185 379.266 36.015 379.564 33.688 385.179 35.625 385.875 32.676 392.997 31.998 382.376 33.382 380.376 33.03 374.91 34.747 372.425 34.593 370.002 36.271 367.574 35.979 363.021 46.552 347.731" fill="#21423d"/>
          <polygon points="47.779 383.798 47.174 383.581 47.651 390.202 46.511 389.792 47.112 398.189 32.676 392.997 35.625 385.875 33.688 385.179 36.015 379.564 35.185 379.266 36.735 375.526 38.021 372.416 36.548 371.886 38.681 366.738 41.416 360.132 46.552 347.731 47.127 355.748 47.207 356.867 47.207 356.87 47.41 359.667 47.523 361.265 47.523 361.268 48.002 367.943 48.002 367.946 48.183 370.461 48.183 370.464 48.597 376.222 47.198 375.719 47.779 383.798" fill="#2a4f48"/>
          <polygon points="39.11 372.089 38.851 372.713 38.711 372.666 39.11 372.089" fill="#2a4f48"/>
          <polygon points="59.453 384.783 60.137 392.211 47.112 398.189 46.511 389.792 47.651 390.202 47.174 383.581 47.779 383.798 47.198 375.719 48.597 376.222 48.183 370.464 48.183 370.461 48.002 367.946 48.002 367.943 47.523 361.268 47.523 361.265 47.41 359.667 47.207 356.87 47.207 356.867 47.127 355.748 46.552 347.731 58.596 361.756 59.468 371.231 58.506 371.672 58.602 372.704 59.235 373.443 60.247 384.42 59.453 384.783" fill="#3e7063"/>
        </g>
      </g>
      <g>
        <polygon points="64.008 127.988 64.008 156.5 63.343 156.323 63.343 167.205 63.085 167.135 63.085 181.723 50.534 178.375 44.259 168.408 50.401 159.855 48.356 156.603 52.716 150.531 50.427 146.895 64.008 127.988" fill="#1f3f33"/>
        <polygon points="74.159 175.274 63.085 181.512 63.085 167.135 63.343 167.205 63.343 156.323 64.008 156.5 64.008 128.121 71.996 151.845 69.238 153.399 72.158 162.07 70.102 163.229 74.159 175.274" fill="#468b72"/>
      </g>
      <g>
        <polygon points="155.21 392.026 157.067 401.032 134.435 398.903 136.819 390.296 134.537 390.081 137.869 378.06 136.479 377.929 139.157 368.266 139.154 368.266 138.114 368.168 138.68 366.125 140.665 358.967 138.882 358.8 139.684 355.909 142.486 345.795 142.489 345.792 144.291 339.288 147.571 327.46 149.677 337.672 150.73 342.787 152.75 352.593 152.754 352.597 152.754 352.6 154.33 360.252 152.809 360.108 152.806 360.108 153.277 362.39 153.28 362.397 154.791 369.735 154.108 369.669 156.191 379.783 154.582 379.633 154.578 379.633 157.172 392.209 155.213 392.026 155.21 392.026" fill="#213831"/>
        <polygon points="166.926 383.479 170.503 389.008 157.067 401.032 155.213 392.026 157.172 392.209 154.582 379.633 156.191 379.783 154.108 369.669 154.791 369.735 153.28 362.397 153.277 362.39 152.809 360.108 154.33 360.252 152.754 352.6 152.754 352.597 150.736 342.796 149.683 337.682 147.574 327.441 163.499 352.047 160.638 354.608 164.693 360.876 163.264 362.155 167.894 369.31 165.154 371.762 170.605 380.186 166.926 383.479" fill="#3d5f54"/>
        <polygon points="147.568 327.46 144.291 339.288 144.288 339.294 142.489 345.792 142.486 345.795 139.684 355.909 138.882 358.8 140.665 358.967 138.68 366.125 138.114 368.168 139.154 368.266 136.479 377.929 137.869 378.06 134.537 390.081 136.819 390.296 134.435 398.903 126.659 384.767 129.334 380.617 126.764 375.944 131.417 368.728 129.707 365.615 133.487 359.755 132.385 357.75 135.58 352.796 133.578 349.153 147.568 327.46" fill="#192924"/>
      </g>
      <g>
        <polygon points="91.455 279.858 91.196 280.483 91.056 280.435 91.455 279.858" fill="#21423d"/>
        <polygon points="91.455 279.858 91.196 280.483 91.056 280.435 91.455 279.858" fill="#21423d"/>
        <polygon points="91.455 279.858 91.196 280.483 91.056 280.435 91.455 279.858" fill="#2a4f48"/>
        <g>
          <polygon points="98.898 255.501 93.762 267.901 91.027 274.507 88.893 279.656 90.366 280.185 89.081 283.295 87.53 287.036 88.36 287.333 86.033 292.948 87.971 293.645 85.021 300.766 84.343 290.145 85.727 288.146 85.376 282.679 87.093 280.194 86.938 277.772 88.616 275.344 88.325 270.791 98.898 255.501" fill="#21423d"/>
          <polygon points="100.124 291.568 99.52 291.35 99.996 297.972 98.856 297.561 99.457 305.959 85.021 300.766 87.971 293.645 86.033 292.948 88.36 287.333 87.53 287.036 89.081 283.295 90.366 280.185 88.893 279.656 91.027 274.507 93.762 267.901 98.898 255.501 99.472 263.518 99.552 264.637 99.552 264.64 99.755 267.437 99.868 269.035 99.868 269.038 100.347 275.713 100.347 275.716 100.529 278.23 100.529 278.233 100.942 283.991 99.543 283.488 100.124 291.568" fill="#2a4f48"/>
          <polygon points="91.455 279.858 91.196 280.483 91.056 280.435 91.455 279.858" fill="#2a4f48"/>
          <polygon points="111.798 292.553 112.482 299.98 99.457 305.959 98.856 297.561 99.996 297.972 99.52 291.35 100.124 291.568 99.543 283.488 100.942 283.991 100.529 278.233 100.529 278.23 100.347 275.716 100.347 275.713 99.868 269.038 99.868 269.035 99.755 267.437 99.552 264.64 99.552 264.637 99.472 263.518 98.898 255.501 110.941 269.526 111.813 279.001 110.852 279.441 110.947 280.474 111.581 281.212 112.592 292.19 111.798 292.553" fill="#3e7063"/>
        </g>
      </g>
      <g>
        <polygon points="171.97 280.035 171.97 308.547 171.305 308.37 171.305 319.252 171.047 319.182 171.047 333.77 158.496 330.422 152.221 320.455 158.363 311.902 156.318 308.65 160.678 302.578 158.389 298.942 171.97 280.035" fill="#1f3f33"/>
        <polygon points="182.121 327.321 171.047 333.559 171.047 319.182 171.305 319.252 171.305 308.37 171.97 308.547 171.97 280.168 179.958 303.892 177.2 305.446 180.12 314.117 178.064 315.276 182.121 327.321" fill="#468b72"/>
      </g>
      <g>
        <polygon points="135.897 60.645 129.214 72.798 127.165 65.399 129.124 65.214 126.263 54.88 127.457 54.767 125.155 46.46 126.052 46.376 125.568 44.63 125.568 44.627 123.859 38.465 125.388 38.322 124.697 35.831 124.697 35.828 122.29 27.144 122.29 27.139 122.282 27.11 120.741 21.544 120.739 21.541 117.925 11.379 129.951 30.029 128.23 33.157 130.977 37.419 130.03 39.142 133.279 44.18 131.809 46.856 135.809 53.061 133.597 57.081 135.897 60.645" fill="#3d5f54"/>
        <polygon points="109.755 74.628 111.352 66.886 111.349 66.886 109.668 67.044 111.897 56.232 111.894 56.232 110.509 56.361 112.302 47.666 112.299 47.666 111.712 47.722 113.011 41.419 113.011 41.417 113.418 39.446 113.415 39.446 112.111 39.57 113.466 32.992 113.469 32.989 115.206 24.555 116.111 20.158 117.922 11.379 120.739 21.541 122.282 27.11 122.29 27.139 122.29 27.144 124.697 35.828 124.697 35.831 125.388 38.322 123.859 38.465 125.568 44.627 125.568 44.63 126.052 46.376 125.155 46.46 127.457 54.767 126.263 54.88 126.26 54.88 129.124 65.214 127.165 65.399 127.162 65.399 129.214 72.798 109.755 74.628" fill="#213831"/>
        <polygon points="117.919 11.362 116.106 20.167 115.2 24.561 113.466 32.992 112.111 39.57 113.415 39.446 113.011 41.417 113.011 41.419 111.712 47.722 112.299 47.666 110.509 56.361 111.894 56.232 109.668 67.044 111.349 66.886 109.755 74.628 98.207 64.291 101.282 59.541 98.117 56.707 102.803 49.465 100.447 47.357 104.428 41.206 103.202 40.107 106.688 34.72 104.225 32.516 117.919 11.362" fill="#192924"/>
      </g>
      <g>
        <polygon points="235.073 261.604 236.93 270.61 214.299 268.481 216.683 259.874 214.4 259.658 217.732 247.638 216.343 247.507 219.021 237.844 219.017 237.844 217.978 237.746 218.543 235.702 220.528 228.544 218.746 228.378 219.547 225.487 222.35 215.373 222.353 215.37 224.155 208.866 227.434 197.038 229.54 207.25 230.593 212.364 232.614 222.171 232.617 222.174 232.617 222.178 234.193 229.829 232.673 229.686 232.67 229.686 233.141 231.968 233.144 231.975 234.655 239.312 233.971 239.247 236.054 249.361 234.445 249.211 234.442 249.211 237.035 261.787 235.076 261.604 235.073 261.604" fill="#213831"/>
        <polygon points="246.79 253.056 250.367 258.586 236.93 270.61 235.076 261.604 237.035 261.787 234.445 249.211 236.054 249.361 233.971 239.247 234.655 239.312 233.144 231.975 233.141 231.968 232.673 229.686 234.193 229.829 232.617 222.178 232.617 222.174 230.6 212.374 229.547 207.26 227.438 197.018 243.363 221.625 240.501 224.185 244.556 230.454 243.127 231.733 247.757 238.887 245.017 241.34 250.468 249.763 246.79 253.056" fill="#3d5f54"/>
        <polygon points="227.431 197.038 224.155 208.866 224.151 208.872 222.353 215.37 222.35 215.373 219.547 225.487 218.746 228.378 220.528 228.544 218.543 235.702 217.978 237.746 219.017 237.844 216.343 247.507 217.732 247.638 214.4 259.658 216.683 259.874 214.299 268.481 206.523 254.345 209.198 250.195 206.627 245.522 211.281 238.305 209.57 235.192 213.35 229.332 212.249 227.328 215.443 222.374 213.442 218.731 227.431 197.038" fill="#192924"/>
      </g>
      <g>
        <polygon points="136.429 234.093 129.747 246.246 127.698 238.847 129.657 238.661 126.795 228.327 127.99 228.215 125.688 219.908 126.584 219.823 126.101 218.078 126.101 218.075 124.392 211.913 125.921 211.769 125.229 209.279 125.229 209.276 122.823 200.592 122.823 200.586 122.815 200.558 121.274 194.992 121.271 194.989 118.457 184.827 130.484 203.476 128.763 206.605 131.51 210.867 130.562 212.59 133.812 217.628 132.342 220.304 136.342 226.509 134.13 230.529 136.429 234.093" fill="#3d5f54"/>
        <polygon points="110.288 248.076 111.885 240.334 111.882 240.334 110.201 240.491 112.43 229.68 112.427 229.68 111.041 229.809 112.835 221.114 112.832 221.114 112.244 221.17 113.543 214.867 113.543 214.865 113.951 212.894 113.948 212.894 112.644 213.018 113.999 206.439 114.001 206.437 115.739 198.003 116.644 193.606 118.454 184.827 121.271 194.989 122.815 200.558 122.823 200.586 122.823 200.592 125.229 209.276 125.229 209.279 125.921 211.769 124.392 211.913 126.101 218.075 126.101 218.078 126.584 219.823 125.688 219.908 127.99 228.215 126.795 228.327 126.792 228.327 129.657 238.661 127.698 238.847 127.695 238.847 129.747 246.246 110.288 248.076" fill="#213831"/>
        <polygon points="118.452 184.81 116.638 193.615 115.733 198.009 113.999 206.439 112.644 213.018 113.948 212.894 113.543 214.865 113.543 214.867 112.244 221.17 112.832 221.114 111.041 229.809 112.427 229.68 110.201 240.491 111.882 240.334 110.288 248.076 98.739 237.739 101.815 232.988 98.649 230.155 103.336 222.913 100.98 220.805 104.961 214.654 103.735 213.554 107.221 208.168 104.758 205.964 118.452 184.81" fill="#192924"/>
      </g>
      <g>
        <polygon points="236.33 290.956 236.071 291.581 235.932 291.534 236.33 290.956" fill="#21423d"/>
        <polygon points="236.33 290.956 236.071 291.581 235.932 291.534 236.33 290.956" fill="#21423d"/>
        <polygon points="236.33 290.956 236.071 291.581 235.932 291.534 236.33 290.956" fill="#2a4f48"/>
        <g>
          <polygon points="243.773 266.599 238.637 279 235.902 285.606 233.768 290.754 235.241 291.284 233.956 294.393 232.405 298.134 233.235 298.432 230.908 304.047 232.846 304.743 229.897 311.864 229.218 301.244 230.602 299.244 230.251 293.777 231.968 291.293 231.813 288.87 233.491 286.442 233.2 281.889 243.773 266.599" fill="#21423d"/>
          <polygon points="244.999 302.666 244.395 302.449 244.871 309.07 243.731 308.66 244.332 317.057 229.897 311.864 232.846 304.743 230.908 304.047 233.235 298.432 232.405 298.134 233.956 294.393 235.241 291.284 233.768 290.754 235.902 285.606 238.637 279 243.773 266.599 244.347 274.616 244.428 275.735 244.428 275.738 244.63 278.535 244.743 280.133 244.743 280.136 245.222 286.811 245.222 286.814 245.404 289.329 245.404 289.332 245.817 295.09 244.419 294.587 244.999 302.666" fill="#2a4f48"/>
          <polygon points="236.33 290.956 236.071 291.581 235.932 291.534 236.33 290.956" fill="#2a4f48"/>
          <polygon points="256.673 303.651 257.357 311.079 244.332 317.057 243.731 308.66 244.871 309.07 244.395 302.449 244.999 302.666 244.419 294.587 245.817 295.09 245.404 289.332 245.404 289.329 245.222 286.814 245.222 286.811 244.743 280.136 244.743 280.133 244.63 278.535 244.428 275.738 244.428 275.735 244.347 274.616 243.773 266.599 255.816 280.624 256.688 290.099 255.727 290.54 255.822 291.572 256.456 292.31 257.468 303.288 256.673 303.651" fill="#3e7063"/>
        </g>
      </g>
      <g>
        <polygon points="151.829 116.859 151.57 117.484 151.43 117.436 151.829 116.859" fill="#21423d"/>
        <polygon points="151.829 116.859 151.57 117.484 151.43 117.436 151.829 116.859" fill="#21423d"/>
        <polygon points="151.829 116.859 151.57 117.484 151.43 117.436 151.829 116.859" fill="#2a4f48"/>
        <g>
          <polygon points="159.271 92.502 154.135 104.902 151.4 111.509 149.266 116.657 150.739 117.186 149.454 120.296 147.903 124.037 148.734 124.334 146.407 129.95 148.344 130.646 145.395 137.767 144.716 127.146 146.1 125.147 145.749 119.68 147.466 117.195 147.311 114.773 148.99 112.345 148.698 107.792 159.271 92.502" fill="#21423d"/>
          <polygon points="160.497 128.569 159.893 128.352 160.369 134.973 159.229 134.562 159.831 142.96 145.395 137.767 148.344 130.646 146.407 129.95 148.734 124.334 147.903 124.037 149.454 120.296 150.739 117.186 149.266 116.657 151.4 111.509 154.135 104.902 159.271 92.502 159.845 100.519 159.926 101.638 159.926 101.641 160.128 104.438 160.241 106.036 160.241 106.039 160.72 112.714 160.72 112.717 160.902 115.231 160.902 115.234 161.315 120.992 159.917 120.49 160.497 128.569" fill="#2a4f48"/>
          <polygon points="151.829 116.859 151.57 117.484 151.43 117.436 151.829 116.859" fill="#2a4f48"/>
          <polygon points="172.171 129.554 172.856 136.982 159.831 142.96 159.229 134.562 160.369 134.973 159.893 128.352 160.497 128.569 159.917 120.49 161.315 120.992 160.902 115.234 160.902 115.231 160.72 112.717 160.72 112.714 160.241 106.039 160.241 106.036 160.128 104.438 159.926 101.641 159.926 101.638 159.845 100.519 159.271 92.502 171.314 106.527 172.186 116.002 171.225 116.442 171.32 117.475 171.954 118.213 172.966 129.191 172.171 129.554" fill="#3e7063"/>
        </g>
      </g>
      <g>
        <polygon points="341.396 169.381 341.396 197.893 340.731 197.716 340.731 208.598 340.473 208.528 340.473 223.116 327.922 219.768 321.647 209.802 327.789 201.249 325.744 197.997 330.104 191.924 327.815 188.288 341.396 169.381" fill="#1f3f33"/>
        <polygon points="351.547 216.668 340.473 222.906 340.473 208.528 340.731 208.598 340.731 197.716 341.396 197.893 341.396 169.514 349.384 193.239 346.626 194.793 349.546 203.464 347.49 204.623 351.547 216.668" fill="#468b72"/>
      </g>
      <g>
        <polygon points="248.701 141.028 248.701 169.54 248.036 169.362 248.036 180.245 247.778 180.174 247.778 194.763 235.227 191.415 228.952 181.448 235.095 172.895 233.05 169.643 237.409 163.571 235.12 159.935 248.701 141.028" fill="#1f3f33"/>
        <polygon points="258.852 188.314 247.778 194.552 247.778 180.174 248.036 180.245 248.036 169.362 248.701 169.54 248.701 141.161 256.689 164.885 253.931 166.439 256.851 175.11 254.795 176.269 258.852 188.314" fill="#468b72"/>
      </g>
      <g>
        <polygon points="201.406 174.965 203.263 183.971 180.632 181.842 183.016 173.235 180.733 173.02 184.065 160.999 182.675 160.868 185.354 151.205 185.35 151.205 184.31 151.107 184.876 149.064 186.861 141.906 185.079 141.739 185.88 138.848 188.682 128.734 188.686 128.731 190.487 122.227 193.767 110.399 195.873 120.611 196.926 125.726 198.947 135.532 198.95 135.536 198.95 135.539 200.526 143.191 199.006 143.047 199.003 143.047 199.473 145.329 199.477 145.336 200.987 152.674 200.304 152.608 202.387 162.722 200.778 162.572 200.775 162.572 203.368 175.148 201.409 174.965 201.406 174.965" fill="#213831"/>
        <polygon points="213.122 166.417 216.7 171.947 203.263 183.971 201.409 174.965 203.368 175.148 200.778 162.572 202.387 162.722 200.304 152.608 200.987 152.674 199.477 145.336 199.473 145.329 199.006 143.047 200.526 143.191 198.95 135.539 198.95 135.536 196.933 125.735 195.88 120.621 193.771 110.38 209.695 134.986 206.834 137.547 210.889 143.815 209.46 145.094 214.09 152.249 211.35 154.701 216.801 163.125 213.122 166.417" fill="#3d5f54"/>
        <polygon points="193.764 110.399 190.487 122.227 190.484 122.233 188.686 128.731 188.682 128.734 185.88 138.848 185.079 141.739 186.861 141.906 184.876 149.064 184.31 151.107 185.35 151.205 182.675 160.868 184.065 160.999 180.733 173.02 183.016 173.235 180.632 181.842 172.856 167.706 175.531 163.556 172.96 158.883 177.614 151.667 175.903 148.553 179.683 142.694 178.581 140.689 181.776 135.735 179.775 132.092 193.764 110.399" fill="#192924"/>
      </g>
    </g>
  </g>
</svg>
