<svg id="Layer_1" data-name="Layer 1" xmlns="http://www.w3.org/2000/svg" viewBox="0 0 347.514 453.696">
  <g>
    <polygon points="345.283 68.871 341.373 68.926 342.977 83.14 343.148 83.365 343.157 83.375 343.157 83.411 344.13 84.681 344.247 90.5 342.058 94.067 337.689 97.977 338.382 118.56 338.455 118.578 337.869 126.307 335.761 130.145 334.833 132.595 334.833 135.513 327.014 143.026 325.483 153.755 323.645 157.745 323.033 165.258 321.348 166.33 315.214 166.33 310.304 162.34 307.088 164.339 306.323 170.312 297.423 170.312 295.891 177.824 292.063 177.824 291.288 182.734 282.55 192.084 279.488 193.012 276.109 194.543 271.056 194.543 267.831 193.625 265.687 192.237 260.318 196.381 254.184 197.453 250.815 199.759 248.049 203.741 247.13 213.091 247.175 213.235 247.13 213.704 247.959 216.181 247.13 219.073 241.771 224.901 240.23 230.116 234.258 231.648 231.186 233.179 207.729 232.414 201.441 235.945 192.704 243.917 188.56 245.755 186.416 249.124 186.596 249.448 186.416 249.736 189.92 255.988 189.785 259.555 189.803 259.564 189.785 260.158 193.622 261.537 196.685 261.537 201.595 268.131 202.666 271.049 208.035 277.175 209.26 287.759 214.683 296.191 214.17 298.65 210.639 302.028 207.729 303.1 200.676 309.541 197.604 310.766 188.866 317.36 182.578 319.044 173.075 329.161 164.184 340.97 164.184 349.095 161.572 352.473 161.617 353.023 161.572 353.077 162.139 360.32 160.04 361.211 160.04 370.715 152.68 377.615 152.068 382.371 152.131 382.452 152.068 382.975 154.851 386.506 153.293 391.875 152.068 397.55 148.546 402.766 137.502 414.873 135.817 417.944 135.817 422.845 134.043 425.808 134.295 425.989 134.034 426.421 144.096 433.808 138.349 441.852 137.43 448.067 130.53 453.121 121.323 448.986 110.054 449.671 101.551 443.239 80.156 361.815 69.311 361.698 58.537 361.59 52.79 358.824 51.411 353.996 47.961 350.78 53.934 342.727 40.602 317.657 40.602 311.676 32.314 310.757 29.333 303.632 27.027 301.785 26.108 296.731 26.108 287.759 23.117 278.562 23.117 266.833 20.126 254.411 16.451 245.214 19.442 238.998 25.883 243.827 30.017 234.864 36.224 226.117 36.224 220.37 40.142 213.704 38.755 205.65 33.702 201.975 33.008 196.678 23.811 196.678 16.451 170.69 8.173 168.618 8.173 163.33 0.813 158.043 8.173 151.836 7.938 146.314 2.651 142.864 7.479 138.495 15.757 140.333 26.342 136.883 38.647 126.992 50.024 136.423 53.934 137.459 57.276 140.216 65.897 140.216 69.23 141.594 71.761 143.441 79.463 143.441 81.454 147.53 79.805 148.899 79.805 149.134 79.463 149.422 79.463 153.214 82.571 157.7 89.354 158.961 98.326 166.898 103.388 169.078 120.062 169.654 122.819 167.934 122.819 167.636 123.161 167.42 123.161 163.745 128.917 157.007 128.944 156.863 129.259 156.493 131.178 146.557 135.583 141.828 135.583 141.675 135.925 141.315 136.043 136.711 133.971 135.108 134.295 130.1 139.385 126.415 139.565 126.01 139.718 125.902 141.105 122.803 139.376 119.812 138.916 109.228 132.592 104.48 127.647 102.328 127.647 99.355 129.602 99.166 130.989 97.436 135.583 97.553 135.916 97.04 135.925 97.04 139.159 92.031 142.024 91.455 146.744 86.167 161.572 86.167 161.86 85.654 161.914 85.654 162.661 84.329 173.534 85.023 178.597 91.112 188.713 97.553 193.316 101.003 198.262 100.202 198.469 99.706 198.604 99.688 202.054 91.635 204.504 87.536 207.918 86.861 211.603 88.473 215.278 89.041 219.764 87.897 220.034 87.401 220.106 87.383 221.601 84.618 221.827 75.078 215.854 69.214 216.197 61.503 213.431 56.792 213.431 51.729 216.35 45.477 217.926 44.423 217.926 44.135 218.268 43.91 218.268 36.19 227.466 28.326 231.835 28.326 236.096 30.74 242.419 26.254 242.419 25.984 242.761 25.741 242.761 22.849 254.031 13.147 254.031 12.931 254.373 12.634 254.373 10.544 257.138 7.166 260.246 7.283 260.471 6.77 260.58 6.77 261.273 5.22 270.02 5.725 273.812 0.5 277.145 0.5 281.055 6.472 286.694 10.85 294.972 21.732 296.044 25.57 304.935 39.983 315.826 52.396 320.88 53.314 322.42 54.702 327.627 54.702 327.852 54.567 328.149 54.567 330.942 52.9 334.068 53.468 346.886 66.142 345.283 68.871" fill="#a4bbb2" stroke="#010101" strokeMiterlimit="10"/>
    <path d="M153.217,379.4v-7.667l2.146-.766v-10.58l2.147-2.147,2.76-3.986.766-4.753-1.993-2.454.153-4.14,2.914-2.606,2.453-1.227h7.206l1.38,2.147,11.04-.307,1.687,1.84,3.68-.153,3.526,1.993,2.76,3.833,2.453,4.14v4.907l6.287,6.133,3.067.307,3.066,3.986,2.453,1.533h5.98s.92,4.447.614,4.447-5.827,6.286-5.827,6.286l1.687,3.987.46,4.14-1.84,2.453.766,4.907,1.687,2.913-.153,9.66,2.146,3.22-.306,6.133-1.84,2.3.153,3.22-3.373,3.833-.307,5.673-1.84.767.307,3.526-3.067,3.374-.306,16.406-3.067.766h-6.287l-2.3,3.68L191.7,464.8l-.678.336-5.566-4.227-21.4-81.424Z" transform="translate(-83.907 -17.672)" fill="#81bdb1" stroke="#010101" strokeMiterlimit="10"/>
    <g>
      <polygon points="186.376 301.234 187.785 308.065 170.617 306.451 172.426 299.922 170.694 299.758 173.222 290.64 172.168 290.54 174.199 283.21 174.197 283.21 173.408 283.136 173.837 281.586 175.343 276.156 173.991 276.029 174.599 273.837 176.724 266.164 176.727 266.162 178.094 261.228 180.582 252.256 182.179 260.003 182.978 263.882 184.511 271.321 184.513 271.324 184.513 271.326 185.709 277.131 184.556 277.022 184.553 277.022 184.91 278.753 184.913 278.758 186.059 284.324 185.54 284.275 187.12 291.947 185.9 291.833 185.898 291.833 187.865 301.373 186.379 301.234 186.376 301.234" fill="#213831"/>
      <polygon points="195.264 294.75 197.978 298.945 187.785 308.065 186.379 301.234 187.865 301.373 185.9 291.833 187.12 291.947 185.54 284.275 186.059 284.324 184.913 278.758 184.91 278.753 184.556 277.022 185.709 277.131 184.513 271.326 184.513 271.324 182.983 263.89 182.184 260.01 180.584 252.241 192.664 270.907 190.494 272.849 193.57 277.604 192.486 278.574 195.998 284.002 193.92 285.862 198.055 292.252 195.264 294.75" fill="#3d5f54"/>
      <polygon points="180.579 252.256 178.094 261.228 178.091 261.233 176.727 266.162 176.724 266.164 174.599 273.837 173.991 276.029 175.343 276.156 173.837 281.586 173.408 283.136 174.197 283.21 172.168 290.54 173.222 290.64 170.694 299.758 172.426 299.922 170.617 306.451 164.719 295.727 166.748 292.579 164.798 289.035 168.328 283.56 167.031 281.199 169.898 276.754 169.062 275.233 171.486 271.475 169.967 268.712 180.579 252.256" fill="#192924"/>
    </g>
    <g>
      <polygon points="65.038 318.767 66.447 325.599 49.279 323.984 51.088 317.455 49.356 317.292 51.884 308.173 50.83 308.074 52.861 300.744 52.859 300.744 52.07 300.669 52.499 299.119 54.005 293.689 52.653 293.563 53.261 291.37 55.386 283.698 55.389 283.695 56.756 278.761 59.244 269.789 60.841 277.536 61.64 281.416 63.173 288.855 63.175 288.857 63.175 288.86 64.371 294.664 63.218 294.555 63.215 294.555 63.572 296.286 63.575 296.291 64.721 301.858 64.202 301.808 65.782 309.48 64.562 309.366 64.56 309.366 66.527 318.906 65.041 318.767 65.038 318.767" fill="#213831"/>
      <polygon points="73.926 312.283 76.64 316.478 66.447 325.599 65.041 318.767 66.527 318.906 64.562 309.366 65.782 309.48 64.202 301.808 64.721 301.858 63.575 296.291 63.572 296.286 63.218 294.555 64.371 294.664 63.175 288.86 63.175 288.857 61.645 281.423 60.846 277.543 59.246 269.774 71.326 288.44 69.156 290.383 72.232 295.138 71.148 296.108 74.66 301.535 72.582 303.396 76.717 309.785 73.926 312.283" fill="#3d5f54"/>
      <polygon points="59.241 269.789 56.756 278.761 56.753 278.766 55.389 283.695 55.386 283.698 53.261 291.37 52.653 293.563 54.005 293.689 52.499 299.119 52.07 300.669 52.859 300.744 50.83 308.074 51.884 308.173 49.356 317.292 51.088 317.455 49.279 323.984 43.381 313.261 45.41 310.113 43.46 306.568 46.99 301.094 45.693 298.732 48.56 294.287 47.724 292.766 50.148 289.008 48.63 286.245 59.241 269.789" fill="#192924"/>
    </g>
    <g>
      <polygon points="148.59 335.312 149.999 342.144 132.831 340.529 134.639 334 132.908 333.836 135.436 324.718 134.381 324.619 136.413 317.289 136.411 317.289 135.622 317.214 136.051 315.664 137.557 310.234 136.205 310.108 136.812 307.915 138.938 300.243 138.941 300.24 140.307 295.306 142.795 286.334 144.393 294.081 145.192 297.96 146.725 305.4 146.727 305.402 146.727 305.405 147.923 311.209 146.769 311.1 146.767 311.1 147.124 312.831 147.126 312.836 148.272 318.403 147.754 318.353 149.334 326.025 148.114 325.911 148.111 325.911 150.078 335.451 148.592 335.312 148.59 335.312" fill="#213831"/>
      <polygon points="157.478 328.828 160.191 333.023 149.999 342.144 148.592 335.312 150.078 335.451 148.114 325.911 149.334 326.025 147.754 318.353 148.272 318.403 147.126 312.836 147.124 312.831 146.769 311.1 147.923 311.209 146.727 305.405 146.727 305.402 145.197 297.968 144.398 294.088 142.798 286.319 154.878 304.985 152.708 306.928 155.784 311.683 154.7 312.653 158.212 318.08 156.133 319.94 160.268 326.33 157.478 328.828" fill="#3d5f54"/>
      <polygon points="142.793 286.334 140.307 295.306 140.305 295.311 138.941 300.24 138.938 300.243 136.812 307.915 136.205 310.108 137.557 310.234 136.051 315.664 135.622 317.214 136.411 317.289 134.381 324.619 135.436 324.718 132.908 333.836 134.639 334 132.831 340.529 126.932 329.806 128.962 326.658 127.012 323.113 130.542 317.639 129.244 315.277 132.112 310.832 131.276 309.311 133.699 305.553 132.181 302.79 142.793 286.334" fill="#192924"/>
    </g>
    <g>
      <polygon points="280.122 58.185 281.531 65.017 264.363 63.402 266.171 56.873 264.44 56.709 266.968 47.591 265.913 47.492 267.945 40.162 267.943 40.162 267.154 40.087 267.583 38.537 269.089 33.107 267.737 32.981 268.344 30.788 270.47 23.115 270.473 23.113 271.839 18.179 274.327 9.207 275.925 16.954 276.724 20.833 278.257 28.273 278.259 28.275 278.259 28.277 279.455 34.082 278.301 33.973 278.299 33.973 278.656 35.704 278.658 35.709 279.804 41.275 279.286 41.226 280.866 48.898 279.646 48.784 279.643 48.784 281.61 58.324 280.124 58.185 280.122 58.185" fill="#213831"/>
      <polygon points="289.01 51.701 291.723 55.896 281.531 65.017 280.124 58.185 281.61 58.324 279.646 48.784 280.866 48.898 279.286 41.226 279.804 41.275 278.658 35.709 278.656 35.704 278.301 33.973 279.455 34.082 278.259 28.277 278.259 28.275 276.729 20.841 275.93 16.961 274.33 9.192 286.41 27.858 284.24 29.801 287.316 34.556 286.232 35.526 289.744 40.953 287.665 42.813 291.8 49.203 289.01 51.701" fill="#3d5f54"/>
      <polygon points="274.325 9.207 271.839 18.179 271.837 18.184 270.473 23.113 270.47 23.115 268.344 30.788 267.737 32.981 269.089 33.107 267.583 38.537 267.154 40.087 267.943 40.162 265.913 47.492 266.968 47.591 264.44 56.709 266.171 56.873 264.363 63.402 258.464 52.679 260.493 49.531 258.544 45.986 262.074 40.511 260.776 38.15 263.644 33.705 262.808 32.184 265.231 28.426 263.713 25.663 274.325 9.207" fill="#192924"/>
    </g>
    <g>
      <polygon points="48.599 186.039 50.008 192.87 32.84 191.255 34.648 184.726 32.917 184.563 35.445 175.444 34.39 175.345 36.422 168.015 36.42 168.015 35.631 167.941 36.06 166.39 37.566 160.96 36.214 160.834 36.821 158.641 38.947 150.969 38.95 150.966 40.316 146.033 42.804 137.06 44.402 144.807 45.201 148.687 46.734 156.126 46.736 156.128 46.736 156.131 47.932 161.935 46.778 161.826 46.776 161.826 47.133 163.558 47.135 163.563 48.281 169.129 47.763 169.079 49.343 176.752 48.123 176.637 48.12 176.637 50.087 186.178 48.601 186.039 48.599 186.039" fill="#213831"/>
      <polygon points="57.487 179.555 60.2 183.749 50.008 192.87 48.601 186.039 50.087 186.178 48.123 176.637 49.343 176.752 47.763 169.079 48.281 169.129 47.135 163.563 47.133 163.558 46.778 161.826 47.932 161.935 46.736 156.131 46.736 156.128 45.206 148.694 44.407 144.815 42.807 137.046 54.887 155.712 52.717 157.654 55.793 162.409 54.709 163.379 58.221 168.806 56.142 170.667 60.277 177.057 57.487 179.555" fill="#3d5f54"/>
      <polygon points="42.802 137.06 40.316 146.033 40.314 146.038 38.95 150.966 38.947 150.969 36.821 158.641 36.214 160.834 37.566 160.96 36.06 166.39 35.631 167.941 36.42 168.015 34.39 175.345 35.445 175.444 32.917 184.563 34.648 184.726 32.84 191.255 26.941 180.532 28.97 177.384 27.021 173.839 30.551 168.365 29.253 166.003 32.121 161.558 31.285 160.038 33.708 156.28 32.19 153.516 42.802 137.06" fill="#192924"/>
    </g>
    <g>
      <polygon points="328.553 131.622 323.484 140.841 321.929 135.228 323.416 135.087 321.245 127.248 322.151 127.163 320.404 120.862 321.085 120.798 320.718 119.473 320.718 119.471 319.421 114.797 320.581 114.688 320.057 112.799 320.057 112.796 318.231 106.209 318.231 106.205 318.225 106.183 317.056 101.961 317.054 101.959 314.92 94.25 324.042 108.397 322.737 110.771 324.821 114.003 324.102 115.311 326.567 119.132 325.452 121.162 328.487 125.869 326.808 128.918 328.553 131.622" fill="#3d5f54"/>
      <polygon points="308.723 142.229 309.934 136.356 309.932 136.356 308.656 136.476 310.348 128.274 310.345 128.274 309.294 128.372 310.655 121.776 310.652 121.776 310.207 121.819 311.192 117.038 311.192 117.036 311.501 115.541 311.499 115.541 310.51 115.635 311.537 110.645 311.54 110.643 312.857 104.245 313.544 100.91 314.917 94.25 317.054 101.959 318.225 106.183 318.231 106.205 318.231 106.209 320.057 112.796 320.057 112.799 320.581 114.688 319.421 114.797 320.718 119.471 320.718 119.473 321.085 120.798 320.404 120.862 322.151 127.163 321.245 127.248 321.243 127.248 323.416 135.087 321.929 135.228 321.927 135.228 323.484 140.841 308.723 142.229" fill="#213831"/>
      <polygon points="314.915 94.237 313.54 100.916 312.853 104.249 311.537 110.645 310.51 115.635 311.499 115.541 311.192 117.036 311.192 117.038 310.207 121.819 310.652 121.776 309.294 128.372 310.345 128.274 308.656 136.476 309.932 136.356 308.723 142.229 299.962 134.388 302.295 130.784 299.894 128.635 303.449 123.141 301.662 121.542 304.681 116.876 303.752 116.042 306.396 111.956 304.528 110.284 314.915 94.237" fill="#192924"/>
    </g>
    <g>
      <polygon points="82.961 265.22 82.765 265.694 82.659 265.658 82.961 265.22" fill="#21423d"/>
      <polygon points="82.961 265.22 82.765 265.694 82.659 265.658 82.961 265.22" fill="#21423d"/>
      <polygon points="82.961 265.22 82.765 265.694 82.659 265.658 82.961 265.22" fill="#2a4f48"/>
      <g>
        <polygon points="88.607 246.744 84.711 256.15 82.636 261.162 81.017 265.067 82.135 265.469 81.16 267.828 79.984 270.665 80.613 270.891 78.848 275.151 80.318 275.679 78.081 281.081 77.566 273.024 78.616 271.507 78.349 267.36 79.652 265.475 79.534 263.638 80.808 261.796 80.586 258.342 88.607 246.744" fill="#21423d"/>
        <polygon points="89.537 274.103 89.079 273.938 89.44 278.961 88.575 278.649 89.031 285.02 78.081 281.081 80.318 275.679 78.848 275.151 80.613 270.891 79.984 270.665 81.16 267.828 82.135 265.469 81.017 265.067 82.636 261.162 84.711 256.15 88.607 246.744 89.042 252.825 89.103 253.674 89.103 253.676 89.257 255.798 89.343 257.01 89.343 257.012 89.706 262.076 89.706 262.078 89.844 263.986 89.844 263.988 90.158 268.356 89.097 267.974 89.537 274.103" fill="#2a4f48"/>
        <polygon points="82.961 265.22 82.765 265.694 82.659 265.658 82.961 265.22" fill="#2a4f48"/>
        <polygon points="98.393 274.85 98.912 280.485 89.031 285.02 88.575 278.649 89.44 278.961 89.079 273.938 89.537 274.103 89.097 267.974 90.158 268.356 89.844 263.988 89.844 263.986 89.706 262.078 89.706 262.076 89.343 257.012 89.343 257.01 89.257 255.798 89.103 253.676 89.103 253.674 89.042 252.825 88.607 246.744 97.742 257.383 98.404 264.57 97.675 264.904 97.747 265.688 98.228 266.247 98.995 274.575 98.393 274.85" fill="#3e7063"/>
      </g>
    </g>
    <g>
      <polygon points="239.343 35.503 239.343 57.131 238.839 56.997 238.839 65.252 238.643 65.199 238.643 76.265 229.123 73.725 224.362 66.165 229.022 59.677 227.471 57.21 230.778 52.603 229.041 49.845 239.343 35.503" fill="#1f3f33"/>
      <polygon points="247.044 71.373 238.643 76.105 238.643 65.199 238.839 65.252 238.839 56.997 239.343 57.131 239.343 35.604 245.403 53.6 243.311 54.779 245.526 61.357 243.966 62.236 247.044 71.373" fill="#468b72"/>
    </g>
    <g>
      <polygon points="185.399 199.175 185.399 220.803 184.895 220.669 184.895 228.924 184.699 228.871 184.699 239.937 175.179 237.397 170.419 229.837 175.078 223.349 173.527 220.882 176.834 216.276 175.098 213.517 185.399 199.175" fill="#1f3f33"/>
      <polygon points="193.1 235.045 184.699 239.777 184.699 228.871 184.895 228.924 184.895 220.669 185.399 220.803 185.399 199.276 191.459 217.272 189.367 218.451 191.582 225.029 190.023 225.908 193.1 235.045" fill="#468b72"/>
    </g>
    <g>
      <polygon points="114.256 276.109 114.256 297.737 113.752 297.603 113.752 305.858 113.556 305.805 113.556 316.871 104.036 314.331 99.276 306.771 103.935 300.283 102.384 297.816 105.691 293.209 103.955 290.451 114.256 276.109" fill="#1f3f33"/>
      <polygon points="121.957 311.979 113.556 316.711 113.556 305.805 113.752 305.858 113.752 297.603 114.256 297.737 114.256 276.21 120.316 294.206 118.224 295.385 120.439 301.963 118.88 302.842 121.957 311.979" fill="#468b72"/>
    </g>
    <g>
      <polygon points="179.304 176.939 180.713 183.77 163.545 182.156 165.353 175.627 163.622 175.463 166.149 166.345 165.095 166.245 167.127 158.915 167.124 158.915 166.335 158.841 166.765 157.291 168.27 151.861 166.918 151.734 167.526 149.541 169.652 141.869 169.654 141.867 171.021 136.933 173.509 127.961 175.107 135.707 175.905 139.587 177.438 147.026 177.441 147.029 177.441 147.031 178.636 152.836 177.483 152.726 177.48 152.726 177.838 154.458 177.84 154.463 178.986 160.029 178.468 159.98 180.048 167.652 178.827 167.538 178.825 167.538 180.792 177.078 179.306 176.939 179.304 176.939" fill="#213831"/>
      <polygon points="188.191 170.455 190.905 174.649 180.713 183.77 179.306 176.939 180.792 177.078 178.827 167.538 180.048 167.652 178.468 159.98 178.986 160.029 177.84 154.463 177.838 154.458 177.483 152.726 178.636 152.836 177.441 147.031 177.441 147.029 175.91 139.594 175.112 135.715 173.512 127.946 185.592 146.612 183.421 148.554 186.497 153.309 185.413 154.279 188.926 159.707 186.847 161.567 190.982 167.957 188.191 170.455" fill="#3d5f54"/>
      <polygon points="173.507 127.961 171.021 136.933 171.019 136.938 169.654 141.867 169.652 141.869 167.526 149.541 166.918 151.734 168.27 151.861 166.765 157.291 166.335 158.841 167.124 158.915 165.095 166.245 166.149 166.345 163.622 175.463 165.353 175.627 163.545 182.156 157.646 171.432 159.675 168.284 157.725 164.74 161.255 159.265 159.958 156.904 162.825 152.459 161.99 150.938 164.413 147.18 162.895 144.417 173.507 127.961" fill="#192924"/>
    </g>
    <g>
      <polygon points="123.291 244.526 118.222 253.745 116.668 248.132 118.154 247.992 115.983 240.153 116.889 240.067 115.143 233.766 115.823 233.702 115.456 232.377 115.456 232.375 114.16 227.701 115.32 227.592 114.795 225.703 114.795 225.701 112.97 219.113 112.97 219.109 112.963 219.088 111.795 214.865 111.793 214.863 109.658 207.154 118.781 221.301 117.476 223.675 119.559 226.908 118.841 228.215 121.306 232.036 120.19 234.066 123.225 238.773 121.547 241.822 123.291 244.526" fill="#3d5f54"/>
      <polygon points="103.461 255.133 104.672 249.261 104.67 249.261 103.395 249.38 105.086 241.178 105.084 241.178 104.032 241.276 105.393 234.681 105.391 234.681 104.945 234.723 105.93 229.942 105.93 229.94 106.24 228.445 106.237 228.445 105.248 228.539 106.276 223.549 106.278 223.547 107.596 217.149 108.283 213.814 109.656 207.154 111.793 214.863 112.963 219.088 112.97 219.109 112.97 219.113 114.795 225.701 114.795 225.703 115.32 227.592 114.16 227.701 115.456 232.375 115.456 232.377 115.823 233.702 115.143 233.766 116.889 240.067 115.983 240.153 115.981 240.153 118.154 247.992 116.668 248.132 116.665 248.132 118.222 253.745 103.461 255.133" fill="#213831"/>
      <polygon points="109.654 207.141 108.278 213.82 107.592 217.153 106.276 223.549 105.248 228.539 106.237 228.445 105.93 229.94 105.93 229.942 104.945 234.723 105.391 234.681 104.032 241.276 105.084 241.178 103.395 249.38 104.67 249.261 103.461 255.133 94.701 247.292 97.034 243.688 94.632 241.539 98.187 236.045 96.4 234.446 99.42 229.78 98.49 228.946 101.134 224.86 99.266 223.188 109.654 207.141" fill="#192924"/>
    </g>
    <g>
      <polygon points="65.598 240.898 67.007 247.729 49.84 246.115 51.648 239.586 49.917 239.422 52.444 230.304 51.39 230.204 53.422 222.874 53.419 222.874 52.63 222.8 53.059 221.25 54.565 215.82 53.213 215.693 53.821 213.5 55.947 205.828 55.949 205.826 57.316 200.892 59.804 191.92 61.401 199.666 62.2 203.546 63.733 210.985 63.736 210.988 63.736 210.99 64.931 216.795 63.778 216.685 63.775 216.685 64.132 218.417 64.135 218.422 65.281 223.988 64.763 223.939 66.343 231.611 65.122 231.497 65.12 231.497 67.087 241.037 65.601 240.898 65.598 240.898" fill="#213831"/>
      <polygon points="74.486 234.414 77.2 238.608 67.007 247.729 65.601 240.898 67.087 241.037 65.122 231.497 66.343 231.611 64.763 223.939 65.281 223.988 64.135 218.422 64.132 218.417 63.778 216.685 64.931 216.795 63.736 210.99 63.736 210.988 62.205 203.553 61.406 199.674 59.806 191.905 71.887 210.571 69.716 212.513 72.792 217.268 71.708 218.238 75.22 223.666 73.142 225.526 77.277 231.916 74.486 234.414" fill="#3d5f54"/>
      <polygon points="59.801 191.92 57.316 200.892 57.313 200.897 55.949 205.826 55.947 205.828 53.821 213.5 53.213 215.693 54.565 215.82 53.059 221.25 52.63 222.8 53.419 222.874 51.39 230.204 52.444 230.304 49.917 239.422 51.648 239.586 49.84 246.115 43.941 235.391 45.97 232.243 44.02 228.699 47.55 223.224 46.253 220.863 49.12 216.418 48.284 214.897 50.708 211.139 49.19 208.376 59.801 191.92" fill="#192924"/>
    </g>
    <g>
      <polygon points="213.942 155.026 215.351 161.857 198.183 160.242 199.992 153.714 198.26 153.55 200.788 144.431 199.734 144.332 201.765 137.002 201.763 137.002 200.974 136.928 201.403 135.377 202.909 129.948 201.557 129.821 202.165 127.628 204.291 119.956 204.293 119.953 205.66 115.02 208.148 106.048 209.745 113.794 210.544 117.674 212.077 125.113 212.079 125.115 212.079 125.118 213.275 130.922 212.122 130.813 212.119 130.813 212.476 132.545 212.479 132.55 213.625 138.116 213.106 138.066 214.687 145.739 213.466 145.625 213.464 145.625 215.431 155.165 213.945 155.026 213.942 155.026" fill="#213831"/>
      <polygon points="222.83 148.542 225.544 152.736 215.351 161.857 213.945 155.026 215.431 155.165 213.466 145.625 214.687 145.739 213.106 138.066 213.625 138.116 212.479 132.55 212.476 132.545 212.122 130.813 213.275 130.922 212.079 125.118 212.079 125.115 210.549 117.681 209.75 113.802 208.15 106.033 220.231 124.699 218.06 126.641 221.136 131.396 220.052 132.366 223.564 137.793 221.486 139.654 225.621 146.044 222.83 148.542" fill="#3d5f54"/>
      <polygon points="208.145 106.048 205.66 115.02 205.657 115.025 204.293 119.953 204.291 119.956 202.165 127.628 201.557 129.821 202.909 129.948 201.403 135.377 200.974 136.928 201.763 137.002 199.734 144.332 200.788 144.431 198.26 153.55 199.992 153.714 198.183 160.242 192.285 149.519 194.314 146.371 192.364 142.826 195.894 137.352 194.597 134.99 197.464 130.545 196.628 129.025 199.052 125.267 197.534 122.503 208.145 106.048" fill="#192924"/>
    </g>
    <g>
      <polygon points="152.005 272.125 153.414 278.956 136.246 277.342 138.054 270.813 136.323 270.649 138.85 261.531 137.796 261.431 139.828 254.101 139.825 254.101 139.036 254.027 139.465 252.477 140.971 247.047 139.619 246.92 140.227 244.727 142.353 237.055 142.355 237.053 143.722 232.119 146.21 223.147 147.808 230.893 148.606 234.773 150.139 242.212 150.142 242.215 150.142 242.217 151.337 248.022 150.184 247.912 150.181 247.912 150.539 249.644 150.541 249.649 151.687 255.215 151.169 255.166 152.749 262.838 151.528 262.724 151.526 262.724 153.493 272.264 152.007 272.125 152.005 272.125" fill="#213831"/>
      <polygon points="160.892 265.641 163.606 269.835 153.414 278.956 152.007 272.125 153.493 272.264 151.528 262.724 152.749 262.838 151.169 255.166 151.687 255.215 150.541 249.649 150.539 249.644 150.184 247.912 151.337 248.022 150.142 242.217 150.142 242.215 148.611 234.78 147.812 230.901 146.213 223.132 158.293 241.798 156.122 243.74 159.198 248.495 158.114 249.465 161.627 254.893 159.548 256.753 163.683 263.143 160.892 265.641" fill="#3d5f54"/>
      <polygon points="146.208 223.147 143.722 232.119 143.72 232.124 142.355 237.053 142.353 237.055 140.227 244.727 139.619 246.92 140.971 247.047 139.465 252.477 139.036 254.027 139.825 254.101 137.796 261.431 138.85 261.531 136.323 270.649 138.054 270.813 136.246 277.342 130.347 266.618 132.376 263.47 130.426 259.926 133.956 254.451 132.659 252.09 135.526 247.645 134.69 246.124 137.114 242.366 135.596 239.603 146.208 223.147" fill="#192924"/>
    </g>
    <g>
      <polygon points="301.757 65.614 301.56 66.088 301.454 66.052 301.757 65.614" fill="#21423d"/>
      <polygon points="301.757 65.614 301.56 66.088 301.454 66.052 301.757 65.614" fill="#21423d"/>
      <polygon points="301.757 65.614 301.56 66.088 301.454 66.052 301.757 65.614" fill="#2a4f48"/>
      <g>
        <polygon points="307.402 47.137 303.506 56.543 301.432 61.555 299.813 65.46 300.931 65.862 299.955 68.221 298.779 71.058 299.409 71.284 297.644 75.544 299.113 76.072 296.876 81.474 296.362 73.417 297.411 71.9 297.145 67.754 298.447 65.869 298.33 64.031 299.603 62.189 299.382 58.735 307.402 47.137" fill="#21423d"/>
        <polygon points="308.333 74.496 307.874 74.332 308.235 79.354 307.371 79.043 307.827 85.413 296.876 81.474 299.113 76.072 297.644 75.544 299.409 71.284 298.779 71.058 299.955 68.221 300.931 65.862 299.813 65.46 301.432 61.555 303.506 56.543 307.402 47.137 307.838 53.218 307.899 54.067 307.899 54.069 308.053 56.191 308.138 57.404 308.138 57.406 308.502 62.469 308.502 62.471 308.64 64.379 308.64 64.381 308.953 68.749 307.892 68.368 308.333 74.496" fill="#2a4f48"/>
        <polygon points="301.757 65.614 301.56 66.088 301.454 66.052 301.757 65.614" fill="#2a4f48"/>
        <polygon points="317.188 75.244 317.707 80.878 307.827 85.413 307.371 79.043 308.235 79.354 307.874 74.332 308.333 74.496 307.892 68.368 308.953 68.749 308.64 64.381 308.64 64.379 308.502 62.471 308.502 62.469 308.138 57.406 308.138 57.404 308.053 56.191 307.899 54.069 307.899 54.067 307.838 53.218 307.402 47.137 316.538 57.776 317.2 64.964 316.47 65.298 316.543 66.081 317.023 66.641 317.791 74.968 317.188 75.244" fill="#3e7063"/>
      </g>
    </g>
    <g>
      <polygon points="163.237 92.635 163.237 114.264 162.733 114.13 162.733 122.384 162.537 122.331 162.537 133.397 153.016 130.858 148.256 123.297 152.915 116.809 151.364 114.342 154.671 109.736 152.935 106.978 163.237 92.635" fill="#1f3f33"/>
      <polygon points="170.937 128.506 162.537 133.238 162.537 122.331 162.733 122.384 162.733 114.13 163.237 114.264 163.237 92.736 169.296 110.733 167.205 111.912 169.42 118.489 167.86 119.369 170.937 128.506" fill="#468b72"/>
    </g>
    <g>
      <polygon points="82.821 161.175 82.821 182.803 82.317 182.669 82.317 190.923 82.121 190.87 82.121 201.937 72.601 199.397 67.84 191.836 72.5 185.348 70.948 182.881 74.255 178.275 72.519 175.517 82.821 161.175" fill="#1f3f33"/>
      <polygon points="90.522 197.045 82.121 201.777 82.121 190.87 82.317 190.923 82.317 182.669 82.821 182.803 82.821 161.275 88.881 179.272 86.789 180.451 89.004 187.028 87.444 187.908 90.522 197.045" fill="#468b72"/>
    </g>
    <g>
      <polygon points="286.323 129.739 286.323 151.368 285.819 151.233 285.819 159.488 285.623 159.435 285.623 170.501 276.103 167.961 271.343 160.401 276.002 153.913 274.451 151.446 277.758 146.84 276.022 144.082 286.323 129.739" fill="#1f3f33"/>
      <polygon points="294.024 165.609 285.623 170.342 285.623 159.435 285.819 159.488 285.819 151.233 286.323 151.368 286.323 129.84 292.383 147.837 290.291 149.016 292.506 155.593 290.946 156.472 294.024 165.609" fill="#468b72"/>
    </g>
    <g>
      <polygon points="287.086 109.738 282.017 118.957 280.462 113.344 281.948 113.204 279.778 105.364 280.684 105.279 278.937 98.978 279.618 98.914 279.251 97.589 279.251 97.587 277.954 92.913 279.114 92.804 278.59 90.915 278.59 90.912 276.764 84.325 276.764 84.321 276.758 84.3 275.589 80.077 275.587 80.075 273.452 72.366 282.575 86.513 281.27 88.887 283.354 92.119 282.635 93.427 285.1 97.248 283.985 99.278 287.02 103.985 285.341 107.034 287.086 109.738" fill="#3d5f54"/>
      <polygon points="267.255 120.345 268.467 114.472 268.465 114.472 267.189 114.592 268.88 106.39 268.878 106.39 267.827 106.488 269.187 99.892 269.185 99.892 268.74 99.935 269.725 95.154 269.725 95.152 270.034 93.657 270.032 93.657 269.042 93.751 270.07 88.761 270.072 88.759 271.39 82.361 272.077 79.026 273.45 72.366 275.587 80.075 276.758 84.3 276.764 84.321 276.764 84.325 278.59 90.912 278.59 90.915 279.114 92.804 277.954 92.913 279.251 97.587 279.251 97.589 279.618 98.914 278.937 98.978 280.684 105.279 279.778 105.364 279.775 105.364 281.948 113.204 280.462 113.344 280.46 113.344 282.017 118.957 267.255 120.345" fill="#213831"/>
      <polygon points="273.448 72.353 272.073 79.032 271.386 82.365 270.07 88.761 269.042 93.751 270.032 93.657 269.725 95.152 269.725 95.154 268.74 99.935 269.185 99.892 267.827 106.488 268.878 106.39 267.189 114.592 268.465 114.472 267.255 120.345 258.495 112.504 260.828 108.9 258.427 106.751 261.982 101.257 260.195 99.658 263.214 94.992 262.285 94.158 264.929 90.072 263.061 88.4 273.448 72.353" fill="#192924"/>
    </g>
    <g>
      <polygon points="149.478 200.639 149.281 201.113 149.175 201.077 149.478 200.639" fill="#21423d"/>
      <polygon points="149.478 200.639 149.281 201.113 149.175 201.077 149.478 200.639" fill="#21423d"/>
      <polygon points="149.478 200.639 149.281 201.113 149.175 201.077 149.478 200.639" fill="#2a4f48"/>
      <g>
        <polygon points="155.123 182.162 151.227 191.569 149.153 196.58 147.534 200.485 148.651 200.887 147.676 203.246 146.5 206.083 147.13 206.309 145.365 210.569 146.834 211.097 144.597 216.499 144.082 208.442 145.132 206.925 144.866 202.779 146.168 200.894 146.051 199.056 147.324 197.214 147.103 193.76 155.123 182.162" fill="#21423d"/>
        <polygon points="156.053 209.521 155.595 209.357 155.956 214.379 155.092 214.068 155.548 220.438 144.597 216.499 146.834 211.097 145.365 210.569 147.13 206.309 146.5 206.083 147.676 203.246 148.651 200.887 147.534 200.485 149.153 196.58 151.227 191.569 155.123 182.162 155.559 188.243 155.62 189.092 155.62 189.094 155.773 191.216 155.859 192.429 155.859 192.431 156.223 197.494 156.223 197.496 156.36 199.404 156.36 199.406 156.674 203.774 155.613 203.393 156.053 209.521" fill="#2a4f48"/>
        <polygon points="149.478 200.639 149.281 201.113 149.175 201.077 149.478 200.639" fill="#2a4f48"/>
        <polygon points="164.909 210.269 165.428 215.903 155.548 220.438 155.092 214.068 155.956 214.379 155.595 209.357 156.053 209.521 155.613 203.393 156.674 203.774 156.36 199.406 156.36 199.404 156.223 197.496 156.223 197.494 155.859 192.431 155.859 192.429 155.773 191.216 155.62 189.094 155.62 189.092 155.559 188.243 155.123 182.162 164.259 192.801 164.92 199.989 164.191 200.323 164.263 201.106 164.744 201.666 165.512 209.993 164.909 210.269" fill="#3e7063"/>
      </g>
    </g>
    <g>
      <polygon points="257.595 186.792 259.004 193.623 241.836 192.008 243.645 185.48 241.913 185.316 244.441 176.197 243.387 176.098 245.418 168.768 245.416 168.768 244.627 168.694 245.056 167.143 246.562 161.714 245.21 161.587 245.818 159.394 247.943 151.722 247.946 151.719 249.313 146.786 251.801 137.814 253.398 145.56 254.197 149.44 255.73 156.879 255.732 156.881 255.732 156.884 256.928 162.688 255.775 162.579 255.772 162.579 256.129 164.311 256.132 164.316 257.278 169.882 256.759 169.832 258.339 177.505 257.119 177.391 257.117 177.391 259.084 186.931 257.598 186.792 257.595 186.792" fill="#213831"/>
      <polygon points="266.483 180.308 269.197 184.502 259.004 193.623 257.598 186.792 259.084 186.931 257.119 177.391 258.339 177.505 256.759 169.832 257.278 169.882 256.132 164.316 256.129 164.311 255.775 162.579 256.928 162.688 255.732 156.884 255.732 156.881 254.202 149.447 253.403 145.568 251.803 137.799 263.883 156.465 261.713 158.407 264.789 163.162 263.705 164.132 267.217 169.56 265.139 171.42 269.274 177.81 266.483 180.308" fill="#3d5f54"/>
      <polygon points="251.798 137.814 249.313 146.786 249.31 146.791 247.946 151.719 247.943 151.722 245.818 159.394 245.21 161.587 246.562 161.714 245.056 167.143 244.627 168.694 245.416 168.768 243.387 176.098 244.441 176.197 241.913 185.316 243.645 185.48 241.836 192.008 235.938 181.285 237.967 178.137 236.017 174.593 239.547 169.118 238.25 166.756 241.117 162.311 240.281 160.791 242.705 157.033 241.186 154.269 251.798 137.814" fill="#192924"/>
    </g>
    <g>
      <polygon points="237.041 105.652 236.844 106.126 236.738 106.09 237.041 105.652" fill="#21423d"/>
      <polygon points="237.041 105.652 236.844 106.126 236.738 106.09 237.041 105.652" fill="#21423d"/>
      <polygon points="237.041 105.652 236.844 106.126 236.738 106.09 237.041 105.652" fill="#2a4f48"/>
      <g>
        <polygon points="242.686 87.175 238.79 96.582 236.716 101.593 235.097 105.499 236.214 105.9 235.239 108.259 234.063 111.097 234.693 111.323 232.928 115.582 234.397 116.111 232.16 121.512 231.645 113.456 232.695 111.939 232.429 107.792 233.731 105.907 233.614 104.07 234.887 102.228 234.666 98.774 242.686 87.175" fill="#21423d"/>
        <polygon points="243.616 114.535 243.158 114.37 243.519 119.393 242.655 119.081 243.111 125.452 232.16 121.512 234.397 116.111 232.928 115.582 234.693 111.323 234.063 111.097 235.239 108.259 236.214 105.9 235.097 105.499 236.716 101.593 238.79 96.582 242.686 87.175 243.122 93.257 243.183 94.106 243.183 94.108 243.336 96.23 243.422 97.442 243.422 97.444 243.786 102.508 243.786 102.51 243.923 104.417 243.923 104.42 244.237 108.788 243.176 108.406 243.616 114.535" fill="#2a4f48"/>
        <polygon points="237.041 105.652 236.844 106.126 236.738 106.09 237.041 105.652" fill="#2a4f48"/>
        <polygon points="252.472 115.282 252.991 120.916 243.111 125.452 242.655 119.081 243.519 119.393 243.158 114.37 243.616 114.535 243.176 108.406 244.237 108.788 243.923 104.42 243.923 104.417 243.786 102.51 243.786 102.508 243.422 97.444 243.422 97.442 243.336 96.23 243.183 94.108 243.183 94.106 243.122 93.257 242.686 87.175 251.822 97.815 252.483 105.002 251.754 105.336 251.826 106.119 252.307 106.679 253.075 115.007 252.472 115.282" fill="#3e7063"/>
      </g>
    </g>
    <g>
      <polygon points="118.342 192.806 118.145 193.28 118.039 193.244 118.342 192.806" fill="#21423d"/>
      <polygon points="118.342 192.806 118.145 193.28 118.039 193.244 118.342 192.806" fill="#21423d"/>
      <polygon points="118.342 192.806 118.145 193.28 118.039 193.244 118.342 192.806" fill="#2a4f48"/>
      <g>
        <polygon points="123.987 174.33 120.091 183.736 118.016 188.747 116.398 192.653 117.515 193.055 116.54 195.414 115.364 198.251 115.994 198.477 114.229 202.736 115.698 203.265 113.461 208.667 112.946 200.61 113.996 199.093 113.73 194.946 115.032 193.061 114.915 191.224 116.188 189.382 115.967 185.928 123.987 174.33" fill="#21423d"/>
        <polygon points="124.917 201.689 124.459 201.524 124.82 206.547 123.956 206.235 124.412 212.606 113.461 208.667 115.698 203.265 114.229 202.736 115.994 198.477 115.364 198.251 116.54 195.414 117.515 193.055 116.398 192.653 118.016 188.747 120.091 183.736 123.987 174.33 124.423 180.411 124.484 181.26 124.484 181.262 124.637 183.384 124.723 184.596 124.723 184.598 125.087 189.662 125.087 189.664 125.224 191.571 125.224 191.574 125.538 195.942 124.477 195.56 124.917 201.689" fill="#2a4f48"/>
        <polygon points="118.342 192.806 118.145 193.28 118.039 193.244 118.342 192.806" fill="#2a4f48"/>
        <polygon points="133.773 202.436 134.292 208.071 124.412 212.606 123.956 206.235 124.82 206.547 124.459 201.524 124.917 201.689 124.477 195.56 125.538 195.942 125.224 191.574 125.224 191.571 125.087 189.664 125.087 189.662 124.723 184.598 124.723 184.596 124.637 183.384 124.484 181.262 124.484 181.26 124.423 180.411 123.987 174.33 133.123 184.969 133.784 192.156 133.055 192.49 133.127 193.274 133.608 193.833 134.376 202.161 133.773 202.436" fill="#3e7063"/>
      </g>
    </g>
  </g>
</svg>
