<svg id="Layer_1" data-name="Layer 1" xmlns="http://www.w3.org/2000/svg" viewBox="0 0 459.828 401.298">
  <g>
    <polygon points="451.834 272.756 447.923 285.009 451.047 295.699 445.84 302.479 440.888 301.438 438.795 306.645 426.021 317.857 424.193 325.157 405.691 337.144 404.905 345.487 406.988 352.267 398.391 361.65 391.09 361.65 387.179 363.478 378.316 358.791 374.406 359.833 365.543 353.053 357.456 353.829 350.155 367.389 351.983 375.21 339.475 376.772 319.921 393.977 310.272 393.977 292.802 372.341 277.159 370.779 267.52 372.606 251.612 366.868 224.502 387.984 203.642 393.977 186.437 393.977 181.75 398.409 176.533 392.16 161.41 385.38 153.855 388.77 148.116 389.811 135.863 400.757 126.194 400.767 67.564 400.798 67.564 377.293 49.838 363.478 44.1 364.785 39.403 361.916 37.32 367.389 32.102 366.347 11.773 357.219 0.663 349.05 2.389 346.181 2.389 340.616 4.298 337.144 16.817 323.411 20.809 317.499 22.198 311.066 24.107 304.47 23.964 304.297 24.117 303.776 20.881 299.702 21.503 294.913 29.846 287.092 29.846 276.309 32.276 275.268 32.225 274.614 32.286 274.584 31.632 266.344 34.542 262.586 34.542 253.366 44.62 239.99 55.393 228.513 62.52 226.603 72.424 219.129 75.906 217.741 83.901 210.44 87.199 209.225 91.202 205.406 91.896 202.098 91.784 201.924 91.896 201.414 85.637 191.683 84.248 179.685 78.163 172.732 76.948 169.434 71.383 161.959 67.911 161.959 63.582 160.407 63.735 156.395 63.714 156.354 63.735 155.7 59.947 148.941 62.173 145.439 66.87 143.356 76.774 134.319 83.901 130.316 110.49 131.184 113.961 129.449 120.741 127.713 122.477 121.801 128.563 115.205 129.604 111.549 129.502 111.233 129.604 110.865 128.614 107.894 129.604 97.816 132.739 93.303 136.558 90.699 143.511 89.474 149.597 84.787 152.027 86.349 155.682 87.391 161.41 87.391 165.239 85.655 168.711 84.613 178.616 74.004 179.483 68.45 183.833 68.45 185.569 59.934 195.647 59.934 196.525 53.154 200.17 50.898 205.735 55.411 212.689 55.411 214.598 54.196 215.292 45.68 217.375 41.157 219.111 28.996 227.974 20.48 227.974 17.182 229.026 14.394 231.415 10.055 232.191 0.875 232.181 0.61 236.163 1.376 239.686 5.031 246.986 5.807 249.202 5.807 250.417 8.462 250.427 8.493 250.57 8.932 250.999 9.748 251.03 9.82 253.889 16.11 267.449 30.456 265.325 36.837 263.609 39.043 263.62 39.196 263.405 39.462 263.538 42.719 272.534 53.154 284.266 53.154 289.606 56.667 294.824 56.667 294.956 62.15 304.595 69.195 311.12 68.542 321.933 80.539 326.242 81.193 330.153 77.017 335.626 79.62 341.231 86.666 348.134 87.186 351.524 85.88 351.534 85.512 351.728 85.44 351.85 78.007 363.776 66.326 374.988 63.579 384.892 64.233 388.282 72.585 395.971 87.186 397.799 95.661 407.703 95.661 411.491 91.618 413.176 95.661 412.451 100.654 410.644 101.869 410.644 102.176 410.439 102.319 410.572 114.184 414.871 117.318 414.871 123.445 419.956 127.876 419.956 131.164 417.025 132.634 414.279 133.196 414.105 133.655 414.085 133.655 413.053 136.351 413.176 144.805 413.176 144.816 411.552 147.358 408.949 150.615 408.938 150.85 408.744 151.095 408.489 159.305 413.707 163.869 414.095 167.524 419.956 173.916 430.912 174.57 435.731 170.914 439.642 175.969 436.712 178.909 436.691 179.216 436.518 179.389 436.252 183.953 434.853 190.468 432.413 195.849 432.423 195.879 432.209 196.349 436.385 210.164 436.64 216.423 439.775 218.772 440.53 231.239 440.53 231.249 437.099 234.302 437.243 234.517 436.906 234.813 440.551 240.429 448.25 246.688 453.324 246.688 453.324 257.766 459.165 266.783 451.834 272.756" fill="#a4bbb2" stroke="#010101" strokeMiterlimit="10"/>
    <path d="M88.165,411.737l1.694-.652v-3.65s1.955-1.173,1.955-.782v-2.477l-4.562-.912-1.825-2.216-1.825-.782-5.214-5.344-2.215-2.868H66.657l-8.733-8.082s-2.868-4.432-3.259-4.432,0-4.171,0-4.171l6.648-6.126.521-3.389,15.121-14.339,12.513-.782,4.562-3.78,6.909,7.691,3.128,2.216,4.563-.391V353.6l3.78,1.3,2.607,4.693,3.91,7.169,1.564,3.259,6.518,5.605.652,4.953,4.562,8.212.912,8.6,3.824,5.866,1.651,4.171v9.125l3.519,5.735,1.825,5.6,1.695,6.685-57.874.025-.02-23.025Z" transform="translate(-20.211 -33.812)" fill="#81bdb1" stroke="#010101" strokeMiterlimit="10"/>
    <g>
      <polygon points="152.528 367.207 154.125 374.95 134.666 373.12 136.715 365.719 134.753 365.534 137.618 355.198 136.423 355.085 138.726 346.777 138.723 346.777 137.829 346.692 138.315 344.935 140.022 338.78 138.49 338.637 139.178 336.151 141.588 327.455 141.591 327.452 143.14 321.86 145.96 311.69 147.771 320.471 148.676 324.868 150.414 333.3 150.417 333.303 150.417 333.306 151.772 339.885 150.465 339.762 150.462 339.762 150.867 341.724 150.869 341.73 152.168 348.039 151.581 347.983 153.372 356.68 151.989 356.55 151.986 356.55 154.215 367.364 152.531 367.207 152.528 367.207" fill="#213831"/>
      <polygon points="162.603 359.857 165.679 364.611 154.125 374.95 152.531 367.207 154.215 367.364 151.989 356.55 153.372 356.68 151.581 347.983 152.168 348.039 150.869 341.73 150.867 341.724 150.465 339.762 151.772 339.885 150.417 333.306 150.417 333.303 148.682 324.877 147.777 320.479 145.963 311.673 159.656 332.831 157.196 335.032 160.682 340.422 159.454 341.522 163.435 347.674 161.079 349.783 165.766 357.025 162.603 359.857" fill="#3d5f54"/>
      <polygon points="145.957 311.69 143.14 321.86 143.137 321.865 141.591 327.452 141.588 327.455 139.178 336.151 138.49 338.637 140.022 338.78 138.315 344.935 137.829 346.692 138.723 346.777 136.423 355.085 137.618 355.198 134.753 365.534 136.715 365.719 134.666 373.12 127.979 360.965 130.279 357.397 128.069 353.379 132.07 347.173 130.6 344.497 133.85 339.458 132.903 337.734 135.65 333.475 133.929 330.342 145.957 311.69" fill="#192924"/>
    </g>
    <g>
      <polygon points="110.635 300.814 112.232 308.557 92.773 306.727 94.822 299.326 92.86 299.141 95.725 288.805 94.53 288.693 96.833 280.384 96.83 280.384 95.936 280.3 96.422 278.542 98.129 272.388 96.596 272.244 97.285 269.759 99.695 261.062 99.698 261.059 101.247 255.467 104.067 245.297 105.878 254.078 106.783 258.475 108.521 266.908 108.524 266.91 108.524 266.913 109.879 273.493 108.571 273.369 108.569 273.369 108.974 275.331 108.976 275.337 110.275 281.646 109.688 281.59 111.479 290.287 110.095 290.157 110.093 290.157 112.322 300.971 110.638 300.814 110.635 300.814" fill="#213831"/>
      <polygon points="120.71 293.464 123.786 298.219 112.232 308.557 110.638 300.814 112.322 300.971 110.095 290.157 111.479 290.287 109.688 281.59 110.275 281.646 108.976 275.337 108.974 275.331 108.571 273.369 109.879 273.493 108.524 266.913 108.524 266.91 106.789 258.484 105.883 254.086 104.07 245.28 117.763 266.438 115.303 268.64 118.789 274.03 117.56 275.129 121.542 281.281 119.186 283.39 123.873 290.633 120.71 293.464" fill="#3d5f54"/>
      <polygon points="104.064 245.297 101.247 255.467 101.244 255.472 99.698 261.059 99.695 261.062 97.285 269.759 96.596 272.244 98.129 272.388 96.422 278.542 95.936 280.3 96.83 280.384 94.53 288.693 95.725 288.805 92.86 299.141 94.822 299.326 92.773 306.727 86.086 294.572 88.386 291.004 86.176 286.986 90.177 280.78 88.707 278.104 91.957 273.065 91.01 271.342 93.757 267.082 92.036 263.95 104.064 245.297" fill="#192924"/>
    </g>
    <g>
      <polygon points="240.973 337.384 242.57 345.127 223.111 343.297 225.16 335.896 223.198 335.711 226.063 325.375 224.868 325.262 227.171 316.954 227.168 316.954 226.274 316.869 226.76 315.112 228.467 308.957 226.935 308.814 227.623 306.328 230.033 297.632 230.036 297.629 231.585 292.036 234.405 281.867 236.216 290.647 237.121 295.045 238.859 303.477 238.862 303.48 238.862 303.483 240.217 310.062 238.91 309.939 238.907 309.939 239.312 311.901 239.314 311.907 240.613 318.216 240.026 318.16 241.817 326.857 240.434 326.727 240.431 326.727 242.66 337.541 240.976 337.384 240.973 337.384" fill="#213831"/>
      <polygon points="251.048 330.034 254.124 334.788 242.57 345.127 240.976 337.384 242.66 337.541 240.434 326.727 241.817 326.857 240.026 318.16 240.613 318.216 239.314 311.907 239.312 311.901 238.91 309.939 240.217 310.062 238.862 303.483 238.862 303.48 237.127 295.053 236.222 290.656 234.408 281.85 248.101 303.008 245.641 305.209 249.127 310.599 247.899 311.699 251.88 317.851 249.524 319.959 254.211 327.202 251.048 330.034" fill="#3d5f54"/>
      <polygon points="234.402 281.867 231.585 292.036 231.582 292.042 230.036 297.629 230.033 297.632 227.623 306.328 226.935 308.814 228.467 308.957 226.76 315.112 226.274 316.869 227.168 316.954 224.868 325.262 226.063 325.375 223.198 335.711 225.16 335.896 223.111 343.297 216.424 331.142 218.724 327.573 216.514 323.556 220.515 317.35 219.045 314.673 222.295 309.635 221.348 307.911 224.095 303.652 222.374 300.519 234.402 281.867" fill="#192924"/>
    </g>
    <g>
      <polygon points="153.769 157.348 155.366 165.092 135.906 163.261 137.956 155.861 135.993 155.675 138.858 145.339 137.663 145.227 139.966 136.918 139.963 136.918 139.069 136.834 139.556 135.077 141.262 128.922 139.73 128.778 140.419 126.293 142.828 117.596 142.831 117.594 144.38 112.001 147.201 101.831 149.011 110.612 149.917 115.01 151.654 123.442 151.657 123.445 151.657 123.447 153.012 130.027 151.705 129.903 151.702 129.903 152.107 131.866 152.11 131.871 153.409 138.181 152.821 138.125 154.612 146.821 153.229 146.692 153.226 146.692 155.456 157.506 153.772 157.348 153.769 157.348" fill="#213831"/>
      <polygon points="163.843 149.998 166.919 154.753 155.366 165.092 153.772 157.348 155.456 157.506 153.229 146.692 154.612 146.821 152.821 138.125 153.409 138.181 152.11 131.871 152.107 131.866 151.705 129.903 153.012 130.027 151.657 123.447 151.657 123.445 149.922 115.018 149.017 110.621 147.203 101.814 160.896 122.972 158.436 125.174 161.923 130.564 160.694 131.663 164.675 137.815 162.319 139.924 167.006 147.167 163.843 149.998" fill="#3d5f54"/>
      <polygon points="147.198 101.831 144.38 112.001 144.378 112.007 142.831 117.594 142.828 117.596 140.419 126.293 139.73 128.778 141.262 128.922 139.556 135.077 139.069 136.834 139.963 136.918 137.663 145.227 138.858 145.339 135.993 155.675 137.956 155.861 135.906 163.261 129.22 151.106 131.52 147.538 129.31 143.52 133.311 137.315 131.84 134.638 135.091 129.599 134.143 127.876 136.89 123.616 135.169 120.484 147.198 101.831" fill="#192924"/>
    </g>
    <g>
      <polygon points="190.458 192.561 192.055 200.305 172.595 198.474 174.645 191.074 172.683 190.888 175.548 180.552 174.353 180.44 176.656 172.131 176.653 172.131 175.759 172.047 176.245 170.29 177.952 164.135 176.419 163.991 177.108 161.506 179.518 152.809 179.521 152.807 181.07 147.214 183.89 137.044 185.701 145.825 186.606 150.223 188.344 158.655 188.347 158.658 188.347 158.661 189.702 165.24 188.394 165.116 188.392 165.116 188.796 167.079 188.799 167.084 190.098 173.394 189.511 173.338 191.302 182.034 189.918 181.905 189.915 181.905 192.145 192.719 190.461 192.561 190.458 192.561" fill="#213831"/>
      <polygon points="200.532 185.211 203.608 189.966 192.055 200.305 190.461 192.561 192.145 192.719 189.918 181.905 191.302 182.034 189.511 173.338 190.098 173.394 188.799 167.084 188.796 167.079 188.394 165.116 189.702 165.24 188.347 158.661 188.347 158.658 186.612 150.231 185.706 145.834 183.893 137.027 197.586 158.185 195.126 160.387 198.612 165.777 197.383 166.876 201.365 173.028 199.009 175.137 203.696 182.38 200.532 185.211" fill="#3d5f54"/>
      <polygon points="183.887 137.044 181.07 147.214 181.067 147.22 179.521 152.807 179.518 152.809 177.108 161.506 176.419 163.991 177.952 164.135 176.245 170.29 175.759 172.047 176.653 172.131 174.353 180.44 175.548 180.552 172.683 190.888 174.645 191.074 172.595 198.474 165.909 186.319 168.209 182.751 165.999 178.733 170 172.528 168.53 169.851 171.78 164.813 170.833 163.089 173.58 158.829 171.859 155.697 183.887 137.044" fill="#192924"/>
    </g>
    <g>
      <polygon points="239.609 240.589 233.863 251.039 232.101 244.676 233.786 244.517 231.325 235.631 232.352 235.535 230.373 228.392 231.144 228.319 230.728 226.818 230.728 226.816 229.258 221.517 230.573 221.394 229.979 219.252 229.979 219.25 227.909 211.783 227.909 211.778 227.902 211.754 226.578 206.968 226.575 206.966 224.156 198.227 234.496 214.263 233.017 216.954 235.379 220.618 234.564 222.1 237.358 226.431 236.094 228.733 239.534 234.067 237.631 237.524 239.609 240.589" fill="#3d5f54"/>
      <polygon points="217.131 252.612 218.504 245.955 218.502 245.955 217.056 246.091 218.973 236.794 218.971 236.794 217.779 236.905 219.321 229.429 219.319 229.429 218.814 229.477 219.93 224.058 219.93 224.055 220.281 222.361 220.278 222.361 219.157 222.467 220.322 216.811 220.324 216.809 221.818 209.557 222.596 205.776 224.153 198.227 226.575 206.966 227.902 211.754 227.909 211.778 227.909 211.783 229.979 219.25 229.979 219.252 230.573 221.394 229.258 221.517 230.728 226.816 230.728 226.818 231.144 228.319 230.373 228.392 232.352 235.535 231.325 235.631 231.323 235.631 233.786 244.517 232.101 244.676 232.098 244.676 233.863 251.039 217.131 252.612" fill="#213831"/>
      <polygon points="224.151 198.213 222.592 205.784 221.813 209.562 220.322 216.811 219.157 222.467 220.278 222.361 219.93 224.055 219.93 224.058 218.814 229.477 219.319 229.429 217.779 236.905 218.971 236.794 217.056 246.091 218.502 245.955 217.131 252.612 207.201 243.724 209.846 239.639 207.124 237.202 211.153 230.976 209.128 229.163 212.551 223.874 211.497 222.929 214.494 218.298 212.377 216.402 224.151 198.213" fill="#192924"/>
    </g>
    <g>
      <polygon points="29.2 300.735 28.977 301.272 28.857 301.231 29.2 300.735" fill="#21423d"/>
      <polygon points="29.2 300.735 28.977 301.272 28.857 301.231 29.2 300.735" fill="#21423d"/>
      <polygon points="29.2 300.735 28.977 301.272 28.857 301.231 29.2 300.735" fill="#2a4f48"/>
      <g>
        <polygon points="35.599 279.792 31.183 290.454 28.832 296.134 26.997 300.561 28.264 301.016 27.158 303.69 25.825 306.907 26.539 307.162 24.538 311.991 26.204 312.589 23.668 318.713 23.085 309.58 24.274 307.861 23.973 303.161 25.449 301.024 25.316 298.941 26.759 296.853 26.508 292.938 35.599 279.792" fill="#21423d"/>
        <polygon points="36.654 310.803 36.134 310.617 36.544 316.31 35.564 315.957 36.081 323.178 23.668 318.713 26.204 312.589 24.538 311.991 26.539 307.162 25.825 306.907 27.158 303.69 28.264 301.016 26.997 300.561 28.832 296.134 31.183 290.454 35.599 279.792 36.093 286.685 36.162 287.647 36.162 287.649 36.336 290.055 36.434 291.429 36.434 291.431 36.846 297.17 36.846 297.173 37.002 299.335 37.002 299.338 37.357 304.289 36.155 303.856 36.654 310.803" fill="#2a4f48"/>
        <polygon points="29.2 300.735 28.977 301.272 28.857 301.231 29.2 300.735" fill="#2a4f48"/>
        <polygon points="46.692 311.65 47.28 318.037 36.081 323.178 35.564 315.957 36.544 316.31 36.134 310.617 36.654 310.803 36.155 303.856 37.357 304.289 37.002 299.338 37.002 299.335 36.846 297.173 36.846 297.17 36.434 291.431 36.434 291.429 36.336 290.055 36.162 287.649 36.162 287.647 36.093 286.685 35.599 279.792 45.955 291.851 46.704 299.998 45.878 300.377 45.96 301.264 46.505 301.899 47.375 311.338 46.692 311.65" fill="#3e7063"/>
      </g>
    </g>
    <g>
      <polygon points="142.203 287.002 141.98 287.539 141.86 287.499 142.203 287.002" fill="#21423d"/>
      <polygon points="142.203 287.002 141.98 287.539 141.86 287.499 142.203 287.002" fill="#21423d"/>
      <polygon points="142.203 287.002 141.98 287.539 141.86 287.499 142.203 287.002" fill="#2a4f48"/>
      <g>
        <polygon points="148.602 266.059 144.186 276.721 141.835 282.402 140 286.828 141.267 287.284 140.161 289.957 138.828 293.174 139.542 293.43 137.541 298.258 139.207 298.857 136.671 304.98 136.088 295.848 137.277 294.128 136.976 289.428 138.452 287.291 138.319 285.208 139.762 283.121 139.511 279.206 148.602 266.059" fill="#21423d"/>
        <polygon points="149.657 297.071 149.137 296.884 149.547 302.577 148.567 302.224 149.084 309.445 136.671 304.98 139.207 298.857 137.541 298.258 139.542 293.43 138.828 293.174 140.161 289.957 141.267 287.284 140 286.828 141.835 282.402 144.186 276.721 148.602 266.059 149.096 272.952 149.165 273.914 149.165 273.917 149.339 276.322 149.437 277.696 149.437 277.699 149.849 283.438 149.849 283.44 150.005 285.603 150.005 285.605 150.36 290.556 149.158 290.124 149.657 297.071" fill="#2a4f48"/>
        <polygon points="142.203 287.002 141.98 287.539 141.86 287.499 142.203 287.002" fill="#2a4f48"/>
        <polygon points="159.695 297.918 160.283 304.304 149.084 309.445 148.567 302.224 149.547 302.577 149.137 296.884 149.657 297.071 149.158 290.124 150.36 290.556 150.005 285.605 150.005 285.603 149.849 283.44 149.849 283.438 149.437 277.699 149.437 277.696 149.339 276.322 149.165 273.917 149.165 273.914 149.096 272.952 148.602 266.059 158.958 278.118 159.707 286.265 158.881 286.644 158.963 287.532 159.508 288.166 160.378 297.606 159.695 297.918" fill="#3e7063"/>
      </g>
    </g>
    <g>
      <polygon points="180.648 101.341 180.425 101.878 180.305 101.837 180.648 101.341" fill="#21423d"/>
      <polygon points="180.648 101.341 180.425 101.878 180.305 101.837 180.648 101.341" fill="#21423d"/>
      <polygon points="180.648 101.341 180.425 101.878 180.305 101.837 180.648 101.341" fill="#2a4f48"/>
      <g>
        <polygon points="187.048 80.397 182.631 91.06 180.28 96.74 178.445 101.167 179.712 101.622 178.606 104.296 177.273 107.512 177.987 107.768 175.986 112.597 177.652 113.195 175.116 119.318 174.533 110.186 175.723 108.467 175.421 103.766 176.897 101.63 176.764 99.547 178.207 97.459 177.956 93.544 187.048 80.397" fill="#21423d"/>
        <polygon points="188.102 111.409 187.582 111.222 187.992 116.916 187.012 116.563 187.529 123.783 175.116 119.318 177.652 113.195 175.986 112.597 177.987 107.768 177.273 107.512 178.606 104.296 179.712 101.622 178.445 101.167 180.28 96.74 182.631 91.06 187.048 80.397 187.541 87.291 187.61 88.253 187.61 88.255 187.784 90.66 187.882 92.034 187.882 92.037 188.294 97.776 188.294 97.779 188.45 99.941 188.45 99.944 188.805 104.895 187.603 104.462 188.102 111.409" fill="#2a4f48"/>
        <polygon points="180.648 101.341 180.425 101.878 180.305 101.837 180.648 101.341" fill="#2a4f48"/>
        <polygon points="198.14 112.256 198.728 118.643 187.529 123.783 187.012 116.563 187.992 116.916 187.582 111.222 188.102 111.409 187.603 104.462 188.805 104.895 188.45 99.944 188.45 99.941 188.294 97.779 188.294 97.776 187.882 92.037 187.882 92.034 187.784 90.66 187.61 88.255 187.61 88.253 187.541 87.291 187.048 80.397 197.403 92.457 198.152 100.604 197.326 100.982 197.408 101.87 197.953 102.505 198.823 111.944 198.14 112.256" fill="#3e7063"/>
      </g>
    </g>
    <g>
      <polygon points="220.068 122.261 220.068 146.776 219.497 146.624 219.497 155.981 219.275 155.921 219.275 168.464 208.483 165.586 203.087 157.016 208.369 149.662 206.61 146.865 210.359 141.644 208.391 138.518 220.068 122.261" fill="#1f3f33"/>
      <polygon points="228.797 162.919 219.275 168.283 219.275 155.921 219.497 155.981 219.497 146.624 220.068 146.776 220.068 122.375 226.937 142.774 224.566 144.11 227.076 151.566 225.308 152.563 228.797 162.919" fill="#468b72"/>
    </g>
    <g>
      <polygon points="193.617 334.039 193.617 358.555 193.046 358.402 193.046 367.759 192.824 367.699 192.824 380.242 182.032 377.364 176.636 368.794 181.918 361.44 180.159 358.643 183.908 353.422 181.94 350.296 193.617 334.039" fill="#1f3f33"/>
      <polygon points="202.346 374.697 192.824 380.061 192.824 367.699 193.046 367.759 193.046 358.402 193.617 358.555 193.617 334.153 200.486 354.552 198.115 355.888 200.625 363.344 198.857 364.341 202.346 374.697" fill="#468b72"/>
    </g>
    <g>
      <polygon points="101.724 135.249 101.724 159.765 101.153 159.613 101.153 168.97 100.93 168.91 100.93 181.453 90.139 178.574 84.743 170.005 90.025 162.651 88.266 159.854 92.015 154.633 90.047 151.507 101.724 135.249" fill="#1f3f33"/>
      <polygon points="110.452 175.908 100.93 181.272 100.93 168.91 101.153 168.97 101.153 159.613 101.724 159.765 101.724 135.364 108.592 155.763 106.221 157.099 108.732 164.555 106.964 165.552 110.452 175.908" fill="#468b72"/>
    </g>
    <g>
      <polygon points="273.912 291.956 275.509 299.699 256.049 297.869 258.099 290.468 256.136 290.283 259.002 279.947 257.807 279.834 260.109 271.526 260.107 271.526 259.212 271.442 259.699 269.684 261.406 263.529 259.873 263.386 260.562 260.9 262.972 252.204 262.975 252.201 264.524 246.609 267.344 236.439 269.155 245.22 270.06 249.617 271.798 258.049 271.8 258.052 271.8 258.055 273.156 264.634 271.848 264.511 271.845 264.511 272.25 266.473 272.253 266.479 273.552 272.788 272.965 272.732 274.756 281.429 273.372 281.299 273.369 281.299 275.599 292.113 273.915 291.956 273.912 291.956" fill="#213831"/>
      <polygon points="283.986 284.606 287.062 289.36 275.509 299.699 273.915 291.956 275.599 292.113 273.372 281.299 274.756 281.429 272.965 272.732 273.552 272.788 272.253 266.479 272.25 266.473 271.848 264.511 273.156 264.634 271.8 258.055 271.8 258.052 270.066 249.626 269.16 245.228 267.347 236.422 281.04 257.58 278.579 259.781 282.066 265.171 280.837 266.271 284.819 272.423 282.462 274.532 287.15 281.775 283.986 284.606" fill="#3d5f54"/>
      <polygon points="267.341 236.439 264.524 246.609 264.521 246.614 262.975 252.201 262.972 252.204 260.562 260.9 259.873 263.386 261.406 263.529 259.699 269.684 259.212 271.442 260.107 271.526 257.807 279.834 259.002 279.947 256.136 290.283 258.099 290.468 256.049 297.869 249.363 285.714 251.663 282.146 249.453 278.128 253.454 271.922 251.984 269.246 255.234 264.207 254.286 262.483 257.033 258.224 255.313 255.092 267.341 236.439" fill="#192924"/>
    </g>
    <g>
      <polygon points="130.446 229.131 132.043 236.874 112.584 235.044 114.633 227.643 112.671 227.458 115.536 217.122 114.341 217.01 116.644 208.701 116.641 208.701 115.747 208.617 116.233 206.859 117.94 200.705 116.408 200.561 117.096 198.076 119.506 189.379 119.509 189.376 121.058 183.784 123.878 173.614 125.689 182.395 126.594 186.792 128.332 195.225 128.335 195.227 128.335 195.23 129.69 201.81 128.383 201.686 128.38 201.686 128.785 203.648 128.787 203.654 130.086 209.963 129.499 209.907 131.29 218.604 129.906 218.474 129.904 218.474 132.133 229.288 130.449 229.131 130.446 229.131" fill="#213831"/>
      <polygon points="140.521 221.781 143.597 226.536 132.043 236.874 130.449 229.131 132.133 229.288 129.906 218.474 131.29 218.604 129.499 209.907 130.086 209.963 128.787 203.654 128.785 203.648 128.383 201.686 129.69 201.81 128.335 195.23 128.335 195.227 126.6 186.801 125.695 182.403 123.881 173.597 137.574 194.755 135.114 196.957 138.6 202.347 137.372 203.446 141.353 209.598 138.997 211.707 143.684 218.95 140.521 221.781" fill="#3d5f54"/>
      <polygon points="123.875 173.614 121.058 183.784 121.055 183.789 119.509 189.376 119.506 189.379 117.096 198.076 116.408 200.561 117.94 200.705 116.233 206.859 115.747 208.617 116.641 208.701 114.341 217.01 115.536 217.122 112.671 227.458 114.633 227.643 112.584 235.044 105.897 222.889 108.197 219.321 105.987 215.303 109.988 209.097 108.518 206.421 111.768 201.382 110.821 199.659 113.568 195.399 111.847 192.267 123.875 173.614" fill="#192924"/>
    </g>
    <g>
      <polygon points="82.897 266.359 77.151 276.808 75.389 270.446 77.074 270.287 74.613 261.401 75.64 261.304 73.66 254.161 74.432 254.089 74.016 252.588 74.016 252.585 72.546 247.287 73.861 247.164 73.266 245.022 73.266 245.02 71.197 237.553 71.197 237.548 71.19 237.524 69.865 232.738 69.863 232.735 67.443 223.997 77.784 240.033 76.305 242.723 78.666 246.388 77.852 247.869 80.646 252.201 79.382 254.502 82.822 259.837 80.919 263.294 82.897 266.359" fill="#3d5f54"/>
      <polygon points="60.419 278.382 61.792 271.725 61.79 271.725 60.344 271.86 62.261 262.564 62.258 262.564 61.067 262.675 62.609 255.198 62.607 255.198 62.101 255.247 63.218 249.827 63.218 249.825 63.569 248.13 63.566 248.13 62.445 248.237 63.61 242.581 63.612 242.578 65.106 235.327 65.884 231.546 67.441 223.997 69.863 232.735 71.19 237.524 71.197 237.548 71.197 237.553 73.266 245.02 73.266 245.022 73.861 247.164 72.546 247.287 74.016 252.585 74.016 252.588 74.432 254.089 73.66 254.161 75.64 261.304 74.613 261.401 74.61 261.401 77.074 270.287 75.389 270.446 75.386 270.446 77.151 276.808 60.419 278.382" fill="#213831"/>
      <polygon points="67.439 223.983 65.879 231.553 65.101 235.331 63.61 242.581 62.445 248.237 63.566 248.13 63.218 249.825 63.218 249.827 62.101 255.247 62.607 255.198 61.067 262.675 62.258 262.564 60.344 271.86 61.79 271.725 60.419 278.382 50.489 269.494 53.134 265.409 50.412 262.972 54.441 256.745 52.416 254.932 55.838 249.644 54.784 248.698 57.782 244.067 55.664 242.172 67.439 223.983" fill="#192924"/>
    </g>
    <g>
      <polygon points="372.884 256.719 374.481 264.463 355.022 262.632 357.071 255.232 355.109 255.046 357.974 244.711 356.779 244.598 359.082 236.29 359.079 236.29 358.185 236.205 358.671 234.448 360.378 228.293 358.845 228.15 359.534 225.664 361.944 216.968 361.947 216.965 363.496 211.372 366.316 201.202 368.127 209.983 369.032 214.381 370.77 222.813 370.773 222.816 370.773 222.819 372.128 229.398 370.82 229.274 370.818 229.274 371.223 231.237 371.225 231.243 372.524 237.552 371.937 237.496 373.728 246.192 372.344 246.063 372.342 246.063 374.571 256.877 372.887 256.719 372.884 256.719" fill="#213831"/>
      <polygon points="382.959 249.37 386.035 254.124 374.481 264.463 372.887 256.719 374.571 256.877 372.344 246.063 373.728 246.192 371.937 237.496 372.524 237.552 371.225 231.243 371.223 231.237 370.82 229.274 372.128 229.398 370.773 222.819 370.773 222.816 369.038 214.389 368.132 209.992 366.319 201.186 380.012 222.344 377.552 224.545 381.038 229.935 379.809 231.035 383.791 237.187 381.435 239.295 386.122 246.538 382.959 249.37" fill="#3d5f54"/>
      <polygon points="366.313 201.202 363.496 211.372 363.493 211.378 361.947 216.965 361.944 216.968 359.534 225.664 358.845 228.15 360.378 228.293 358.671 234.448 358.185 236.205 359.079 236.29 356.779 244.598 357.974 244.711 355.109 255.046 357.071 255.232 355.022 262.632 348.335 250.477 350.635 246.909 348.425 242.892 352.426 236.686 350.956 234.009 354.206 228.971 353.259 227.247 356.006 222.988 354.285 219.855 366.313 201.202" fill="#192924"/>
    </g>
    <g>
      <polygon points="273.792 119.063 275.389 126.806 255.93 124.976 257.979 117.575 256.017 117.39 258.882 107.054 257.687 106.941 259.99 98.633 259.987 98.633 259.093 98.548 259.579 96.791 261.286 90.636 259.754 90.493 260.442 88.007 262.852 79.311 262.855 79.308 264.404 73.716 267.224 63.546 269.035 72.327 269.94 76.724 271.678 85.156 271.681 85.159 271.681 85.162 273.036 91.741 271.729 91.618 271.726 91.618 272.131 93.58 272.133 93.586 273.432 99.895 272.845 99.839 274.636 108.536 273.252 108.406 273.25 108.406 275.479 119.22 273.795 119.063 273.792 119.063" fill="#213831"/>
      <polygon points="283.867 111.713 286.943 116.467 275.389 126.806 273.795 119.063 275.479 119.22 273.252 108.406 274.636 108.536 272.845 99.839 273.432 99.895 272.133 93.586 272.131 93.58 271.729 91.618 273.036 91.741 271.681 85.162 271.681 85.159 269.946 76.733 269.041 72.335 267.227 63.529 280.92 84.687 278.46 86.888 281.946 92.278 280.718 93.378 284.699 99.53 282.343 101.639 287.03 108.881 283.867 111.713" fill="#3d5f54"/>
      <polygon points="267.221 63.546 264.404 73.716 264.401 73.721 262.855 79.308 262.852 79.311 260.442 88.007 259.754 90.493 261.286 90.636 259.579 96.791 259.093 98.548 259.987 98.633 257.687 106.941 258.882 107.054 256.017 117.39 257.979 117.575 255.93 124.976 249.243 112.821 251.543 109.253 249.333 105.235 253.334 99.029 251.864 96.353 255.114 91.314 254.167 89.59 256.914 85.331 255.193 82.198 267.221 63.546" fill="#192924"/>
    </g>
    <g>
      <polygon points="373.187 128.439 374.784 136.183 355.324 134.352 357.374 126.952 355.411 126.767 358.276 116.431 357.081 116.318 359.384 108.01 359.381 108.01 358.487 107.925 358.974 106.168 360.68 100.013 359.148 99.87 359.837 97.384 362.247 88.688 362.249 88.685 363.799 83.092 366.619 72.923 368.43 81.703 369.335 86.101 371.073 94.533 371.075 94.536 371.075 94.539 372.431 101.118 371.123 100.994 371.12 100.994 371.525 102.957 371.528 102.963 372.827 109.272 372.239 109.216 374.03 117.912 372.647 117.783 372.644 117.783 374.874 128.597 373.19 128.439 373.187 128.439" fill="#213831"/>
      <polygon points="383.261 121.09 386.337 125.844 374.784 136.183 373.19 128.439 374.874 128.597 372.647 117.783 374.03 117.912 372.239 109.216 372.827 109.272 371.528 102.963 371.525 102.957 371.123 100.994 372.431 101.118 371.075 94.539 371.075 94.536 369.34 86.109 368.435 81.712 366.622 72.906 380.315 94.064 377.854 96.265 381.341 101.655 380.112 102.755 384.093 108.907 381.737 111.015 386.424 118.258 383.261 121.09" fill="#3d5f54"/>
      <polygon points="366.616 72.923 363.799 83.092 363.796 83.098 362.249 88.685 362.247 88.688 359.837 97.384 359.148 99.87 360.68 100.013 358.974 106.168 358.487 107.925 359.381 108.01 357.081 116.318 358.276 116.431 355.411 126.767 357.374 126.952 355.324 134.352 348.638 122.198 350.938 118.629 348.728 114.612 352.729 108.406 351.258 105.729 354.509 100.691 353.561 98.967 356.308 94.708 354.588 91.575 366.616 72.923" fill="#192924"/>
    </g>
    <g>
      <polygon points="394.754 195.953 396.351 203.696 376.891 201.866 378.941 194.465 376.978 194.28 379.843 183.944 378.648 183.832 380.951 175.523 380.948 175.523 380.054 175.439 380.541 173.681 382.247 167.526 380.715 167.383 381.404 164.898 383.813 156.201 383.816 156.198 385.365 150.606 388.186 140.436 389.996 149.217 390.902 153.614 392.639 162.047 392.642 162.049 392.642 162.052 393.997 168.631 392.69 168.508 392.687 168.508 393.092 170.47 393.095 170.476 394.394 176.785 393.806 176.729 395.597 185.426 394.214 185.296 394.211 185.296 396.441 196.11 394.756 195.953 394.754 195.953" fill="#213831"/>
      <polygon points="404.828 188.603 407.904 193.358 396.351 203.696 394.756 195.953 396.441 196.11 394.214 185.296 395.597 185.426 393.806 176.729 394.394 176.785 393.095 170.476 393.092 170.47 392.69 168.508 393.997 168.631 392.642 162.052 392.642 162.049 390.907 153.623 390.002 149.225 388.188 140.419 401.881 161.577 399.421 163.778 402.908 169.169 401.679 170.268 405.66 176.42 403.304 178.529 407.991 185.772 404.828 188.603" fill="#3d5f54"/>
      <polygon points="388.183 140.436 385.365 150.606 385.363 150.611 383.816 156.198 383.813 156.201 381.404 164.898 380.715 167.383 382.247 167.526 380.541 173.681 380.054 175.439 380.948 175.523 378.648 183.832 379.843 183.944 376.978 194.28 378.941 194.465 376.891 201.866 370.205 189.711 372.505 186.143 370.295 182.125 374.296 175.919 372.825 173.243 376.076 168.204 375.128 166.481 377.875 162.221 376.154 159.089 388.183 140.436" fill="#192924"/>
    </g>
    <g>
      <polygon points="332.048 357.753 333.646 365.497 314.186 363.666 316.236 356.266 314.273 356.08 317.138 345.744 315.943 345.632 318.246 337.323 318.243 337.323 317.349 337.239 317.835 335.482 319.542 329.327 318.01 329.184 318.699 326.698 321.108 318.001 321.111 317.999 322.66 312.406 325.48 302.236 327.291 311.017 328.196 315.415 329.934 323.847 329.937 323.85 329.937 323.853 331.292 330.432 329.985 330.308 329.982 330.308 330.387 332.271 330.39 332.276 331.689 338.586 331.101 338.53 332.892 347.226 331.509 347.097 331.506 347.097 333.736 357.911 332.051 357.753 332.048 357.753" fill="#213831"/>
      <polygon points="342.123 350.403 345.199 355.158 333.646 365.497 332.051 357.753 333.736 357.911 331.509 347.097 332.892 347.226 331.101 338.53 331.689 338.586 330.39 332.276 330.387 332.271 329.985 330.308 331.292 330.432 329.937 323.853 329.937 323.85 328.202 315.423 327.297 311.026 325.483 302.219 339.176 323.377 336.716 325.579 340.202 330.969 338.974 332.068 342.955 338.22 340.599 340.329 345.286 347.572 342.123 350.403" fill="#3d5f54"/>
      <polygon points="325.478 302.236 322.66 312.406 322.657 312.412 321.111 317.999 321.108 318.001 318.699 326.698 318.01 329.184 319.542 329.327 317.835 335.482 317.349 337.239 318.243 337.323 315.943 345.632 317.138 345.744 314.273 356.08 316.236 356.266 314.186 363.666 307.5 351.511 309.8 347.943 307.59 343.925 311.591 337.72 310.12 335.043 313.37 330.005 312.423 328.281 315.17 324.021 313.449 320.889 325.478 302.236" fill="#192924"/>
    </g>
    <g>
      <polygon points="263.621 202.438 263.399 202.975 263.278 202.934 263.621 202.438" fill="#21423d"/>
      <polygon points="263.621 202.438 263.399 202.975 263.278 202.934 263.621 202.438" fill="#21423d"/>
      <polygon points="263.621 202.438 263.399 202.975 263.278 202.934 263.621 202.438" fill="#2a4f48"/>
      <g>
        <polygon points="270.021 181.494 265.604 192.157 263.253 197.837 261.418 202.264 262.685 202.719 261.579 205.393 260.246 208.609 260.96 208.865 258.959 213.693 260.625 214.292 258.089 220.415 257.506 211.283 258.696 209.564 258.394 204.863 259.87 202.727 259.737 200.644 261.18 198.556 260.929 194.641 270.021 181.494" fill="#21423d"/>
        <polygon points="271.075 212.506 270.555 212.319 270.965 218.013 269.985 217.66 270.502 224.88 258.089 220.415 260.625 214.292 258.959 213.693 260.96 208.865 260.246 208.609 261.579 205.393 262.685 202.719 261.418 202.264 263.253 197.837 265.604 192.157 270.021 181.494 270.514 188.388 270.584 189.35 270.584 189.352 270.757 191.757 270.855 193.131 270.855 193.134 271.267 198.873 271.267 198.876 271.423 201.038 271.423 201.04 271.778 205.992 270.576 205.559 271.075 212.506" fill="#2a4f48"/>
        <polygon points="263.621 202.438 263.399 202.975 263.278 202.934 263.621 202.438" fill="#2a4f48"/>
        <polygon points="281.113 213.353 281.701 219.74 270.502 224.88 269.985 217.66 270.965 218.013 270.555 212.319 271.075 212.506 270.576 205.559 271.778 205.992 271.423 201.04 271.423 201.038 271.267 198.876 271.267 198.873 270.855 193.134 270.855 193.131 270.757 191.757 270.584 189.352 270.584 189.35 270.514 188.388 270.021 181.494 280.376 193.554 281.126 201.701 280.299 202.079 280.381 202.967 280.926 203.602 281.796 213.041 281.113 213.353" fill="#3e7063"/>
      </g>
    </g>
    <g>
      <polygon points="341.93 289.037 341.707 289.574 341.587 289.534 341.93 289.037" fill="#21423d"/>
      <polygon points="341.93 289.037 341.707 289.574 341.587 289.534 341.93 289.037" fill="#21423d"/>
      <polygon points="341.93 289.037 341.707 289.574 341.587 289.534 341.93 289.037" fill="#2a4f48"/>
      <g>
        <polygon points="348.329 268.094 343.913 278.756 341.561 284.436 339.727 288.863 340.993 289.319 339.888 291.992 338.555 295.209 339.269 295.465 337.268 300.293 338.934 300.892 336.398 307.015 335.814 297.883 337.004 296.163 336.702 291.463 338.179 289.326 338.046 287.243 339.489 285.156 339.238 281.241 348.329 268.094" fill="#21423d"/>
        <polygon points="349.383 299.106 348.864 298.919 349.273 304.612 348.293 304.259 348.81 311.48 336.398 307.015 338.934 300.892 337.268 300.293 339.269 295.465 338.555 295.209 339.888 291.992 340.993 289.319 339.727 288.863 341.561 284.436 343.913 278.756 348.329 268.094 348.823 274.987 348.892 275.949 348.892 275.952 349.066 278.357 349.163 279.731 349.163 279.734 349.575 285.473 349.575 285.475 349.731 287.637 349.731 287.64 350.087 292.591 348.885 292.159 349.383 299.106" fill="#2a4f48"/>
        <polygon points="341.93 289.037 341.707 289.574 341.587 289.534 341.93 289.037" fill="#2a4f48"/>
        <polygon points="359.421 299.953 360.01 306.339 348.81 311.48 348.293 304.259 349.273 304.612 348.864 298.919 349.383 299.106 348.885 292.159 350.087 292.591 349.731 287.64 349.731 287.637 349.575 285.475 349.575 285.473 349.163 279.734 349.163 279.731 349.066 278.357 348.892 275.952 348.892 275.949 348.823 274.987 348.329 268.094 358.685 280.153 359.434 288.3 358.608 288.679 358.69 289.567 359.235 290.201 360.105 299.641 359.421 299.953" fill="#3e7063"/>
      </g>
    </g>
    <g>
      <polygon points="240.66 45.239 240.437 45.776 240.317 45.736 240.66 45.239" fill="#21423d"/>
      <polygon points="240.66 45.239 240.437 45.776 240.317 45.736 240.66 45.239" fill="#21423d"/>
      <polygon points="240.66 45.239 240.437 45.776 240.317 45.736 240.66 45.239" fill="#2a4f48"/>
      <g>
        <polygon points="247.059 24.296 242.643 34.958 240.291 40.639 238.457 45.065 239.723 45.521 238.618 48.195 237.285 51.411 237.999 51.667 235.998 56.495 237.664 57.094 235.128 63.217 234.545 54.085 235.734 52.365 235.432 47.665 236.909 45.528 236.776 43.445 238.219 41.358 237.968 37.443 247.059 24.296" fill="#21423d"/>
        <polygon points="248.114 55.308 247.594 55.121 248.004 60.814 247.024 60.461 247.54 67.682 235.128 63.217 237.664 57.094 235.998 56.495 237.999 51.667 237.285 51.411 238.618 48.195 239.723 45.521 238.457 45.065 240.291 40.639 242.643 34.958 247.059 24.296 247.553 31.189 247.622 32.151 247.622 32.154 247.796 34.559 247.893 35.933 247.893 35.936 248.305 41.675 248.305 41.677 248.462 43.84 248.462 43.842 248.817 48.793 247.615 48.361 248.114 55.308" fill="#2a4f48"/>
        <polygon points="240.66 45.239 240.437 45.776 240.317 45.736 240.66 45.239" fill="#2a4f48"/>
        <polygon points="258.151 56.155 258.74 62.541 247.54 67.682 247.024 60.461 248.004 60.814 247.594 55.121 248.114 55.308 247.615 48.361 248.817 48.793 248.462 43.842 248.462 43.84 248.305 41.677 248.305 41.675 247.893 35.936 247.893 35.933 247.796 34.559 247.622 32.154 247.622 32.151 247.553 31.189 247.059 24.296 257.415 36.355 258.164 44.502 257.338 44.881 257.42 45.769 257.965 46.403 258.835 55.843 258.151 56.155" fill="#3e7063"/>
      </g>
    </g>
    <g>
      <polygon points="281.955 310.895 281.955 335.411 281.384 335.258 281.384 344.615 281.162 344.555 281.162 357.099 270.37 354.22 264.974 345.65 270.256 338.296 268.498 335.499 272.246 330.278 270.278 327.152 281.955 310.895" fill="#1f3f33"/>
      <polygon points="290.684 351.554 281.162 356.918 281.162 344.555 281.384 344.615 281.384 335.258 281.955 335.411 281.955 311.009 288.824 331.408 286.453 332.744 288.963 340.2 287.196 341.197 290.684 351.554" fill="#468b72"/>
    </g>
    <g>
      <polygon points="316.454 84.774 316.454 109.29 315.882 109.138 315.882 118.495 315.66 118.434 315.66 130.978 304.869 128.099 299.473 119.529 304.754 112.175 302.996 109.379 306.744 104.158 304.777 101.031 316.454 84.774" fill="#1f3f33"/>
      <polygon points="325.182 125.433 315.66 130.797 315.66 118.434 315.882 118.495 315.882 109.138 316.454 109.29 316.454 84.888 323.322 105.288 320.951 106.624 323.462 114.08 321.694 115.076 325.182 125.433" fill="#468b72"/>
    </g>
    <g>
      <polygon points="228.311 66.958 228.311 91.474 227.74 91.322 227.74 100.679 227.518 100.618 227.518 113.162 216.726 110.283 211.33 101.713 216.612 94.359 214.854 91.563 218.602 86.342 216.634 83.215 228.311 66.958" fill="#1f3f33"/>
      <polygon points="237.04 107.617 227.518 112.981 227.518 100.618 227.74 100.679 227.74 91.322 228.311 91.474 228.311 67.072 235.18 87.472 232.809 88.808 235.32 96.264 233.552 97.26 237.04 107.617" fill="#468b72"/>
    </g>
    <g>
      <polygon points="392.06 330.56 393.657 338.304 374.198 336.473 376.247 329.073 374.285 328.887 377.15 318.552 375.955 318.439 378.258 310.131 378.255 310.131 377.361 310.046 377.847 308.289 379.554 302.134 378.021 301.991 378.71 299.505 381.12 290.809 381.123 290.806 382.672 285.213 385.492 275.043 387.303 283.824 388.208 288.222 389.946 296.654 389.949 296.657 389.949 296.66 391.304 303.239 389.997 303.115 389.994 303.115 390.399 305.078 390.401 305.084 391.7 311.393 391.113 311.337 392.904 320.033 391.52 319.904 391.518 319.904 393.747 330.718 392.063 330.56 392.06 330.56" fill="#213831"/>
      <polygon points="402.135 323.211 405.211 327.965 393.657 338.304 392.063 330.56 393.747 330.718 391.52 319.904 392.904 320.033 391.113 311.337 391.7 311.393 390.401 305.084 390.399 305.078 389.997 303.115 391.304 303.239 389.949 296.66 389.949 296.657 388.214 288.23 387.309 283.833 385.495 275.027 399.188 296.185 396.728 298.386 400.214 303.776 398.986 304.876 402.967 311.027 400.611 313.136 405.298 320.379 402.135 323.211" fill="#3d5f54"/>
      <polygon points="385.489 275.043 382.672 285.213 382.669 285.219 381.123 290.806 381.12 290.809 378.71 299.505 378.021 301.991 379.554 302.134 377.847 308.289 377.361 310.046 378.255 310.131 375.955 318.439 377.15 318.552 374.285 328.887 376.247 329.073 374.198 336.473 367.511 324.318 369.811 320.75 367.601 316.732 371.602 310.527 370.132 307.85 373.382 302.812 372.435 301.088 375.182 296.828 373.461 293.696 385.489 275.043" fill="#192924"/>
    </g>
    <g>
      <polygon points="427.692 285.552 429.289 293.295 409.83 291.464 411.879 284.064 409.917 283.879 412.782 273.543 411.587 273.43 413.89 265.122 413.887 265.122 412.993 265.037 413.479 263.28 415.186 257.125 413.653 256.982 414.342 254.496 416.752 245.8 416.755 245.797 418.304 240.204 421.124 230.035 422.935 238.815 423.84 243.213 425.578 251.645 425.581 251.648 425.581 251.651 426.936 258.23 425.629 258.107 425.626 258.107 426.031 260.069 426.033 260.075 427.332 266.384 426.745 266.328 428.536 275.025 427.152 274.895 427.15 274.895 429.379 285.709 427.695 285.552 427.692 285.552" fill="#213831"/>
      <polygon points="437.767 278.202 440.843 282.956 429.289 293.295 427.695 285.552 429.379 285.709 427.152 274.895 428.536 275.025 426.745 266.328 427.332 266.384 426.033 260.075 426.031 260.069 425.629 258.107 426.936 258.23 425.581 251.651 425.581 251.648 423.846 243.221 422.941 238.824 421.127 230.018 434.82 251.176 432.36 253.377 435.846 258.767 434.618 259.867 438.599 266.019 436.243 268.127 440.93 275.37 437.767 278.202" fill="#3d5f54"/>
      <polygon points="421.121 230.035 418.304 240.204 418.301 240.21 416.755 245.797 416.752 245.8 414.342 254.496 413.653 256.982 415.186 257.125 413.479 263.28 412.993 265.037 413.887 265.122 411.587 273.43 412.782 273.543 409.917 283.879 411.879 284.064 409.83 291.464 403.143 279.31 405.443 275.741 403.233 271.724 407.234 265.518 405.764 262.841 409.014 257.803 408.067 256.079 410.814 251.82 409.093 248.687 421.121 230.035" fill="#192924"/>
    </g>
    <g>
      <polygon points="268.558 170.874 262.812 181.324 261.05 174.962 262.735 174.802 260.274 165.917 261.302 165.82 259.322 158.677 260.093 158.605 259.677 157.104 259.677 157.101 258.208 151.803 259.523 151.679 258.928 149.538 258.928 149.535 256.859 142.069 256.859 142.064 256.852 142.04 255.527 137.253 255.525 137.251 253.105 128.513 263.446 144.549 261.966 147.239 264.328 150.903 263.513 152.385 266.308 156.717 265.043 159.018 268.483 164.353 266.581 167.809 268.558 170.874" fill="#3d5f54"/>
      <polygon points="246.081 182.898 247.453 176.241 247.451 176.241 246.006 176.376 247.922 167.079 247.92 167.079 246.728 167.191 248.271 159.714 248.268 159.714 247.763 159.762 248.88 154.343 248.88 154.341 249.23 152.646 249.228 152.646 248.106 152.753 249.271 147.096 249.274 147.094 250.767 139.842 251.546 136.062 253.102 128.513 255.525 137.251 256.852 142.04 256.859 142.064 256.859 142.069 258.928 149.535 258.928 149.538 259.523 151.679 258.208 151.803 259.677 157.101 259.677 157.104 260.093 158.605 259.322 158.677 261.302 165.82 260.274 165.917 260.272 165.917 262.735 174.802 261.05 174.962 261.048 174.962 262.812 181.324 246.081 182.898" fill="#213831"/>
      <polygon points="253.1 128.498 251.541 136.069 250.763 139.847 249.271 147.096 248.106 152.753 249.228 152.646 248.88 154.341 248.88 154.343 247.763 159.762 248.268 159.714 246.728 167.191 247.92 167.079 246.006 176.376 247.451 176.241 246.081 182.898 236.151 174.009 238.795 169.924 236.073 167.488 240.103 161.261 238.077 159.448 241.5 154.159 240.446 153.214 243.443 148.583 241.326 146.688 253.1 128.498" fill="#192924"/>
    </g>
    <g>
      <polygon points="331.07 232.774 332.667 240.518 313.208 238.687 315.257 231.287 313.295 231.101 316.16 220.766 314.965 220.653 317.268 212.345 317.265 212.345 316.371 212.26 316.857 210.503 318.564 204.348 317.032 204.205 317.72 201.719 320.13 193.023 320.133 193.02 321.682 187.427 324.502 177.257 326.313 186.038 327.218 190.436 328.956 198.868 328.959 198.871 328.959 198.874 330.314 205.453 329.007 205.329 329.004 205.329 329.409 207.292 329.411 207.298 330.71 213.607 330.123 213.551 331.914 222.247 330.531 222.118 330.528 222.118 332.757 232.932 331.073 232.774 331.07 232.774" fill="#213831"/>
      <polygon points="341.145 225.425 344.221 230.179 332.667 240.518 331.073 232.774 332.757 232.932 330.531 222.118 331.914 222.247 330.123 213.551 330.71 213.607 329.411 207.298 329.409 207.292 329.007 205.329 330.314 205.453 328.959 198.874 328.959 198.871 327.224 190.444 326.319 186.047 324.505 177.241 338.198 198.399 335.738 200.6 339.224 205.99 337.996 207.09 341.977 213.242 339.621 215.35 344.308 222.593 341.145 225.425" fill="#3d5f54"/>
      <polygon points="324.499 177.257 321.682 187.427 321.679 187.433 320.133 193.02 320.13 193.023 317.72 201.719 317.032 204.205 318.564 204.348 316.857 210.503 316.371 212.26 317.265 212.345 314.965 220.653 316.16 220.766 313.295 231.101 315.257 231.287 313.208 238.687 306.521 226.532 308.821 222.964 306.611 218.946 310.612 212.741 309.142 210.064 312.392 205.026 311.445 203.302 314.192 199.042 312.471 195.91 324.499 177.257" fill="#192924"/>
    </g>
    <g>
      <polygon points="313.085 246.89 313.085 271.406 312.514 271.253 312.514 280.61 312.291 280.55 312.291 293.093 301.5 290.215 296.104 281.645 301.386 274.291 299.627 271.494 303.376 266.273 301.408 263.147 313.085 246.89" fill="#1f3f33"/>
      <polygon points="321.813 287.548 312.291 292.912 312.291 280.55 312.514 280.61 312.514 271.253 313.085 271.406 313.085 247.004 319.953 267.403 317.582 268.739 320.093 276.195 318.325 277.192 321.813 287.548" fill="#468b72"/>
    </g>
    <g>
      <polygon points="311.594 168.942 305.848 179.391 304.086 173.029 305.771 172.87 303.31 163.984 304.337 163.887 302.358 156.744 303.129 156.672 302.713 155.171 302.713 155.168 301.243 149.87 302.558 149.747 301.964 147.605 301.964 147.603 299.895 140.136 299.895 140.131 299.887 140.107 298.563 135.321 298.56 135.318 296.141 126.58 306.481 142.616 305.002 145.306 307.364 148.971 306.549 150.452 309.343 154.784 308.079 157.085 311.519 162.42 309.617 165.877 311.594 168.942" fill="#3d5f54"/>
      <polygon points="289.116 180.965 290.489 174.308 290.487 174.308 289.041 174.443 290.958 165.147 290.956 165.147 289.764 165.258 291.306 157.781 291.304 157.781 290.799 157.83 291.915 152.41 291.915 152.408 292.266 150.714 292.263 150.714 291.142 150.82 292.307 145.164 292.309 145.161 293.803 137.91 294.582 134.129 296.138 126.58 298.56 135.318 299.887 140.107 299.895 140.131 299.895 140.136 301.964 147.603 301.964 147.605 302.558 149.747 301.243 149.87 302.713 155.168 302.713 155.171 303.129 156.672 302.358 156.744 304.337 163.887 303.31 163.984 303.308 163.984 305.771 172.87 304.086 173.029 304.084 173.029 305.848 179.391 289.116 180.965" fill="#213831"/>
      <polygon points="296.136 126.566 294.577 134.136 293.798 137.914 292.307 145.164 291.142 150.82 292.263 150.714 291.915 152.408 291.915 152.41 290.799 157.83 291.304 157.781 289.764 165.258 290.956 165.147 289.041 174.443 290.487 174.308 289.116 180.965 279.186 172.077 281.831 167.992 279.109 165.555 283.139 159.328 281.113 157.516 284.536 152.227 283.482 151.282 286.479 146.65 284.362 144.755 296.136 126.566" fill="#192924"/>
    </g>
    <g>
      <polygon points="344.045 161.574 343.823 162.112 343.703 162.071 344.045 161.574" fill="#21423d"/>
      <polygon points="344.045 161.574 343.823 162.112 343.703 162.071 344.045 161.574" fill="#21423d"/>
      <polygon points="344.045 161.574 343.823 162.112 343.703 162.071 344.045 161.574" fill="#2a4f48"/>
      <g>
        <polygon points="350.445 140.631 346.028 151.293 343.677 156.974 341.842 161.4 343.109 161.856 342.004 164.53 340.67 167.746 341.384 168.002 339.383 172.83 341.049 173.429 338.513 179.552 337.93 170.42 339.12 168.7 338.818 164 340.294 161.863 340.161 159.781 341.604 157.693 341.354 153.778 350.445 140.631" fill="#21423d"/>
        <polygon points="351.499 171.643 350.98 171.456 351.389 177.149 350.409 176.796 350.926 184.017 338.513 179.552 341.049 173.429 339.383 172.83 341.384 168.002 340.67 167.746 342.004 164.53 343.109 161.856 341.842 161.4 343.677 156.974 346.028 151.293 350.445 140.631 350.939 147.524 351.008 148.486 351.008 148.489 351.182 150.894 351.279 152.268 351.279 152.271 351.691 158.01 351.691 158.012 351.847 160.175 351.847 160.177 352.203 165.128 351 164.696 351.499 171.643" fill="#2a4f48"/>
        <polygon points="344.045 161.574 343.823 162.112 343.703 162.071 344.045 161.574" fill="#2a4f48"/>
        <polygon points="361.537 172.49 362.126 178.876 350.926 184.017 350.409 176.796 351.389 177.149 350.98 171.456 351.499 171.643 351 164.696 352.203 165.128 351.847 160.177 351.847 160.175 351.691 158.012 351.691 158.01 351.279 152.271 351.279 152.268 351.182 150.894 351.008 148.489 351.008 148.486 350.939 147.524 350.445 140.631 360.8 152.69 361.55 160.837 360.723 161.216 360.805 162.104 361.35 162.738 362.22 172.178 361.537 172.49" fill="#3e7063"/>
      </g>
    </g>
    <g>
      <polygon points="165.27 207.068 165.27 231.584 164.699 231.432 164.699 240.788 164.476 240.728 164.476 253.272 153.685 250.393 148.289 241.823 153.571 234.469 151.812 231.673 155.561 226.452 153.593 223.325 165.27 207.068" fill="#1f3f33"/>
      <polygon points="173.998 247.727 164.476 253.091 164.476 240.728 164.699 240.788 164.699 231.432 165.27 231.584 165.27 207.182 172.138 227.581 169.767 228.918 172.278 236.373 170.51 237.37 173.998 247.727" fill="#468b72"/>
    </g>
    <g>
      <polygon points="198.681 305.638 200.278 313.381 180.818 311.551 182.868 304.15 180.905 303.965 183.77 293.629 182.575 293.516 184.878 285.208 184.875 285.208 183.981 285.124 184.468 283.366 186.174 277.211 184.642 277.068 185.331 274.582 187.74 265.886 187.743 265.883 189.292 260.291 192.113 250.121 193.923 258.902 194.829 263.299 196.566 271.731 196.569 271.734 196.569 271.737 197.924 278.316 196.617 278.193 196.614 278.193 197.019 280.155 197.022 280.161 198.321 286.47 197.733 286.414 199.524 295.111 198.141 294.981 198.138 294.981 200.368 305.795 198.684 305.638 198.681 305.638" fill="#213831"/>
      <polygon points="208.755 298.288 211.831 303.042 200.278 313.381 198.684 305.638 200.368 305.795 198.141 294.981 199.524 295.111 197.733 286.414 198.321 286.47 197.022 280.161 197.019 280.155 196.617 278.193 197.924 278.316 196.569 271.737 196.569 271.734 194.834 263.308 193.929 258.91 192.115 250.104 205.808 271.262 203.348 273.463 206.835 278.853 205.606 279.953 209.587 286.105 207.231 288.214 211.918 295.457 208.755 298.288" fill="#3d5f54"/>
      <polygon points="192.11 250.121 189.292 260.291 189.29 260.296 187.743 265.883 187.74 265.886 185.331 274.582 184.642 277.068 186.174 277.211 184.468 283.366 183.981 285.124 184.875 285.208 182.575 293.516 183.77 293.629 180.905 303.965 182.868 304.15 180.818 311.551 174.132 299.396 176.432 295.828 174.222 291.81 178.223 285.604 176.752 282.928 180.003 277.889 179.055 276.165 181.802 271.906 180.081 268.774 192.11 250.121" fill="#192924"/>
    </g>
  </g>
</svg>
