<svg id="Layer_1" data-name="Layer 1" xmlns="http://www.w3.org/2000/svg" viewBox="0 0 342.943 438.43">
  <g>
    <polygon points="342.443 204.698 342.443 231.406 335.11 225.724 330.026 217.958 325.692 217.958 320.76 224.752 309.245 224.085 308.941 224.764 308.039 226.779 307.898 226.779 304.009 226.626 299.968 231.558 299.968 234.405 299.522 234.791 284.868 247.407 284.868 251.449 284.423 251.765 276.645 257.282 271.104 254.143 265.423 254.143 253.018 264.756 253.018 275.076 252.573 275.369 250.768 276.575 250.523 277.114 246.727 285.244 246.727 291.827 250.323 297.953 249.878 307.981 257.645 315.607 257.352 328.012 255.407 331.608 255.314 331.631 249.574 333.096 244.783 332.346 240.003 330.261 235.517 331.151 235.119 331.807 231.932 337.137 227.446 347.609 227.27 347.633 221.015 348.652 201.874 335.79 195.291 327.859 181.082 326.969 180.707 327.637 179.734 329.359 160.441 329.359 154.315 336.235 150.578 336.985 150.145 337.652 145.939 344.165 145.928 344.165 139.965 344.013 138.161 346.262 135.174 346.555 135.174 351.042 141.605 353.841 149.828 360.015 150.426 373.779 152.675 377.668 150.871 381.697 150.672 381.838 143.843 386.781 143.819 387.156 143.397 393.669 146.092 395.754 145.939 401.74 145.494 402.209 139.813 408.323 139.766 408.558 137.271 421.478 136.861 421.959 129.341 430.744 129.341 435.687 128.895 435.969 125.756 437.925 104.073 437.175 97.49 434.34 85.823 424.02 77.002 422.38 72.961 416.547 72.961 411.603 75.104 409.823 75.655 409.366 72.961 403.837 62.945 403.837 59.654 401.435 55.319 399.643 44.109 399.643 39.763 396.059 34.679 394.712 19.873 382.447 17.331 368.695 8.662 353.841 5.675 340.581 0.591 333.693 6.273 323.232 6.87 309.468 0.591 299.301 0.884 290.925 4.176 288.535 3.578 281.062 8.967 269.992 10.759 263.116 17.635 257.434 24.219 259.227 28.108 258.325 25.413 240.086 21.817 232.015 22.719 211.07 27.803 203.597 37.971 204.194 49.638 217.056 67.279 205.096 74.46 205.096 80.446 212.862 100.782 203.292 105.866 202.402 105.268 195.526 121.117 178.47 127.993 178.47 113.937 160.829 120.52 153.355 111.547 137.494 111.242 110.282 118.13 101.907 115.436 94.433 127.701 83.363 128.591 77.085 149.231 76.78 155.217 66.32 177.942 66.612 191.999 50.763 201.569 43.29 219.211 42.388 234.17 34.012 242.241 33.415 261.381 13.079 271.854 11.58 276.645 0.522 285.911 1.119 289.495 4.106 307.746 5.898 314.622 26.246 323.302 37.011 330.776 44.485 330.776 61.833 332.275 64.726 328.679 66.32 319.706 66.32 315.524 69.307 315.828 69.763 325.692 84.265 325.692 84.418 325.891 95.429 319.507 103.008 319.108 113.773 313.134 120.157 306.352 130.325 306.68 130.677 320.502 145.073 320.526 145.354 321.1 151.856 319.307 158.837 319.307 176.385 315.524 181.563 315.817 181.984 320.901 189.141 325.293 193.921 330.471 196.123 338.647 204.698 342.443 204.698" fill="#a4bbb2" stroke="#010101" strokeMiterlimit="10"/>
    <g>
      <polygon points="118.802 417.321 120.634 426.205 98.309 424.105 100.661 415.615 98.409 415.402 101.696 403.544 100.325 403.415 102.967 393.884 102.964 393.884 101.938 393.787 102.496 391.771 104.454 384.71 102.696 384.545 103.486 381.694 106.251 371.717 106.254 371.714 108.031 365.298 111.267 353.63 113.344 363.704 114.383 368.749 116.376 378.423 116.379 378.426 116.379 378.429 117.934 385.977 116.434 385.835 116.431 385.835 116.896 388.087 116.899 388.093 118.389 395.332 117.715 395.267 119.77 405.244 118.183 405.096 118.179 405.096 120.737 417.502 118.805 417.321 118.802 417.321" fill="#213831"/>
      <polygon points="130.36 408.889 133.888 414.344 120.634 426.205 118.805 417.321 120.737 417.502 118.183 405.096 119.77 405.244 117.715 395.267 118.389 395.332 116.899 388.093 116.896 388.087 116.434 385.835 117.934 385.977 116.379 378.429 116.379 378.426 114.389 368.759 113.351 363.714 111.27 353.611 126.979 377.884 124.157 380.41 128.156 386.594 126.747 387.855 131.314 394.913 128.611 397.332 133.988 405.641 130.36 408.889" fill="#3d5f54"/>
      <polygon points="111.264 353.63 108.031 365.298 108.028 365.304 106.254 371.714 106.251 371.717 103.486 381.694 102.696 384.545 104.454 384.71 102.496 391.771 101.938 393.787 102.964 393.884 100.325 403.415 101.696 403.544 98.409 415.402 100.661 415.615 98.309 424.105 90.639 410.16 93.277 406.067 90.742 401.457 95.332 394.338 93.645 391.268 97.374 385.487 96.287 383.51 99.438 378.623 97.464 375.029 111.264 353.63" fill="#192924"/>
    </g>
    <g>
      <polygon points="75.044 255.094 76.876 263.977 54.551 261.877 56.903 253.387 54.651 253.175 57.938 241.317 56.567 241.188 59.209 231.656 59.206 231.656 58.18 231.559 58.738 229.543 60.696 222.482 58.938 222.318 59.728 219.466 62.493 209.489 62.496 209.486 64.273 203.07 67.509 191.403 69.586 201.477 70.624 206.522 72.618 216.195 72.621 216.199 72.621 216.202 74.176 223.75 72.676 223.608 72.673 223.608 73.137 225.86 73.141 225.866 74.631 233.104 73.957 233.04 76.011 243.017 74.424 242.869 74.421 242.869 76.979 255.274 75.047 255.094 75.044 255.094" fill="#213831"/>
      <polygon points="86.601 246.662 90.13 252.117 76.876 263.977 75.047 255.094 76.979 255.274 74.424 242.869 76.011 243.017 73.957 233.04 74.631 233.104 73.141 225.866 73.137 225.86 72.676 223.608 74.176 223.75 72.621 216.202 72.621 216.199 70.631 206.531 69.592 201.486 67.512 191.384 83.221 215.657 80.398 218.182 84.398 224.366 82.989 225.627 87.556 232.685 84.853 235.104 90.23 243.414 86.601 246.662" fill="#3d5f54"/>
      <polygon points="67.505 191.403 64.273 203.07 64.27 203.077 62.496 209.486 62.493 209.489 59.728 219.466 58.938 222.318 60.696 222.482 58.738 229.543 58.18 231.559 59.206 231.656 56.567 241.188 57.938 241.317 54.651 253.175 56.903 253.387 54.551 261.877 46.88 247.933 49.519 243.839 46.984 239.23 51.574 232.111 49.887 229.04 53.616 223.26 52.529 221.282 55.68 216.395 53.706 212.802 67.505 191.403" fill="#192924"/>
    </g>
    <g>
      <polygon points="223.496 305.654 225.328 314.537 203.004 312.437 205.355 303.947 203.104 303.734 206.39 291.877 205.02 291.748 207.661 282.216 207.658 282.216 206.632 282.119 207.19 280.103 209.148 273.042 207.39 272.878 208.181 270.026 210.945 260.049 210.948 260.046 212.726 253.63 215.961 241.963 218.038 252.037 219.077 257.082 221.071 266.755 221.074 266.759 221.074 266.762 222.629 274.31 221.129 274.168 221.125 274.168 221.59 276.419 221.593 276.426 223.083 283.664 222.409 283.6 224.464 293.577 222.877 293.428 222.874 293.428 225.432 305.834 223.499 305.654 223.496 305.654" fill="#213831"/>
      <polygon points="235.054 297.222 238.583 302.676 225.328 314.537 223.499 305.654 225.432 305.834 222.877 293.428 224.464 293.577 222.409 283.6 223.083 283.664 221.593 276.426 221.59 276.419 221.129 274.168 222.629 274.31 221.074 266.762 221.074 266.759 219.084 257.091 218.045 252.046 215.964 241.943 231.673 266.217 228.851 268.742 232.851 274.926 231.441 276.187 236.009 283.245 233.306 285.664 238.683 293.974 235.054 297.222" fill="#3d5f54"/>
      <polygon points="215.958 241.963 212.726 253.63 212.722 253.637 210.948 260.046 210.945 260.049 208.181 270.026 207.39 272.878 209.148 273.042 207.19 280.103 206.632 282.119 207.658 282.216 205.02 291.748 206.39 291.877 203.104 303.734 205.355 303.947 203.004 312.437 195.333 298.493 197.971 294.399 195.436 289.79 200.026 282.671 198.339 279.6 202.068 273.82 200.981 271.842 204.133 266.955 202.158 263.362 215.958 241.963" fill="#192924"/>
    </g>
    <g>
      <polygon points="162.179 122.777 164.011 131.661 141.686 129.561 144.038 121.071 141.786 120.858 145.073 109.001 143.702 108.872 146.344 99.34 146.341 99.34 145.315 99.243 145.873 97.227 147.831 90.166 146.073 90.001 146.863 87.15 149.628 77.173 149.631 77.17 151.408 70.754 154.644 59.086 156.721 69.16 157.76 74.205 159.753 83.879 159.756 83.882 159.756 83.885 161.311 91.434 159.811 91.292 159.808 91.292 160.272 93.543 160.276 93.55 161.766 100.788 161.092 100.723 163.147 110.7 161.56 110.552 161.556 110.552 164.114 122.958 162.182 122.777 162.179 122.777" fill="#213831"/>
      <polygon points="173.736 114.345 177.265 119.8 164.011 131.661 162.182 122.777 164.114 122.958 161.56 110.552 163.147 110.7 161.092 100.723 161.766 100.788 160.276 93.55 160.272 93.543 159.811 91.292 161.311 91.434 159.756 83.885 159.756 83.882 157.766 74.215 156.727 69.17 154.647 59.067 170.356 83.34 167.533 85.866 171.533 92.05 170.124 93.311 174.691 100.369 171.988 102.788 177.365 111.097 173.736 114.345" fill="#3d5f54"/>
      <polygon points="154.64 59.086 151.408 70.754 151.405 70.76 149.631 77.17 149.628 77.173 146.863 87.15 146.073 90.001 147.831 90.166 145.873 97.227 145.315 99.243 146.341 99.34 143.702 108.872 145.073 109.001 141.786 120.858 144.038 121.071 141.686 129.561 134.016 115.616 136.654 111.523 134.119 106.914 138.709 99.794 137.022 96.724 140.751 90.943 139.664 88.966 142.815 84.079 140.841 80.486 154.64 59.086" fill="#192924"/>
    </g>
    <g>
      <polygon points="291.405 74.964 293.238 83.848 270.913 81.748 273.264 73.258 271.013 73.045 274.3 61.187 272.929 61.058 275.571 51.526 275.567 51.526 274.542 51.43 275.1 49.413 277.058 42.352 275.3 42.188 276.09 39.336 278.854 29.359 278.858 29.356 280.635 22.94 283.87 11.273 285.948 21.347 286.986 26.392 288.98 36.066 288.983 36.069 288.983 36.072 290.538 43.62 289.038 43.478 289.035 43.478 289.499 45.73 289.502 45.736 290.992 52.975 290.318 52.91 292.373 62.887 290.786 62.739 290.783 62.739 293.341 75.145 291.409 74.964 291.405 74.964" fill="#213831"/>
      <polygon points="302.963 66.532 306.492 71.987 293.238 83.848 291.409 74.964 293.341 75.145 290.786 62.739 292.373 62.887 290.318 52.91 290.992 52.975 289.502 45.736 289.499 45.73 289.038 43.478 290.538 43.62 288.983 36.072 288.983 36.069 286.993 26.402 285.954 21.357 283.873 11.254 299.582 35.527 296.76 38.053 300.76 44.236 299.35 45.498 303.918 52.555 301.215 54.975 306.592 63.284 302.963 66.532" fill="#3d5f54"/>
      <polygon points="283.867 11.273 280.635 22.94 280.632 22.947 278.858 29.356 278.854 29.359 276.09 39.336 275.3 42.188 277.058 42.352 275.1 49.413 274.542 51.43 275.567 51.526 272.929 61.058 274.3 61.187 271.013 73.045 273.264 73.258 270.913 81.748 263.242 67.803 265.881 63.71 263.345 59.1 267.935 51.981 266.248 48.91 269.977 43.13 268.89 41.153 272.042 36.266 270.068 32.672 283.867 11.273" fill="#192924"/>
    </g>
    <g>
      <polygon points="313.369 208.592 306.777 220.581 304.756 213.282 306.688 213.099 303.865 202.905 305.044 202.794 302.773 194.599 303.657 194.516 303.18 192.794 303.18 192.791 301.494 186.713 303.003 186.571 302.321 184.114 302.321 184.112 299.947 175.545 299.947 175.54 299.939 175.512 298.419 170.021 298.416 170.019 295.64 159.994 307.504 178.391 305.807 181.477 308.516 185.681 307.581 187.381 310.787 192.35 309.337 194.99 313.283 201.111 311.1 205.076 313.369 208.592" fill="#3d5f54"/>
      <polygon points="287.582 222.386 289.157 214.749 289.154 214.749 287.496 214.904 289.695 204.239 289.692 204.239 288.325 204.366 290.094 195.789 290.091 195.789 289.512 195.845 290.793 189.627 290.793 189.624 291.195 187.681 291.192 187.681 289.906 187.803 291.242 181.313 291.245 181.311 292.959 172.991 293.852 168.654 295.638 159.994 298.416 170.019 299.939 175.512 299.947 175.54 299.947 175.545 302.321 184.112 302.321 184.114 303.003 186.571 301.494 186.713 303.18 192.791 303.18 192.794 303.657 194.516 302.773 194.599 305.044 202.794 303.865 202.905 303.863 202.905 306.688 213.099 304.756 213.282 304.753 213.282 306.777 220.581 287.582 222.386" fill="#213831"/>
      <polygon points="295.635 159.977 293.846 168.663 292.953 172.997 291.242 181.313 289.906 187.803 291.192 187.681 290.793 189.624 290.793 189.627 289.512 195.845 290.091 195.789 288.325 204.366 289.692 204.239 287.496 214.904 289.154 214.749 287.582 222.386 276.19 212.189 279.224 207.503 276.101 204.707 280.724 197.564 278.4 195.484 282.327 189.416 281.118 188.332 284.556 183.019 282.127 180.845 295.635 159.977" fill="#192924"/>
    </g>
    <g>
      <polygon points="69.829 302.336 69.574 302.952 69.436 302.905 69.829 302.336" fill="#21423d"/>
      <polygon points="69.829 302.336 69.574 302.952 69.436 302.905 69.829 302.336" fill="#21423d"/>
      <polygon points="69.829 302.336 69.574 302.952 69.436 302.905 69.829 302.336" fill="#2a4f48"/>
      <g>
        <polygon points="77.171 278.309 72.104 290.541 69.407 297.058 67.302 302.136 68.755 302.659 67.487 305.726 65.958 309.416 66.777 309.71 64.481 315.249 66.392 315.936 63.483 322.961 62.814 312.484 64.179 310.511 63.832 305.119 65.526 302.668 65.373 300.278 67.029 297.883 66.741 293.391 77.171 278.309" fill="#21423d"/>
        <polygon points="78.38 313.887 77.785 313.673 78.254 320.204 77.13 319.799 77.723 328.083 63.483 322.961 66.392 315.936 64.481 315.249 66.777 309.71 65.958 309.416 67.487 305.726 68.755 302.659 67.302 302.136 69.407 297.058 72.104 290.541 77.171 278.309 77.738 286.217 77.817 287.321 77.817 287.324 78.016 290.083 78.128 291.66 78.128 291.662 78.601 298.247 78.601 298.25 78.78 300.73 78.78 300.733 79.188 306.413 77.808 305.917 78.38 313.887" fill="#2a4f48"/>
        <polygon points="69.829 302.336 69.574 302.952 69.436 302.905 69.829 302.336" fill="#2a4f48"/>
        <polygon points="89.896 314.859 90.571 322.186 77.723 328.083 77.13 319.799 78.254 320.204 77.785 313.673 78.38 313.887 77.808 305.917 79.188 306.413 78.78 300.733 78.78 300.73 78.601 298.25 78.601 298.247 78.128 291.662 78.128 291.66 78.016 290.083 77.817 287.324 77.817 287.321 77.738 286.217 77.171 278.309 89.051 292.144 89.911 301.49 88.963 301.925 89.057 302.944 89.682 303.672 90.68 314.501 89.896 314.859" fill="#3e7063"/>
      </g>
    </g>
    <g>
      <polygon points="145.683 147.81 145.428 148.427 145.29 148.38 145.683 147.81" fill="#21423d"/>
      <polygon points="145.683 147.81 145.428 148.427 145.29 148.38 145.683 147.81" fill="#21423d"/>
      <polygon points="145.683 147.81 145.428 148.427 145.29 148.38 145.683 147.81" fill="#2a4f48"/>
      <g>
        <polygon points="153.025 123.784 147.958 136.016 145.26 142.532 143.156 147.611 144.609 148.133 143.341 151.201 141.811 154.891 142.63 155.184 140.335 160.724 142.246 161.41 139.337 168.435 138.667 157.958 140.032 155.986 139.686 150.593 141.38 148.142 141.227 145.753 142.883 143.357 142.595 138.866 153.025 123.784" fill="#21423d"/>
        <polygon points="154.234 159.362 153.638 159.147 154.108 165.679 152.984 165.274 153.577 173.557 139.337 168.435 142.246 161.41 140.335 160.724 142.63 155.184 141.811 154.891 143.341 151.201 144.609 148.133 143.156 147.611 145.26 142.532 147.958 136.016 153.025 123.784 153.591 131.692 153.671 132.795 153.671 132.798 153.87 135.558 153.982 137.134 153.982 137.137 154.454 143.721 154.454 143.724 154.633 146.205 154.633 146.208 155.041 151.888 153.662 151.392 154.234 159.362" fill="#2a4f48"/>
        <polygon points="145.683 147.81 145.428 148.427 145.29 148.38 145.683 147.81" fill="#2a4f48"/>
        <polygon points="165.75 160.333 166.425 167.66 153.577 173.557 152.984 165.274 154.108 165.679 153.638 159.147 154.234 159.362 153.662 151.392 155.041 151.888 154.633 146.208 154.633 146.205 154.454 143.724 154.454 143.721 153.982 137.137 153.982 137.134 153.87 135.558 153.671 132.798 153.671 132.795 153.591 131.692 153.025 123.784 164.905 137.618 165.765 146.965 164.817 147.399 164.91 148.418 165.536 149.146 166.534 159.975 165.75 160.333" fill="#3e7063"/>
      </g>
    </g>
    <g>
      <polygon points="218.834 189.764 218.578 190.381 218.44 190.334 218.834 189.764" fill="#21423d"/>
      <polygon points="218.834 189.764 218.578 190.381 218.44 190.334 218.834 189.764" fill="#21423d"/>
      <polygon points="218.834 189.764 218.578 190.381 218.44 190.334 218.834 189.764" fill="#2a4f48"/>
      <g>
        <polygon points="226.175 165.738 221.109 177.97 218.411 184.486 216.306 189.565 217.759 190.087 216.491 193.155 214.962 196.845 215.781 197.138 213.485 202.678 215.396 203.364 212.487 210.389 211.818 199.912 213.183 197.94 212.836 192.547 214.53 190.096 214.378 187.707 216.033 185.311 215.746 180.82 226.175 165.738" fill="#21423d"/>
        <polygon points="227.385 201.316 226.789 201.101 227.258 207.633 226.134 207.228 226.727 215.511 212.487 210.389 215.396 203.364 213.485 202.678 215.781 197.138 214.962 196.845 216.491 193.155 217.759 190.087 216.306 189.565 218.411 184.486 221.109 177.97 226.175 165.738 226.742 173.646 226.821 174.749 226.821 174.752 227.021 177.512 227.132 179.088 227.132 179.091 227.605 185.675 227.605 185.678 227.784 188.159 227.784 188.162 228.192 193.842 226.812 193.346 227.385 201.316" fill="#2a4f48"/>
        <polygon points="218.834 189.764 218.578 190.381 218.44 190.334 218.834 189.764" fill="#2a4f48"/>
        <polygon points="238.901 202.287 239.576 209.614 226.727 215.511 226.134 207.228 227.258 207.633 226.789 201.101 227.385 201.316 226.812 193.346 228.192 193.842 227.784 188.162 227.784 188.159 227.605 185.678 227.605 185.675 227.132 179.091 227.132 179.088 227.021 177.512 226.821 174.752 226.821 174.749 226.742 173.646 226.175 165.738 238.055 179.572 238.915 188.919 237.967 189.353 238.061 190.372 238.686 191.1 239.684 201.929 238.901 202.287" fill="#3e7063"/>
      </g>
    </g>
    <g>
      <polygon points="244.694 36.267 244.694 64.392 244.039 64.218 244.039 74.952 243.784 74.883 243.784 89.273 231.403 85.971 225.213 76.139 231.272 67.702 229.255 64.494 233.555 58.504 231.298 54.918 244.694 36.267" fill="#1f3f33"/>
      <polygon points="254.708 82.912 243.784 89.066 243.784 74.883 244.039 74.952 244.039 64.218 244.694 64.392 244.694 36.398 252.574 59.801 249.854 61.334 252.734 69.887 250.706 71.03 254.708 82.912" fill="#468b72"/>
    </g>
    <g>
      <polygon points="174.546 237.272 174.546 265.397 173.891 265.222 173.891 275.957 173.636 275.888 173.636 290.278 161.255 286.976 155.065 277.144 161.124 268.707 159.107 265.499 163.407 259.509 161.15 255.923 174.546 237.272" fill="#1f3f33"/>
      <polygon points="184.56 283.917 173.636 290.071 173.636 275.888 173.891 275.957 173.891 265.222 174.546 265.397 174.546 237.403 182.426 260.806 179.706 262.339 182.586 270.892 180.558 272.035 184.56 283.917" fill="#468b72"/>
    </g>
    <g>
      <polygon points="139.047 199.621 139.047 227.746 138.391 227.571 138.391 238.306 138.136 238.237 138.136 252.627 125.756 249.325 119.566 239.493 125.625 231.056 123.607 227.848 127.908 221.858 125.65 218.272 139.047 199.621" fill="#1f3f33"/>
      <polygon points="149.06 246.266 138.136 252.42 138.136 238.237 138.391 238.306 138.391 227.571 139.047 227.746 139.047 199.752 146.926 223.155 144.206 224.688 147.087 233.241 145.058 234.384 149.06 246.266" fill="#468b72"/>
    </g>
    <g>
      <polygon points="269.891 158.872 271.723 167.756 249.398 165.656 251.749 157.166 249.498 156.953 252.785 145.095 251.414 144.966 254.056 135.434 254.052 135.434 253.027 135.338 253.585 133.321 255.543 126.26 253.785 126.096 254.575 123.244 257.339 113.267 257.343 113.264 259.12 106.848 262.355 95.181 264.433 105.255 265.471 110.3 267.465 119.974 267.468 119.977 267.468 119.98 269.023 127.528 267.523 127.386 267.52 127.386 267.984 129.638 267.987 129.644 269.478 136.883 268.803 136.818 270.858 146.795 269.271 146.647 269.268 146.647 271.826 159.053 269.894 158.872 269.891 158.872" fill="#213831"/>
      <polygon points="281.448 150.44 284.977 155.895 271.723 167.756 269.894 158.872 271.826 159.053 269.271 146.647 270.858 146.795 268.803 136.818 269.478 136.883 267.987 129.644 267.984 129.638 267.523 127.386 269.023 127.528 267.468 119.98 267.468 119.977 265.478 110.309 264.439 105.265 262.359 95.162 278.068 119.435 275.245 121.961 279.245 128.144 277.835 129.405 282.403 136.463 279.7 138.883 285.077 147.192 281.448 150.44" fill="#3d5f54"/>
      <polygon points="262.352 95.181 259.12 106.848 259.117 106.855 257.343 113.264 257.339 113.267 254.575 123.244 253.785 126.096 255.543 126.26 253.585 133.321 253.027 135.338 254.052 135.434 251.414 144.966 252.785 145.095 249.498 156.953 251.749 157.166 249.398 165.656 241.727 151.711 244.366 147.618 241.83 143.008 246.421 135.889 244.734 132.818 248.462 127.038 247.375 125.061 250.527 120.174 248.553 116.58 262.352 95.181" fill="#192924"/>
    </g>
    <g>
      <polygon points="183.831 219.114 185.663 227.997 163.338 225.897 165.69 217.407 163.438 217.194 166.725 205.337 165.354 205.208 167.996 195.676 167.993 195.676 166.967 195.579 167.525 193.563 169.483 186.502 167.725 186.338 168.516 183.486 171.28 173.509 171.283 173.506 173.061 167.09 176.296 155.423 178.373 165.496 179.412 170.541 181.405 180.215 181.409 180.218 181.409 180.222 182.963 187.77 181.463 187.628 181.46 187.628 181.925 189.879 181.928 189.886 183.418 197.124 182.744 197.06 184.799 207.037 183.212 206.888 183.209 206.888 185.766 219.294 183.834 219.114 183.831 219.114" fill="#213831"/>
      <polygon points="195.389 210.682 198.918 216.136 185.663 227.997 183.834 219.114 185.766 219.294 183.212 206.888 184.799 207.037 182.744 197.06 183.418 197.124 181.928 189.886 181.925 189.879 181.463 187.628 182.963 187.77 181.409 180.222 181.409 180.218 179.418 170.551 178.38 165.506 176.299 155.403 192.008 179.677 189.186 182.202 193.186 188.386 191.776 189.647 196.343 196.705 193.64 199.124 199.018 207.433 195.389 210.682" fill="#3d5f54"/>
      <polygon points="176.293 155.423 173.061 167.09 173.057 167.096 171.283 173.506 171.28 173.509 168.516 183.486 167.725 186.338 169.483 186.502 167.525 193.563 166.967 195.579 167.993 195.676 165.354 205.208 166.725 205.337 163.438 217.194 165.69 217.407 163.338 225.897 155.668 211.953 158.306 207.859 155.771 203.25 160.361 196.131 158.674 193.06 162.403 187.279 161.316 185.302 164.467 180.415 162.493 176.822 176.293 155.423" fill="#192924"/>
    </g>
    <g>
      <polygon points="55.054 317.761 48.462 329.749 46.441 322.451 48.374 322.267 45.551 312.074 46.729 311.963 44.458 303.768 45.343 303.685 44.866 301.963 44.866 301.96 43.18 295.881 44.688 295.74 44.006 293.283 44.006 293.28 41.632 284.714 41.632 284.709 41.624 284.681 40.104 279.19 40.102 279.187 37.326 269.163 49.189 287.559 47.492 290.646 50.201 294.85 49.267 296.55 52.472 301.519 51.022 304.159 54.968 310.279 52.786 314.245 55.054 317.761" fill="#3d5f54"/>
      <polygon points="29.267 331.555 30.842 323.917 30.839 323.917 29.181 324.073 31.38 313.407 31.377 313.407 30.01 313.535 31.78 304.958 31.777 304.958 31.197 305.013 32.478 298.796 32.478 298.793 32.88 296.849 32.878 296.849 31.591 296.971 32.928 290.482 32.93 290.479 34.644 282.16 35.537 277.823 37.323 269.163 40.102 279.187 41.624 284.681 41.632 284.709 41.632 284.714 44.006 293.28 44.006 293.283 44.688 295.74 43.18 295.881 44.866 301.96 44.866 301.963 45.343 303.685 44.458 303.768 46.729 311.963 45.551 312.074 45.548 312.074 48.374 322.267 46.441 322.451 46.438 322.451 48.462 329.749 29.267 331.555" fill="#213831"/>
      <polygon points="37.32 269.146 35.531 277.831 34.639 282.166 32.928 290.482 31.591 296.971 32.878 296.849 32.478 298.793 32.478 298.796 31.197 305.013 31.777 304.958 30.01 313.535 31.377 313.407 29.181 324.073 30.839 323.917 29.267 331.555 17.875 321.358 20.909 316.671 17.786 313.876 22.409 306.733 20.085 304.653 24.012 298.585 22.803 297.501 26.242 292.188 23.812 290.014 37.32 269.146" fill="#192924"/>
    </g>
    <g>
      <polygon points="216.191 144.039 218.024 152.922 195.699 150.822 198.05 142.332 195.799 142.119 199.086 130.262 197.715 130.133 200.357 120.601 200.353 120.601 199.328 120.504 199.886 118.488 201.844 111.427 200.086 111.263 200.876 108.411 203.64 98.434 203.644 98.431 205.421 92.015 208.656 80.348 210.734 90.421 211.772 95.466 213.766 105.14 213.769 105.143 213.769 105.147 215.324 112.695 213.824 112.553 213.821 112.553 214.285 114.804 214.288 114.811 215.779 122.049 215.104 121.985 217.159 131.962 215.572 131.813 215.569 131.813 218.127 144.219 216.195 144.039 216.191 144.039" fill="#213831"/>
      <polygon points="227.749 135.607 231.278 141.061 218.024 152.922 216.195 144.039 218.127 144.219 215.572 131.813 217.159 131.962 215.104 121.985 215.779 122.049 214.288 114.811 214.285 114.804 213.824 112.553 215.324 112.695 213.769 105.147 213.769 105.143 211.779 95.476 210.74 90.431 208.66 80.328 224.369 104.602 221.546 107.127 225.546 113.311 224.136 114.572 228.704 121.63 226.001 124.049 231.378 132.358 227.749 135.607" fill="#3d5f54"/>
      <polygon points="208.653 80.348 205.421 92.015 205.418 92.021 203.644 98.431 203.64 98.434 200.876 108.411 200.086 111.263 201.844 111.427 199.886 118.488 199.328 120.504 200.353 120.601 197.715 130.133 199.086 130.262 195.799 142.119 198.05 142.332 195.699 150.822 188.028 136.878 190.667 132.784 188.131 128.175 192.721 121.056 191.034 117.985 194.763 112.204 193.676 110.227 196.828 105.34 194.854 101.747 208.653 80.348" fill="#192924"/>
    </g>
    <g>
      <polygon points="64.317 337.272 64.317 365.397 63.662 365.223 63.662 375.957 63.407 375.888 63.407 390.279 51.026 386.976 44.836 377.144 50.895 368.707 48.878 365.499 53.178 359.509 50.921 355.923 64.317 337.272" fill="#1f3f33"/>
      <polygon points="74.331 383.917 63.407 390.071 63.407 375.888 63.662 375.957 63.662 365.223 64.317 365.397 64.317 337.403 72.197 360.806 69.477 362.339 72.357 370.892 70.329 372.036 74.331 383.917" fill="#468b72"/>
    </g>
    <g>
      <polygon points="149.216 316.642 142.625 328.63 140.603 321.331 142.536 321.148 139.713 310.954 140.892 310.843 138.62 302.649 139.505 302.565 139.028 300.843 139.028 300.84 137.342 294.762 138.851 294.62 138.168 292.163 138.168 292.161 135.795 283.595 135.795 283.589 135.786 283.561 134.267 278.071 134.264 278.068 131.488 268.043 143.351 286.44 141.654 289.526 144.364 293.73 143.429 295.43 146.635 300.4 145.184 303.04 149.13 309.16 146.948 313.125 149.216 316.642" fill="#3d5f54"/>
      <polygon points="123.429 330.435 125.005 322.798 125.002 322.798 123.343 322.953 125.543 312.288 125.54 312.288 124.173 312.415 125.942 303.838 125.939 303.838 125.36 303.894 126.641 297.676 126.641 297.674 127.043 295.73 127.04 295.73 125.753 295.852 127.09 289.363 127.093 289.36 128.806 281.041 129.699 276.703 131.485 268.043 134.264 278.068 135.786 283.561 135.795 283.589 135.795 283.595 138.168 292.161 138.168 292.163 138.851 294.62 137.342 294.762 139.028 300.84 139.028 300.843 139.505 302.565 138.62 302.649 140.892 310.843 139.713 310.954 139.71 310.954 142.536 321.148 140.603 321.331 140.6 321.331 142.625 328.63 123.429 330.435" fill="#213831"/>
      <polygon points="131.482 268.026 129.694 276.712 128.801 281.046 127.09 289.363 125.753 295.852 127.04 295.73 126.641 297.674 126.641 297.676 125.36 303.894 125.939 303.838 124.173 312.415 125.54 312.288 123.343 322.953 125.002 322.798 123.429 330.435 112.038 320.238 115.071 315.552 111.949 312.756 116.572 305.613 114.248 303.533 118.174 297.466 116.965 296.381 120.404 291.068 117.975 288.894 131.482 268.026" fill="#192924"/>
    </g>
  </g>
</svg>
