<svg id="Layer_1" data-name="Layer 1" xmlns="http://www.w3.org/2000/svg" viewBox="0 0 463.687 238.469">
  <g>
    <polygon points="0.882 58.236 2.296 57.819 1.994 52.491 7.833 53.881 11.169 56.939 17.564 56.939 23.68 62.777 23.68 73.064 30.353 75.566 35.913 71.118 40.362 71.674 51.205 65.836 54.819 63.055 58.711 66.67 64.272 65.558 72.056 66.948 77.061 71.396 86.514 70.284 99.303 76.123 103.473 79.459 110.702 72.786 117.096 61.943 129.329 65.836 135.168 56.661 142.118 52.491 144.065 44.15 151.293 47.486 162.414 36.921 163.804 28.58 169.643 26.912 184.656 39.701 197.167 39.145 205.786 35.531 205.786 19.684 210.234 16.069 224.692 26.078 232.476 28.58 249.436 42.482 256.664 36.921 263.337 42.482 267.507 39.423 277.794 39.979 279.462 35.809 288.637 34.975 293.086 36.921 298.924 29.693 308.655 32.473 314.493 28.58 315.884 21.908 334.789 19.684 341.462 16.069 344.242 8.285 350.358 3.558 354.807 5.782 361.201 0.5 367.874 0.5 363.982 9.675 365.65 15.235 382.053 29.415 390.95 30.805 394.564 34.697 401.793 36.087 406.797 43.872 411.802 45.54 411.802 52.491 430.429 73.064 441.828 95.862 451.281 98.364 456.008 101.979 456.008 114.49 462.782 125.944 456.481 125.615 454.896 127.418 444.47 128.252 429.317 143.265 422.228 143.821 416.667 146.463 391.089 146.324 390.672 148.965 394.842 156.889 398.457 162.171 398.457 170.234 394.425 173.153 393.73 177.601 386.502 186.776 376.354 180.104 351.749 179.965 350.776 203.458 345.632 203.875 334.094 193.171 324.363 194.005 316.162 191.503 315.049 189.834 305.597 189.139 304.624 191.642 292.668 191.225 285.718 196.924 279.323 197.202 270.288 209.713 261.808 210.269 250.27 204.987 237.481 205.404 233.032 213.466 227.333 212.632 215.656 220.834 208.149 221.112 201.477 216.386 198.974 207.767 190.217 207.489 179.652 210.686 177.984 215.274 171.218 216.247 171.218 229.314 162.322 236.82 155.093 237.933 143.694 224.402 139.431 228.016 128.959 229.87 121.545 230.426 109.497 218.193 103.936 216.803 102.361 211.52 99.859 209.852 100.322 204.848 102.361 204.848 102.361 199.565 99.951 199.936 99.951 197.248 93.186 197.248 86.328 189.371 82.992 189.371 82.529 187.054 80.397 187.796 80.397 184.089 78.358 183.162 78.358 178.991 76.134 177.694 75.578 171.763 66.125 171.948 66.311 175.841 68.535 177.416 68.535 183.533 65.94 185.108 54.819 185.108 49.258 178.806 42.957 178.806 36.284 170.28 36.284 165.461 17.008 140.995 17.008 134.322 12.281 128.762 12.281 122.46 23.68 113.934 23.68 103.554 3.941 81.683 6.999 65.372 0.882 58.236" fill="#a4bbb2" stroke="#010101" strokeMiterlimit="10"/>
    <g>
      <g>
        <g>
          <path d="M382.128,188.943l1.07-.26v-6.7l-10.54-26.97-.47.18-.29.1h-.01l-.37-.15-.01.02-.01.04-10.49,26.73-.03,6.88,1.06.26-5.49,12.53-.04,6.45,14.03,3.69.25-.97-11.65-3.06,12.42-4.69.13,13.7,1-.01-.13-13.84,12.47,4.71-11.65,3.06.25.97,14.03-3.69v-6.35Zm-20.15-6.74,2.13-5.43-2.13,6.22Zm0,5.83v-1.95l.32-.94.01-.02,1.92-3.99,1.86-1.33-.49,1.14-.06.12-3.1,7.08Zm6.94-3.02.65,1.13-.18.3Zm.53,4.83-.86-.21.52-.83Zm-1.88-.46-3.54-.85,2.4-6.99.24-.19,2.03,6.2Zm-.56.9-6.61,10.68v.01l-.7.12,4-11.62Zm-5.48,2.46,1.2-3.5.3.07-1.5,3.43-2.95,8.56-.87.16Zm-2,9.63-.6.98.33-.95Zm-2.02.19.66-.06-.66,1.91Zm13.97-.59-2.59.99,2.59-1.23Zm0-.71-1.69.16-12.01,5.69,3-4.85,9.01-.84,1.69-.8Zm0-1-3.25.3,2.01-.37,1.24-.25Zm0-1.35-9.75,1.81,6.31-10.19,1.78.43,1.66,5.06Zm0-6.1-.52-1.57.52.13Zm0-2.48-.88-.21-.8-2.44.34-.55,1.34,2.34Zm0-2.87-.74-1.29.74-1.21Zm0-4.4-1.31,2.12-2.61-4.57,3.33-2.74.59-.14Zm-4.17-3.53.38-.87.04-.03.94-.23Zm4.17-2.83-4.08.98-3.35,2.35,7.43-21.71Zm14.99,24.64-.88-.16-2.95-8.59Zm-1.23,1.88-.6-.98.27.02v.01Zm-.77-2.25-.7-.13-6.61-10.7,3.31-.8Zm-9.4-12.31.52.84-.87.21Zm-.47-2.65.65-1.13-.47,1.42Zm.87,1.41,2.03-6.21.24.2,2.4,6.99-3.53.85Zm1.76-7.06.07.02v.02Zm4.97,7.54-.47.11-3.12-7.12-.02-.07-.01-.01-.5-1.14,1.86,1.33,1.91,3.96.02.04.33.98Zm0-5.83v.81l-2.18-6.36Zm-9.72-24.5,7.64,22.32-3.17-2.26-4.47-1.12Zm4.39,21.83-1.37-1.13.94.23.05.04Zm-4.39-1.86.8.19,3.33,2.75-2.6,4.56-1.39-2.24-.14.09Zm0,6.93.96,1.56-.96,1.69Zm0,5.24.14-.25,1.42-2.47.34.55-.81,2.45-.57.13-.02.01-.5.12Zm0,1.57.73-.18-.73,2.22Zm0,5.28.11-.35v-.01l1.77-5.38,1.78-.43,6.31,10.21-8.32-1.52-1.65-.33Zm0,3.2,3.75.69-3.75-.34Zm.07,2.03-.01-.27,2.75,1.31Zm1.83-.51,9.01.84,3,4.86Zm12.28,3-.66-1.91.66.06Z" transform="translate(-21.304 -133.693)" fill="#010101"/>
          <g>
            <polygon points="344.293 47.25 344.233 47.37 344.273 47.26 344.293 47.25" fill="#010101"/>
            <polygon points="345.613 46.81 345.563 46.83 345.573 46.82 345.613 46.81" fill="#010101"/>
          </g>
          <polygon points="345.613 46.81 345.563 46.83 345.573 46.82 345.613 46.81" fill="#010101"/>
        </g>
        <g>
          <polygon points="355.993 46.69 355.993 46.71 355.923 46.67 355.993 46.69" fill="#010101"/>
          <polygon points="355.993 46.69 355.993 46.71 355.923 46.67 355.993 46.69" fill="#010101"/>
        </g>
      </g>
      <g>
        <g>
          <path d="M391.477,265.437l.894-.217v-5.6l-8.808-22.537-.392.151-.243.083h-.008l-.309-.125-.009.017-.008.033-8.766,22.336-.025,5.75.886.217-4.588,10.47-.033,5.39,11.724,3.084.209-.811-9.735-2.557,10.378-3.919.109,11.448.835-.008-.108-11.565,10.42,3.935-9.735,2.557.209.811L396.1,281.3v-5.306Zm-16.838-5.632,1.78-4.537-1.78,5.2Zm0,4.872v-1.63l.267-.785.008-.017,1.605-3.334,1.554-1.111-.409.952-.05.1-2.591,5.917Zm5.8-2.524.543.944-.15.251Zm.443,4.036-.719-.175.435-.694Zm-1.571-.384-2.958-.71,2.005-5.841.2-.159,1.7,5.181Zm-.468.752-5.523,8.925v.008l-.585.1,3.342-9.71Zm-4.579,2.056,1-2.925.251.058-1.253,2.867-2.465,7.153-.727.133Zm-1.672,8.047-.5.819.276-.794Zm-1.688.159.552-.051-.552,1.6Zm11.674-.493-2.164.827,2.164-1.028Zm0-.594-1.412.134-10.036,4.755,2.507-4.053,7.529-.7,1.412-.669Zm0-.835-2.716.25,1.68-.309,1.036-.209Zm0-1.129-8.147,1.513,5.273-8.515,1.487.359,1.387,4.229Zm0-5.1-.434-1.312.434.109Zm0-2.072-.735-.176-.669-2.039.285-.459,1.119,1.955Zm0-2.4-.618-1.078.618-1.012Zm0-3.677-1.094,1.771-2.181-3.819,2.782-2.289.493-.117Zm-3.484-2.95.317-.727.034-.025.785-.192Zm3.484-2.365-3.409.819-2.8,1.964,6.209-18.142ZM395.1,275.8l-.735-.134-2.465-7.178Zm-1.027,1.571-.5-.819.226.017v.008Zm-.644-1.88-.585-.109-5.523-8.941,2.766-.668ZM385.577,265.2l.435.7-.727.176Zm-.393-2.214.544-.944-.393,1.186Zm.727,1.178,1.7-5.189.2.167,2.006,5.841-2.95.71Zm1.471-5.9.059.016v.017Zm4.153,6.3-.393.092-2.607-5.95-.016-.058-.009-.008-.418-.953,1.555,1.111,1.6,3.309.016.034.276.819Zm0-4.872v.677l-1.822-5.314Zm-8.122-20.473,6.384,18.652-2.649-1.889-3.735-.936Zm3.668,18.242-1.144-.944.785.192.042.034Zm-3.668-1.554.668.159,2.783,2.3-2.173,3.81-1.161-1.872-.117.076Zm0,5.791.8,1.3-.8,1.412Zm0,4.379.117-.209,1.186-2.064.285.459-.677,2.048-.477.108-.016.009-.418.1Zm0,1.312.61-.151-.61,1.855Zm0,4.412.092-.293V271.5l1.479-4.5,1.487-.359,5.273,8.532-6.952-1.27-1.379-.276Zm0,2.674,3.134.576-3.134-.284Zm.058,1.7-.008-.226,2.3,1.095Zm1.53-.426,7.529.7,2.507,4.061Zm10.261,2.507-.551-1.6.551.05Z" transform="translate(-21.304 -133.693)" fill="#010101"/>
          <g>
            <polygon points="356.359 125.06 356.309 125.16 356.343 125.068 356.359 125.06" fill="#010101"/>
            <polygon points="357.462 124.692 357.421 124.709 357.429 124.7 357.462 124.692" fill="#010101"/>
          </g>
          <polygon points="357.462 124.692 357.421 124.709 357.429 124.7 357.462 124.692" fill="#010101"/>
        </g>
        <g>
          <polygon points="366.136 124.592 366.136 124.608 366.078 124.575 366.136 124.592" fill="#010101"/>
          <polygon points="366.136 124.592 366.136 124.608 366.078 124.575 366.136 124.592" fill="#010101"/>
        </g>
      </g>
      <g>
        <g>
          <path d="M340.477,258.437l.894-.217v-5.6l-8.808-22.537-.392.151-.243.083h-.008l-.309-.125-.009.017-.008.033-8.766,22.336-.025,5.75.886.217-4.588,10.47-.033,5.39,11.724,3.084.209-.811-9.735-2.557,10.378-3.919.109,11.448.835-.008-.108-11.565,10.42,3.935-9.735,2.557.209.811L345.1,274.3v-5.306Zm-16.838-5.632,1.78-4.537-1.78,5.2Zm0,4.872v-1.63l.267-.785.008-.017,1.605-3.334,1.554-1.111-.409.952-.05.1-2.591,5.917Zm5.8-2.524.543.944-.15.251Zm.443,4.036-.719-.175.435-.694Zm-1.571-.384-2.958-.71,2.005-5.841.2-.159,1.7,5.181Zm-.468.752-5.523,8.925v.008l-.585.1,3.342-9.71Zm-4.579,2.056,1-2.925.251.058-1.253,2.867-2.465,7.153-.727.133Zm-1.672,8.047-.5.819.276-.794Zm-1.688.159.552-.051-.552,1.6Zm11.674-.493-2.164.827,2.164-1.028Zm0-.594-1.412.134-10.036,4.755,2.507-4.053,7.529-.7,1.412-.669Zm0-.835-2.716.25,1.68-.309,1.036-.209Zm0-1.129-8.147,1.513,5.273-8.515,1.487.359,1.387,4.229Zm0-5.1-.434-1.312.434.109Zm0-2.072-.735-.176-.669-2.039.285-.459,1.119,1.955Zm0-2.4-.618-1.078.618-1.012Zm0-3.677-1.094,1.771-2.181-3.819,2.782-2.289.493-.117Zm-3.484-2.95.317-.727.034-.025.785-.192Zm3.484-2.365-3.409.819-2.8,1.964,6.209-18.142ZM344.1,268.8l-.735-.134-2.465-7.178Zm-1.027,1.571-.5-.819.226.017v.008Zm-.644-1.88-.585-.109-5.523-8.941,2.766-.668ZM334.577,258.2l.435.7-.727.176Zm-.393-2.214.544-.944-.393,1.186Zm.727,1.178,1.7-5.189.2.167,2.006,5.841-2.95.71Zm1.471-5.9.059.016v.017Zm4.153,6.3-.393.092-2.607-5.95-.016-.058-.009-.008-.418-.953,1.555,1.111,1.6,3.309.016.034.276.819Zm0-4.872v.677l-1.822-5.314Zm-8.122-20.473,6.384,18.652-2.649-1.889-3.735-.936Zm3.668,18.242-1.144-.944.785.192.042.034Zm-3.668-1.554.668.159,2.783,2.3-2.173,3.81-1.161-1.872-.117.076Zm0,5.791.8,1.3-.8,1.412Zm0,4.379.117-.209,1.186-2.064.285.459-.677,2.048-.477.108-.016.009-.418.1Zm0,1.312.61-.151-.61,1.855Zm0,4.412.092-.293V264.5l1.479-4.5,1.487-.359,5.273,8.532-6.952-1.27-1.379-.276Zm0,2.674,3.134.576-3.134-.284Zm.058,1.7-.008-.226,2.3,1.095Zm1.53-.426,7.529.7,2.507,4.061Zm10.261,2.507-.551-1.6.551.05Z" transform="translate(-21.304 -133.693)" fill="#010101"/>
          <g>
            <polygon points="305.359 118.06 305.309 118.16 305.343 118.068 305.359 118.06" fill="#010101"/>
            <polygon points="306.462 117.692 306.421 117.709 306.429 117.7 306.462 117.692" fill="#010101"/>
          </g>
          <polygon points="306.462 117.692 306.421 117.709 306.429 117.7 306.462 117.692" fill="#010101"/>
        </g>
        <g>
          <polygon points="315.136 117.592 315.136 117.608 315.078 117.575 315.136 117.592" fill="#010101"/>
          <polygon points="315.136 117.592 315.136 117.608 315.078 117.575 315.136 117.592" fill="#010101"/>
        </g>
      </g>
      <g>
        <g>
          <path d="M178.767,244.832l1.031-.251v-6.459l-10.161-26-.453.174-.279.1h-.01l-.357-.144-.01.019-.009.038-10.113,25.769-.029,6.633,1.022.25-5.293,12.08-.038,6.218,13.525,3.557.241-.935-11.231-2.95,11.974-4.521.125,13.207.964-.009-.125-13.343,12.021,4.541-11.231,2.95.241.935L184.1,263.13v-6.122Zm-19.426-6.5L161.4,233.1l-2.054,6Zm0,5.621v-1.88l.309-.906.009-.02,1.851-3.846,1.793-1.282-.472,1.1-.058.115-2.988,6.826Zm6.691-2.912.626,1.09-.173.289Zm.511,4.657-.83-.2.5-.8Zm-1.813-.444-3.413-.819,2.314-6.739.232-.183,1.957,5.977Zm-.54.868-6.372,10.3v.01l-.675.115,3.856-11.2Zm-5.283,2.371,1.157-3.374.289.068-1.446,3.306-2.844,8.253-.838.154Zm-1.928,9.284-.578.945.318-.916Zm-1.947.183.636-.058-.636,1.842Zm13.468-.568-2.5.954,2.5-1.186Zm0-.685-1.63.154-11.578,5.486,2.892-4.676,8.686-.81,1.63-.771Zm0-.964-3.134.289,1.938-.356,1.2-.241Zm0-1.3-9.4,1.745,6.083-9.824,1.716.414,1.6,4.879Zm0-5.881-.5-1.514.5.126Zm0-2.391-.849-.2-.771-2.353.328-.53,1.292,2.256Zm0-2.767-.714-1.243L168.5,241Zm0-4.241-1.263,2.043L164.72,236.8l3.211-2.642.569-.135Zm-4.021-3.4.367-.838.038-.029.907-.222Zm4.021-2.728-3.934.945-3.229,2.266,7.163-20.93Zm14.451,23.754-.849-.154-2.844-8.281Zm-1.186,1.813-.579-.945.261.019v.01Zm-.743-2.169-.674-.126-6.373-10.315,3.191-.771Zm-9.062-11.868.5.81-.839.2Zm-.453-2.555.627-1.089-.453,1.369Zm.839,1.36,1.957-5.987.231.193,2.314,6.739-3.4.819Zm1.7-6.806.067.019v.019Zm4.791,7.269-.453.106-3.008-6.864-.019-.068-.01-.01-.482-1.1,1.793,1.283L178.5,241l.019.039.318.945Zm0-5.621v.781l-2.1-6.131Zm-9.37-23.619,7.365,21.518-3.056-2.179-4.309-1.08Zm4.232,21.045-1.321-1.089.906.221.048.039Zm-4.232-1.793.771.183,3.21,2.651-2.506,4.4-1.34-2.159-.135.087Zm0,6.681.925,1.5-.925,1.629Zm0,5.051.135-.241,1.368-2.381.328.53-.781,2.362-.549.126-.019.009-.482.116Zm0,1.514.7-.174-.7,2.141Zm0,5.09.106-.337v-.01l1.706-5.187,1.716-.414,6.083,9.843-8.021-1.466-1.59-.318Zm0,3.085,3.615.665-3.615-.328Zm.067,1.957-.01-.26,2.652,1.263Zm1.764-.492,8.686.81,2.892,4.685Zm11.839,2.893-.637-1.842.637.058Z" transform="translate(-21.304 -133.693)" fill="#010101"/>
          <g>
            <polygon points="141.527 103.427 141.469 103.543 141.507 103.437 141.527 103.427" fill="#010101"/>
            <polygon points="142.799 103.003 142.751 103.022 142.761 103.013 142.799 103.003" fill="#010101"/>
          </g>
          <polygon points="142.799 103.003 142.751 103.022 142.761 103.013 142.799 103.003" fill="#010101"/>
        </g>
        <g>
          <polygon points="152.806 102.887 152.806 102.907 152.738 102.868 152.806 102.887" fill="#010101"/>
          <polygon points="152.806 102.887 152.806 102.907 152.738 102.868 152.806 102.887" fill="#010101"/>
        </g>
      </g>
      <g>
        <g>
          <path d="M252.187,248.042l.757-.184V243.12l-7.454-19.074-.333.128-.205.07h-.007l-.262-.106-.007.014-.007.029-7.419,18.9-.021,4.865.75.184L234.1,257l-.028,4.561,9.922,2.61.177-.686-8.239-2.164L244.711,258l.093,9.689.707-.007-.092-9.788,8.819,3.331L246,263.389l.176.686,9.923-2.61v-4.49Zm-14.251-4.766,1.507-3.84-1.507,4.4Zm0,4.123V246.02l.227-.665.007-.014,1.358-2.822,1.315-.941-.347.807-.042.084-2.192,5.008Zm4.909-2.136.459.8-.127.212Zm.374,3.416-.608-.149.368-.587Zm-1.329-.325-2.5-.6,1.7-4.943.169-.134,1.436,4.384Zm-.4.636-4.675,7.553v.007l-.495.085,2.829-8.218Zm-3.876,1.74.849-2.475.212.049-1.061,2.426-2.086,6.054-.615.113Zm-1.414,6.81-.425.693.234-.671Zm-1.429.135.467-.043-.467,1.351Zm9.88-.418-1.832.7,1.832-.87Zm0-.5-1.195.113-8.494,4.025,2.122-3.43,6.372-.6,1.195-.565Zm0-.707-2.3.212,1.422-.261.877-.177Zm0-.955-6.9,1.28,4.462-7.206,1.259.3,1.174,3.579Zm0-4.314-.368-1.11.368.092Zm0-1.754-.622-.148-.566-1.726.24-.389.948,1.655Zm0-2.029-.523-.913.523-.855Zm0-3.112-.926,1.5-1.846-3.232,2.355-1.938.417-.1Zm-2.949-2.5.269-.615.028-.021.665-.163Zm2.949-2-2.885.693-2.37,1.662,5.255-15.354Zm10.6,17.426-.622-.113-2.086-6.075Zm-.87,1.33-.424-.694.191.015v.007Zm-.544-1.592-.5-.092-4.675-7.567,2.341-.566Zm-6.648-8.706.368.594-.616.149Zm-.333-1.874.46-.8-.332,1Zm.616,1,1.435-4.391.17.141,1.7,4.943-2.5.6Zm1.244-4.993.05.015V242Zm3.515,5.333-.332.078-2.207-5.036-.014-.049-.007-.007-.353-.807,1.315.941,1.351,2.8.014.028.233.693Zm0-4.123v.573l-1.541-4.5Zm-6.874-17.327,5.4,15.785-2.242-1.6-3.161-.792Zm3.105,15.439-.969-.8.665.163.035.028Zm-3.105-1.316.566.134,2.355,1.945-1.839,3.225-.983-1.584-.1.064Zm0,4.9.679,1.1-.679,1.2Zm0,3.706.1-.177,1-1.747.241.389-.573,1.733-.4.092-.014.007-.354.085Zm0,1.11.516-.127-.516,1.57Zm0,3.734.078-.247v-.007l1.252-3.8,1.259-.3,4.462,7.221-5.884-1.075-1.167-.234Zm0,2.264,2.652.487-2.652-.24Zm.05,1.435-.007-.191,1.944.927Zm1.294-.361,6.372.595L255.2,260.8Zm8.685,2.122-.467-1.351.467.043Z" transform="translate(-21.304 -133.693)" fill="#010101"/>
          <g>
            <polygon points="219.192 108.692 219.15 108.777 219.178 108.699 219.192 108.692" fill="#010101"/>
            <polygon points="220.126 108.381 220.09 108.395 220.097 108.388 220.126 108.381" fill="#010101"/>
          </g>
          <polygon points="220.126 108.381 220.09 108.395 220.097 108.388 220.126 108.381" fill="#010101"/>
        </g>
        <g>
          <polygon points="227.466 108.296 227.466 108.31 227.417 108.282 227.466 108.296" fill="#010101"/>
          <polygon points="227.466 108.296 227.466 108.31 227.417 108.282 227.466 108.296" fill="#010101"/>
        </g>
      </g>
      <g>
        <g>
          <path d="M208.832,300.24l.825-.2v-5.168l-8.131-20.806-.362.139-.224.077h-.008l-.285-.115-.008.015-.007.031-8.093,20.62-.023,5.308.818.2-4.235,9.666-.031,4.976,10.823,2.846.193-.748-8.987-2.361,9.581-3.618.1,10.569.772-.008-.1-10.676,9.62,3.633-8.987,2.361.193.748,10.823-2.847v-4.9Zm-15.544-5.2,1.643-4.188-1.643,4.8Zm0,4.5v-1.5l.246-.726.008-.015,1.481-3.078,1.435-1.026-.378.879-.046.093-2.392,5.462Zm5.353-2.33.5.872-.139.231Zm.409,3.726-.663-.162.4-.64Zm-1.45-.355-2.731-.655,1.851-5.393.186-.146,1.566,4.783Zm-.432.695-5.1,8.238v.008l-.54.093,3.085-8.964Zm-4.228,1.9.926-2.7.232.054-1.158,2.646-2.275,6.6-.671.123ZM191.4,310.6l-.463.756.254-.733Zm-1.559.147.509-.047-.509,1.474Zm10.777-.455-2,.763,2-.949Zm0-.548-1.3.123-9.264,4.39,2.314-3.742,6.95-.648,1.3-.617Zm0-.772-2.507.232,1.551-.286.956-.193Zm0-1.041-7.521,1.4,4.867-7.861,1.374.332,1.28,3.9Zm0-4.706-.4-1.211.4.1Zm0-1.913-.679-.162-.617-1.882.262-.424,1.034,1.805Zm0-2.214-.571-1,.571-.933Zm0-3.394-1.01,1.635-2.014-3.525,2.569-2.114.455-.108Zm-3.217-2.723.293-.671.031-.024.725-.177Zm3.217-2.183-3.147.756-2.585,1.812,5.732-16.747Zm11.564,19.008-.679-.124-2.276-6.626Zm-.949,1.45-.463-.756.208.015v.008Zm-.594-1.736-.54-.1-5.1-8.254,2.553-.618Zm-7.252-9.5.4.648-.671.162Zm-.362-2.044.5-.872-.362,1.095Zm.671,1.087,1.566-4.79.185.154,1.852,5.392-2.723.656Zm1.358-5.446.054.015v.016Zm3.834,5.817-.363.084-2.407-5.492-.015-.054-.008-.008-.386-.879,1.435,1.026,1.474,3.055.015.03.255.756Zm0-4.5v.625l-1.682-4.906Zm-7.5-18.9,5.893,17.218-2.445-1.743-3.448-.864Zm3.386,16.84-1.057-.871.725.177.039.031Zm-3.386-1.434.617.146,2.569,2.122-2.006,3.517L201.5,295.5l-.108.07Zm0,5.346.74,1.2-.74,1.3Zm0,4.042.108-.193,1.095-1.905.262.424-.625,1.89-.439.1-.016.008-.385.092Zm0,1.211.563-.139-.563,1.713Zm0,4.073.084-.27v-.008l1.366-4.15,1.373-.332,4.868,7.877-6.419-1.173-1.272-.255Zm0,2.469,2.892.532-2.892-.262Zm.053,1.566-.007-.209,2.121,1.011Zm1.412-.394,6.951.648,2.314,3.749Zm9.473,2.314-.509-1.473.509.046Z" transform="translate(-21.304 -133.693)" fill="#010101"/>
          <g>
            <polygon points="174.776 160.376 174.729 160.468 174.76 160.383 174.776 160.376" fill="#010101"/>
            <polygon points="175.794 160.036 175.755 160.052 175.763 160.044 175.794 160.036" fill="#010101"/>
          </g>
          <polygon points="175.794 160.036 175.755 160.052 175.763 160.044 175.794 160.036" fill="#010101"/>
        </g>
        <g>
          <polygon points="183.801 159.944 183.801 159.959 183.747 159.928 183.801 159.944" fill="#010101"/>
          <polygon points="183.801 159.944 183.801 159.959 183.747 159.928 183.801 159.944" fill="#010101"/>
        </g>
      </g>
      <g>
        <polygon points="125.247 191.981 126.95 200.239 106.197 198.287 108.383 190.395 106.29 190.197 109.346 179.175 108.072 179.055 110.527 170.194 110.524 170.194 109.571 170.104 110.09 168.23 111.91 161.666 110.276 161.513 111.01 158.862 113.58 149.588 113.583 149.585 115.235 143.621 118.243 132.775 120.174 142.14 121.139 146.829 122.992 155.822 122.995 155.825 122.995 155.828 124.441 162.845 123.046 162.713 123.043 162.713 123.475 164.806 123.478 164.812 124.863 171.54 124.237 171.48 126.147 180.755 124.672 180.617 124.669 180.617 127.046 192.149 125.25 191.981 125.247 191.981" fill="#213831"/>
        <polygon points="135.991 184.143 139.272 189.214 126.95 200.239 125.25 191.981 127.046 192.149 124.672 180.617 126.147 180.755 124.237 171.48 124.863 171.54 123.478 164.812 123.475 164.806 123.046 162.713 124.441 162.845 122.995 155.828 122.995 155.825 121.145 146.838 120.18 142.149 118.246 132.757 132.849 155.321 130.225 157.669 133.943 163.417 132.633 164.59 136.879 171.151 134.366 173.399 139.364 181.124 135.991 184.143" fill="#3d5f54"/>
        <polygon points="118.24 132.775 115.235 143.621 115.232 143.627 113.583 149.585 113.58 149.588 111.01 158.862 110.276 161.513 111.91 161.666 110.09 168.23 109.571 170.104 110.524 170.194 108.072 179.055 109.346 179.175 106.29 190.197 108.383 190.395 106.197 198.287 99.067 185.325 101.52 181.52 99.163 177.235 103.43 170.617 101.862 167.762 105.328 162.389 104.317 160.551 107.247 156.008 105.412 152.667 118.24 132.775" fill="#192924"/>
      </g>
      <g>
        <polygon points="195.57 93.176 197.273 101.434 176.52 99.482 178.706 91.59 176.613 91.392 179.669 80.37 178.394 80.25 180.85 71.389 180.847 71.389 179.894 71.299 180.412 69.425 182.233 62.861 180.598 62.708 181.333 60.057 183.903 50.783 183.906 50.78 185.558 44.816 188.565 33.97 190.497 43.334 191.462 48.024 193.315 57.017 193.318 57.02 193.318 57.023 194.763 64.039 193.369 63.908 193.366 63.908 193.798 66.001 193.801 66.007 195.186 72.735 194.56 72.675 196.47 81.95 194.994 81.812 194.991 81.812 197.369 93.344 195.573 93.176 195.57 93.176" fill="#213831"/>
        <polygon points="206.314 85.338 209.594 90.409 197.273 101.434 195.573 93.176 197.369 93.344 194.994 81.812 196.47 81.95 194.56 72.675 195.186 72.735 193.801 66.007 193.798 66.001 193.369 63.908 194.763 64.039 193.318 57.023 193.318 57.02 191.468 48.033 190.503 43.343 188.568 33.952 203.171 56.516 200.548 58.864 204.266 64.612 202.956 65.785 207.201 72.345 204.689 74.594 209.687 82.319 206.314 85.338" fill="#3d5f54"/>
        <polygon points="188.562 33.97 185.558 44.816 185.555 44.822 183.906 50.78 183.903 50.783 181.333 60.057 180.598 62.708 182.233 62.861 180.412 69.425 179.894 71.299 180.847 71.389 178.394 80.25 179.669 80.37 176.613 91.392 178.706 91.59 176.52 99.482 169.39 86.52 171.843 82.714 169.486 78.43 173.753 71.812 172.184 68.957 175.651 63.584 174.64 61.746 177.57 57.203 175.735 53.862 188.562 33.97" fill="#192924"/>
      </g>
      <g>
        <polygon points="425.57 128.176 427.273 136.434 406.52 134.482 408.706 126.59 406.613 126.392 409.669 115.37 408.394 115.25 410.85 106.389 410.847 106.389 409.894 106.299 410.412 104.425 412.233 97.861 410.598 97.708 411.333 95.057 413.903 85.783 413.906 85.78 415.558 79.816 418.565 68.97 420.497 78.334 421.462 83.024 423.315 92.017 423.318 92.02 423.318 92.023 424.763 99.039 423.369 98.908 423.366 98.908 423.798 101.001 423.801 101.007 425.186 107.735 424.56 107.675 426.47 116.95 424.994 116.812 424.991 116.812 427.369 128.344 425.573 128.176 425.57 128.176" fill="#213831"/>
        <polygon points="436.314 120.338 439.594 125.409 427.273 136.434 425.573 128.176 427.369 128.344 424.994 116.812 426.47 116.95 424.56 107.675 425.186 107.735 423.801 101.007 423.798 101.001 423.369 98.908 424.763 99.039 423.318 92.023 423.318 92.02 421.468 83.033 420.503 78.343 418.568 68.952 433.171 91.516 430.548 93.864 434.266 99.612 432.956 100.785 437.201 107.345 434.689 109.594 439.687 117.319 436.314 120.338" fill="#3d5f54"/>
        <polygon points="418.562 68.97 415.558 79.816 415.555 79.822 413.906 85.78 413.903 85.783 411.333 95.057 410.598 97.708 412.233 97.861 410.412 104.425 409.894 106.299 410.847 106.389 408.394 115.25 409.669 115.37 406.613 126.392 408.706 126.59 406.52 134.482 399.39 121.52 401.843 117.714 399.486 113.43 403.753 106.812 402.184 103.957 405.651 98.584 404.64 96.746 407.57 92.203 405.735 88.862 418.562 68.97" fill="#192924"/>
      </g>
      <g>
        <polygon points="291.115 172.949 284.987 184.093 283.108 177.308 284.905 177.138 282.28 167.662 283.376 167.559 281.265 159.941 282.087 159.864 281.644 158.263 281.644 158.261 280.076 152.61 281.479 152.479 280.845 150.195 280.845 150.192 278.638 142.229 278.638 142.224 278.63 142.198 277.218 137.094 277.215 137.091 274.635 127.773 285.663 144.874 284.085 147.743 286.604 151.651 285.735 153.231 288.715 157.851 287.367 160.305 291.035 165.994 289.006 169.681 291.115 172.949" fill="#3d5f54"/>
        <polygon points="267.143 185.771 268.608 178.672 268.605 178.672 267.063 178.816 269.108 168.902 269.105 168.902 267.834 169.021 269.479 161.047 269.476 161.047 268.938 161.099 270.128 155.319 270.128 155.317 270.502 153.51 270.5 153.51 269.304 153.623 270.546 147.591 270.549 147.588 272.142 139.855 272.972 135.823 274.632 127.773 277.215 137.091 278.63 142.198 278.638 142.224 278.638 142.229 280.845 150.192 280.845 150.195 281.479 152.479 280.076 152.61 281.644 158.261 281.644 158.263 282.087 159.864 281.265 159.941 283.376 167.559 282.28 167.662 282.278 167.662 284.905 177.138 283.108 177.308 283.105 177.308 284.987 184.093 267.143 185.771" fill="#213831"/>
        <polygon points="274.629 127.757 272.967 135.831 272.137 139.86 270.546 147.591 269.304 153.623 270.5 153.51 270.128 155.317 270.128 155.319 268.938 161.099 269.476 161.047 267.834 169.021 269.105 168.902 267.063 178.816 268.605 178.672 267.143 185.771 256.554 176.293 259.374 171.936 256.471 169.338 260.768 162.697 258.608 160.764 262.258 155.123 261.134 154.115 264.331 149.176 262.073 147.155 274.629 127.757" fill="#192924"/>
      </g>
      <g>
        <polygon points="64.723 143.092 64.486 143.665 64.357 143.622 64.723 143.092" fill="#21423d"/>
        <polygon points="64.723 143.092 64.486 143.665 64.357 143.622 64.723 143.092" fill="#21423d"/>
        <polygon points="64.723 143.092 64.486 143.665 64.357 143.622 64.723 143.092" fill="#2a4f48"/>
        <g>
          <polygon points="71.548 120.757 66.838 132.128 64.33 138.186 62.373 142.907 63.724 143.392 62.545 146.244 61.124 149.674 61.885 149.947 59.751 155.096 61.528 155.735 58.823 162.265 58.201 152.526 59.47 150.692 59.148 145.679 60.723 143.401 60.581 141.179 62.12 138.953 61.852 134.778 71.548 120.757" fill="#21423d"/>
          <polygon points="72.672 153.83 72.118 153.631 72.555 159.702 71.509 159.326 72.061 167.026 58.823 162.265 61.528 155.735 59.751 155.096 61.885 149.947 61.124 149.674 62.545 146.244 63.724 143.392 62.373 142.907 64.33 138.186 66.838 132.128 71.548 120.757 72.074 128.108 72.148 129.134 72.148 129.137 72.334 131.702 72.437 133.168 72.437 133.17 72.877 139.291 72.877 139.294 73.043 141.6 73.043 141.602 73.422 146.882 72.14 146.421 72.672 153.83" fill="#2a4f48"/>
          <polygon points="64.723 143.092 64.486 143.665 64.357 143.622 64.723 143.092" fill="#2a4f48"/>
          <polygon points="83.377 154.733 84.005 161.544 72.061 167.026 71.509 159.326 72.555 159.702 72.118 153.631 72.672 153.83 72.14 146.421 73.422 146.882 73.043 141.602 73.043 141.6 72.877 139.294 72.877 139.291 72.437 133.17 72.437 133.168 72.334 131.702 72.148 129.137 72.148 129.134 72.074 128.108 71.548 120.757 82.591 133.618 83.391 142.306 82.509 142.71 82.597 143.657 83.178 144.334 84.106 154.4 83.377 154.733" fill="#3e7063"/>
        </g>
      </g>
      <g>
        <polygon points="237.236 75.447 236.998 76.02 236.87 75.976 237.236 75.447" fill="#21423d"/>
        <polygon points="237.236 75.447 236.998 76.02 236.87 75.976 237.236 75.447" fill="#21423d"/>
        <polygon points="237.236 75.447 236.998 76.02 236.87 75.976 237.236 75.447" fill="#2a4f48"/>
        <g>
          <polygon points="244.06 53.112 239.351 64.483 236.843 70.541 234.886 75.261 236.237 75.747 235.058 78.599 233.637 82.029 234.398 82.302 232.264 87.451 234.04 88.089 231.336 94.619 230.714 84.88 231.983 83.047 231.661 78.034 233.235 75.755 233.093 73.534 234.633 71.307 234.365 67.132 244.06 53.112" fill="#21423d"/>
          <polygon points="245.185 86.185 244.631 85.985 245.067 92.057 244.022 91.68 244.573 99.381 231.336 94.619 234.04 88.089 232.264 87.451 234.398 82.302 233.637 82.029 235.058 78.599 236.237 75.747 234.886 75.261 236.843 70.541 239.351 64.483 244.06 53.112 244.587 60.463 244.661 61.489 244.661 61.492 244.846 64.057 244.95 65.522 244.95 65.525 245.389 71.646 245.389 71.648 245.556 73.954 245.556 73.957 245.935 79.237 244.653 78.776 245.185 86.185" fill="#2a4f48"/>
          <polygon points="237.236 75.447 236.998 76.02 236.87 75.976 237.236 75.447" fill="#2a4f48"/>
          <polygon points="255.89 87.088 256.517 93.899 244.573 99.381 244.022 91.68 245.067 92.057 244.631 85.985 245.185 86.185 244.653 78.776 245.935 79.237 245.556 73.957 245.556 73.954 245.389 71.648 245.389 71.646 244.95 65.525 244.95 65.522 244.846 64.057 244.661 61.492 244.661 61.489 244.587 60.463 244.06 53.112 255.104 65.973 255.903 74.661 255.022 75.065 255.109 76.012 255.691 76.688 256.618 86.755 255.89 87.088" fill="#3e7063"/>
        </g>
      </g>
      <g>
        <polygon points="236.067 145.609 236.067 171.754 235.457 171.592 235.457 181.571 235.22 181.506 235.22 194.884 223.712 191.813 217.957 182.674 223.59 174.831 221.714 171.849 225.712 166.281 223.613 162.947 236.067 145.609" fill="#1f3f33"/>
        <polygon points="245.375 188.97 235.22 194.691 235.22 181.506 235.457 181.571 235.457 171.592 236.067 171.754 236.067 145.731 243.392 167.486 240.863 168.911 243.54 176.862 241.655 177.925 245.375 188.97" fill="#468b72"/>
      </g>
      <g>
        <polygon points="49.067 67.609 49.067 93.754 48.457 93.592 48.457 103.571 48.22 103.506 48.22 116.884 36.712 113.813 30.957 104.674 36.59 96.831 34.714 93.849 38.712 88.281 36.613 84.947 49.067 67.609" fill="#1f3f33"/>
        <polygon points="58.375 110.97 48.22 116.691 48.22 103.506 48.457 103.571 48.457 93.592 49.067 93.754 49.067 67.731 56.392 89.486 53.863 90.911 56.54 98.862 54.655 99.925 58.375 110.97" fill="#468b72"/>
      </g>
      <g>
        <polygon points="310.698 83.73 312.401 91.988 291.648 90.036 293.834 82.143 291.741 81.945 294.796 70.923 293.522 70.803 295.978 61.942 295.975 61.942 295.021 61.852 295.54 59.978 297.36 53.414 295.726 53.261 296.461 50.611 299.03 41.336 299.033 41.333 300.686 35.369 303.693 24.523 305.624 33.888 306.59 38.577 308.443 47.57 308.446 47.573 308.446 47.576 309.891 54.593 308.497 54.461 308.494 54.461 308.926 56.554 308.929 56.56 310.314 63.288 309.687 63.229 311.597 72.503 310.122 72.365 310.119 72.365 312.497 83.898 310.701 83.73 310.698 83.73" fill="#213831"/>
        <polygon points="321.442 75.891 324.722 80.962 312.401 91.988 310.701 83.73 312.497 83.898 310.122 72.365 311.597 72.503 309.687 63.229 310.314 63.288 308.929 56.56 308.926 56.554 308.497 54.461 309.891 54.593 308.446 47.576 308.446 47.573 306.596 38.586 305.63 33.897 303.696 24.505 318.299 47.069 315.675 49.417 319.394 55.165 318.083 56.338 322.329 62.899 319.816 65.148 324.815 72.872 321.442 75.891" fill="#3d5f54"/>
        <polygon points="303.69 24.523 300.686 35.369 300.683 35.375 299.033 41.333 299.03 41.336 296.461 50.611 295.726 53.261 297.36 53.414 295.54 59.978 295.021 61.852 295.975 61.942 293.522 70.803 294.796 70.923 291.741 81.945 293.834 82.143 291.648 90.036 284.517 77.073 286.97 73.268 284.613 68.983 288.88 62.365 287.312 59.51 290.778 54.137 289.768 52.299 292.697 47.756 290.862 44.416 303.69 24.523" fill="#192924"/>
      </g>
      <g>
        <polygon points="109.988 103.431 103.86 114.575 101.981 107.791 103.778 107.62 101.154 98.144 102.249 98.041 100.138 90.424 100.96 90.346 100.517 88.745 100.517 88.743 98.95 83.092 100.352 82.961 99.718 80.677 99.718 80.674 97.511 72.711 97.511 72.706 97.503 72.68 96.091 67.576 96.088 67.574 93.508 58.255 104.536 75.356 102.958 78.225 105.477 82.133 104.608 83.713 107.588 88.333 106.24 90.787 109.908 96.476 107.879 100.163 109.988 103.431" fill="#3d5f54"/>
        <polygon points="86.017 116.254 87.481 109.154 87.478 109.154 85.937 109.299 87.981 99.384 87.978 99.384 86.707 99.503 88.352 91.53 88.35 91.53 87.811 91.581 89.002 85.802 89.002 85.799 89.376 83.992 89.373 83.992 88.177 84.105 89.419 78.073 89.422 78.071 91.015 70.337 91.845 66.305 93.505 58.255 96.088 67.574 97.503 72.68 97.511 72.706 97.511 72.711 99.718 80.674 99.718 80.677 100.352 82.961 98.95 83.092 100.517 88.743 100.517 88.745 100.96 90.346 100.138 90.424 102.249 98.041 101.154 98.144 101.151 98.144 103.778 107.62 101.981 107.791 101.979 107.791 103.86 114.575 86.017 116.254" fill="#213831"/>
        <polygon points="93.503 58.239 91.84 66.313 91.01 70.342 89.419 78.073 88.177 84.105 89.373 83.992 89.002 85.799 89.002 85.802 87.811 91.581 88.35 91.53 86.707 99.503 87.978 99.384 85.937 109.299 87.478 109.154 86.017 116.254 75.427 106.775 78.247 102.418 75.344 99.82 79.642 93.179 77.481 91.246 81.132 85.606 80.008 84.598 83.204 79.659 80.946 77.638 93.503 58.239" fill="#192924"/>
      </g>
    </g>
  </g>
</svg>
