<svg id="Layer_1" data-name="Layer 1" xmlns="http://www.w3.org/2000/svg" viewBox="0 0 345.639 384.616">
  <g>
    <polygon points="344.965 218.131 341.187 227.421 341.356 239.643 341.108 239.774 340.366 240.152 334.203 243.305 326.541 250.953 321.056 252.79 310.58 252.79 310.58 255.449 306.697 255.449 305.915 267.592 309.915 273.417 309.576 277.234 304.925 283.893 302.762 287.71 302.762 293.209 300.924 294.199 300.924 309.34 297.602 310.174 294.11 312.167 293.68 311.594 288.116 304.18 287.282 304.154 282.461 304.011 280.142 305.848 274.643 305.014 274.526 304.884 274.513 304.884 270.487 300.688 270.044 301.014 265.001 304.688 257.678 304.845 257.274 304.584 254.851 303.021 254.447 303.151 251.854 304.011 246.043 305.353 246.043 331.96 240.714 337.784 236.388 347.934 231.736 352.26 225.247 353.42 219.253 356.247 192.972 356.247 180.503 354.918 180.047 354.736 180.02 354.736 176.177 353.251 175.564 353.172 175.551 353.159 172.515 352.755 172.411 352.638 170.522 350.592 169.753 350.619 165.192 350.762 163.538 352.925 158.378 353.251 154.221 358.41 152.384 364.235 138.911 378.203 137.921 381.03 133.426 383.363 129.1 383.363 128.162 383.975 127.627 383.441 109.307 365.342 104.434 364.456 104.03 364.704 99.991 367.114 92.447 367.114 90.232 365.121 82.909 363.792 67.169 345.824 54.309 324.976 52.758 319.425 40.771 303.685 40.771 273.964 36.562 273.964 27.467 264.426 21.708 261.99 16.822 256.66 10.841 248.243 10.906 248.152 15.05 242.471 15.05 222.952 17.043 215.186 16.379 207.655 16.144 207.407 0.639 191.237 0.743 191.081 8.17 179.928 14.828 172.826 15.271 160.852 22.372 152.422 22.151 140.004 21.89 139.626 10.841 123.378 10.919 123.326 15.493 120.042 25.473 120.042 29.461 118.27 31.467 121.046 40.771 123.704 50.087 123.704 60.068 121.046 67.729 117.059 72.72 112.068 76.042 117.879 82.023 117.879 84.355 114.062 77.371 98.752 72.381 91.103 78.7 80.458 81.033 80.458 82.362 72.145 91.014 60.496 89.685 49.851 96.004 49.851 115.627 28.221 117.959 22.905 128.605 20.573 141.582 32.886 148.228 32.221 148.228 22.905 144.566 15.256 148.228 5.601 150.56 0.611 158.873 3.282 160.645 2.787 160.893 3.073 167.864 11.373 167.798 11.699 164.202 30.892 164.228 30.918 187.825 57.056 187.825 69.474 187.786 69.5 174.183 79.676 174.183 87.22 179.838 93.878 179.838 101.866 202.901 131.131 202.901 136.903 210.888 147.105 218.419 147.105 225.078 154.65 238.381 154.65 241.456 152.786 241.495 152.76 241.495 145.438 238.824 143.561 238.616 139.248 238.603 138.897 249.926 138.675 250.59 145.776 253.248 147.327 253.248 152.317 255.685 153.425 255.685 157.855 258.239 156.969 258.786 159.744 262.786 159.744 270.995 169.178 279.086 169.178 279.086 172.383 281.966 171.94 281.966 178.26 279.529 178.26 279.49 178.625 278.969 184.253 281.966 186.247 283.855 192.566 290.5 194.234 304.925 208.867 313.798 208.202 326.32 205.987 331.427 201.661 344.952 217.727 344.965 217.727 345.07 217.857 344.965 218.131" fill="#a4bbb2" stroke="#010101" strokeMiterlimit="10"/>
    <g>
      <polygon points="136.631 245.686 138.669 255.567 113.836 253.231 116.452 243.788 113.947 243.551 117.603 230.361 116.079 230.218 119.017 219.615 119.014 219.615 117.873 219.508 118.493 217.265 120.671 209.411 118.716 209.228 119.595 206.056 122.67 194.959 122.673 194.955 124.65 187.818 128.249 174.841 130.56 186.046 131.715 191.658 133.932 202.418 133.936 202.422 133.936 202.425 135.665 210.821 133.997 210.663 133.993 210.663 134.51 213.168 134.514 213.175 136.171 221.226 135.421 221.155 137.707 232.252 135.942 232.087 135.938 232.087 138.783 245.887 136.634 245.686 136.631 245.686" fill="#213831"/>
      <polygon points="149.486 236.307 153.412 242.374 138.669 255.567 136.634 245.686 138.783 245.887 135.942 232.087 137.707 232.252 135.421 221.155 136.171 221.226 134.514 213.175 134.51 213.168 133.997 210.663 135.665 210.821 133.936 202.425 133.936 202.422 131.722 191.668 130.567 186.057 128.253 174.819 145.726 201.819 142.587 204.628 147.036 211.506 145.468 212.909 150.548 220.76 147.542 223.451 153.523 232.694 149.486 236.307" fill="#3d5f54"/>
      <polygon points="128.245 174.841 124.65 187.818 124.647 187.826 122.673 194.955 122.67 194.959 119.595 206.056 118.716 209.228 120.671 209.411 118.493 217.265 117.873 219.508 119.014 219.615 116.079 230.218 117.603 230.361 113.947 243.551 116.452 243.788 113.836 253.231 105.304 237.72 108.239 233.167 105.419 228.04 110.524 220.121 108.648 216.705 112.796 210.276 111.586 208.076 115.092 202.64 112.896 198.643 128.245 174.841" fill="#192924"/>
    </g>
    <g>
      <polygon points="280.606 271.047 282.644 280.928 257.811 278.593 260.427 269.149 257.923 268.912 261.579 255.723 260.054 255.579 262.993 244.977 262.989 244.977 261.848 244.869 262.469 242.626 264.647 234.772 262.691 234.589 263.57 231.418 266.645 220.32 266.649 220.316 268.626 213.18 272.224 200.202 274.535 211.407 275.69 217.019 277.908 227.779 277.911 227.783 277.911 227.787 279.641 236.182 277.972 236.025 277.969 236.025 278.485 238.529 278.489 238.536 280.147 246.588 279.397 246.516 281.682 257.614 279.917 257.448 279.913 257.448 282.759 271.248 280.61 271.047 280.606 271.047" fill="#213831"/>
      <polygon points="293.462 261.668 297.387 267.735 282.644 280.928 280.61 271.047 282.759 271.248 279.917 257.448 281.682 257.614 279.397 246.516 280.147 246.588 278.489 238.536 278.485 238.529 277.972 236.025 279.641 236.182 277.911 227.787 277.911 227.783 275.698 217.03 274.542 211.418 272.228 200.18 289.702 227.18 286.562 229.99 291.011 236.868 289.443 238.271 294.524 246.121 291.517 248.812 297.498 258.055 293.462 261.668" fill="#3d5f54"/>
      <polygon points="272.221 200.202 268.626 213.18 268.622 213.187 266.649 220.316 266.645 220.32 263.57 231.418 262.691 234.589 264.647 234.772 262.469 242.626 261.848 244.869 262.989 244.977 260.054 255.579 261.579 255.723 257.923 268.912 260.427 269.149 257.811 278.593 249.279 263.082 252.214 258.528 249.394 253.401 254.5 245.483 252.623 242.067 256.771 235.637 255.562 233.438 259.067 228.002 256.871 224.005 272.221 200.202" fill="#192924"/>
    </g>
    <g>
      <polygon points="122.658 107.116 124.696 116.997 99.863 114.662 102.479 105.218 99.975 104.981 103.631 91.792 102.106 91.648 105.044 81.046 105.041 81.046 103.9 80.938 104.521 78.696 106.699 70.841 104.743 70.658 105.622 67.487 108.697 56.389 108.701 56.385 110.678 49.249 114.276 36.271 116.587 47.476 117.742 53.088 119.96 63.848 119.963 63.852 119.963 63.856 121.693 72.252 120.024 72.094 120.021 72.094 120.537 74.598 120.541 74.605 122.199 82.657 121.449 82.585 123.734 93.683 121.969 93.518 121.965 93.518 124.811 107.317 122.662 107.116 122.658 107.116" fill="#213831"/>
      <polygon points="135.514 97.737 139.439 103.804 124.696 116.997 122.662 107.116 124.811 107.317 121.969 93.518 123.734 93.683 121.449 82.585 122.199 82.657 120.541 74.605 120.537 74.598 120.024 72.094 121.693 72.252 119.963 63.856 119.963 63.852 117.75 53.099 116.594 47.487 114.28 36.25 131.754 63.249 128.614 66.059 133.063 72.937 131.495 74.34 136.576 82.19 133.569 84.881 139.55 94.124 135.514 97.737" fill="#3d5f54"/>
      <polygon points="114.273 36.271 110.678 49.249 110.674 49.256 108.701 56.385 108.697 56.389 105.622 67.487 104.743 70.658 106.699 70.841 104.521 78.696 103.9 80.938 105.041 81.046 102.106 91.648 103.631 91.792 99.975 104.981 102.479 105.218 99.863 114.662 91.331 99.151 94.266 94.598 91.446 89.47 96.552 81.552 94.675 78.136 98.823 71.706 97.614 69.507 101.119 64.071 98.923 60.074 114.273 36.271" fill="#192924"/>
    </g>
    <g>
      <polygon points="79.581 271.047 81.619 280.928 56.787 278.593 59.402 269.149 56.898 268.912 60.554 255.723 59.029 255.579 61.968 244.977 61.964 244.977 60.823 244.869 61.444 242.626 63.622 234.772 61.666 234.589 62.545 231.418 65.62 220.32 65.624 220.316 67.601 213.18 71.2 200.202 73.51 211.407 74.666 217.019 76.883 227.779 76.887 227.783 76.887 227.787 78.616 236.182 76.948 236.025 76.944 236.025 77.461 238.529 77.464 238.536 79.122 246.588 78.372 246.516 80.658 257.614 78.892 257.448 78.889 257.448 81.734 271.248 79.585 271.047 79.581 271.047" fill="#213831"/>
      <polygon points="92.437 261.668 96.362 267.735 81.619 280.928 79.585 271.047 81.734 271.248 78.892 257.448 80.658 257.614 78.372 246.516 79.122 246.588 77.464 238.536 77.461 238.529 76.948 236.025 78.616 236.182 76.887 227.787 76.887 227.783 74.673 217.03 73.518 211.418 71.203 200.18 88.677 227.18 85.537 229.99 89.986 236.868 88.418 238.271 93.499 246.121 90.492 248.812 96.474 258.055 92.437 261.668" fill="#3d5f54"/>
      <polygon points="71.196 200.202 67.601 213.18 67.597 213.187 65.624 220.316 65.62 220.32 62.545 231.418 61.666 234.589 63.622 234.772 61.444 242.626 60.823 244.869 61.964 244.977 59.029 255.579 60.554 255.723 56.898 268.912 59.402 269.149 56.787 278.593 48.254 263.082 51.189 258.528 48.369 253.401 53.475 245.483 51.598 242.067 55.746 235.637 54.537 233.438 58.042 228.002 55.847 224.005 71.196 200.202" fill="#192924"/>
    </g>
    <g>
      <polygon points="222.626 238.468 215.293 251.802 213.045 243.684 215.195 243.48 212.055 232.141 213.366 232.018 210.839 222.903 211.823 222.81 211.293 220.895 211.293 220.892 209.417 214.13 211.095 213.973 210.336 211.24 210.336 211.237 207.696 201.709 207.696 201.702 207.687 201.672 205.996 195.564 205.993 195.561 202.906 184.41 216.102 204.873 214.214 208.307 217.227 212.983 216.188 214.874 219.754 220.401 218.141 223.338 222.53 230.145 220.102 234.556 222.626 238.468" fill="#3d5f54"/>
      <polygon points="193.942 253.81 195.694 245.315 195.691 245.315 193.846 245.488 196.292 233.625 196.289 233.625 194.769 233.767 196.737 224.226 196.733 224.226 196.089 224.288 197.514 217.372 197.514 217.369 197.961 215.207 197.958 215.207 196.527 215.342 198.014 208.125 198.017 208.121 199.923 198.868 200.916 194.043 202.903 184.41 205.993 195.561 207.687 201.672 207.696 201.702 207.696 201.709 210.336 211.237 210.336 211.24 211.095 213.973 209.417 214.13 211.293 220.892 211.293 220.895 211.823 222.81 210.839 222.903 213.366 232.018 212.055 232.141 212.052 232.141 215.195 243.48 213.045 243.684 213.042 243.684 215.293 251.802 193.942 253.81" fill="#213831"/>
      <polygon points="202.9 184.392 200.91 194.053 199.917 198.874 198.014 208.125 196.527 215.342 197.958 215.207 197.514 217.369 197.514 217.372 196.089 224.288 196.733 224.226 194.769 233.767 196.289 233.625 193.846 245.488 195.691 245.315 193.942 253.81 181.27 242.468 184.645 237.255 181.172 234.146 186.314 226.2 183.729 223.887 188.097 217.138 186.752 215.932 190.577 210.022 187.875 207.603 202.9 184.392" fill="#192924"/>
    </g>
    <g>
      <polygon points="97.713 152.485 97.429 153.171 97.275 153.119 97.713 152.485" fill="#21423d"/>
      <polygon points="97.713 152.485 97.429 153.171 97.275 153.119 97.713 152.485" fill="#21423d"/>
      <polygon points="97.713 152.485 97.429 153.171 97.275 153.119 97.713 152.485" fill="#2a4f48"/>
      <g>
        <polygon points="105.879 125.76 100.243 139.366 97.243 146.614 94.901 152.263 96.518 152.844 95.107 156.257 93.406 160.361 94.317 160.687 91.764 166.849 93.889 167.613 90.653 175.427 89.909 163.773 91.427 161.579 91.042 155.581 92.926 152.854 92.756 150.196 94.598 147.532 94.278 142.536 105.879 125.76" fill="#21423d"/>
        <polygon points="107.224 165.334 106.561 165.095 107.084 172.36 105.833 171.91 106.493 181.124 90.653 175.427 93.889 167.613 91.764 166.849 94.317 160.687 93.406 160.361 95.107 156.257 96.518 152.844 94.901 152.263 97.243 146.614 100.243 139.366 105.879 125.76 106.509 134.556 106.597 135.784 106.597 135.787 106.819 138.856 106.944 140.61 106.944 140.613 107.469 147.937 107.469 147.94 107.668 150.699 107.668 150.702 108.122 157.021 106.588 156.469 107.224 165.334" fill="#2a4f48"/>
        <polygon points="97.713 152.485 97.429 153.171 97.275 153.119 97.713 152.485" fill="#2a4f48"/>
        <polygon points="120.034 166.415 120.785 174.565 106.493 181.124 105.833 171.91 107.084 172.36 106.561 165.095 107.224 165.334 106.588 156.469 108.122 157.021 107.668 150.702 107.668 150.699 107.469 147.94 107.469 147.937 106.944 140.613 106.944 140.61 106.819 138.856 106.597 135.787 106.597 135.784 106.509 134.556 105.879 125.76 119.093 141.148 120.05 151.545 118.995 152.028 119.1 153.161 119.795 153.971 120.906 166.016 120.034 166.415" fill="#3e7063"/>
      </g>
    </g>
    <g>
      <polygon points="94.737 298.892 94.453 299.578 94.299 299.525 94.737 298.892" fill="#21423d"/>
      <polygon points="94.737 298.892 94.453 299.578 94.299 299.525 94.737 298.892" fill="#21423d"/>
      <polygon points="94.737 298.892 94.453 299.578 94.299 299.525 94.737 298.892" fill="#2a4f48"/>
      <g>
        <polygon points="102.903 272.166 97.267 285.772 94.267 293.021 91.925 298.67 93.542 299.251 92.131 302.663 90.43 306.768 91.341 307.094 88.787 313.256 90.913 314.02 87.677 321.833 86.933 310.18 88.451 307.985 88.066 301.987 89.95 299.261 89.78 296.603 91.622 293.939 91.302 288.943 102.903 272.166" fill="#21423d"/>
        <polygon points="104.248 311.74 103.585 311.502 104.108 318.767 102.857 318.317 103.517 327.531 87.677 321.833 90.913 314.02 88.787 313.256 91.341 307.094 90.43 306.768 92.131 302.663 93.542 299.251 91.925 298.67 94.267 293.021 97.267 285.772 102.903 272.166 103.533 280.963 103.621 282.19 103.621 282.194 103.843 285.263 103.967 287.016 103.967 287.02 104.493 294.343 104.493 294.347 104.692 297.106 104.692 297.109 105.146 303.427 103.612 302.875 104.248 311.74" fill="#2a4f48"/>
        <polygon points="94.737 298.892 94.453 299.578 94.299 299.525 94.737 298.892" fill="#2a4f48"/>
        <polygon points="117.058 312.821 117.809 320.971 103.517 327.531 102.857 318.317 104.108 318.767 103.585 311.502 104.248 311.74 103.612 302.875 105.146 303.427 104.692 297.109 104.692 297.106 104.493 294.347 104.493 294.343 103.967 287.02 103.967 287.016 103.843 285.263 103.621 282.194 103.621 282.19 103.533 280.963 102.903 272.166 116.117 287.555 117.074 297.951 116.019 298.435 116.124 299.568 116.819 300.378 117.929 312.423 117.058 312.821" fill="#3e7063"/>
      </g>
    </g>
    <g>
      <polygon points="146.189 45.218 145.905 45.903 145.752 45.851 146.189 45.218" fill="#21423d"/>
      <polygon points="146.189 45.218 145.905 45.903 145.752 45.851 146.189 45.218" fill="#21423d"/>
      <polygon points="146.189 45.218 145.905 45.903 145.752 45.851 146.189 45.218" fill="#2a4f48"/>
      <g>
        <polygon points="154.356 18.492 148.72 32.098 145.719 39.347 143.378 44.996 144.994 45.577 143.584 48.989 141.883 53.093 142.794 53.42 140.24 59.581 142.366 60.345 139.13 68.159 138.386 56.506 139.904 54.311 139.519 48.313 141.403 45.587 141.233 42.929 143.074 40.264 142.754 35.269 154.356 18.492" fill="#21423d"/>
        <polygon points="155.701 58.066 155.038 57.828 155.561 65.093 154.31 64.642 154.97 73.857 139.13 68.159 142.366 60.345 140.24 59.581 142.794 53.42 141.883 53.093 143.584 48.989 144.994 45.577 143.378 44.996 145.719 39.347 148.72 32.098 154.356 18.492 154.986 27.289 155.074 28.516 155.074 28.52 155.296 31.589 155.42 33.342 155.42 33.345 155.946 40.669 155.946 40.673 156.145 43.432 156.145 43.435 156.599 49.753 155.064 49.201 155.701 58.066" fill="#2a4f48"/>
        <polygon points="146.189 45.218 145.905 45.903 145.752 45.851 146.189 45.218" fill="#2a4f48"/>
        <polygon points="168.51 59.147 169.261 67.297 154.97 73.857 154.31 64.642 155.561 65.093 155.038 57.828 155.701 58.066 155.064 49.201 156.599 49.753 156.145 43.435 156.145 43.432 155.946 40.673 155.946 40.669 155.42 33.345 155.42 33.342 155.296 31.589 155.074 28.52 155.074 28.516 154.986 27.289 154.356 18.492 167.57 33.881 168.527 44.277 167.472 44.761 167.577 45.894 168.272 46.703 169.382 58.749 168.51 59.147" fill="#3e7063"/>
      </g>
    </g>
    <g>
      <polygon points="239.32 159.087 239.32 190.371 238.591 190.177 238.591 202.117 238.307 202.04 238.307 218.047 224.536 214.374 217.651 203.438 224.39 194.053 222.147 190.485 226.93 183.822 224.419 179.832 239.32 159.087" fill="#1f3f33"/>
      <polygon points="250.458 210.971 238.307 217.816 238.307 202.04 238.591 202.117 238.591 190.177 239.32 190.371 239.32 159.233 248.085 185.264 245.059 186.969 248.263 196.483 246.007 197.755 250.458 210.971" fill="#468b72"/>
    </g>
    <g>
      <polygon points="175.901 101.651 175.901 132.936 175.172 132.741 175.172 144.682 174.889 144.605 174.889 160.612 161.118 156.938 154.232 146.002 160.972 136.618 158.728 133.049 163.511 126.386 161 122.397 175.901 101.651" fill="#1f3f33"/>
      <polygon points="187.04 153.536 174.889 160.381 174.889 144.605 175.172 144.682 175.172 132.741 175.901 132.936 175.901 101.797 184.666 127.828 181.641 129.534 184.845 139.048 182.588 140.32 187.04 153.536" fill="#468b72"/>
    </g>
    <g>
      <polygon points="182.64 327.948 184.678 337.829 159.845 335.494 162.461 326.05 159.956 325.813 163.612 312.624 162.087 312.48 165.026 301.878 165.022 301.878 163.881 301.77 164.502 299.527 166.68 291.673 164.725 291.49 165.604 288.319 168.679 277.221 168.682 277.217 170.659 270.081 174.258 257.103 176.569 268.308 177.724 273.92 179.941 284.68 179.945 284.684 179.945 284.688 181.674 293.083 180.006 292.926 180.002 292.926 180.519 295.43 180.523 295.437 182.18 303.489 181.43 303.417 183.716 314.515 181.951 314.349 181.947 314.349 184.792 328.149 182.643 327.948 182.64 327.948" fill="#213831"/>
      <polygon points="195.495 318.569 199.421 324.636 184.678 337.829 182.643 327.948 184.792 328.149 181.951 314.349 183.716 314.515 181.43 303.417 182.18 303.489 180.523 295.437 180.519 295.43 180.006 292.926 181.674 293.083 179.945 284.688 179.945 284.684 177.731 273.931 176.576 268.319 174.262 257.081 191.735 284.081 188.596 286.891 193.045 293.769 191.477 295.172 196.557 303.022 193.551 305.713 199.532 314.956 195.495 318.569" fill="#3d5f54"/>
      <polygon points="174.254 257.103 170.659 270.081 170.656 270.088 168.682 277.217 168.679 277.221 165.604 288.319 164.725 291.49 166.68 291.673 164.502 299.527 163.881 301.77 165.022 301.878 162.087 312.48 163.612 312.624 159.956 325.813 162.461 326.05 159.845 335.494 151.313 319.983 154.248 315.429 151.428 310.302 156.533 302.384 154.657 298.968 158.804 292.538 157.595 290.339 161.101 284.903 158.905 280.906 174.254 257.103" fill="#192924"/>
    </g>
    <g>
      <polygon points="70.509 166.053 63.177 179.388 60.928 171.269 63.078 171.066 59.938 159.727 61.249 159.604 58.722 150.489 59.706 150.396 59.176 148.481 59.176 148.477 57.3 141.716 58.978 141.559 58.22 138.826 58.22 138.823 55.579 129.294 55.579 129.288 55.57 129.257 53.88 123.15 53.877 123.147 50.789 111.996 63.985 132.459 62.097 135.892 65.111 140.569 64.071 142.459 67.637 147.987 66.024 150.924 70.413 157.731 67.985 162.142 70.509 166.053" fill="#3d5f54"/>
      <polygon points="41.825 181.396 43.577 172.901 43.574 172.901 41.729 173.074 44.176 161.211 44.172 161.211 42.652 161.353 44.62 151.812 44.617 151.812 43.972 151.874 45.397 144.958 45.397 144.955 45.844 142.793 45.841 142.793 44.41 142.928 45.897 135.71 45.9 135.707 47.806 126.454 48.799 121.629 50.786 111.996 53.877 123.147 55.57 129.257 55.579 129.288 55.579 129.294 58.22 138.823 58.22 138.826 58.978 141.559 57.3 141.716 59.176 148.477 59.176 148.481 59.706 150.396 58.722 150.489 61.249 159.604 59.938 159.727 59.935 159.727 63.078 171.066 60.928 171.269 60.925 171.269 63.177 179.388 41.825 181.396" fill="#213831"/>
      <polygon points="50.783 111.978 48.793 121.638 47.8 126.46 45.897 135.71 44.41 142.928 45.841 142.793 45.397 144.955 45.397 144.958 43.972 151.874 44.617 151.812 42.652 161.353 44.172 161.211 41.729 173.074 43.574 172.901 41.825 181.396 29.154 170.054 32.528 164.841 29.055 161.732 34.197 153.786 31.612 151.473 35.98 144.724 34.635 143.517 38.46 137.607 35.758 135.189 50.783 111.978" fill="#192924"/>
    </g>
  </g>
</svg>
