<?xml version="1.0" encoding="utf-8"?>
<!-- Generator: Adobe Illustrator 24.1.2, SVG Export Plug-In . SVG Version: 6.00 Build 0)  -->
<svg version="1.1" id="Layer_1" xmlns="http://www.w3.org/2000/svg" xmlns:xlink="http://www.w3.org/1999/xlink" x="0px" y="0px"
	 viewBox="0 0 285.7 284.8" style="enable-background:new 0 0 285.7 284.8;" xml:space="preserve">
<style type="text/css">
	.st0{fill:#9B9B9B;}
	.st1{fill:#1B3228;}
	.st2{fill:#4BA683;}
	.st3{fill:#4CA684;}
	.st4{fill:#1A1E13;}
	.st5{fill:#192F26;}
	.st6{fill:#BABABA;}
	.st7{fill:#C3C3C3;}
	.st8{fill:#3C584D;}
	.st9{fill:#CFCFCF;}
	.st10{fill:#395349;}
	.st11{fill:#3A7A61;}
	.st12{fill:#3C7E64;}
</style>
<g>
	<path class="st0" d="M255.5,274.9c-40.2,2.8-80.3,7.4-120.7,6.5c-2.4-0.1-6.9-2.4-6.8,3.4c-1.3,0-2.5,0-3.8,0
		c-1.7-4.2-5.5-2.5-8.2-2.3c-10.8,0.8-21.5-1.2-32.2-1.9c0.4-1.9,0.8-3.7,1.2-5.6c22.8,1.9,45.7,1.1,68.4-0.3
		c27.6-1.7,55.1-0.9,82.7-1.9c6.6-0.3,13.3-0.5,20-0.7C255.8,273,255.6,274,255.5,274.9z"/>
	<path class="st1" d="M91.6,27.4c14.4,38.1,28.8,76.2,43.3,114.5c-5.2,2.7-10.2,0.8-15.6,2.8c11.1,28.5,22.2,57,33.6,86.3
		c-22.8,1.2-44.7,3.6-66.8,2.5c0-2-0.1-3.9-0.1-5.9c15,0,30.1,0,46.5,0c-7.8-26.5-15.1-51.2-22.4-76c-16-1-31.6,0-46.5-4.6
		c-9.5-3.3-18.9,2.4-28.4,0.2c0.4-1.5,0.7-2.9,1.2-4.8c-4.5-1.1-8.7-2.1-12.9-3.1c11.1-3.3,22.5-2.7,33.8-3.7c20.1,0,40.1,0,60.6,0
		c-2.7-10.1-5.9-21.2-8.7-32.5c-6.3-25.4-14.5-50.2-19.7-75.9C90.1,27.3,90.8,27.3,91.6,27.4z"/>
	<path class="st2" d="M35.1,147.3c9.5,2.1,18.9-3.5,28.4-0.2c-4.5,26.3-9,52.6-13.5,79c-13.2,2.9-26.9,0.9-40.1,3.8
		c-2-0.4-4-0.3-5.7,1c-6.9-0.3-3.5-4.2-2.3-7C12.9,198.3,24,172.8,35.1,147.3z"/>
	<path class="st3" d="M57.1,135.6c-11.3,1.1-22.8,0.5-33.8,3.7c-6.6-0.8-2.2-4.6-1.4-6.5C32.5,108.8,43,84.8,54,61
		c8.7-18.9,16-38.4,26.2-56.6c0.1,1.3,0.2,2.5,0.3,3.8c-1.3,5.8-3,11.6-3.9,17.5C70.9,62.5,64.1,99,57.1,135.6z"/>
	<path class="st4" d="M86,227.6c0,2,0.1,3.9,0.1,5.9c-1.8,13.8-0.5,27.6-1.2,41.5c-0.4,1.9-0.8,3.7-1.2,5.6c-4.1,0-8.2,0-12.3-0.1
		c-0.4-1.2-0.7-2.3-1.1-3.5c0.1-14.4,0.2-28.9,0.3-43.3c0.1-2,0.1-4.1,0.2-6.1C75.8,227.6,80.9,227.6,86,227.6z"/>
	<path class="st5" d="M70.7,227.6c-0.1,2-0.1,4.1-0.2,6.1c-20.3-0.5-40.6,1.2-60.8-2.6c0-0.4,0.1-0.9,0.1-1.3
		c13.2-2.9,26.9-0.8,40.1-3.8C56.9,226.5,64,224.6,70.7,227.6z"/>
	<path class="st6" d="M255.5,274.9c0.1-1,0.3-1.9,0.4-2.9c6.8-1.4,13.7-0.6,20.6-0.4c0,0.5,0,1,0,1.5
		C269.4,273,262.7,276.2,255.5,274.9z"/>
	<path class="st7" d="M70.3,277c0.4,1.2,0.7,2.3,1.1,3.5c-4.7,0.9-9.3,0.6-14.9-0.1C60.9,276.3,65.8,277.4,70.3,277z"/>
	<path class="st8" d="M91.6,27.4c-0.8-0.1-1.5-0.1-2.3-0.2c-2.6-4-3.6-8.4-3.4-13.2l0.4-0.4C89,17.9,90.7,22.5,91.6,27.4z"/>
	<path class="st9" d="M276.5,273.1c0.1-0.5,0.1-1,0-1.5c2.6,0,5.3,0,9.2,0C281.9,274,279.1,273.2,276.5,273.1z"/>
	<path class="st8" d="M80.5,8.2c-0.1-1.3-0.2-2.5-0.3-3.8l0.1,0.2c0.8-0.1,1.6-0.2,2.4-0.3c1.3,1,1.5,2.5,1.4,4L84,8.4
		C82.8,8.3,81.7,8.2,80.5,8.2z"/>
	<path class="st8" d="M84.1,8.3c2,1.3,2,3.4,2.2,5.4c0,0-0.4,0.4-0.4,0.4c-2.3-1.3-1.6-3.7-1.9-5.7L84.1,8.3z"/>
	<path class="st10" d="M9.9,229.8c0,0.4-0.1,0.9-0.1,1.3c-1.9-0.1-3.7-0.2-5.6-0.3C5.9,229.5,7.9,229.4,9.9,229.8z"/>
	<path class="st11" d="M82.8,4.2c-0.8,0.1-1.6,0.2-2.4,0.3C80.5,3.5,80.7,2.4,81,0C82,2.3,82.4,3.3,82.8,4.2z"/>
	<path class="st12" d="M70.7,227.6c-6.7-2.9-13.8-1.1-20.7-1.5c4.5-26.3,9-52.6,13.5-79c15,4.6,30.5,3.5,46.5,4.6
		c7.3,24.8,14.6,49.5,22.4,76c-16.4,0-31.4,0-46.5,0C80.9,227.6,75.8,227.6,70.7,227.6z"/>
	<path class="st11" d="M84,8.4c0.3,2-0.4,4.3,1.9,5.7c-0.2,4.7,0.8,9.2,3.4,13.2c5.2,25.7,13.4,50.5,19.7,75.9
		c2.8,11.2,6,22.4,8.7,32.5c-20.5,0-40.6,0-60.6,0c7-36.5,13.8-73.1,19.5-109.9c0.9-5.9,2.6-11.7,3.9-17.5C81.7,8.2,82.8,8.3,84,8.4
		z"/>
</g>
</svg>
