<svg id="Layer_1" data-name="Layer 1" xmlns="http://www.w3.org/2000/svg" viewBox="0 0 431.11 469.805">
  <g>
    <polygon points="430.569 324.913 423.708 332.328 412.035 338.078 404.816 342.455 404.707 342.521 403.139 347.813 401.277 365.704 403.596 369.874 403.596 381.559 401.004 386.099 387.774 387.809 387.382 387.864 387.382 391.664 391.738 396.858 390.289 405.177 390.159 405.94 383.298 413.551 369.861 414.749 368.587 417.308 368.195 418.092 368.195 431.943 362.728 436.005 351.24 437.094 333.164 458.241 324.268 456.847 319.269 451.283 312.867 450.727 308.696 441.831 301.193 439.043 286.177 452.677 276.17 454.343 269.495 457.958 262.264 455.181 243.785 469.087 243.611 468.825 237.382 459.21 237.382 447.395 231.97 447.395 223.76 440.72 219.872 434.731 220.231 434.415 223.76 431.257 223.738 430.931 223.738 430.92 222.932 417.624 219.589 415.119 219.317 408.444 214.863 393.711 215.092 393.21 217.651 387.591 217.683 387.439 219.175 380.492 219.458 375.624 219.643 375.439 222.932 372.15 222.79 371.976 218.62 366.586 213.48 370.484 201.796 369.787 195.545 362.971 195.132 359.072 189.567 354.205 189.839 345.45 190.046 345.188 192.627 341.965 194.565 338.905 194.565 338.742 194.435 329.726 195.535 326.851 195.556 326.851 198.464 326.252 201.796 324.586 201.796 320.688 196.373 315.962 196.373 309.428 191.789 306.085 191.647 293.432 191.865 293.279 193.738 292.038 193.792 291.657 194.565 286.332 192.769 282.02 188.729 286.332 178.166 286.332 176.217 277.294 168.017 261.722 164.402 252.815 153.839 252.118 141.883 255.047 129.164 267.504 128.958 267.7 128.827 275.508 128.816 275.9 125.201 277.294 117.84 276.738 111.861 269.225 106.025 266.448 101.854 270.902 97.259 270.205 85.727 257.41 78.769 258.107 68.489 250.593 68.348 244.746 62.783 244.746 57.088 241 44.577 241 34.983 229.871 34.842 226.397 35.07 226.114 36.791 223.893 36.889 223.599 39.154 216.793 24.693 201.494 21.644 194.786 21.611 194.71 21.001 193.37 20.99 193.338 19.694 190.506 17.332 190.506 9.546 189.679 5.789 185.78 1.542 184.964 1.433 184.953 1.346 184.931 0.508 160.049 5.789 155.323 8.435 151.011 8.293 143.976 8.293 143.922 7.117 142.397 7.106 142.387 6.9 142.114 4.961 124.931 9.687 124.866 11.626 121.566 11.68 121.479 12.072 121.218 12.464 120.967 16.079 120.967 19.836 119.018 20.664 116.655 31.923 104.971 33.459 100.104 36.932 95.791 41.244 95.519 42.627 93.712 47.081 93.57 47.277 93.788 48.747 95.378 49.498 95.476 51.807 95.791 52.123 95.911 52.134 95.922 55.422 97.185 55.858 97.229 55.88 97.229 65.843 98.296 87.807 98.296 92.816 95.933 98.239 94.964 102.126 91.349 105.742 82.866 110.195 77.998 110.195 55.741 115.052 54.63 117.556 53.791 118.057 54.118 119.919 55.327 120.42 55.316 126.039 55.185 130.624 51.842 131.092 52.332 134.097 55.458 134.827 55.566 134.838 55.566 138.693 56.154 140.631 54.63 145.357 54.771 145.498 54.957 150.366 61.447 150.845 61.174 153.284 59.77 155.604 59.193 156.061 46.419 157.596 45.592 157.596 40.997 159.404 37.795 163.291 32.242 163.574 29.04 160.231 24.173 160.885 14.013 164.13 14.013 164.13 11.791 172.885 11.791 177.469 10.267 183.861 3.864 189.839 0.804 189.861 1.468 190.122 8.732 195.687 15.897 195.687 27.026 200.195 31.752 201.382 37.316 211.738 37.316 217.651 45.94 212.99 54.63 206.598 62.481 206.173 77.16 211.531 84.118 211.596 88.637 206.936 92.982 206.456 93.428 202.144 93.428 199.923 96.565 200.271 102.129 226.678 124.31 227.103 146.84 236.696 155.04 248.925 155.04 253.367 151.566 257.963 145.446 269.843 145.033 272.206 146.699 280.754 147.396 293.549 155.944 300.224 168.739 304.667 168.739 305.113 167.867 308.141 161.998 308.543 161.421 312.453 155.737 318.431 156.641 319.4 169.991 324.681 175.632 324.681 187.795 328.852 188.35 333.099 186.543 347.974 186.684 353.734 191.138 354.3 198.51 371.952 211.37 387.382 210.858 404.805 230.71 408.137 239.791 417.872 247.49 425.473 250.92 426.365 265.642 426.398 266.121 420.964 272.601 420.561 273.08 420.649 276.88 422.434 279.646 422.5 279.755 420.953 282.706 420.561 283.457 420.747 302.002 425.658 304.691 427.977 312.107 430.471 324.434 430.569 324.913" fill="#a4bbb2" stroke="#010101" strokeMiterlimit="10"/>
    <g>
      <g>
        <path d="M221.657,52.871l.826-.2V47.5L214.352,26.7l-.363.139-.223.077h-.008l-.286-.116-.007.016-.008.031-8.092,20.62-.023,5.307.817.2-4.235,9.666-.031,4.976,10.823,2.846.193-.748-8.987-2.361,9.581-3.618.1,10.569.771-.008-.1-10.676,9.619,3.633-8.987,2.361.193.748,10.823-2.847v-4.9Zm-15.544-5.2,1.643-4.189-1.643,4.8Zm0,4.5v-1.5l.247-.725.008-.015,1.481-3.078,1.435-1.026-.378.879-.047.093-2.391,5.462Zm5.354-2.33.5.872-.139.231Zm.408,3.726-.663-.162.4-.64Zm-1.45-.355-2.731-.656,1.852-5.392.185-.146L211.3,51.8Zm-.432.694-5.1,8.239v.008l-.54.093,3.086-8.964Zm-4.227,1.9.926-2.7.231.054L205.766,55.8l-2.276,6.6-.671.124Zm-1.543,7.429-.463.756.255-.733Zm-1.558.146.509-.046-.509,1.474Zm10.777-.455-2,.764,2-.949Zm0-.547-1.3.123-9.265,4.389,2.314-3.741,6.951-.648,1.3-.617Zm0-.772-2.508.232,1.551-.286.957-.193Zm0-1.041-7.522,1.4,4.868-7.861,1.373.332,1.281,3.9Zm0-4.706-.4-1.211.4.1Zm0-1.913-.679-.162-.618-1.882.263-.425,1.034,1.806Zm0-2.214-.571-.995.571-.934Zm0-3.394-1.011,1.635-2.014-3.525,2.569-2.114.456-.108Zm-3.217-2.723.293-.672.031-.023.725-.177Zm3.217-2.184-3.148.756L207.71,46l5.732-16.747Zm11.563,19.008-.679-.123-2.275-6.627Zm-.949,1.451-.462-.756.208.015v.008Zm-.594-1.736-.54-.1-5.1-8.255,2.554-.617Zm-7.251-9.5.4.648-.671.162Zm-.363-2.045.5-.871-.363,1.1Zm.671,1.088,1.567-4.79.185.154,1.851,5.392-2.723.656Zm1.358-5.446.054.015v.016Zm3.834,5.816-.362.085-2.407-5.492-.016-.054-.007-.008-.386-.879,1.435,1.026,1.473,3.054.016.031.254.756Zm0-4.5V48.2l-1.682-4.906Zm-7.5-18.9,5.894,17.218-2.446-1.743-3.448-.864Zm3.387,16.84-1.057-.871.725.177.038.031Zm-3.387-1.435.617.147,2.569,2.121-2.006,3.518-1.072-1.728-.108.07Zm0,5.346.741,1.2-.741,1.3Zm0,4.043.108-.193,1.095-1.906.263.425-.625,1.89-.44.1-.015.008-.386.092Zm0,1.211.563-.139-.563,1.713Zm0,4.073.085-.27v-.008l1.365-4.15,1.373-.332,4.868,7.876-6.418-1.172-1.273-.255Zm0,2.469,2.893.532-2.893-.263Zm.054,1.565-.008-.208,2.122,1.011Zm1.412-.393,6.95.648,2.315,3.749Zm9.473,2.314-.509-1.473.509.046Z" transform="translate(-34.462 -14.126)" fill="#010101"/>
        <g>
          <polygon points="174.444 32.573 174.397 32.665 174.428 32.581 174.444 32.573" fill="#010101"/>
          <polygon points="175.462 32.233 175.423 32.249 175.431 32.241 175.462 32.233" fill="#010101"/>
        </g>
        <polygon points="175.462 32.233 175.423 32.249 175.431 32.241 175.462 32.233" fill="#010101"/>
      </g>
      <g>
        <polygon points="183.469 32.141 183.469 32.156 183.415 32.125 183.469 32.141" fill="#010101"/>
        <polygon points="183.469 32.141 183.469 32.156 183.415 32.125 183.469 32.141" fill="#010101"/>
      </g>
    </g>
    <g>
      <g>
        <path d="M150.871,191.855l1.168-.284v-7.313l-11.5-29.434-.513.2-.317.109H139.7l-.4-.164-.011.022-.011.044L127.821,184.2l-.033,7.509,1.157.283-5.992,13.676-.043,7.039,15.312,4.027.273-1.058-12.715-3.34,13.555-5.119.142,14.953,1.092-.011-.142-15.105,13.609,5.14-12.714,3.34.272,1.058,15.313-4.027v-6.93ZM128.88,184.5l2.324-5.927-2.324,6.789Zm0,6.362v-2.128l.349-1.026.011-.022,2.095-4.354,2.03-1.452-.534,1.244-.066.131-3.383,7.727Zm7.574-3.3.709,1.234-.2.327Zm.578,5.272-.938-.229.567-.906Zm-2.051-.5-3.864-.928,2.619-7.629.262-.207,2.216,6.767Zm-.612.982-7.214,11.656v.011l-.764.131,4.366-12.682ZM128.388,196l1.31-3.82.328.076L128.388,196l-3.219,9.342-.95.175Zm-2.182,10.51-.655,1.07.36-1.037Zm-2.2.207.721-.065L124,208.738Zm15.247-.644-2.827,1.081,2.827-1.343Zm0-.774-1.845.174-13.107,6.21,3.274-5.293,9.833-.917,1.845-.873Zm0-1.092-3.547.328,2.194-.4,1.353-.273Zm0-1.473-10.641,1.975,6.886-11.121,1.943.469,1.812,5.523Zm0-6.658-.568-1.713.568.142Zm0-2.706-.96-.23-.874-2.663.372-.6,1.462,2.554Zm0-3.133-.808-1.408.808-1.32Zm0-4.8-1.43,2.314-2.848-4.988,3.634-2.99.644-.153Zm-4.551-3.852.415-.95.043-.033,1.026-.251Zm4.551-3.089-4.453,1.069-3.656,2.565,8.109-23.694Zm16.36,26.892-.96-.175-3.22-9.375Zm-1.342,2.052-.655-1.07.294.022v.011Zm-.841-2.456-.764-.142-7.214-11.678,3.613-.873Zm-10.259-13.435.568.917-.95.229Zm-.513-2.892.71-1.233-.514,1.549Zm.95,1.539,2.215-6.778.262.218,2.619,7.629-3.852.928Zm1.92-7.706.077.022v.022Zm5.425,8.23-.513.12-3.405-7.771-.022-.077-.011-.01-.546-1.245,2.03,1.452,2.085,4.322.022.043.36,1.07Zm0-6.363v.884l-2.38-6.942Zm-10.609-26.739,8.339,24.359-3.46-2.466-4.879-1.222Zm4.792,23.825-1.5-1.234,1.026.251.055.044Zm-4.792-2.03.873.207,3.635,3-2.838,4.977-1.517-2.445-.153.1Zm0,7.563,1.048,1.7-1.048,1.844Zm0,5.719.153-.273,1.55-2.7.371.6L141.529,193l-.622.141-.022.011-.546.131Zm0,1.713.8-.2-.8,2.423Zm0,5.763.12-.382v-.011l1.932-5.872,1.943-.469,6.887,11.143-9.081-1.659-1.8-.36Zm0,3.492,4.093.754-4.093-.372Zm.077,2.216-.011-.295,3,1.43Zm2-.557,9.833.917,3.275,5.3Zm13.4,3.275-.72-2.085.72.065Z" transform="translate(-34.462 -14.126)" fill="#010101"/>
        <g>
          <polygon points="98.369 168.997 98.303 169.128 98.347 169.008 98.369 168.997" fill="#010101"/>
          <polygon points="99.809 168.517 99.755 168.539 99.766 168.528 99.809 168.517" fill="#010101"/>
        </g>
        <polygon points="99.809 168.517 99.755 168.539 99.766 168.528 99.809 168.517" fill="#010101"/>
      </g>
      <g>
        <polygon points="111.138 168.386 111.138 168.408 111.062 168.364 111.138 168.386" fill="#010101"/>
        <polygon points="111.138 168.386 111.138 168.408 111.062 168.364 111.138 168.386" fill="#010101"/>
      </g>
    </g>
    <g>
      <g>
        <path d="M255.871,193.855l1.168-.284v-7.313l-11.5-29.434-.513.2-.317.109H244.7l-.4-.164-.011.022-.011.044L232.821,186.2l-.033,7.509,1.157.283-5.992,13.676-.043,7.039,15.312,4.027.273-1.058-12.715-3.34,13.555-5.119.142,14.953,1.092-.011-.142-15.105,13.609,5.14-12.714,3.34.272,1.058,15.313-4.027v-6.93ZM233.88,186.5l2.324-5.927-2.324,6.789Zm0,6.362v-2.128l.349-1.026.011-.022,2.095-4.354,2.03-1.452-.534,1.244-.066.131-3.383,7.727Zm7.574-3.3.709,1.234-.2.327Zm.578,5.272-.938-.229.567-.906Zm-2.051-.5-3.864-.928,2.619-7.629.262-.207,2.216,6.767Zm-.612.982-7.214,11.656v.011l-.764.131,4.366-12.682ZM233.388,198l1.31-3.82.328.076L233.388,198l-3.219,9.342-.95.175Zm-2.182,10.51-.655,1.07.36-1.037Zm-2.2.207.721-.065L229,210.738Zm15.247-.644-2.827,1.081,2.827-1.343Zm0-.774-1.845.174-13.107,6.21,3.274-5.293,9.833-.917,1.845-.873Zm0-1.092-3.547.328,2.194-.4,1.353-.273Zm0-1.473-10.641,1.975,6.886-11.121,1.943.469,1.812,5.523Zm0-6.658-.568-1.713.568.142Zm0-2.706-.96-.23-.874-2.663.372-.6,1.462,2.554Zm0-3.133-.808-1.408.808-1.32Zm0-4.8-1.43,2.314-2.848-4.988,3.634-2.99.644-.153Zm-4.551-3.852.415-.95.043-.033,1.026-.251Zm4.551-3.089-4.453,1.069-3.656,2.565,8.109-23.694Zm16.36,26.892-.96-.175-3.22-9.375Zm-1.342,2.052-.655-1.07.294.022v.011Zm-.841-2.456-.764-.142-7.214-11.678,3.613-.873Zm-10.259-13.435.568.917-.95.229Zm-.513-2.892.71-1.233-.514,1.549Zm.95,1.539,2.215-6.778.262.218,2.619,7.629-3.852.928Zm1.92-7.706.077.022v.022Zm5.425,8.23-.513.12-3.405-7.771-.022-.077-.011-.01-.546-1.245,2.03,1.452,2.085,4.322.022.043.36,1.07Zm0-6.363v.884l-2.38-6.942Zm-10.609-26.739,8.339,24.359-3.46-2.466-4.879-1.222Zm4.792,23.825-1.5-1.234,1.026.251.055.044Zm-4.792-2.03.873.207,3.635,3-2.838,4.977-1.517-2.445-.153.1Zm0,7.563,1.048,1.7-1.048,1.844Zm0,5.719.153-.273,1.55-2.7.371.6L246.529,195l-.622.141-.022.011-.546.131Zm0,1.713.8-.2-.8,2.423Zm0,5.763.12-.382v-.011l1.932-5.872,1.943-.469,6.887,11.143-9.081-1.659-1.8-.36Zm0,3.492,4.093.754-4.093-.372Zm.077,2.216-.011-.295,3,1.43Zm2-.557,9.833.917,3.275,5.3Zm13.4,3.275-.72-2.085.72.065Z" transform="translate(-34.462 -14.126)" fill="#010101"/>
        <g>
          <polygon points="203.369 170.997 203.303 171.128 203.347 171.008 203.369 170.997" fill="#010101"/>
          <polygon points="204.809 170.517 204.755 170.539 204.766 170.528 204.809 170.517" fill="#010101"/>
        </g>
        <polygon points="204.809 170.517 204.755 170.539 204.766 170.528 204.809 170.517" fill="#010101"/>
      </g>
      <g>
        <polygon points="216.138 170.386 216.138 170.408 216.062 170.364 216.138 170.386" fill="#010101"/>
        <polygon points="216.138 170.386 216.138 170.408 216.062 170.364 216.138 170.386" fill="#010101"/>
      </g>
    </g>
    <g>
      <g>
        <path d="M276.657,247.871l.826-.2V242.5L269.352,221.7l-.363.139-.223.077h-.008l-.286-.116-.007.016-.008.031-8.092,20.62-.023,5.307.817.2-4.235,9.666-.031,4.976,10.823,2.846.193-.748-8.987-2.361,9.581-3.618.1,10.569.771-.008-.1-10.676,9.619,3.633-8.987,2.361.193.748,10.823-2.847v-4.9Zm-15.544-5.2,1.643-4.189-1.643,4.8Zm0,4.5v-1.505l.247-.725.008-.015,1.481-3.078,1.435-1.026-.378.879-.047.093-2.391,5.462Zm5.354-2.33.5.872-.139.231Zm.408,3.726-.663-.162.4-.64Zm-1.45-.355-2.731-.656,1.852-5.392.185-.146L266.3,246.8Zm-.432.694-5.1,8.239v.008l-.54.093,3.086-8.964Zm-4.227,1.9.926-2.7.231.054-1.157,2.646-2.276,6.6-.671.124Zm-1.543,7.429-.463.756.255-.733Zm-1.558.146.509-.046-.509,1.474Zm10.777-.455-2,.764,2-.949Zm0-.547-1.3.123-9.265,4.389,2.314-3.741,6.951-.648,1.3-.617Zm0-.772-2.508.232,1.551-.286.957-.193Zm0-1.041-7.522,1.4,4.868-7.861,1.373.332,1.281,3.9Zm0-4.706-.4-1.211.4.1Zm0-1.913-.679-.162-.618-1.882.263-.425,1.034,1.806Zm0-2.214-.571-1,.571-.934Zm0-3.394-1.011,1.635-2.014-3.525,2.569-2.114.456-.108Zm-3.217-2.723.293-.672.031-.023.725-.177Zm3.217-2.184-3.148.756L262.71,241l5.732-16.747Zm11.563,19.008-.679-.123-2.275-6.627Zm-.949,1.451-.462-.756.208.015v.008Zm-.594-1.736-.54-.1-5.1-8.255,2.554-.617Zm-7.251-9.5.4.648-.671.162Zm-.363-2.045.5-.871-.363,1.095Zm.671,1.088,1.567-4.79.185.154,1.851,5.392-2.723.656Zm1.358-5.446.054.015v.016Zm3.834,5.816-.362.085-2.407-5.492-.016-.054-.007-.008-.386-.879,1.435,1.026,1.473,3.054.016.031.254.756Zm0-4.5v.625l-1.682-4.906Zm-7.5-18.9,5.894,17.218-2.446-1.743-3.448-.864Zm3.387,16.84-1.057-.871.725.177.038.031Zm-3.387-1.435.617.147,2.569,2.121-2.006,3.518-1.072-1.728-.108.07Zm0,5.346.741,1.2-.741,1.3Zm0,4.043.108-.193,1.095-1.906.263.425-.625,1.89-.44.1-.015.008-.386.092Zm0,1.211.563-.139-.563,1.713Zm0,4.073.085-.27v-.008l1.365-4.15,1.373-.332,4.868,7.876-6.418-1.172-1.273-.255Zm0,2.469,2.893.532-2.893-.263Zm.054,1.565-.008-.208,2.122,1.011Zm1.412-.393,6.95.648,2.315,3.749Zm9.473,2.314-.509-1.473.509.046Z" transform="translate(-34.462 -14.126)" fill="#010101"/>
        <g>
          <polygon points="229.444 227.573 229.397 227.665 229.428 227.581 229.444 227.573" fill="#010101"/>
          <polygon points="230.462 227.233 230.423 227.249 230.431 227.241 230.462 227.233" fill="#010101"/>
        </g>
        <polygon points="230.462 227.233 230.423 227.249 230.431 227.241 230.462 227.233" fill="#010101"/>
      </g>
      <g>
        <polygon points="238.469 227.141 238.469 227.156 238.415 227.125 238.469 227.141" fill="#010101"/>
        <polygon points="238.469 227.141 238.469 227.156 238.415 227.125 238.469 227.141" fill="#010101"/>
      </g>
    </g>
    <g>
      <g>
        <path d="M352.569,227.456l1.029-.25v-6.444l-10.137-25.938-.452.173-.279.1h-.009l-.356-.144-.01.019-.009.038-10.089,25.708-.029,6.617,1.019.25-5.28,12.051-.038,6.2,13.493,3.549.241-.933-11.2-2.943L342.4,241l.125,13.177.962-.01-.125-13.311,11.993,4.53-11.2,2.943.24.933,13.494-3.549V239.6Zm-19.379-6.482,2.048-5.223-2.048,5.982Zm0,5.607v-1.876l.307-.9.01-.019,1.847-3.837,1.788-1.28-.471,1.1-.058.115-2.981,6.81Zm6.674-2.905.625,1.087-.173.289Zm.51,4.646-.827-.2.5-.8Zm-1.808-.443-3.4-.817,2.309-6.723.23-.183,1.953,5.963Zm-.539.866-6.357,10.271v.01l-.673.115,3.847-11.175Zm-5.27,2.366,1.154-3.367.288.068-1.442,3.3-2.837,8.232-.837.154Zm-1.924,9.261-.577.943.318-.914Zm-1.942.183.634-.058-.634,1.837Zm13.435-.567-2.491.952,2.491-1.183Zm0-.683-1.625.154-11.551,5.472,2.886-4.664,8.665-.808,1.625-.77Zm0-.962-3.125.289,1.933-.356,1.192-.241Zm0-1.3-9.377,1.74,6.069-9.8,1.712.414,1.6,4.866Zm0-5.867-.5-1.51.5.125Zm0-2.385-.846-.2-.769-2.347.327-.529,1.288,2.251Zm0-2.76-.711-1.241.711-1.164Zm0-4.232-1.259,2.039-2.511-4.4,3.2-2.635.567-.134Zm-4.01-3.395.365-.837.039-.029.9-.221Zm4.01-2.722-3.924.943-3.222,2.26,7.146-20.88Zm14.417,23.7-.846-.154-2.837-8.262Zm-1.183,1.808-.577-.943.26.02v.009Zm-.74-2.164-.674-.125-6.357-10.291,3.184-.769Zm-9.041-11.839.5.808-.837.2Zm-.452-2.549.625-1.087-.452,1.366Zm.837,1.356,1.952-5.972.231.192,2.308,6.723-3.395.817Zm1.692-6.79.068.019v.02Zm4.78,7.252-.452.106-3-6.848-.02-.068-.009-.009-.481-1.1,1.789,1.28,1.837,3.808.019.039.317.942Zm0-5.607v.779l-2.1-6.117Zm-9.348-23.563,7.348,21.466-3.049-2.174-4.3-1.077Zm4.222,21-1.317-1.087.9.221.048.039Zm-4.222-1.789.769.183,3.2,2.644-2.5,4.386-1.337-2.154-.135.086Zm0,6.665.923,1.5-.923,1.626Zm0,5.04.135-.241,1.365-2.376.327.529-.779,2.357-.548.125-.019.009-.481.116Zm0,1.509.7-.173-.7,2.135Zm0,5.079.106-.337v-.01l1.7-5.174,1.712-.414,6.069,9.82-8-1.462-1.587-.317Zm0,3.077,3.607.664-3.607-.327Zm.067,1.952-.009-.259,2.645,1.26Zm1.76-.49,8.666.808,2.885,4.674Zm11.811,2.885-.635-1.837.635.058Z" transform="translate(-34.462 -14.126)" fill="#010101"/>
        <g>
          <polygon points="302.209 205.635 302.152 205.751 302.19 205.645 302.209 205.635" fill="#010101"/>
          <polygon points="303.479 205.212 303.431 205.232 303.44 205.222 303.479 205.212" fill="#010101"/>
        </g>
        <polygon points="303.479 205.212 303.431 205.232 303.44 205.222 303.479 205.212" fill="#010101"/>
      </g>
      <g>
        <polygon points="313.462 205.097 313.462 205.116 313.395 205.078 313.462 205.097" fill="#010101"/>
        <polygon points="313.462 205.097 313.462 205.116 313.395 205.078 313.462 205.097" fill="#010101"/>
      </g>
    </g>
    <g>
      <g>
        <path d="M345.657,335.871l.826-.2V330.5L338.352,309.7l-.363.139-.223.077h-.008l-.286-.116-.007.016-.008.031-8.092,20.62-.023,5.307.817.2-4.235,9.666-.031,4.976,10.823,2.846.193-.748-8.987-2.361,9.581-3.618.1,10.569.771-.008-.1-10.676,9.619,3.633-8.987,2.361.193.748,10.823-2.847v-4.9Zm-15.544-5.2,1.643-4.189-1.643,4.8Zm0,4.5v-1.5l.247-.725.008-.015,1.481-3.078,1.435-1.026-.378.879-.047.093-2.391,5.462Zm5.354-2.33.5.872-.139.231Zm.408,3.726-.663-.162.4-.64Zm-1.45-.355-2.731-.656,1.852-5.392.185-.146L335.3,334.8Zm-.432.694-5.1,8.239v.008l-.54.093,3.086-8.964Zm-4.227,1.9.926-2.7.231.054-1.157,2.646-2.276,6.6-.671.124Zm-1.543,7.429-.463.756.255-.733Zm-1.558.146.509-.046-.509,1.474Zm10.777-.455-2,.764,2-.949Zm0-.547-1.3.123-9.265,4.389,2.314-3.741,6.951-.648,1.3-.617Zm0-.772-2.508.232,1.551-.286.957-.193Zm0-1.041-7.522,1.4,4.868-7.861,1.373.332,1.281,3.9Zm0-4.706-.4-1.211.4.1Zm0-1.913-.679-.162-.618-1.882.263-.425,1.034,1.806Zm0-2.214-.571-1,.571-.934Zm0-3.394-1.011,1.635-2.014-3.525,2.569-2.114.456-.108Zm-3.217-2.723.293-.672.031-.023.725-.177Zm3.217-2.184-3.148.756L331.71,329l5.732-16.747Zm11.563,19.008-.679-.123-2.275-6.627Zm-.949,1.451-.462-.756.208.015v.008Zm-.594-1.736-.54-.1-5.1-8.255,2.554-.617Zm-7.251-9.5.4.648-.671.162Zm-.363-2.045.5-.871-.363,1.1Zm.671,1.088,1.567-4.79.185.154,1.851,5.392-2.723.656Zm1.358-5.446.054.015v.016Zm3.834,5.816-.362.085-2.407-5.492-.016-.054-.007-.008-.386-.879,1.435,1.026,1.473,3.054.016.031.254.756Zm0-4.5v.625l-1.682-4.906Zm-7.5-18.9,5.894,17.218-2.446-1.743-3.448-.864Zm3.387,16.84-1.057-.871.725.177.038.031Zm-3.387-1.435.617.147,2.569,2.121-2.006,3.518-1.072-1.728-.108.07Zm0,5.346.741,1.2-.741,1.3Zm0,4.043.108-.193,1.095-1.906.263.425-.625,1.89-.44.1-.015.008-.386.092Zm0,1.211.563-.139-.563,1.713Zm0,4.073.085-.27v-.008l1.365-4.15,1.373-.332,4.868,7.876-6.418-1.172-1.273-.255Zm0,2.469,2.893.532-2.893-.263Zm.054,1.565-.008-.208,2.122,1.011Zm1.412-.393,6.95.648,2.315,3.749Zm9.473,2.314-.509-1.473.509.046Z" transform="translate(-34.462 -14.126)" fill="#010101"/>
        <g>
          <polygon points="298.444 315.573 298.397 315.665 298.428 315.581 298.444 315.573" fill="#010101"/>
          <polygon points="299.462 315.233 299.423 315.249 299.431 315.241 299.462 315.233" fill="#010101"/>
        </g>
        <polygon points="299.462 315.233 299.423 315.249 299.431 315.241 299.462 315.233" fill="#010101"/>
      </g>
      <g>
        <polygon points="307.469 315.141 307.469 315.156 307.415 315.125 307.469 315.141" fill="#010101"/>
        <polygon points="307.469 315.141 307.469 315.156 307.415 315.125 307.469 315.141" fill="#010101"/>
      </g>
    </g>
    <g>
      <g>
        <path d="M331.569,409.456l1.029-.25v-6.444l-10.137-25.938-.452.173-.279.1h-.009l-.356-.144-.01.019-.009.038-10.089,25.708-.029,6.617,1.019.25-5.28,12.051-.038,6.2,13.493,3.549.241-.933-11.2-2.943L321.4,423l.125,13.177.962-.01-.125-13.311,11.993,4.53-11.2,2.943.24.933,13.494-3.549V421.6Zm-19.379-6.482,2.048-5.223-2.048,5.982Zm0,5.607v-1.876l.307-.9.01-.019,1.847-3.837,1.788-1.28-.471,1.1-.058.115-2.981,6.81Zm6.674-2.905.625,1.087-.173.289Zm.51,4.646-.827-.2.5-.8Zm-1.808-.443-3.4-.817,2.309-6.723.23-.183,1.953,5.963Zm-.539.866-6.357,10.271v.01l-.673.115,3.847-11.175Zm-5.27,2.366,1.154-3.367.288.068-1.442,3.3-2.837,8.232-.837.154Zm-1.924,9.261-.577.943.318-.914Zm-1.942.183.634-.058-.634,1.837Zm13.435-.567-2.491.952,2.491-1.183Zm0-.683-1.625.154-11.551,5.472,2.886-4.664,8.665-.808,1.625-.77Zm0-.962-3.125.289,1.933-.356,1.192-.241Zm0-1.3-9.377,1.74,6.069-9.8,1.712.414,1.6,4.866Zm0-5.867-.5-1.51.5.125Zm0-2.385-.846-.2-.769-2.347.327-.529,1.288,2.251Zm0-2.76-.711-1.241.711-1.164Zm0-4.232-1.259,2.039-2.511-4.4,3.2-2.635.567-.134Zm-4.01-3.395.365-.837.039-.029.9-.221Zm4.01-2.722-3.924.943-3.222,2.26,7.146-20.88Zm14.417,23.7-.846-.154-2.837-8.262Zm-1.183,1.808-.577-.943.26.02v.009Zm-.74-2.164-.674-.125-6.357-10.291,3.184-.769Zm-9.041-11.839.5.808-.837.2Zm-.452-2.549.625-1.087-.452,1.366Zm.837,1.356,1.952-5.972.231.192,2.308,6.723-3.395.817Zm1.692-6.79.068.019v.02Zm4.78,7.252-.452.106-3-6.848-.02-.068-.009-.009-.481-1.1,1.789,1.28,1.837,3.808.019.039.317.942Zm0-5.607v.779l-2.1-6.117Zm-9.348-23.563,7.348,21.466-3.049-2.174-4.3-1.077Zm4.222,21-1.317-1.087.9.221.048.039Zm-4.222-1.789.769.183,3.2,2.644-2.5,4.386-1.337-2.154-.135.086Zm0,6.665.923,1.5-.923,1.626Zm0,5.04.135-.241,1.365-2.376.327.529-.779,2.357-.548.125-.019.009-.481.116Zm0,1.509.7-.173-.7,2.135Zm0,5.079.106-.337v-.01l1.7-5.174,1.712-.414,6.069,9.82-8-1.462-1.587-.317Zm0,3.077,3.607.664-3.607-.327Zm.067,1.952-.009-.259,2.645,1.26Zm1.76-.49,8.666.808,2.885,4.674Zm11.811,2.885-.635-1.837.635.058Z" transform="translate(-34.462 -14.126)" fill="#010101"/>
        <g>
          <polygon points="281.209 387.635 281.152 387.751 281.19 387.645 281.209 387.635" fill="#010101"/>
          <polygon points="282.479 387.212 282.431 387.232 282.44 387.222 282.479 387.212" fill="#010101"/>
        </g>
        <polygon points="282.479 387.212 282.431 387.232 282.44 387.222 282.479 387.212" fill="#010101"/>
      </g>
      <g>
        <polygon points="292.462 387.097 292.462 387.116 292.395 387.078 292.462 387.097" fill="#010101"/>
        <polygon points="292.462 387.097 292.462 387.116 292.395 387.078 292.462 387.097" fill="#010101"/>
      </g>
    </g>
    <g>
      <g>
        <path d="M376.012,409.673l.757-.184v-4.738l-7.454-19.074-.332.128-.206.07h-.007l-.261-.106-.007.014-.007.029-7.419,18.9-.021,4.865.749.184-3.882,8.862-.029,4.561,9.923,2.61.176-.686-8.239-2.164,8.784-3.317.092,9.689.707-.007-.092-9.788,8.819,3.331-8.239,2.164.177.686,9.922-2.61v-4.491Zm-14.25-4.766,1.506-3.841-1.506,4.4Zm0,4.123v-1.379l.226-.665.007-.014,1.358-2.822,1.315-.941-.346.806-.043.085-2.192,5.007Zm4.908-2.136.46.8-.128.212Zm.375,3.416-.609-.149.368-.587Zm-1.33-.326-2.5-.6,1.7-4.943.17-.135,1.435,4.385Zm-.4.637-4.675,7.553v.007l-.5.085,2.829-8.218Zm-3.876,1.74.849-2.476.212.05-1.061,2.426-2.086,6.053-.615.114Zm-1.414,6.81-.424.693.233-.672Zm-1.429.135.467-.043-.467,1.351Zm9.88-.418-1.831.7,1.831-.869Zm0-.5-1.195.113-8.494,4.024,2.122-3.43,6.372-.594,1.195-.565Zm0-.707-2.3.212,1.421-.262.877-.176Zm0-.955-6.9,1.28,4.462-7.206,1.259.3,1.174,3.578Zm0-4.314-.367-1.11.367.092Zm0-1.754-.622-.148-.566-1.726.241-.389.947,1.655Zm0-2.029-.523-.913.523-.855Zm0-3.112-.926,1.5-1.846-3.232,2.355-1.938.417-.1Zm-2.949-2.5.269-.615.028-.021.665-.163Zm2.949-2-2.885.693-2.369,1.662,5.254-15.354Zm10.6,17.426-.623-.113-2.086-6.075Zm-.87,1.329-.425-.693.191.014v.008Zm-.545-1.591-.495-.092-4.675-7.567,2.341-.566Zm-6.648-8.706.368.594-.615.149Zm-.332-1.874.46-.8-.333,1Zm.615,1,1.436-4.392.17.142,1.7,4.943-2.5.6Zm1.245-4.993.049.014v.015Zm3.515,5.333-.333.078-2.206-5.036-.014-.049-.007-.007-.354-.807,1.316.941,1.35,2.8.014.028.234.693Zm0-4.123v.572l-1.542-4.5Zm-6.874-17.327,5.4,15.785-2.242-1.6-3.161-.793Zm3.1,15.438-.969-.8.665.163.036.028Zm-3.1-1.315.565.134,2.355,1.945-1.838,3.225-.983-1.584-.1.064Zm0,4.9.679,1.1-.679,1.195Zm0,3.706.1-.177,1-1.747.24.389-.573,1.733-.4.092-.014.007-.353.085Zm0,1.11.516-.127-.516,1.57Zm0,3.734.077-.247v-.007L370.517,411l1.259-.3,4.463,7.22-5.884-1.075-1.167-.233Zm0,2.263,2.652.488-2.652-.24Zm.049,1.436-.007-.191,1.945.927Zm1.294-.361,6.372.594,2.122,3.437Zm8.685,2.122-.467-1.351.467.043Z" transform="translate(-34.462 -14.126)" fill="#010101"/>
        <g>
          <polygon points="329.86 389.889 329.818 389.974 329.846 389.896 329.86 389.889" fill="#010101"/>
          <polygon points="330.794 389.578 330.758 389.592 330.765 389.585 330.794 389.578" fill="#010101"/>
        </g>
        <polygon points="330.794 389.578 330.758 389.592 330.765 389.585 330.794 389.578" fill="#010101"/>
      </g>
      <g>
        <polygon points="338.134 389.493 338.134 389.507 338.085 389.479 338.134 389.493" fill="#010101"/>
        <polygon points="338.134 389.493 338.134 389.507 338.085 389.479 338.134 389.493" fill="#010101"/>
      </g>
    </g>
    <g>
      <g>
        <path d="M110.3,215.068l.894-.217v-5.6l-8.807-22.537-.393.151-.242.083h-.009l-.309-.125-.008.016-.009.034L92.654,209.21l-.025,5.749.885.218-4.587,10.47-.034,5.39,11.724,3.083.209-.81-9.735-2.557,10.378-3.919.109,11.448.836-.008-.109-11.566,10.42,3.936L102.99,233.2l.209.811,11.724-3.084v-5.306Zm-16.838-5.632,1.78-4.538-1.78,5.2Zm0,4.872v-1.63l.268-.785.008-.017,1.6-3.334L96.9,207.43l-.41.953-.05.1-2.59,5.917Zm5.8-2.524.543.944-.151.251Zm.442,4.036-.718-.175.434-.694Zm-1.571-.384-2.958-.71,2.006-5.842.2-.158,1.7,5.181Zm-.468.752-5.523,8.924v.009l-.585.1,3.342-9.71Zm-4.579,2.055,1-2.924.251.058-1.254,2.866L90.623,225.4l-.727.134Zm-1.671,8.048-.5.819.275-.794Zm-1.688.158.551-.05-.551,1.6Zm11.674-.493-2.165.828,2.165-1.028Zm0-.593-1.413.134-10.036,4.755,2.507-4.053,7.529-.7,1.413-.669Zm0-.836-2.716.251,1.679-.309,1.037-.209Zm0-1.128-8.148,1.513,5.273-8.515,1.487.359,1.388,4.228Zm0-5.1-.435-1.312.435.109Zm0-2.072-.736-.176L100,214.015l.284-.459,1.12,1.955Zm0-2.4-.619-1.078.619-1.011Zm0-3.676-1.095,1.771-2.181-3.819,2.783-2.289.493-.117Zm-3.485-2.95.318-.727.033-.025.786-.192Zm3.485-2.365-3.41.819-2.8,1.964,6.209-18.142Zm12.526,20.59-.736-.134-2.465-7.178ZM112.9,227l-.5-.819.225.017v.008Zm-.643-1.88-.585-.109-5.524-8.941,2.766-.669ZM104.4,214.834l.434.7-.727.176Zm-.393-2.214.543-.945-.393,1.187Zm.727,1.178,1.7-5.189.2.167,2,5.841-2.95.71Zm1.471-5.9.058.017v.017Zm4.153,6.3-.393.092-2.607-5.95-.017-.058-.008-.009-.418-.952,1.554,1.111,1.6,3.309.017.034.276.819Zm0-4.872V210l-1.822-5.314Zm-8.123-20.473,6.385,18.652-2.649-1.889-3.736-.936Zm3.669,18.242-1.145-.944.785.192.042.034Zm-3.669-1.554.669.159,2.782,2.3-2.172,3.81-1.162-1.872-.117.076Zm0,5.791.8,1.3-.8,1.413Zm0,4.379.117-.209,1.187-2.064.284.459-.677,2.048-.476.108-.017.009-.418.1Zm0,1.311.61-.15-.61,1.855Zm0,4.413.092-.293v-.008l1.479-4.5,1.488-.359,5.273,8.532-6.953-1.271-1.379-.275Zm0,2.674,3.134.576-3.134-.284Zm.059,1.7-.009-.226,2.3,1.095Zm1.529-.426,7.529.7,2.507,4.061Zm10.262,2.507-.552-1.6.552.05Z" transform="translate(-34.462 -14.126)" fill="#010101"/>
        <g>
          <polygon points="62.027 194.257 61.977 194.357 62.011 194.265 62.027 194.257" fill="#010101"/>
          <polygon points="63.13 193.889 63.089 193.906 63.097 193.897 63.13 193.889" fill="#010101"/>
        </g>
        <polygon points="63.13 193.889 63.089 193.906 63.097 193.897 63.13 193.889" fill="#010101"/>
      </g>
      <g>
        <polygon points="71.804 193.789 71.804 193.805 71.746 193.772 71.804 193.789" fill="#010101"/>
        <polygon points="71.804 193.789 71.804 193.805 71.746 193.772 71.804 193.789" fill="#010101"/>
      </g>
    </g>
    <g>
      <polygon points="401.326 324.752 403.029 333.01 382.276 331.058 384.462 323.166 382.369 322.968 385.425 311.945 384.151 311.825 386.606 302.965 386.603 302.965 385.65 302.875 386.169 301 387.989 294.437 386.354 294.284 387.089 291.633 389.659 282.358 389.662 282.355 391.314 276.391 394.322 265.546 396.253 274.91 397.218 279.6 399.071 288.592 399.074 288.595 399.074 288.598 400.52 295.615 399.125 295.483 399.122 295.483 399.554 297.576 399.557 297.582 400.942 304.311 400.316 304.251 402.226 313.525 400.75 313.387 400.747 313.387 403.125 324.92 401.329 324.752 401.326 324.752" fill="#213831"/>
      <polygon points="412.07 316.914 415.35 321.984 403.029 333.01 401.329 324.752 403.125 324.92 400.75 313.387 402.226 313.525 400.316 304.251 400.942 304.311 399.557 297.582 399.554 297.576 399.125 295.483 400.52 295.615 399.074 288.598 399.074 288.595 397.224 279.609 396.259 274.919 394.325 265.528 408.928 288.092 406.304 290.44 410.022 296.188 408.712 297.36 412.958 303.921 410.445 306.17 415.443 313.894 412.07 316.914" fill="#3d5f54"/>
      <polygon points="394.319 265.546 391.314 276.391 391.311 276.397 389.662 282.355 389.659 282.358 387.089 291.633 386.354 294.284 387.989 294.437 386.169 301 385.65 302.875 386.603 302.965 384.151 311.825 385.425 311.945 382.369 322.968 384.462 323.166 382.276 331.058 375.146 318.095 377.599 314.29 375.242 310.005 379.509 303.387 377.941 300.533 381.407 295.159 380.396 293.321 383.326 288.778 381.491 285.438 394.319 265.546" fill="#192924"/>
    </g>
    <g>
      <polygon points="272.326 289.752 274.029 298.01 253.276 296.058 255.462 288.166 253.369 287.968 256.425 276.945 255.151 276.825 257.606 267.965 257.603 267.965 256.65 267.875 257.169 266 258.989 259.437 257.354 259.284 258.089 256.633 260.659 247.358 260.662 247.355 262.314 241.391 265.322 230.546 267.253 239.91 268.218 244.6 270.071 253.592 270.074 253.595 270.074 253.598 271.52 260.615 270.125 260.483 270.122 260.483 270.554 262.576 270.557 262.582 271.942 269.311 271.316 269.251 273.226 278.525 271.75 278.387 271.747 278.387 274.125 289.92 272.329 289.752 272.326 289.752" fill="#213831"/>
      <polygon points="283.07 281.914 286.35 286.984 274.029 298.01 272.329 289.752 274.125 289.92 271.75 278.387 273.226 278.525 271.316 269.251 271.942 269.311 270.557 262.582 270.554 262.576 270.125 260.483 271.52 260.615 270.074 253.598 270.074 253.595 268.224 244.609 267.259 239.919 265.325 230.528 279.928 253.092 277.304 255.44 281.022 261.188 279.712 262.36 283.958 268.921 281.445 271.17 286.443 278.894 283.07 281.914" fill="#3d5f54"/>
      <polygon points="265.319 230.546 262.314 241.391 262.311 241.397 260.662 247.355 260.659 247.358 258.089 256.633 257.354 259.284 258.989 259.437 257.169 266 256.65 267.875 257.603 267.965 255.151 276.825 256.425 276.945 253.369 287.968 255.462 288.166 253.276 296.058 246.146 283.095 248.599 279.29 246.242 275.005 250.509 268.387 248.941 265.533 252.407 260.159 251.396 258.321 254.326 253.778 252.491 250.438 265.319 230.546" fill="#192924"/>
    </g>
    <g>
      <polygon points="138.871 250.525 132.743 261.669 130.864 254.884 132.661 254.714 130.037 245.238 131.132 245.135 129.021 237.517 129.843 237.44 129.4 235.839 129.4 235.836 127.833 230.186 129.235 230.054 128.601 227.77 128.601 227.768 126.394 219.805 126.394 219.799 126.386 219.774 124.974 214.67 124.971 214.667 122.391 205.348 133.419 222.45 131.841 225.319 134.36 229.227 133.491 230.807 136.471 235.426 135.123 237.88 138.791 243.57 136.762 247.256 138.871 250.525" fill="#3d5f54"/>
      <polygon points="114.9 263.347 116.364 256.248 116.361 256.248 114.82 256.392 116.864 246.478 116.861 246.478 115.59 246.596 117.235 238.623 117.232 238.623 116.694 238.674 117.885 232.895 117.885 232.892 118.258 231.085 118.256 231.085 117.06 231.199 118.302 225.167 118.305 225.164 119.898 217.43 120.728 213.399 122.388 205.348 124.971 214.667 126.386 219.774 126.394 219.799 126.394 219.805 128.601 227.768 128.601 227.77 129.235 230.054 127.833 230.186 129.4 235.836 129.4 235.839 129.843 237.44 129.021 237.517 131.132 245.135 130.037 245.238 130.034 245.238 132.661 254.714 130.864 254.884 130.862 254.884 132.743 261.669 114.9 263.347" fill="#213831"/>
      <polygon points="122.386 205.333 120.723 213.406 119.893 217.436 118.302 225.167 117.06 231.199 118.256 231.085 117.885 232.892 117.885 232.895 116.694 238.674 117.232 238.623 115.59 246.596 116.861 246.478 114.82 256.392 116.361 256.248 114.9 263.347 104.31 253.868 107.13 249.512 104.227 246.913 108.525 240.273 106.364 238.339 110.015 232.699 108.891 231.691 112.087 226.752 109.829 224.731 122.386 205.333" fill="#192924"/>
    </g>
    <g>
      <polygon points="123.479 79.668 123.242 80.241 123.113 80.197 123.479 79.668" fill="#21423d"/>
      <polygon points="123.479 79.668 123.242 80.241 123.113 80.197 123.479 79.668" fill="#21423d"/>
      <polygon points="123.479 79.668 123.242 80.241 123.113 80.197 123.479 79.668" fill="#2a4f48"/>
      <g>
        <polygon points="130.304 57.333 125.594 68.703 123.086 74.761 121.13 79.482 122.48 79.968 121.302 82.82 119.88 86.25 120.641 86.522 118.507 91.672 120.284 92.31 117.579 98.84 116.957 89.101 118.226 87.267 117.904 82.255 119.479 79.976 119.337 77.755 120.876 75.528 120.608 71.353 130.304 57.333" fill="#21423d"/>
        <polygon points="131.428 90.406 130.874 90.206 131.311 96.278 130.266 95.901 130.817 103.602 117.579 98.84 120.284 92.31 118.507 91.672 120.641 86.522 119.88 86.25 121.302 82.82 122.48 79.968 121.13 79.482 123.086 74.761 125.594 68.703 130.304 57.333 130.83 64.684 130.904 65.71 130.904 65.713 131.09 68.278 131.193 69.743 131.193 69.746 131.633 75.867 131.633 75.869 131.799 78.175 131.799 78.178 132.178 83.458 130.896 82.997 131.428 90.406" fill="#2a4f48"/>
        <polygon points="123.479 79.668 123.242 80.241 123.113 80.197 123.479 79.668" fill="#2a4f48"/>
        <polygon points="142.133 91.309 142.761 98.12 130.817 103.602 130.266 95.901 131.311 96.278 130.874 90.206 131.428 90.406 130.896 82.997 132.178 83.458 131.799 78.178 131.799 78.175 131.633 75.869 131.633 75.867 131.193 69.746 131.193 69.743 131.09 68.278 130.904 65.713 130.904 65.71 130.83 64.684 130.304 57.333 141.347 70.193 142.147 78.882 141.265 79.286 141.353 80.233 141.934 80.909 142.862 90.976 142.133 91.309" fill="#3e7063"/>
      </g>
    </g>
    <g>
      <polygon points="362.992 240.022 362.755 240.595 362.626 240.552 362.992 240.022" fill="#21423d"/>
      <polygon points="362.992 240.022 362.755 240.595 362.626 240.552 362.992 240.022" fill="#21423d"/>
      <polygon points="362.992 240.022 362.755 240.595 362.626 240.552 362.992 240.022" fill="#2a4f48"/>
      <g>
        <polygon points="369.817 217.687 365.107 229.058 362.599 235.116 360.642 239.837 361.993 240.323 360.814 243.174 359.393 246.604 360.154 246.877 358.02 252.026 359.797 252.665 357.092 259.195 356.47 249.456 357.739 247.622 357.417 242.609 358.991 240.331 358.85 238.11 360.389 235.883 360.121 231.708 369.817 217.687" fill="#21423d"/>
        <polygon points="370.941 250.76 370.387 250.561 370.824 256.633 369.778 256.256 370.33 263.957 357.092 259.195 359.797 252.665 358.02 252.026 360.154 246.877 359.393 246.604 360.814 243.174 361.993 240.323 360.642 239.837 362.599 235.116 365.107 229.058 369.817 217.687 370.343 225.039 370.417 226.065 370.417 226.067 370.603 228.632 370.706 230.098 370.706 230.101 371.146 236.221 371.146 236.224 371.312 238.53 371.312 238.533 371.691 243.813 370.409 243.352 370.941 250.76" fill="#2a4f48"/>
        <polygon points="362.992 240.022 362.755 240.595 362.626 240.552 362.992 240.022" fill="#2a4f48"/>
        <polygon points="381.646 251.663 382.274 258.475 370.33 263.957 369.778 256.256 370.824 256.633 370.387 250.561 370.941 250.76 370.409 243.352 371.691 243.813 371.312 238.533 371.312 238.53 371.146 236.224 371.146 236.221 370.706 230.101 370.706 230.098 370.603 228.632 370.417 226.067 370.417 226.065 370.343 225.039 369.817 217.687 380.86 230.548 381.66 239.237 380.778 239.64 380.866 240.587 381.447 241.264 382.375 251.331 381.646 251.663" fill="#3e7063"/>
      </g>
    </g>
    <g>
      <polygon points="30.823 118.185 30.823 144.33 30.213 144.167 30.213 154.146 29.976 154.082 29.976 167.459 18.468 164.389 12.713 155.25 18.346 147.407 16.471 144.425 20.468 138.857 18.37 135.522 30.823 118.185" fill="#1f3f33"/>
      <polygon points="40.131 161.546 29.976 167.266 29.976 154.082 30.213 154.146 30.213 144.167 30.823 144.33 30.823 118.307 38.148 140.062 35.619 141.487 38.297 149.438 36.411 150.501 40.131 161.546" fill="#468b72"/>
    </g>
    <g>
      <polygon points="170.454 211.305 172.157 219.563 151.404 217.611 153.59 209.719 151.497 209.521 154.553 198.498 153.278 198.378 155.734 189.518 155.731 189.518 154.777 189.428 155.296 187.554 157.116 180.99 155.482 180.837 156.217 178.186 158.787 168.912 158.79 168.909 160.442 162.945 163.449 152.099 165.38 161.463 166.346 166.153 168.199 175.146 168.202 175.149 168.202 175.152 169.647 182.168 168.253 182.036 168.25 182.036 168.682 184.129 168.685 184.135 170.07 190.864 169.443 190.804 171.353 200.079 169.878 199.941 169.875 199.941 172.253 211.473 170.457 211.305 170.454 211.305" fill="#213831"/>
      <polygon points="181.198 203.467 184.478 208.538 172.157 219.563 170.457 211.305 172.253 211.473 169.878 199.941 171.353 200.079 169.443 190.804 170.07 190.864 168.685 184.135 168.682 184.129 168.253 182.036 169.647 182.168 168.202 175.152 168.202 175.149 166.352 166.162 165.386 161.472 163.452 152.081 178.055 174.645 175.431 176.993 179.15 182.741 177.839 183.913 182.085 190.474 179.572 192.723 184.571 200.447 181.198 203.467" fill="#3d5f54"/>
      <polygon points="163.446 152.099 160.442 162.945 160.439 162.951 158.79 168.909 158.787 168.912 156.217 178.186 155.482 180.837 157.116 180.99 155.296 187.554 154.777 189.428 155.731 189.518 153.278 198.378 154.553 198.498 151.497 209.521 153.59 209.719 151.404 217.611 144.274 204.648 146.726 200.843 144.369 196.558 148.636 189.941 147.068 187.086 150.534 181.712 149.524 179.874 152.454 175.332 150.618 171.991 163.446 152.099" fill="#192924"/>
    </g>
    <g>
      <polygon points="91.744 154.007 85.617 165.151 83.737 158.366 85.534 158.196 82.91 148.72 84.005 148.617 81.894 140.999 82.717 140.922 82.273 139.321 82.273 139.318 80.706 133.668 82.108 133.536 81.474 131.252 81.474 131.25 79.267 123.287 79.267 123.282 79.26 123.256 77.847 118.152 77.844 118.149 75.264 108.83 86.292 125.932 84.714 128.801 87.233 132.709 86.364 134.289 89.344 138.909 87.996 141.363 91.664 147.052 89.635 150.738 91.744 154.007" fill="#3d5f54"/>
      <polygon points="67.773 166.829 69.237 159.73 69.234 159.73 67.693 159.874 69.737 149.96 69.734 149.96 68.464 150.078 70.108 142.105 70.106 142.105 69.567 142.157 70.758 136.377 70.758 136.375 71.132 134.567 71.129 134.567 69.933 134.681 71.176 128.649 71.178 128.646 72.771 120.913 73.601 116.881 75.261 108.83 77.844 118.149 79.26 123.256 79.267 123.282 79.267 123.287 81.474 131.25 81.474 131.252 82.108 133.536 80.706 133.668 82.273 139.318 82.273 139.321 82.717 140.922 81.894 140.999 84.005 148.617 82.91 148.72 82.907 148.72 85.534 158.196 83.737 158.366 83.735 158.366 85.617 165.151 67.773 166.829" fill="#213831"/>
      <polygon points="75.259 108.815 73.596 116.889 72.766 120.918 71.176 128.649 69.933 134.681 71.129 134.567 70.758 136.375 70.758 136.377 69.567 142.157 70.106 142.105 68.464 150.078 69.734 149.96 67.693 159.874 69.234 159.73 67.773 166.829 57.183 157.35 60.003 152.994 57.1 150.395 61.398 143.755 59.238 141.822 62.888 136.181 61.764 135.173 64.96 130.234 62.702 128.213 75.259 108.815" fill="#192924"/>
    </g>
    <g>
      <polygon points="149.871 152.95 143.743 164.094 141.864 157.309 143.661 157.139 141.037 147.663 142.132 147.56 140.021 139.943 140.843 139.865 140.4 138.264 140.4 138.262 138.833 132.611 140.235 132.48 139.601 130.196 139.601 130.193 137.394 122.23 137.394 122.225 137.386 122.199 135.974 117.095 135.971 117.093 133.391 107.774 144.419 124.875 142.841 127.744 145.36 131.652 144.491 133.232 147.471 137.852 146.123 140.306 149.791 145.995 147.762 149.682 149.871 152.95" fill="#3d5f54"/>
      <polygon points="125.9 165.773 127.364 158.673 127.361 158.673 125.82 158.817 127.864 148.903 127.861 148.903 126.59 149.022 128.235 141.048 128.232 141.048 127.694 141.1 128.885 135.32 128.885 135.318 129.258 133.511 129.256 133.511 128.06 133.624 129.302 127.592 129.305 127.59 130.898 119.856 131.728 115.824 133.388 107.774 135.971 117.093 137.386 122.199 137.394 122.225 137.394 122.23 139.601 130.193 139.601 130.196 140.235 132.48 138.833 132.611 140.4 138.262 140.4 138.264 140.843 139.865 140.021 139.943 142.132 147.56 141.037 147.663 141.034 147.663 143.661 157.139 141.864 157.309 141.862 157.309 143.743 164.094 125.9 165.773" fill="#213831"/>
      <polygon points="133.386 107.758 131.723 115.832 130.893 119.861 129.302 127.592 128.06 133.624 129.256 133.511 128.885 135.318 128.885 135.32 127.694 141.1 128.232 141.048 126.59 149.022 127.861 148.903 125.82 158.817 127.361 158.673 125.9 165.773 115.31 156.294 118.13 151.937 115.227 149.339 119.525 142.698 117.364 140.765 121.015 135.125 119.891 134.117 123.087 129.177 120.829 127.156 133.386 107.758" fill="#192924"/>
    </g>
    <g>
      <polygon points="185.823 108.61 185.823 134.755 185.213 134.593 185.213 144.572 184.976 144.507 184.976 157.885 173.468 154.815 167.713 145.675 173.346 137.832 171.471 134.85 175.468 129.282 173.37 125.948 185.823 108.61" fill="#1f3f33"/>
      <polygon points="195.131 151.971 184.976 157.692 184.976 144.507 185.213 144.572 185.213 134.593 185.823 134.755 185.823 108.732 193.148 130.487 190.619 131.912 193.297 139.863 191.411 140.926 195.131 151.971" fill="#468b72"/>
    </g>
    <g>
      <polygon points="279.744 193.433 273.617 204.577 271.737 197.792 273.534 197.622 270.91 188.145 272.005 188.042 269.894 180.425 270.717 180.347 270.273 178.747 270.273 178.744 268.706 173.093 270.108 172.962 269.474 170.678 269.474 170.675 267.267 162.712 267.267 162.707 267.26 162.681 265.847 157.577 265.844 157.575 263.264 148.256 274.292 165.357 272.714 168.226 275.233 172.134 274.364 173.715 277.344 178.334 275.996 180.788 279.664 186.477 277.635 190.164 279.744 193.433" fill="#3d5f54"/>
      <polygon points="255.773 206.255 257.237 199.155 257.234 199.155 255.693 199.3 257.737 189.385 257.734 189.385 256.464 189.504 258.108 181.531 258.106 181.531 257.567 181.582 258.758 175.803 258.758 175.8 259.132 173.993 259.129 173.993 257.933 174.106 259.176 168.074 259.178 168.072 260.771 160.338 261.601 156.306 263.261 148.256 265.844 157.575 267.26 162.681 267.267 162.707 267.267 162.712 269.474 170.675 269.474 170.678 270.108 172.962 268.706 173.093 270.273 178.744 270.273 178.747 270.717 180.347 269.894 180.425 272.005 188.042 270.91 188.145 270.907 188.145 273.534 197.622 271.737 197.792 271.735 197.792 273.617 204.577 255.773 206.255" fill="#213831"/>
      <polygon points="263.259 148.24 261.596 156.314 260.766 160.343 259.176 168.074 257.933 174.106 259.129 173.993 258.758 175.8 258.758 175.803 257.567 181.582 258.106 181.531 256.464 189.504 257.734 189.385 255.693 199.3 257.234 199.155 255.773 206.255 245.183 196.776 248.003 192.419 245.1 189.821 249.398 183.18 247.238 181.247 250.888 175.607 249.764 174.599 252.96 169.66 250.702 167.639 263.259 148.24" fill="#192924"/>
    </g>
    <g>
      <polygon points="362.688 371.709 364.391 379.967 343.638 378.015 345.824 370.123 343.731 369.925 346.787 358.903 345.512 358.783 347.968 349.922 347.965 349.922 347.011 349.832 347.53 347.958 349.35 341.394 347.716 341.241 348.451 338.59 351.021 329.316 351.024 329.313 352.676 323.349 355.683 312.503 357.614 321.867 358.58 326.557 360.433 335.55 360.436 335.553 360.436 335.556 361.881 342.572 360.487 342.441 360.484 342.441 360.916 344.534 360.919 344.54 362.304 351.268 361.677 351.208 363.587 360.483 362.112 360.345 362.109 360.345 364.487 371.877 362.691 371.709 362.688 371.709" fill="#213831"/>
      <polygon points="373.432 363.871 376.712 368.942 364.391 379.967 362.691 371.709 364.487 371.877 362.112 360.345 363.587 360.483 361.677 351.208 362.304 351.268 360.919 344.54 360.916 344.534 360.487 342.441 361.881 342.572 360.436 335.556 360.436 335.553 358.586 326.566 357.62 321.876 355.686 312.485 370.289 335.049 367.666 337.397 371.384 343.145 370.073 344.318 374.319 350.878 371.807 353.127 376.805 360.852 373.432 363.871" fill="#3d5f54"/>
      <polygon points="355.68 312.503 352.676 323.349 352.673 323.355 351.024 329.313 351.021 329.316 348.451 338.59 347.716 341.241 349.35 341.394 347.53 347.958 347.011 349.832 347.965 349.922 345.512 358.783 346.787 358.903 343.731 369.925 345.824 370.123 343.638 378.015 336.508 365.053 338.96 361.247 336.604 356.963 340.87 350.345 339.302 347.49 342.769 342.117 341.758 340.279 344.688 335.736 342.852 332.395 355.68 312.503" fill="#192924"/>
    </g>
    <g>
      <polygon points="280.233 352.482 274.105 363.626 272.226 356.841 274.023 356.671 271.398 347.195 272.494 347.092 270.383 339.474 271.205 339.397 270.762 337.796 270.762 337.794 269.194 332.143 270.597 332.012 269.962 329.728 269.962 329.725 267.756 321.762 267.756 321.757 267.748 321.731 266.335 316.627 266.333 316.624 263.752 307.306 274.78 324.407 273.203 327.276 275.721 331.184 274.853 332.764 277.833 337.384 276.484 339.838 280.153 345.527 278.124 349.214 280.233 352.482" fill="#3d5f54"/>
      <polygon points="256.261 365.304 257.725 358.205 257.723 358.205 256.181 358.349 258.226 348.435 258.223 348.435 256.952 348.554 258.597 340.58 258.594 340.58 258.055 340.632 259.246 334.852 259.246 334.85 259.62 333.043 259.618 333.043 258.421 333.156 259.664 327.124 259.667 327.121 261.26 319.388 262.09 315.356 263.75 307.306 266.333 316.624 267.748 321.731 267.756 321.757 267.756 321.762 269.962 329.725 269.962 329.728 270.597 332.012 269.194 332.143 270.762 337.794 270.762 337.796 271.205 339.397 270.383 339.474 272.494 347.092 271.398 347.195 271.396 347.195 274.023 356.671 272.226 356.841 272.223 356.841 274.105 363.626 256.261 365.304" fill="#213831"/>
      <polygon points="263.747 307.29 262.085 315.364 261.254 319.393 259.664 327.124 258.421 333.156 259.618 333.043 259.246 334.85 259.246 334.852 258.055 340.632 258.594 340.58 256.952 348.554 258.223 348.435 256.181 358.349 257.723 358.205 256.261 365.304 245.671 355.826 248.492 351.469 245.589 348.871 249.886 342.23 247.726 340.297 251.376 334.656 250.252 333.649 253.449 328.709 251.191 326.688 263.747 307.29" fill="#192924"/>
    </g>
    <g>
      <polygon points="246.841 423.625 246.603 424.198 246.475 424.155 246.841 423.625" fill="#21423d"/>
      <polygon points="246.841 423.625 246.603 424.198 246.475 424.155 246.841 423.625" fill="#21423d"/>
      <polygon points="246.841 423.625 246.603 424.198 246.475 424.155 246.841 423.625" fill="#2a4f48"/>
      <g>
        <polygon points="253.665 401.29 248.956 412.661 246.448 418.719 244.491 423.44 245.842 423.925 244.663 426.777 243.242 430.207 244.003 430.48 241.869 435.629 243.645 436.268 240.941 442.798 240.319 433.059 241.588 431.225 241.266 426.212 242.84 423.934 242.698 421.712 244.238 419.486 243.97 415.311 253.665 401.29" fill="#21423d"/>
        <polygon points="254.79 434.363 254.236 434.164 254.672 440.235 253.627 439.859 254.179 447.559 240.941 442.798 243.645 436.268 241.869 435.629 244.003 430.48 243.242 430.207 244.663 426.777 245.842 423.925 244.491 423.44 246.448 418.719 248.956 412.661 253.665 401.29 254.192 408.641 254.266 409.667 254.266 409.67 254.451 412.235 254.555 413.701 254.555 413.703 254.994 419.824 254.994 419.827 255.161 422.133 255.161 422.135 255.54 427.416 254.258 426.954 254.79 434.363" fill="#2a4f48"/>
        <polygon points="246.841 423.625 246.603 424.198 246.475 424.155 246.841 423.625" fill="#2a4f48"/>
        <polygon points="265.495 435.266 266.122 442.077 254.179 447.559 253.627 439.859 254.672 440.235 254.236 434.164 254.79 434.363 254.258 426.954 255.54 427.416 255.161 422.135 255.161 422.133 254.994 419.827 254.994 419.824 254.555 413.703 254.555 413.701 254.451 412.235 254.266 409.67 254.266 409.667 254.192 408.641 253.665 401.29 264.709 414.151 265.508 422.839 264.627 423.243 264.714 424.19 265.296 424.867 266.223 434.933 265.495 435.266" fill="#3e7063"/>
      </g>
    </g>
    <g>
      <polygon points="184.354 245.98 184.116 246.553 183.988 246.509 184.354 245.98" fill="#21423d"/>
      <polygon points="184.354 245.98 184.116 246.553 183.988 246.509 184.354 245.98" fill="#21423d"/>
      <polygon points="184.354 245.98 184.116 246.553 183.988 246.509 184.354 245.98" fill="#2a4f48"/>
      <g>
        <polygon points="191.178 223.645 186.468 235.016 183.961 241.074 182.004 245.794 183.355 246.28 182.176 249.132 180.754 252.562 181.516 252.835 179.382 257.984 181.158 258.622 178.454 265.152 177.832 255.413 179.101 253.58 178.779 248.567 180.353 246.288 180.211 244.067 181.75 241.84 181.483 237.665 191.178 223.645" fill="#21423d"/>
        <polygon points="192.303 256.718 191.749 256.518 192.185 262.59 191.14 262.213 191.691 269.914 178.454 265.152 181.158 258.622 179.382 257.984 181.516 252.835 180.754 252.562 182.176 249.132 183.355 246.28 182.004 245.794 183.961 241.074 186.468 235.016 191.178 223.645 191.705 230.996 191.779 232.022 191.779 232.025 191.964 234.59 192.068 236.055 192.068 236.058 192.507 242.179 192.507 242.181 192.674 244.487 192.674 244.49 193.053 249.77 191.77 249.309 192.303 256.718" fill="#2a4f48"/>
        <polygon points="184.354 245.98 184.116 246.553 183.988 246.509 184.354 245.98" fill="#2a4f48"/>
        <polygon points="203.008 257.621 203.635 264.432 191.691 269.914 191.14 262.213 192.185 262.59 191.749 256.518 192.303 256.718 191.77 249.309 193.053 249.77 192.674 244.49 192.674 244.487 192.507 242.181 192.507 242.179 192.068 236.058 192.068 236.055 191.964 234.59 191.779 232.025 191.779 232.022 191.705 230.996 191.178 223.645 202.222 236.506 203.021 245.194 202.14 245.598 202.227 246.545 202.808 247.222 203.736 257.288 203.008 257.621" fill="#3e7063"/>
      </g>
    </g>
    <g>
      <polygon points="179.184 60.142 179.184 86.287 178.575 86.125 178.575 96.104 178.338 96.039 178.338 109.417 166.829 106.346 161.075 97.207 166.708 89.364 164.832 86.382 168.83 80.814 166.731 77.48 179.184 60.142" fill="#1f3f33"/>
      <polygon points="188.493 103.503 178.338 109.224 178.338 96.039 178.575 96.104 178.575 86.125 179.184 86.287 179.184 60.264 186.509 82.019 183.981 83.444 186.658 91.395 184.773 92.458 188.493 103.503" fill="#468b72"/>
    </g>
    <g>
      <polygon points="238.184 345.142 238.184 371.287 237.575 371.125 237.575 381.104 237.338 381.039 237.338 394.417 225.829 391.346 220.075 382.207 225.708 374.364 223.832 371.382 227.83 365.814 225.731 362.48 238.184 345.142" fill="#1f3f33"/>
      <polygon points="247.493 388.503 237.338 394.224 237.338 381.039 237.575 381.104 237.575 371.125 238.184 371.287 238.184 345.264 245.509 367.019 242.981 368.444 245.658 376.395 243.773 377.458 247.493 388.503" fill="#468b72"/>
    </g>
    <g>
      <polygon points="339.816 298.263 341.519 306.521 320.766 304.569 322.952 296.676 320.859 296.478 323.914 285.456 322.64 285.336 325.096 276.475 325.093 276.475 324.139 276.385 324.658 274.511 326.478 267.947 324.844 267.794 325.578 265.144 328.148 255.869 328.151 255.866 329.803 249.902 332.811 239.056 334.742 248.421 335.708 253.11 337.561 262.103 337.564 262.106 337.564 262.109 339.009 269.126 337.615 268.994 337.612 268.994 338.043 271.087 338.046 271.093 339.432 277.821 338.805 277.762 340.715 287.036 339.24 286.898 339.237 286.898 341.615 298.431 339.819 298.263 339.816 298.263" fill="#213831"/>
      <polygon points="350.559 290.424 353.84 295.495 341.519 306.521 339.819 298.263 341.615 298.431 339.24 286.898 340.715 287.036 338.805 277.762 339.432 277.821 338.046 271.093 338.043 271.087 337.615 268.994 339.009 269.126 337.564 262.109 337.564 262.106 335.714 253.119 334.748 248.43 332.814 239.038 347.417 261.602 344.793 263.95 348.511 269.698 347.201 270.871 351.447 277.432 348.934 279.681 353.933 287.405 350.559 290.424" fill="#3d5f54"/>
      <polygon points="332.808 239.056 329.803 249.902 329.8 249.908 328.151 255.866 328.148 255.869 325.578 265.144 324.844 267.794 326.478 267.947 324.658 274.511 324.139 276.385 325.093 276.475 322.64 285.336 323.914 285.456 320.859 296.478 322.952 296.676 320.766 304.569 313.635 291.606 316.088 287.801 313.731 283.516 317.998 276.898 316.43 274.043 319.896 268.67 318.886 266.832 321.815 262.289 319.98 258.949 332.808 239.056" fill="#192924"/>
    </g>
    <g>
      <polygon points="243.106 324.964 236.978 336.108 235.099 329.324 236.896 329.153 234.272 319.677 235.367 319.574 233.256 311.957 234.078 311.879 233.635 310.278 233.635 310.276 232.067 304.625 233.47 304.494 232.836 302.21 232.836 302.207 230.629 294.244 230.629 294.239 230.621 294.213 229.209 289.109 229.206 289.107 226.626 279.788 237.654 296.889 236.076 299.758 238.595 303.666 237.726 305.247 240.706 309.866 239.358 312.32 243.026 318.009 240.997 321.696 243.106 324.964" fill="#3d5f54"/>
      <polygon points="219.134 337.787 220.599 330.687 220.596 330.687 219.055 330.832 221.099 320.917 221.096 320.917 219.825 321.036 221.47 313.063 221.467 313.063 220.929 313.114 222.12 307.335 222.12 307.332 222.493 305.525 222.491 305.525 221.295 305.638 222.537 299.606 222.54 299.604 224.133 291.87 224.963 287.838 226.623 279.788 229.206 289.107 230.621 294.213 230.629 294.239 230.629 294.244 232.836 302.207 232.836 302.21 233.47 304.494 232.067 304.625 233.635 310.276 233.635 310.278 234.078 311.879 233.256 311.957 235.367 319.574 234.272 319.677 234.269 319.677 236.896 329.153 235.099 329.324 235.096 329.324 236.978 336.108 219.134 337.787" fill="#213831"/>
      <polygon points="226.621 279.772 224.958 287.846 224.128 291.875 222.537 299.606 221.295 305.638 222.491 305.525 222.12 307.332 222.12 307.335 220.929 313.114 221.467 313.063 219.825 321.036 221.096 320.917 219.055 330.832 220.596 330.687 219.134 337.787 208.545 328.308 211.365 323.951 208.462 321.353 212.759 314.712 210.599 312.779 214.249 307.139 213.126 306.131 216.322 301.192 214.064 299.171 226.621 279.772" fill="#192924"/>
    </g>
  </g>
</svg>
