<svg xmlns="http://www.w3.org/2000/svg" viewBox="0 0 49.474 47.89">
  <g id="Layer_2" data-name="Layer 2">
    <g id="Layer_11" data-name="Layer 11">
      <g>
        <g>
          <g>
            <rect x="1.535" y="22.116" width="46.405" height="5.033" transform="translate(-0.49 48.764) rotate(-88.606)" fill="#bf6e34"/>
            <path d="M22.063,31.081l.593-24.394,5.021.574-.5,20.783S21.916,23.79,22.063,31.081Z" fill="#ad5d25" fillRule="evenodd" opacity="0.5"/>
            <g>
              <path d="M27.584,11.1l.018-.763c-.365.715-.661,1.292-.848,1.661-.07.138-.143.294-.219.429-1.341,2.6-2.706,5.2-4.207,7.767l-.019.779c1.656-2.8,3.133-5.646,4.58-8.49q.35-.692.7-1.383ZM27.224.1c-.176.655-.368,1.281-.5,1.724-1.033,3.283-2.348,6.663-3.569,9.948q-.313.808-.626,1.616l-.036.093.042-1.7c1.48-3.894,3.06-7.795,4.274-11.687Z" fill="#ad5d25" fillRule="evenodd"/>
              <path d="M27.638,8.868l.015-.6c-.172.267-.327.5-.462.693a6.761,6.761,0,0,0-.554.876c-1.345,2.581-2.136,4.991-3.914,7.511-.111.157-.224.328-.338.507l-.019.746c.244-.4.485-.794.707-1.109,2.123-3.067,2.787-5.993,4.408-8.4.053-.072.1-.145.157-.22Zm.066-2.7c-.3.836-.611,1.675-.94,2.525q-.345.831-.722,1.658c-.706,1.533-1.441,2.983-2.284,4.5-.424.733-.9,1.55-1.358,2.37l.021-.867.868-1.6A75.754,75.754,0,0,0,27.747,4.412Z" fill="#ad5d25" fillRule="evenodd"/>
              <path d="M26.4.076l-.139,0c-.847,1.822-1.5,3.371-2.242,5.365C23.553,6.69,23.1,7.925,22.6,9.173l-.027,1.093q.114-.256.225-.523c.923-2.29,1.66-4.542,2.493-6.83C25.348,2.749,25.971,1.189,26.4.076Z" fill="#ad5d25" fillRule="evenodd"/>
              <path d="M27.517,13.837l.026-1.052a43.488,43.488,0,0,1-2.061,4c-.013.021-.029.046-.041.067-1.119,1.893-2.147,3.787-3.171,5.691l.013.771c1.169-2.12,2.292-4.242,3.544-6.354.6-1.02,1.127-1.974,1.632-3.009Z" fill="#ad5d25" fillRule="evenodd"/>
              <path d="M27.356,20.454l.026-1.066c-.221.492-.451.986-.692,1.489-.073.163-.136.319-.191.471l.857-.894ZM27.45,16.6c-.267.523-.531,1.057-.781,1.615-.069.176-.168.378-.252.554-.772,1.5-1.882,3.174-2.908,4.813l-.2,0c.406-.72.709-1.247.745-1.3a29.7,29.7,0,0,0,2.235-4.081c.368-.846.771-1.642,1.177-2.429Z" fill="#ad5d25" fillRule="evenodd"/>
              <path d="M22.285,21.957l-.01.415c.251-.575.433-1.081.281-1.055A3.509,3.509,0,0,1,22.285,21.957Z" fill="#ad5d25" fillRule="evenodd"/>
            </g>
            <g>
              <polygon points="22.786 1.376 27.818 1.499 27.213 0.096 23.276 0 22.786 1.376" fill="#f7ae79" fillRule="evenodd"/>
              <path d="M22.786,1.376l.494.012a19.22,19.22,0,0,1,4.421-.16l-.11-.254a20.112,20.112,0,0,0-4.744.231l-.061.171ZM27.293.282a37.32,37.32,0,0,0-4.344.636l.1-.275A37.023,37.023,0,0,1,26.79.086l.423.01.08.186ZM26.6.081,24.532.031C24.048.086,23.6.145,23.2.2l-.093.262C24.035.33,25.265.177,26.6.081Z" fill="#de925b" fillRule="evenodd"/>
            </g>
            <g>
              <path d="M21.988,34.157l-.022.9c.368-.842.667-1.524.855-1.959.072-.164.145-.347.222-.507,1.352-3.064,2.729-6.139,4.241-9.167l.022-.917c-1.669,3.308-3.158,6.663-4.618,10.02q-.351.816-.7,1.632ZM22.3,47.12c.179-.772.373-1.511.509-2.033,1.048-3.872,2.377-7.859,3.613-11.734l.633-1.906.036-.109-.049,2.006c-1.5,4.594-3.094,9.2-4.325,13.786Z" fill="#ad5d25" fillRule="evenodd"/>
              <path d="M21.924,36.789l-.018.711c.173-.316.33-.593.465-.819a8.277,8.277,0,0,0,.558-1.034c1.357-3.047,2.158-5.889,3.947-8.865.112-.186.225-.387.341-.6l.021-.879c-.245.476-.488.937-.711,1.309-2.136,3.623-2.814,7.073-4.445,9.916-.053.085-.106.172-.158.26Zm-.078,3.183c.3-.986.619-1.976.951-2.978q.348-.981.729-1.957c.713-1.809,1.454-3.52,2.3-5.3.428-.865.905-1.83,1.369-2.8l-.025,1.022L26.3,29.84a99.113,99.113,0,0,0-4.5,12.2Z" fill="#ad5d25" fillRule="evenodd"/>
              <path d="M23.129,47.14l.139,0c.855-2.149,1.517-3.976,2.265-6.328.467-1.478.928-2.935,1.435-4.407L27,35.12c-.076.2-.152.407-.227.617-.933,2.7-1.679,5.357-2.522,8.056C24.188,43.986,23.558,45.827,23.129,47.14Z" fill="#ad5d25" fillRule="evenodd"/>
              <path d="M22.066,30.936l-.03,1.238c.63-1.586,1.287-3.167,2.079-4.724.013-.025.028-.054.04-.079,1.128-2.235,2.164-4.47,3.2-6.718l-.008-.907c-1.179,2.5-2.311,5.007-3.572,7.5-.61,1.2-1.136,2.33-1.646,3.551Z" fill="#ad5d25" fillRule="evenodd"/>
              <path d="M22.256,23.141,22.225,24.4c.224-.581.456-1.164.7-1.757.073-.193.137-.377.193-.556-.3.362-.584.716-.861,1.058Zm-.111,4.544c.27-.616.536-1.247.789-1.9.069-.207.169-.446.254-.653.778-1.772,1.895-3.747,2.929-5.683l.2.005c-.409.85-.715,1.472-.75,1.54a37.614,37.614,0,0,0-2.254,4.817c-.371,1-.778,1.937-1.187,2.866Z" fill="#ad5d25" fillRule="evenodd"/>
              <path d="M27.334,21.347l.012-.488c-.253.678-.438,1.275-.286,1.243A4.78,4.78,0,0,1,27.334,21.347Z" fill="#ad5d25" fillRule="evenodd"/>
            </g>
          </g>
          <g>
            <path d="M.046,12.335a2.555,2.555,0,0,1,.747-1.563c.757-.858,7.915-6.82,8.616-6.8s30.936-.4,32.537.055a27.572,27.572,0,0,1,4.275,2.2,18.668,18.668,0,0,0-4.175-1.445c-3.374-.468-30.911-.7-32.362.147C8.417,5.667.251,11.218.046,12.335ZM48.8,7.786Z" fill="#f7ae79" fillRule="evenodd"/>
            <path d="M41.74,3.988a1.465,1.465,0,0,1,.206.036,27.572,27.572,0,0,1,4.275,2.2,18.668,18.668,0,0,0-4.175-1.445l-.2-.025A2.14,2.14,0,0,1,41.74,3.988Z" fill="#de925b" fillRule="evenodd"/>
            <path d="M.046,12.335a2.555,2.555,0,0,1,.747-1.563c.731-.829,7.429-6.415,8.52-6.783a4.338,4.338,0,0,1,.345.953C8.313,5.738.25,11.226.046,12.335Z" fill="#de925b" fillRule="evenodd"/>
            <path d="M9.684,4.926C8.417,5.667.251,11.218.046,12.335a52.009,52.009,0,0,0,.615,8.922c.28.708,4.929,2.785,6.767,3.04.319.044,1.4.084,2.981.119l3.048-1.343.089,1.4c6.787.1,13.325.343,20.143.174,1.063.007,5.11.082,6.1-.5,1.267-.741,9.433-6.293,9.639-7.41a52.1,52.1,0,0,0-.616-8.921c-.28-.708-4.929-2.785-6.767-3.04C38.672,4.311,11.135,4.078,9.684,4.926Z" fill="#d27e40" fillRule="evenodd"/>
            <g opacity="0.81">
              <path d="M.3,18.539c.019.212.039.417.058.614a10.841,10.841,0,0,0,1.866-.719c1.586-.647,3.22-1.261,4.787-1.935a31.551,31.551,0,0,1,5.1-1.893,10.125,10.125,0,0,1,1.631-.3c5.033-.3,9.11-.653,13.867-2.5.689-.281,1.34-.588,2-.928A54.034,54.034,0,0,1,40.977,6.8c1.5-.348,3.038-.667,4.582-.867-.156-.067-.314-.133-.472-.2-1.491.2-2.934.488-4.187.752a53.068,53.068,0,0,0-11.469,4.033c-5.384,2.636-9.824,2.976-15.709,3.316a18.852,18.852,0,0,0-4.013,1C7.737,15.456,5.734,16.231,3.822,17,2.671,17.474,1.426,17.987.3,18.539Z" fill="#bd7038" fillRule="evenodd"/>
              <path d="M.47,20.164c.015.117.029.228.043.331a6.216,6.216,0,0,1,1.7-.794,47.47,47.47,0,0,1,11.776-2.189c5-.192,8.992-1.3,13.815-2.382,4.865-1.183,9.307-3.591,13.867-5.59a39.751,39.751,0,0,1,4.979-1.657c.654-.166,1.256-.292,1.862-.39a10.427,10.427,0,0,0-1.694-.986,14.91,14.91,0,0,0-3.028.941c-1.574.784-3.083,1.591-4.7,2.312-3.839,1.769-7.311,3.567-11.447,4.646-1.35.315-2.7.66-4.053.957a52.435,52.435,0,0,1-9.635,1.5A44.439,44.439,0,0,0,2.077,19.36,6.482,6.482,0,0,0,.47,20.164Z" fill="#bd7038" fillRule="evenodd"/>
              <path d="M.005,12.844c0,.065,0,.134,0,.206,2.3-.739,5.042-1.891,6.469-2.439C13.024,8.124,14.764,7.8,21.877,7.954c4.585.182,7.117.726,1.359,1.4-5.46.7-8.346,2.1-13.4,3.5-.63.164-1.274.3-1.912.428-1.33.267-2.636.634-3.945.993s-2.585.716-3.912.977c.011.212.023.43.037.65a12.754,12.754,0,0,0,1.966-.388c1.626-.378,3.39-.863,4.989-1.345.314-.1.665-.219.983-.295,1.436-.341,2.931-.83,4.342-1.273,4.131-1.327,6.38-2.2,10.9-2.822a13.124,13.124,0,0,0,3.37-.7.854.854,0,0,0,.254-.179.284.284,0,0,0,.054-.086.18.18,0,0,0,.011-.083c0-.024-.023-.063-.03-.083a.441.441,0,0,0-.068-.083,1.155,1.155,0,0,0-.246-.166,7.974,7.974,0,0,0-1.948-.55,20.273,20.273,0,0,0-2.794-.286c-7.029-.16-8.828.191-15.525,2.78C4.369,11.128,2.161,12.12.005,12.844Z" fill="#bd7038" fillRule="evenodd"/>
              <path d="M0,13.618l0,.125q.3-.057.593-.107c3.159-.675,6.208-1.6,9.337-2.383,1.533-.38,3.243-.972,4.8-1.411.9-.252,1.834-.508,2.756-.681,1.7-.3-2.244,1.338-2.782,1.548a57.822,57.822,0,0,1-5.551,1.736c-.837.219-1.674.426-2.517.624-1.475.322-2.939.622-4.431.866-.735.123-1.452.225-2.185.315,0,.13.009.265.015.4a7.867,7.867,0,0,0,.945-.1,31.134,31.134,0,0,0,3.411-.592c1.488-.375,2.975-.762,4.462-1.142.122-.029.249-.065.371-.1A56.5,56.5,0,0,0,14.8,10.957a10.508,10.508,0,0,0,3.442-1.891.428.428,0,0,0,.064-.086.138.138,0,0,0,.012-.034.087.087,0,0,0,0-.028c0-.008-.01-.016-.013-.022s-.018-.014-.024-.018a.292.292,0,0,0-.084-.025,2.971,2.971,0,0,0-.75.07c-.471.088-.932.2-1.4.315s-.923.245-1.382.374c-1.593.451-3.207,1-4.786,1.423C6.753,11.827,3.723,12.774.568,13.5Z" fill="#bd7038" fillRule="evenodd"/>
              <path d="M6.192,24a9.047,9.047,0,0,0,1.142.285c.16-.12.319-.236.479-.344a4.694,4.694,0,0,1,.784-.365c.722-.249,1.456-.373,2.182-.6.745-.242,1.49-.474,2.238-.706a12.41,12.41,0,0,1,2.436-.586c4.293-.677,8.865-.706,13.22-1.122.768-.08,1.531-.172,2.3-.266A42.2,42.2,0,0,0,38.4,18.64a20.011,20.011,0,0,0,8.439-5.069c.822-.888,1.577-1.8,2.364-2.693-.011-.126-.022-.251-.033-.373-.892.933-1.755,1.934-2.6,2.819a20.22,20.22,0,0,1-8.335,4.826A45.934,45.934,0,0,1,28.62,20c-5.1.439-10.213.352-15.244,1.41-.18.038-.364.084-.542.128-1.413.348-2.944.587-4.308.987-.1.035-.2.068-.294.107A6.251,6.251,0,0,0,6.192,24Z" fill="#bd7038" fillRule="evenodd"/>
              <path d="M17.614,24.546l.532.011a.5.5,0,0,0-.026-.127.515.515,0,0,0-.1-.165.506.506,0,0,0-.156-.124,9.529,9.529,0,0,0,2.264.3c1.4.065,2.784.065,4.183.045,2.209-.043,4.8-.091,6.991-.353A78.526,78.526,0,0,0,44.5,20.957c-.313.225-.626.447-.933.663a70.534,70.534,0,0,1-12.17,3.008c-.178.024-.358.047-.542.068-4.193.04-8.307-.049-12.468-.134l.043-.028a4.21,4.21,0,0,1,.824-.327c.63-.184,1.27-.3,1.891-.482,4.907-1.438,9.768-1.788,14.836-2.182a15.66,15.66,0,0,0,3.358-.646,29.106,29.106,0,0,0,6.151-2.773c1.339-.763,2.642-1.536,3.989-2.28,0-.271-.006-.583-.017-.925A12.51,12.51,0,0,0,47,16.118c-1.624.886-3.283,1.793-4.894,2.7a14,14,0,0,1-5.9,2.046c-.091.01-.183.017-.274.025-5.189.418-9.92.794-14.964,2.287-.615.189-1.256.306-1.884.493a4.778,4.778,0,0,0-.935.381,1.779,1.779,0,0,0-.343.247A.934.934,0,0,0,17.614,24.546Z" fill="#bd7038" fillRule="evenodd"/>
              <path d="M47.6,18.605a7.26,7.26,0,0,0,1.807-1.8,5.552,5.552,0,0,0-.975.442,13.852,13.852,0,0,1-2.408,1.343c-2.635,1.2-5.919,2.8-8.594,3.717-.193.068-.39.132-.586.189-3.678,1.027-7.274.994-11.06,1.008-.256.015-.9.063-.179.166a33.481,33.481,0,0,0,11.4-.645,101.038,101.038,0,0,0,10.52-4.386Z" fill="#bd7038" fillRule="evenodd"/>
              <path d="M49.117,9.934c-.041-.407-.082-.779-.122-1.095-.549.325-1.064.686-1.359.873C45.65,10.9,43.6,12,41.633,13.186a22.182,22.182,0,0,1-2.944,1.657c-.741.245-1.481.486-2.226.719a44.781,44.781,0,0,1-10.24,2.353c-.119.018-10.923,1.316-6.189.276.638-.13,1.276-.257,1.916-.375a51.24,51.24,0,0,0,9.64-2.63c6.518-2.694,8.542-4.895,16.051-6.463.434-.081.867-.173,1.3-.27-.015-.1-.03-.2-.044-.277-.449.1-.89.184-1.314.255C40.325,9.758,37.9,12,31.4,14.7a61.922,61.922,0,0,1-11.473,2.942c-7.029,1.442,5.048,1.313,6.341.879,4.859-.435,8.045-1.615,12.615-3.027.14-.045.273-.095.409-.15a54.455,54.455,0,0,0,6.4-3.315C46.752,11.409,47.99,10.681,49.117,9.934Z" fill="#bd7038" fillRule="evenodd"/>
              <path d="M39.583,7.636a13.961,13.961,0,0,0-2.5,1.16,20.266,20.266,0,0,1-2.494,1.612,35.15,35.15,0,0,1-8.894,3.816,23.737,23.737,0,0,1-4.719.6,23.919,23.919,0,0,0-10.514,2.347c-.266.152-1.015.61-.133.256a26.341,26.341,0,0,1,10.665-2.079c6.293-.235,9.7-2.071,15.1-5.007.913-.477,1.9-.925,2.836-1.346.79-.361,1.577-.681,2.368-1.028.188-.095.613-.388.3-.6A2.455,2.455,0,0,0,39.583,7.636Z" fill="#bd7038" fillRule="evenodd"/>
              <path d="M6.339,7.157c-.476.332-.971.682-1.466,1.038a8.954,8.954,0,0,0,1.276-.049,26.694,26.694,0,0,0,3.125-.121c1.262-.236,2.548-.478,3.8-.752.421-.1.824-.206,1.24-.328a42.42,42.42,0,0,1,7.857-1.5A25.969,25.969,0,0,1,25.458,5.3c.4.009.781.029,1.177.06a7.262,7.262,0,0,1,3.234.881.744.744,0,0,1,.263.28.592.592,0,0,1,.059.336,1.113,1.113,0,0,1-.124.382,2.53,2.53,0,0,1-.284.419,10.059,10.059,0,0,1-2.3,1.83,15.535,15.535,0,0,1-5.621,2.3c-1.106-.007-2.478.142-3.62.2a1.25,1.25,0,0,0-.278.045c.055.711.428.516.013.317.026-.335-.044-.216.1-.191.923.128,2.726-.1,3.807-.043,1.795-.035,4.339-1.345,5.856-2.221a10.465,10.465,0,0,0,2.45-1.907,3.037,3.037,0,0,0,.348-.507,1.588,1.588,0,0,0,.182-.569,1.119,1.119,0,0,0-.112-.628A1.275,1.275,0,0,0,30.16,5.8a7.638,7.638,0,0,0-3.48-.985,27.09,27.09,0,0,0-4.557.057,42.9,42.9,0,0,0-7.984,1.444,20.386,20.386,0,0,1-3,.634c-1.269.116-2.464.137-3.739.163C7.052,7.123,6.7,7.136,6.339,7.157Z" fill="#bd7038" fillRule="evenodd"/>
              <path d="M41.5,4.723c-.294-.025-.656-.049-1.078-.073a19.1,19.1,0,0,1-2.548.8c-1.986.364-2.684.955-4.433,1.579-.847.272-.951.515-.649-.275,0-.008.012-.028.014-.034.216-.494.5-1,.736-1.5l.017-.041a5.457,5.457,0,0,0,.257-.741c-.337-.007-.679-.012-1.026-.018-.053.12-.107.239-.163.36a4.157,4.157,0,0,0-.335.827c-.04.278-.078.54-.133.817a6.966,6.966,0,0,0-.154.684,1.066,1.066,0,0,0-.017.18A.847.847,0,0,0,32,7.407a.535.535,0,0,0,.107.267.494.494,0,0,0,.244.164.96.96,0,0,0,.325.033,4.258,4.258,0,0,0,.951-.232c1.1-.407,2.092-1.052,3.163-1.367a9.644,9.644,0,0,1,1.186-.282A28.248,28.248,0,0,0,41.5,4.723Z" fill="#bd7038" fillRule="evenodd"/>
            </g>
            <path d="M9.684,4.926C8.417,5.667.251,11.218.046,12.335a52.009,52.009,0,0,0,.615,8.922c.28.708,4.929,2.785,6.767,3.04.319.044,1.4.084,2.981.119l3.048-1.343.089,1.4c6.787.1,13.325.343,20.143.174,1.063.007,5.11.082,6.1-.5,1.267-.741,9.433-6.293,9.639-7.41a52.1,52.1,0,0,0-.616-8.921c-.28-.708-4.929-2.785-6.767-3.04-.7-.1-2.461-.185-4.811-.254,0,.007,1.673,4.269,4.6,5.817s4.362,6.374-.592,10.517S21.524,23.392,19.663,23.5s-3.547-1.208-5.194-2.721S5.187,13.827,8.51,9.306,19.07,4.391,19.083,4.391c-4.955.064-8.875.229-9.4.535Zm9.4-.535Z" fill="#cc783d" fillRule="evenodd"/>
            <g opacity="0.83">
              <path d="M.3,18.539v.206l0,.029v.116l0,.019v.019l0,.019v.009l0,.019v.085l0,.028V19.1l0,.017v.037a10.841,10.841,0,0,0,1.866-.719c1.586-.647,3.22-1.261,4.787-1.935.706-.315,1.429-.63,2.163-.921q-.165-.229-.318-.465c-1.693.566-3.4,1.229-5.034,1.89-1.151.471-2.4.984-3.522,1.536ZM45.559,5.931l-.007,0-.007,0-.008,0-.007,0-.008,0-.007,0-.007,0-.008,0-.066-.028-.007,0-.008,0-.007,0-.007,0-.008,0-.007,0-.007,0-.008,0-.007,0-.008,0-.037-.016-.007,0-.007,0-.008,0-.007,0-.007,0-.008,0-.007,0-.008,0-.007,0-.007,0-.008,0-.007,0-.008,0-.007,0-.007,0-.023-.009-.007,0-.007,0-.008,0-.007,0-.008,0-.007,0-.007,0-.008,0-.007,0-.008,0-.007,0-.007,0-.008,0-.007,0c-1.491.2-2.934.488-4.187.752q-1.172.279-2.319.6c.065.1.132.2.2.3q1.093-.309,2.194-.586C42.481,6.45,44.015,6.131,45.559,5.931Z" fill="#ad632f" fillRule="evenodd"/>
              <path d="M.47,20.164v.1h0V20.5a6.216,6.216,0,0,1,1.7-.794,50.411,50.411,0,0,1,8.85-1.942c-.174-.174-.348-.352-.52-.535A47.534,47.534,0,0,0,2.077,19.36a6.482,6.482,0,0,0-1.607.8ZM48.514,7.493l-.056-.043-.006,0-.06-.044,0,0h0l-.005,0-.063-.045,0,0-.007,0L48.248,7.3l-.006,0,0,0-.068-.045-.021-.013L48.089,7.2l-.024-.015L48,7.146l-.029-.018-.059-.035L47.9,7.081l-.007,0h0l-.05-.03-.027-.015-.01-.006-.017-.01L47.754,7l-.028-.016L47.7,6.968h0l-.028-.015-.058-.033L47.584,6.9h0l-.029-.016-.03-.016-.03-.016-.025-.014,0,0-.03-.017L47.4,6.806l-.024-.013-.006,0-.031-.017-.031-.016L47.28,6.74l-.031-.016-.032-.017-.032-.016-.006,0-.056-.029h0l-.033-.017-.032-.017-.033-.016-.034-.017-.033-.017-.034-.016-.008,0-.025-.012-.034-.017-.034-.017a14.91,14.91,0,0,0-3.028.941c-1.179.587-2.321,1.187-3.5,1.754a7.893,7.893,0,0,0,.732.625c.215-.1.431-.192.647-.287a39.751,39.751,0,0,1,4.979-1.657c.654-.166,1.256-.292,1.862-.39Z" fill="#ad632f" fillRule="evenodd"/>
              <path d="M.005,12.844v.206c2.3-.739,5.042-1.891,6.469-2.439.573-.218,1.109-.418,1.615-.6q.1-.2.227-.408c-.6.224-1.251.47-1.951.741-1.992.788-4.2,1.78-6.356,2.5Zm.06,2.409v.029h0v.179h0v.44a12.754,12.754,0,0,0,1.966-.388c1.626-.378,3.39-.863,4.989-1.345.314-.1.665-.219.983-.295l.124-.03q-.123-.282-.218-.567l-.024,0c-1.33.267-2.636.634-3.945.993S1.392,14.992.065,15.253Z" fill="#ad632f" fillRule="evenodd"/>
              <path d="M0,13.618H0l0,.124q.3-.057.593-.107c2.4-.512,4.731-1.169,7.085-1.8,0-.074,0-.148,0-.223-2.366.646-4.7,1.33-7.117,1.884L0,13.618Zm.017.632c.733-.09,1.45-.192,2.185-.315,1.492-.244,2.956-.544,4.431-.866q.587-.138,1.17-.281c.021.093.047.186.074.279q-1.745.448-3.489.893a31.134,31.134,0,0,1-3.411.592,7.867,7.867,0,0,1-.945.1v-.065h0v-.14l0-.044V14.25Z" fill="#ad632f" fillRule="evenodd"/>
              <path d="M6.192,24,6.213,24l.02.006.06.018.02.006.02.006.019.006.02.006.04.011.019.006.02.006.019,0,.019.006.039.011.019,0,.019.005.019.006.019.005.037.01.019.005.018,0,.019,0,.018,0,.037.009.018.005.036.009.018,0,.039.009.032.008.018,0,.017,0h0l.03.007h0l.018,0,.051.012.016,0,.016,0,.077.016.018,0,.083.016h.008l.083.014c.16-.12.319-.236.479-.344a4.694,4.694,0,0,1,.784-.365c.722-.249,1.456-.373,2.182-.6.745-.242,1.49-.474,2.238-.706a12.41,12.41,0,0,1,2.436-.586l.035-.006c-.213-.175-.423-.358-.634-.546-.493.084-.986.176-1.478.279-.18.038-.364.084-.542.128-1.413.348-2.944.587-4.308.987-.1.035-.2.068-.294.107A6.251,6.251,0,0,0,6.192,24ZM49.2,10.878v-.041h0v-.169l0-.018v-.144c-.892.933-1.755,1.934-2.6,2.819A18.715,18.715,0,0,1,44.5,15.085c-.005.182-.019.367-.042.554a19.616,19.616,0,0,0,2.383-2.068C47.662,12.683,48.417,11.772,49.2,10.878Z" fill="#ad632f" fillRule="evenodd"/>
              <path d="M17.614,24.546h.041l.315.006.176,0a.5.5,0,0,0-.026-.127.515.515,0,0,0-.1-.165.506.506,0,0,0-.156-.124,9.529,9.529,0,0,0,2.264.3c1.4.065,2.784.065,4.183.045,2.209-.043,4.8-.091,6.991-.353A78.526,78.526,0,0,0,44.5,20.957l-.015.01-.015.011-.014.011-.015.01-.1.074-.014.01-.015.011-.015.01-.014.01-.015.011-.015.01-.014.011-.015.01-.014.011-.015.01-.015.011h0l-.012.009-.015.011-.015.01-.014.01-.015.011-.029.021-.015.01-.014.01-.015.011-.014.01L44,21.313l-.015.01-.014.01-.007.005-.008.006-.014.01-.015.01-.014.011-.015.01-.015.01-.014.011-.015.01-.029.02-.014.011-.015.01-.014.01-.015.011-.01.007,0,0-.015.01-.014.01-.015.01-.014.011-.015.01-.014.01-.015.01-.014.011-.015.01-.014.01-.014.01-.015.01-.014.01a70.534,70.534,0,0,1-12.17,3.008c-.178.024-.358.047-.542.068h-.2l-.143,0H26.939l-.2,0h-.2l-.194,0-.194,0h-.2l-.169,0h-.025l-.2,0h-.093l-.1,0-.2,0h-.018l-.176,0-.2,0-.194,0h-.06l-.134,0-.179,0h-.015l-.2,0-.1,0h-.091l-.194,0h-.027l-.167,0-.146,0h-.049l-.194,0h-.07l-.124,0-.188,0h-.006l-.2,0-.112,0h-.082l-.194,0h-.037l-.157,0-.155,0h-.04l-.194,0h-.079l-.115,0-.2,0h0l-.191,0-.122,0-.072,0-.2,0h-.046l-.148,0-.165,0h-.03l-.194,0-.089,0-.106,0-.2,0h-.013l-.181,0-.132,0h-.063l-.2,0h-.056l-.139,0-.174,0h-.021l-.2,0,.043-.028a4.21,4.21,0,0,1,.824-.327c.63-.184,1.27-.3,1.891-.482q.285-.084.568-.162c-.964-.044-1.67-.077-2.01-.061-.205.051-.409.1-.612.164a4.778,4.778,0,0,0-.935.381,1.779,1.779,0,0,0-.343.247.934.934,0,0,0-.194.252Zm31.86-8.7v-.28h0v-.14h0v-.268l0-.062V15.03l0-.095v-.016A12.51,12.51,0,0,0,47,16.118c-1.088.594-2.191,1.2-3.286,1.8a8.893,8.893,0,0,1-1.277,1.793c1.052-.49,2.075-1.043,3.046-1.589C46.824,17.361,48.127,16.588,49.474,15.844Z" fill="#ad632f" fillRule="evenodd"/>
              <path d="M47.6,18.606h0l.045-.037.09-.073.044-.037.015-.012.11-.092.006,0,.042-.036h0l.115-.1.009-.008.041-.035.08-.069.039-.034.039-.033.069-.061.007-.006.037-.033.01-.01.081-.072.059-.053.057-.053,0,0,.034-.031.032-.031.049-.046.058-.056.051-.049.058-.058.043-.044.064-.066.027-.028.06-.066.026-.028q.029-.034.057-.066l.019-.023c.018-.022.036-.043.052-.065l.014-.018c.017-.022.033-.044.048-.065l.009-.012c.014-.02.026-.04.038-.059l.01-.016.03-.054.006-.011c.008-.018.016-.036.022-.052a5.552,5.552,0,0,0-.975.442,13.852,13.852,0,0,1-2.408,1.343c-1.407.639-3,1.394-4.583,2.1-.067.058-.134.116-.2.174C38.165,23.433,31.3,23.786,26.1,23.711a33.08,33.08,0,0,0,10.907-.69,101.038,101.038,0,0,0,10.52-4.386Z" fill="#ad632f" fillRule="evenodd"/>
              <path d="M49.117,9.934l0-.019,0-.019,0-.019,0-.019,0-.019V9.8l0-.019,0-.018,0-.019,0-.019,0-.018,0-.018,0-.019,0-.036V9.618l0-.019,0-.018,0-.018,0-.018,0-.017,0-.018V9.5l0-.012,0-.018,0-.017,0-.018V9.422l0-.018,0-.017,0-.017,0-.015v0l0-.017,0-.017,0-.017,0-.017,0-.017,0-.016,0-.017V9.2l0-.017,0-.016,0-.017,0-.016,0-.016,0-.017,0-.016,0-.032,0-.016,0-.015,0-.016,0-.016,0-.015,0-.016,0-.015V8.938l0-.024V8.9l0-.015,0-.015,0-.015,0-.015c-.549.325-1.064.686-1.359.873-1.317.787-2.662,1.537-3.993,2.3a5.252,5.252,0,0,1,.476.915c.536-.3,1.061-.6,1.566-.892,1.067-.624,2.3-1.352,3.432-2.1Zm-.175-1.481c-.434.1-.867.189-1.3.27A36.139,36.139,0,0,0,41.9,10.377l-.063-.035c-.135-.072-.268-.149-.4-.231a33.716,33.716,0,0,1,6.147-1.68c.424-.071.865-.16,1.314-.255h0v.015l.012.068v0h0v0l.011.073V8.36h0v.032l.008.052v.009Z" fill="#ad632f" fillRule="evenodd"/>
              <path d="M39.094,7.824c.2.273.421.545.653.808.518-.223,1.035-.44,1.553-.667.188-.095.613-.388.3-.6a2.455,2.455,0,0,0-2.022.269c-.153.057-.317.12-.489.188ZM10.617,17.3l-.134-.143-.022.011c-.266.152-1.015.61-.133.256C10.425,17.383,10.521,17.341,10.617,17.3Z" fill="#ad632f" fillRule="evenodd"/>
              <path d="M6.339,7.157l0,0-.018.012-.023.016-.112.078-.022.016L6.137,7.3l0,0-.018.013-.022.016-.045.031-.023.016-.045.032-.023.016-.023.016-.006,0-.017.012-.022.016-.023.016-.023.016-.023.016L5.8,7.537l-.023.017-.022.016-.023.016-.008,0L5.705,7.6l-.023.016-.023.017-.023.016-.023.016-.023.016L5.567,7.7l-.023.016-.023.016-.008.006L5.5,7.749l-.023.016-.023.016L5.429,7.8l-.023.016-.046.033-.024.017-.023.016L5.3,7.887,5.29,7.9l-.023.016-.023.017-.023.016L5.2,7.963l-.024.016L5.151,8l-.023.016-.023.017-.046.033-.023.017L5.012,8.1l-.023.017-.023.017-.023.016-.023.017L4.9,8.179l-.012.008L4.873,8.2a8.954,8.954,0,0,0,1.276-.049,26.694,26.694,0,0,0,3.125-.121l.489-.091a10.61,10.61,0,0,1,1.275-.976c-1.233.108-2.4.128-3.64.154C7.052,7.123,6.7,7.136,6.339,7.157Z" fill="#ad632f" fillRule="evenodd"/>
              <path d="M37.676,5.49c.078.156.166.326.263.506l.036-.006A28.248,28.248,0,0,0,41.5,4.723c-.294-.025-.656-.049-1.078-.073a19.1,19.1,0,0,1-2.548.8Z" fill="#ad632f" fillRule="evenodd"/>
            </g>
            <polygon points="10.409 24.416 12.414 24.161 13.484 23.5 13.457 23.073 10.409 24.416" fill="#945426" fillRule="evenodd"/>
            <path d="M3.512,19.331c1.9-.339,6.554-1.313,6.908-.042s-5.39,2.5-7.616,1.743S2.562,19.448,3.512,19.331Z" fill="#a35823" fillRule="evenodd" opacity="0.89"/>
            <g opacity="0.89">
              <path d="M5.006,20.634c1.985-.144,3.748-.54,3.868-1.168.29-1.513-2.238-.66-3.167-.516C2.994,19.369,2.547,20.814,5.006,20.634Z" fill="#944d1b" fillRule="evenodd"/>
              <path d="M4.512,20.682c-.688-.016-1.116-.2-1.151-.5-.049-.43.755-1.02,2.341-1.265.156-.024.357-.068.588-.119.855-.189,2.025-.447,2.466-.017a.726.726,0,0,1,.152.693c-.165.858-3.026,1.132-3.9,1.2h0C4.831,20.682,4.665,20.686,4.512,20.682Zm3.5-2.067a7.856,7.856,0,0,0-1.7.249c-.233.051-.434.095-.593.12-1.487.23-2.329.785-2.283,1.189s.877.478,1.575.427H5c2.263-.165,3.733-.6,3.836-1.14a.661.661,0,0,0-.132-.631A1.03,1.03,0,0,0,8.009,18.615Z" fill="#944d1b"/>
            </g>
            <path d="M1.819,20.138a1.817,1.817,0,0,1,.9-.781,33.168,33.168,0,0,1,4.42-.822,5,5,0,0,1,3.065.443,8.215,8.215,0,0,0-4.447-.035C2.264,19.61,1.98,19.905,1.819,20.138Z" fill="#e08e53" fillRule="evenodd"/>
            <path d="M.057,12.241S.47,11.418,3.5,9.119A55.248,55.248,0,0,1,9.875,4.6c.628-.186,10.39-.407,17.331-.324s14.16.3,15.259.489,5.8,2.06,6.344,2.931S46.08,5.293,42.2,4.953,11.113,4.2,9.689,5.091A48.81,48.81,0,0,0,.057,12.241Z" fill="#facaa8" fillRule="evenodd"/>
            <path d="M.028,14.455s7.523-.883,11.552-.809,19.688.725,27.063.238S49.362,13,49.362,13l.023.38s-9.592,1.106-13.526,1.106-24.407-.629-25.7-.608-8.026.633-8.835.688-1.283.09-1.283.09Z" fill="#7a421a" fillRule="evenodd" opacity="0.75"/>
            <path d="M12.506,8.6c2.969-.906,19.81-2.466,21.705-1.431a27.119,27.119,0,0,1,6.049,5.056c1.432,1.647,3.853,7.31-4.421,8.728S16.028,18.242,14.07,16.424,8.312,9.6,12.506,8.6Z" fill="#de8f56" fillRule="evenodd" opacity="0.59"/>
          </g>
        </g>
        <g>
          <g>
            <rect x="13.233" y="13.441" width="6.089" height="0.195" rx="0.049" fill="#01894b"/>
            <rect x="29.05" y="13.441" width="6.089" height="0.195" rx="0.049" fill="#01894b"/>
          </g>
          <g>
            <path d="M23.712,13.435a.051.051,0,0,0-.051.051.051.051,0,0,0,.1,0A.051.051,0,0,0,23.712,13.435Z" fill="#bc9c54"/>
            <path d="M21.382,8.747c-.009.013-.018.025-.026.039a.327.327,0,0,0-.04.126.088.088,0,0,1,.073-.043.079.079,0,0,1,.072.044.117.117,0,0,0,.016.036.066.066,0,0,0,.037.016.39.39,0,0,0,.025-.159.673.673,0,0,0-.029-.16l-.047.026a.375.375,0,0,0-.044.035A.351.351,0,0,0,21.382,8.747Z" fill="#bc9c54"/>
            <path d="M21.4,8.648l-.006.028.016-.013.01-.008,0,0,0,0,.016-.01.02-.013.017-.009.009-.005.007,0h0l.019-.008.022-.011h0l.007.023,0,.011,0,.009v0l0,.019v0l.008.031,0,.009,0,.023v0l0,.021h0v.012l.007-.016,0-.005.007-.02,0-.017,0-.03a.292.292,0,0,0,0-.051.226.226,0,0,0,0-.026h0V8.562l0-.02L21.591,8.5V8.5l0-.014,0-.005h0l0-.015V8.459l0-.009h-.006l0,0,0,0-.009,0h0l0,0-.012.006a.28.28,0,0,0-.035.025l0,0-.02.018-.019.02-.006.007-.018.023a.324.324,0,0,0-.017.032l-.006.012c0,.01-.008.021-.011.031Z" fill="#bc9c54"/>
            <path d="M21.227,11.365l.018-.016.02-.018.02-.019.022-.02,0,0,.2-.188.041-.038.011-.01-.005,0-.024-.014a.467.467,0,0,0-.161-.056l-.025,0-.026,0h-.043l-.029,0a.347.347,0,0,0-.045.006H21.2l-.011,0-.012,0L21.15,11a.493.493,0,0,0-.127.06L21,11.07l-.022.016a.521.521,0,0,0-.124.152l-.014.029-.011.029a.476.476,0,0,0-.032.174.493.493,0,0,0,.044.2l.012.026.015.026a.495.495,0,0,0,.675.173l.029-.018.023-.018.021-.017.026-.024.022-.023.02-.024,0,0a.5.5,0,0,0,.1-.3v-.009a.493.493,0,0,0-.041-.188v0l-.2.188-.024.022L21.5,11.5h0l-.019.018-.02.018-.041.038a.032.032,0,0,1-.021.008.028.028,0,0,1-.022-.01.031.031,0,0,1,0-.044l.037-.033.019-.018.02-.018.036-.033.024-.023.025-.023.183-.168a.5.5,0,0,0-.1-.122l-.059.054-.035.032-.032.03-.159.146-.019.018-.02.018-.022.02a.029.029,0,0,1-.021.009.032.032,0,0,1-.022-.01.031.031,0,0,1,0-.044Z" fill="#bc9c54"/>
            <path d="M21.605,9.39l0,0,.028-.016,0,0,.043-.022a.811.811,0,0,0,.109-.43c0-.009,0-.019,0-.028l-.009.007-.007.005c-.017.013-.034.024-.05.035l-.011.007a.657.657,0,0,1-.06.035l.008,0A.07.07,0,0,1,21.68,9a.064.064,0,0,1,.008.019.128.128,0,0,1,0,.031.038.038,0,0,0,0,.01l0,.009a.064.064,0,0,0,.014.016l.008.007a.077.077,0,0,1,.025.073.074.074,0,0,1-.06.061h0l-.012.006a.043.043,0,0,0-.01.018.115.115,0,0,1-.019.033l0,0-.014.011L21.6,9.3l-.012,0h-.023a.072.072,0,0,1-.053-.039.055.055,0,0,0-.021-.019c-.024-.012-.035,0-.061,0a.092.092,0,0,1-.052-.017l-.011-.007a1.639,1.639,0,0,0-.026.287.226.226,0,0,1,.1-.081.3.3,0,0,0-.084.123.052.052,0,0,0-.029.017.132.132,0,0,1,.09,0l.006-.008A.594.594,0,0,1,21.605,9.39Z" fill="#bc9c54"/>
            <path d="M21.69,7.912a.328.328,0,0,0-.02-.031l-.006-.01,0,0A.411.411,0,0,0,21.586,8a.479.479,0,0,0-.024.092l.011.019c.01.019.02.037.029.056l0-.006a.216.216,0,0,1,.073-.138l.019-.014.018-.012v0l0-.011-.006-.014a.446.446,0,0,0-.022-.05Z" fill="#bc9c54"/>
            <path d="M21.713,7.871l0,.006a.527.527,0,0,1,.025.048l0-.007a.226.226,0,0,1,.025-.028.171.171,0,0,1,.026-.021l.028-.016a.2.2,0,0,0,0-.042.251.251,0,0,0,0-.027l-.006-.023-.007-.017-.019-.036A.229.229,0,0,0,21.713,7.871Z" fill="#bc9c54"/>
            <path d="M21.862,7.884l-.025.009a.211.211,0,0,0-.027.018.145.145,0,0,0-.022.021.148.148,0,0,0-.021.032l0,.006h0l.014,0,0,0,.025-.01h0l0,.01v0l0,.015v0h0l0,.01,0,.008,0,.006,0,.015v0l0,0A.191.191,0,0,0,21.849,8l.008-.016,0-.01.006-.023,0-.026a.133.133,0,0,0,0-.029l0-.009Z" fill="#bc9c54"/>
            <path d="M22.323,11.229l-.222-.07c0,.017,0,.035,0,.052a2.042,2.042,0,0,1-.174.624.36.36,0,0,1,.067.062A1.691,1.691,0,0,1,22.323,11.229Z" fill="#bc9c54"/>
            <path d="M23.263,13.332a.048.048,0,0,0-.062.033h0a.05.05,0,1,0,.063-.033Z" fill="#bc9c54"/>
            <path d="M22.822,13.151a.049.049,0,0,0-.067.022h0a.052.052,0,0,0,.022.069.049.049,0,0,0,.066-.023A.052.052,0,0,0,22.822,13.151Z" fill="#bc9c54"/>
            <path d="M21.756,12.232v0l.027.041.03.041.013.018.016.022h0l.019.024a3.638,3.638,0,0,0,.536.53l.079.065.038.03.009.007,0,0,.02.015,0,0,.015-.022.018-.027.008-.011.009-.013.042-.062,0,0-.024-.017-.007,0-.028-.02-.028-.021c-.064-.047-.126-.1-.185-.15l-.021-.02-.067-.063c-.032-.032-.063-.063-.092-.095l-.031-.034-.029-.033c-.028-.034-.055-.067-.078-.1l-.02-.028-.018-.027c-.01-.014-.018-.028-.026-.041l-.024-.045a.314.314,0,0,1-.023-.064l0-.013-.008,0-.008,0h0a.414.414,0,0,1-.084-.037l-.02-.014-.009-.006-.007-.006-.008-.006-.01-.008h0l-.008-.007,0,0h0l-.021-.021a.488.488,0,0,1-.072-.115l0-.012,0-.005-.006.006-.019.017-.023.017-.026.019-.016.014a.906.906,0,0,0,.066.073c.021.022.042.044.06.067l.016.022v0l.012.02,0,0,.006.013a.229.229,0,0,1,.008.028.127.127,0,0,1,0,.055Z" fill="#bc9c54"/>
            <path d="M21.98,7.921a.225.225,0,0,0-.036.006.166.166,0,0,0-.037.014l0,.023A.235.235,0,0,1,21.892,8a.211.211,0,0,1-.043.071.21.21,0,0,1,.061-.009.193.193,0,0,1,.033,0,.21.21,0,0,0,.091-.142.217.217,0,0,0-.036,0Z" fill="#bc9c54"/>
            <path d="M21.8,8.831l0,0a.443.443,0,0,0,.093-.216.332.332,0,0,0-.043,0,.521.521,0,0,0-.057.009l-.034.008a.405.405,0,0,0-.055.02l-.017.008a.414.414,0,0,0-.053.03v0l-.007.027-.007.024a.435.435,0,0,1-.032.065l-.012.019s0,.01,0,.015a.4.4,0,0,1-.028.135l.021-.008a.81.81,0,0,0,.181-.1Z" fill="#bc9c54"/>
            <path d="M21.865,7.776a.23.23,0,0,1,0,.064l.026-.006,0,.013.006.027a.126.126,0,0,1,0,.028l.015,0,.028-.007a.2.2,0,0,0,.024-.066.308.308,0,0,0,0-.09h0A.235.235,0,0,0,21.865,7.776Z" fill="#bc9c54"/>
            <path d="M21.721,9.727l-.047.026-.031.017-.082.046-.014.008a.616.616,0,0,0-.176.155l-.009.012a.888.888,0,0,0-.049.082l0,.008,0,.009a.438.438,0,0,1,.023.058l.008.023.006.024.009.038h0q.006.033.009.069a.685.685,0,0,1,.164-.17l0,0c.044-.032.089-.06.134-.087s.081-.049.119-.076a1.147,1.147,0,0,0,.029-.31.471.471,0,0,1-.056.044Z" fill="#bc9c54"/>
            <path d="M21.379,10.514a1.976,1.976,0,0,1,.147.144l.015.017.015.017c.015.017.055.068.069.086a1.3,1.3,0,0,0,.218-.789l-.022.016-.026.018-.028.019-.071.044a1.251,1.251,0,0,0-.163.109h0a.646.646,0,0,0-.16.2c-.008.015-.016.03-.024.047v0l-.014.033.005,0Z" fill="#bc9c54"/>
            <path d="M21.529,9.111h0l0,0a.029.029,0,0,0-.012.013v0a.069.069,0,0,0,0,.022v.011c0,.008,0,.016,0,.025a.1.1,0,0,1-.01.021h0a.053.053,0,0,1,.02.007h0c.028.017.027.048.054.048h.007L21.6,9.26a.031.031,0,0,0,.014-.016.122.122,0,0,1,.025-.043.076.076,0,0,1,.02-.013.111.111,0,0,0,.035-.014.028.028,0,0,0,.008-.018.062.062,0,0,0,0-.013.048.048,0,0,0-.024-.032.083.083,0,0,1-.02-.027.081.081,0,0,1-.005-.045.036.036,0,0,0-.006-.02.025.025,0,0,0-.012-.01l-.006,0-.012,0c-.018,0-.029.015-.05.022v.007a.17.17,0,0,1,0,.022.078.078,0,0,1-.007.023A.093.093,0,0,1,21.529,9.111Zm.053,0a.026.026,0,1,1-.025.026A.026.026,0,0,1,21.582,9.109Z" fill="#bc9c54"/>
            <path d="M21.27,9.176a.037.037,0,0,0,.029.012.139.139,0,0,0,.035-.009.068.068,0,0,1,.054.008c.014.008.029.022.047.018a.047.047,0,0,0,.034-.045.15.15,0,0,1,0-.042.076.076,0,0,1,.023-.033.091.091,0,0,0,.023-.021.04.04,0,0,0,0-.037c-.008-.02-.028-.024-.046-.031a.079.079,0,0,1-.043-.041.081.081,0,0,0-.016-.035.037.037,0,0,0-.033-.009.054.054,0,0,0-.035.026.085.085,0,0,1-.034.031.089.089,0,0,1-.036.007.044.044,0,0,0-.031.009.045.045,0,0,0-.013.04c0,.02.026.033.032.064a.121.121,0,0,1-.007.05A.04.04,0,0,0,21.27,9.176Zm.105-.147a.031.031,0,0,1,.03.031.031.031,0,0,1-.061,0A.031.031,0,0,1,21.375,9.029Z" fill="#bc9c54"/>
            <path d="M21.6,8.318l-.022.014a.209.209,0,0,0-.042.042.191.191,0,0,0-.035.068.624.624,0,0,1,.1-.048.806.806,0,0,1,.033.119.212.212,0,0,0,.02-.105.382.382,0,0,0-.02-.106l-.027.013Z" fill="#bc9c54"/>
            <path d="M21.969,8.135l.007-.027L21.949,8.1l-.013,0-.024,0h0a.159.159,0,0,0-.081.023v0l-.006.023a.231.231,0,0,1-.056.1l0,0,0,.027,0,.027a.406.406,0,0,1,.07-.009h.042l.021-.021A.361.361,0,0,0,21.969,8.135Z" fill="#bc9c54"/>
            <path d="M21.625,8.2l-.006.006.007.021.009.03.015-.006h0l0,0,.005,0,0,.016,0,.006,0,.014,0,.007V8.3l0,0,0,.021.017-.007.006,0a.131.131,0,0,0,.01-.032l0-.027h0V8.213l0-.02,0-.029h0l0-.022h0l-.007,0h0l-.019.008a.235.235,0,0,0-.04.027A.1.1,0,0,0,21.625,8.2Z" fill="#bc9c54"/>
            <path d="M21.662,8.628a.331.331,0,0,1,.052-.023.545.545,0,0,1,.062-.019.5.5,0,0,0,.106-.253h0l-.03,0h-.036l-.015,0a.348.348,0,0,0-.064.014h0l-.025.009h0l-.013.006v.02l0,.018v0a.081.081,0,0,1,0,.022h0v.021a.249.249,0,0,1-.05.127c0,.022,0,.043,0,.063Z" fill="#bc9c54"/>
            <path d="M21.753,8.02h0l-.009,0-.007,0h0l-.008,0-.01.008-.008.006-.018.017a.2.2,0,0,0-.031.054A.3.3,0,0,1,21.7,8.1h0l.02-.007h0l.017-.006h0v.005h0l0,.013,0,.02h0v.01l0,.015v.005l0,.011,0,.01v.006l.01-.018.006-.012,0-.012,0-.01,0-.008,0-.013h0l0-.014h0V8.057l0-.022v-.01l0-.009h0l0-.009,0,0-.006,0h0l-.015.007Z" fill="#bc9c54"/>
            <path d="M21.32,9.6a.088.088,0,0,0-.069-.023.083.083,0,0,0-.066.046.167.167,0,0,1,.115.121.174.174,0,0,1,.155-.1.086.086,0,0,0-.054-.055A.109.109,0,0,0,21.32,9.6Z" fill="#bc9c54"/>
            <path d="M20.941,11.043l.022-.016.021-.016a.556.556,0,0,1,.168-.076l.023-.006.017,0h0l.026,0,.03,0v-.193a.32.32,0,0,0-.041.007l-.011,0-.023.007-.022.008a.356.356,0,0,0-.215.2v0l0,.012-.013,0h0l-.026.009a.438.438,0,0,0-.266.258h.163A.567.567,0,0,1,20.941,11.043Z" fill="#bc9c54"/>
            <path d="M21.125,10.7l.021-.008.022-.007.051-.012a.344.344,0,0,1,.063-.006h.029v.251a.407.407,0,0,1,.061.005l.023,0,.023,0a.557.557,0,0,1,.144.055l.023.014.023.014a.537.537,0,0,1,.122.116.8.8,0,0,0-.074-.2l-.015-.026-.014-.026a1.279,1.279,0,0,0-.1-.134l-.015-.017-.015-.017a1.652,1.652,0,0,0-.156-.158l-.021-.017c-.028-.025-.056-.047-.082-.068-.046-.035-.09-.067-.133-.1a2.031,2.031,0,0,1-.2-.154c-.013-.012-.025-.025-.038-.038l-.019-.02,0,0-.016-.018c-.017-.021-.035-.043-.051-.067a1.354,1.354,0,0,0,.116.825A.43.43,0,0,1,21.125,10.7Z" fill="#bc9c54"/>
            <path d="M20.859,10.04c0,.02.008.039.013.058a.979.979,0,0,0,.135.131h0c.041.032.084.064.131.1s.071.05.108.079l.046.035c.01-.025.022-.049.033-.071a.714.714,0,0,0-.021-.171l0-.012a.6.6,0,0,0-.024-.068l-.015-.03a.555.555,0,0,0-.029-.048c-.011-.015-.022-.03-.034-.044l-.006-.006-.015-.016A.932.932,0,0,0,21.09,9.9c-.022-.016-.041-.033-.06-.048l-.009-.008c-.034-.029-.064-.057-.089-.081L20.9,9.727l-.013-.015L20.877,9.7l-.006-.007c-.013-.015-.024-.028-.033-.04a1.2,1.2,0,0,0,.017.37Z" fill="#bc9c54"/>
            <path d="M21.9,12.854a.03.03,0,0,1,.043,0,.029.029,0,0,1,0,.043l-.241.279a.485.485,0,0,0,.118.093l.242-.279a.029.029,0,0,1,.014-.008.03.03,0,0,1,.029.005l0,0a.032.032,0,0,1,0,.04l-.231.266,0,0a.486.486,0,0,0,.2.035.494.494,0,0,0,.355-.164l.02-.023.018-.025a.494.494,0,0,0,.03-.049c-.045-.035-.089-.07-.131-.105l-.074-.062-.07-.061a3.555,3.555,0,0,1-.378-.385l-.029-.036-.009-.011-.02.013a.515.515,0,0,0-.107.1.55.55,0,0,0-.051.075.449.449,0,0,0-.031.067.482.482,0,0,0-.031.157.281.281,0,0,0,0,.029h0l0,.028a.489.489,0,0,0,.092.249Z" fill="#bc9c54"/>
            <path d="M20.9,9.622l.007.044a1.289,1.289,0,0,0,.118.119l.011.009c.024.021.051.044.082.068a.956.956,0,0,1,.079.068l.007.007a.552.552,0,0,1,.081.1l0,0c.008-.015.017-.029.026-.043a.67.67,0,0,1,.052-.07l.012-.013a.711.711,0,0,1,.175-.134l.016-.009.056-.031c.037-.02.073-.039.107-.061a.616.616,0,0,0,.061-.341.5.5,0,0,1-.077.044l0,0-.033.017-.051.029h0l-.025.016a.547.547,0,0,0-.145.144.126.126,0,0,1,.041.09.17.17,0,0,0-.184.1c-.007.013-.018.043-.018.043l-.01-.043a.156.156,0,0,0-.125-.129l-.021,0a.138.138,0,0,1,.057-.083.261.261,0,0,0-.047-.052l-.063-.052-.011-.009,0-.005-.035-.029L21,9.388c-.012-.011-.023-.021-.033-.032s-.049-.058-.049-.058a1.156,1.156,0,0,0-.023.256C20.9,9.577,20.9,9.6,20.9,9.622Z" fill="#bc9c54"/>
            <path d="M21.667,12.447l.042-.038a.717.717,0,0,1,.063-.045l-.037-.052-.015-.022-.017.021a.616.616,0,0,1-.044.045,1.233,1.233,0,0,1-.236.168.657.657,0,0,0-.1.231l-.021.071.2-.006a.545.545,0,0,1,.113-.32C21.636,12.482,21.651,12.464,21.667,12.447Z" fill="#bc9c54"/>
            <path d="M21.075,9.4l.018.015.006.005c.025.02.05.04.075.062a.379.379,0,0,1,.061.068.111.111,0,0,1,.083.017.04.04,0,0,0-.027-.023.41.41,0,0,0-.082-.134.3.3,0,0,1,.1.1,1.739,1.739,0,0,1,.022-.288.07.07,0,0,0-.022.007c-.015.009-.026.025-.051.024a.09.09,0,0,1-.025,0l-.013,0h0a.048.048,0,0,0-.017.011.083.083,0,0,1-.054.024.1.1,0,0,1-.028-.005h0a.1.1,0,0,1-.02-.011.075.075,0,0,1-.028-.058l0-.017a.04.04,0,0,0-.015-.013.078.078,0,0,1-.042-.074.063.063,0,0,1,.008-.032.089.089,0,0,1,.017-.021.663.663,0,0,1-.019-.106.455.455,0,0,0-.026.383C21.014,9.347,21.049,9.377,21.075,9.4Z" fill="#bc9c54"/>
            <path d="M22.158,13.609l.217-.318a.55.55,0,0,1-.3.1h-.014a.549.549,0,0,1-.222-.047l-.2.235a3.11,3.11,0,0,0,.7.459,1.008,1.008,0,0,0-.175-.427Z" fill="#bc9c54"/>
            <path d="M21.076,9.026a.034.034,0,0,0,.007-.019.079.079,0,0,1,.057-.064.083.083,0,0,1,.022,0l.018,0a.051.051,0,0,1,.027.016l0,0a.073.073,0,0,1,.062-.028.314.314,0,0,1,0-.045.793.793,0,0,1-.118-.331.5.5,0,0,0-.087.471Z" fill="#bc9c54"/>
            <path d="M21.169,8.982h-.007l-.011,0c-.036.01-.02.04-.043.069a.065.065,0,0,1-.025.018l-.019.01-.007.009a.03.03,0,0,0,0,.015.043.043,0,0,0,0,.017.036.036,0,0,0,.014.016.115.115,0,0,1,.034.03.045.045,0,0,1,.007.018l0,.018a.033.033,0,0,0,.017.032l0,0,.015,0c.022,0,.03-.025.06-.033h.014l.019,0h0a.079.079,0,0,1-.02-.088.037.037,0,0,0,0-.022.045.045,0,0,0-.012-.024.089.089,0,0,1-.02-.064V9C21.185,8.994,21.179,8.985,21.169,8.982Zm.032.129a.026.026,0,0,1-.051,0,.026.026,0,1,1,.051,0Z" fill="#bc9c54"/>
            <path d="M21.4,12.478c.044-.025.083-.049.118-.073l.041-.03a.655.655,0,0,0,.135-.133h0l0-.013a.093.093,0,0,0,0-.047.1.1,0,0,0-.012-.029.167.167,0,0,0-.016-.024.827.827,0,0,0-.061-.067.854.854,0,0,1-.078-.09.54.54,0,0,1-.231.052.554.554,0,0,1-.49-.3,1.35,1.35,0,0,0-.272.039c.43.24.437.564.857.709Z" fill="#bc9c54"/>
            <path d="M22.389,13.993l.174-.163c-.1-.047-.2-.1-.291-.152A.95.95,0,0,1,22.389,13.993Z" fill="#bc9c54"/>
            <path d="M24.186,11.822h0l-.58.185a.589.589,0,0,0,.134.011.723.723,0,0,0,.231-.042.607.607,0,0,1,.212-.035h.006a.607.607,0,0,1,.212.035.723.723,0,0,0,.231.042.589.589,0,0,0,.134-.011l-.58-.185Z" fill="#bc9c54"/>
            <path d="M22.958,11.655a3.628,3.628,0,0,1,.043.481l1.094-.35L22.93,11.42C22.937,11.5,22.947,11.574,22.958,11.655Z" fill="#bc9c54"/>
            <path d="M22.583,12.776l.031.022.054.039a.82.82,0,0,0,.21-.307l.018-.053a.892.892,0,0,0,.028-.116c0-.016.006-.032.008-.049s.007-.061.009-.092v-.066a7.441,7.441,0,0,0-.073-.753l0-.033,0-.033c0-.036,0-.071,0-.105a1.114,1.114,0,0,0-.089.075l-.025.025-.014.014-.011.01h0l-.055.058a1.926,1.926,0,0,1,.041.5,1.242,1.242,0,0,1-.2.587l-.017.025-.017.025c-.018.027-.038.053-.059.08.044.039.09.078.138.116Z" fill="#bc9c54"/>
            <path d="M22.114,12.313l.024.031h0l.025.032.028.032a2.328,2.328,0,0,0,.178.186c.023-.03.045-.059.064-.088l.017-.024.015-.025a1.176,1.176,0,0,0,.184-.546,1.731,1.731,0,0,0-.031-.445l-.007-.038-.006-.035-.015-.081-.006-.034-.005-.034a1.529,1.529,0,0,1-.016-.159.761.761,0,0,0-.134.112l-.023.025-.023.025a1.693,1.693,0,0,0-.381.875.558.558,0,0,0,.088.159Z" fill="#bc9c54"/>
            <path d="M21.858,11.859l0,0-.029-.012-.029-.01a.274.274,0,0,0-.063-.009h-.021v.006l.005.013a.352.352,0,0,0,.018.04.4.4,0,0,0,.031.052.365.365,0,0,0,.024.031l.021.022,0,0,0,0,.017.014.011.008a.3.3,0,0,0,.089.043l.01,0h.006V12.06L21.961,12a.346.346,0,0,1,.006-.041A.268.268,0,0,0,21.858,11.859Z" fill="#bc9c54"/>
            <path d="M21.848,11.47a.553.553,0,0,1-.092.3.323.323,0,0,1,.053.008l.03.01.028.011.008,0h0a1.966,1.966,0,0,0,.167-.6c0-.021,0-.043,0-.064v-.095c0-.092-.011-.182-.02-.271-.007-.071-.013-.139-.016-.2l-.038.028a1.125,1.125,0,0,0-.285.281.845.845,0,0,1,.112.371A.545.545,0,0,1,21.848,11.47Z" fill="#bc9c54"/>
            <path d="M21.549,8.149l-.013-.023L21.523,8.1l0-.007c0-.006-.017-.032-.021-.038a.425.425,0,0,0-.112.276l.011.02c.007.015.014.031.02.048a.519.519,0,0,1,.026.089l.015-.014a.242.242,0,0,1,.063-.146l.016-.015,0,0,.019-.015h0l.023-.015.014-.008-.005-.02-.009-.029-.01-.025c-.006-.014-.012-.028-.019-.042Z" fill="#bc9c54"/>
            <path d="M21.231,8.691l.015.036.02.045.02.04,0,.01v0h0l0-.008L21.3,8.8l0-.013,0,0,0-.006a.4.4,0,0,1,.033-.053l0-.032a.326.326,0,0,1,.02-.087l.013-.03.015-.026.014-.02a.462.462,0,0,0-.017-.073c0-.014-.008-.027-.013-.04L21.374,8.4l-.013-.028a1.445,1.445,0,0,0-.081-.137.54.54,0,0,0-.069.382A.448.448,0,0,0,21.231,8.691Z" fill="#bc9c54"/>
            <path d="M21.753,7.567a3.445,3.445,0,0,1,1.067-.926,2.841,2.841,0,0,1,1.357-.35H24.2a2.841,2.841,0,0,1,1.357.35,3.445,3.445,0,0,1,1.067.926,3.963,3.963,0,0,1,.42.677l.027-.039a4.077,4.077,0,0,0-.407-.669,3.4,3.4,0,0,0-1.079-.947A2.877,2.877,0,0,0,24.2,6.225h-.018a2.88,2.88,0,0,0-1.385.364,3.4,3.4,0,0,0-1.079.947,4.077,4.077,0,0,0-.407.669l.027.039A3.963,3.963,0,0,1,21.753,7.567Z" fill="#bc9c54"/>
            <path d="M21.885,10.1a1.593,1.593,0,0,1-.018.2l.627.158a2,2,0,0,0-.088.43l.13-.055a1.69,1.69,0,0,1,1.641-1.523H24.2a1.69,1.69,0,0,1,1.64,1.523l.13.055a2,2,0,0,0-.088-.43l.627-.158a1.593,1.593,0,0,1-.018-.2l-.663.216a1.893,1.893,0,0,0-.264-.454l.994-.767a1.067,1.067,0,0,1-.015-.256l-1.061.927a1.824,1.824,0,0,0-.373-.313L26.04,7.92c.035.043.072.085.105.129a3.436,3.436,0,0,1,.312.521H26.5a3.529,3.529,0,0,0-.316-.55c-.036-.051-.077-.1-.116-.147-.012-.014-.022-.029-.034-.044a2.733,2.733,0,0,0-.71-.606,2.258,2.258,0,0,0-1.13-.313h-.019a2.259,2.259,0,0,0-1.131.313,2.733,2.733,0,0,0-.71.606c-.012.015-.022.03-.034.044-.039.049-.079.1-.115.147a3.456,3.456,0,0,0-.317.55h.045a3.442,3.442,0,0,1,.313-.521c.032-.044.069-.086.1-.129l.935,1.537a1.824,1.824,0,0,0-.373.313l-1.061-.927a1.067,1.067,0,0,1-.015.256l.994.767a1.893,1.893,0,0,0-.264.454ZM25.3,7.274a2.589,2.589,0,0,1,.464.343c.051.047.1.1.146.149l-.919,1.623a1.726,1.726,0,0,0-.443-.16l.449-2.1A2.275,2.275,0,0,1,25.3,7.274Zm-1.119-.3H24.2a2.1,2.1,0,0,1,.595.085l-.376,2.148a1.764,1.764,0,0,0-.219-.015h-.019a1.767,1.767,0,0,0-.22.015L23.581,7.06A2.11,2.11,0,0,1,24.177,6.975Zm-1.711.791c.048-.051.095-.1.146-.149a2.589,2.589,0,0,1,.464-.343,2.275,2.275,0,0,1,.3-.145l.449,2.1a1.705,1.705,0,0,0-.442.16Z" fill="#bc9c54"/>
            <path d="M23.607,13.88a.051.051,0,1,0,.051-.051A.051.051,0,0,0,23.607,13.88Z" fill="#bc9c54"/>
            <path d="M23.074,13.761a.05.05,0,0,0,.05.05.05.05,0,0,0,.051-.05.051.051,0,0,0-.051-.051A.05.05,0,0,0,23.074,13.761Z" fill="#bc9c54"/>
            <path d="M22.564,13.55a.051.051,0,1,0,.1,0,.051.051,0,0,0-.1,0Z" fill="#bc9c54"/>
            <path d="M27.051,8.88a.311.311,0,0,0-.061-.133.342.342,0,0,0-.122-.1l-.006,0a.551.551,0,0,0-.026.235.361.361,0,0,0,.015.065l0,.01.005.009h0l.017-.007A.04.04,0,0,0,26.9,8.95a.042.042,0,0,0,.009-.019.119.119,0,0,1,.021-.038A.079.079,0,0,1,27,8.871a.093.093,0,0,1,.055.04h0Z" fill="#bc9c54"/>
            <path d="M26.973,8.641c0-.01-.007-.021-.012-.031L26.955,8.6a.324.324,0,0,0-.017-.032l-.018-.023-.006-.007-.019-.02-.02-.018,0,0a.28.28,0,0,0-.035-.025l-.012-.006,0,0h0l-.008,0,0,0,0,0H26.8l0,.009v.005l0,.015h0l0,.005,0,.014V8.5l-.008.039,0,.02v.027h0a.226.226,0,0,0,0,.026.292.292,0,0,0,0,.051l0,.03,0,.017.007.02,0,.005.007.016V8.743h0l0-.021v0l0-.023,0-.009.008-.031v0l0-.019v0l0-.009,0-.011.007-.023h0l.022.011.019.008h0l.007,0,.01.005.016.009.021.013.015.01,0,0,0,0,.01.008.016.013-.006-.028Z" fill="#bc9c54"/>
            <path d="M26.828,11.9a.495.495,0,0,0,.675-.173l.015-.026.012-.026a.493.493,0,0,0,.044-.2.476.476,0,0,0-.032-.174l-.011-.029-.014-.029a.506.506,0,0,0-.124-.152l-.021-.016-.023-.015a.493.493,0,0,0-.127-.06l-.023-.006-.012,0-.011,0h-.011a.347.347,0,0,0-.045-.006l-.029,0h-.043l-.026,0-.025,0a.467.467,0,0,0-.161.056l-.024.014-.005,0,.011.01.041.038.2.188,0,0,.023.02.019.019.02.018.018.016h0a.031.031,0,0,1,0,.044.032.032,0,0,1-.022.01.029.029,0,0,1-.021-.009l-.022-.02-.02-.018-.019-.018-.159-.146-.032-.03-.035-.032-.059-.054a.5.5,0,0,0-.1.122l.183.168.025.023.024.023.036.033.02.018.02.018L27,11.53a.031.031,0,0,1,0,.044.028.028,0,0,1-.022.01.032.032,0,0,1-.021-.008l-.041-.038-.02-.018-.019-.018h0l-.024-.022-.024-.022-.2-.188v0a.493.493,0,0,0-.041.188v.009a.489.489,0,0,0,.1.3l0,0,.02.024.022.023.026.024.021.017.023.018Z" fill="#bc9c54"/>
            <path d="M27.015,9.55a.3.3,0,0,0-.084-.123.226.226,0,0,1,.1.081,1.639,1.639,0,0,0-.026-.287L27,9.228a.092.092,0,0,1-.052.017c-.026,0-.037-.009-.061,0a.064.064,0,0,0-.021.019.072.072,0,0,1-.053.039h-.023l-.012,0L26.754,9.3l-.014-.011,0,0a.115.115,0,0,1-.019-.033.034.034,0,0,0-.01-.018L26.7,9.225h0a.074.074,0,0,1-.06-.061.077.077,0,0,1,.025-.073l.008-.007a.064.064,0,0,0,.014-.016l0-.009v-.01a.087.087,0,0,1,0-.031A.064.064,0,0,1,26.692,9a.07.07,0,0,1,.014-.016l.008,0a.657.657,0,0,1-.06-.035l-.011-.007c-.016-.011-.033-.022-.05-.035L26.587,8.9l-.01-.007c0,.009,0,.019,0,.028a.811.811,0,0,0,.109.43l.043.022,0,0,.028.016,0,0a.594.594,0,0,1,.181.168l.006.008a.132.132,0,0,1,.09,0A.052.052,0,0,0,27.015,9.55Z" fill="#bc9c54"/>
            <path d="M26.711,7.868l0,0-.006.01a.328.328,0,0,0-.02.031l0,0a.446.446,0,0,0-.022.05l-.005.014,0,.011v0l.017.012.019.014a.216.216,0,0,1,.073.138l0,.006c.009-.019.019-.037.029-.056l.011-.019A.479.479,0,0,0,26.786,8,.408.408,0,0,0,26.711,7.868Z" fill="#bc9c54"/>
            <path d="M26.58,7.708l-.018.036-.008.017-.006.023a.251.251,0,0,0,0,.027.2.2,0,0,0,0,.042l.028.016a.171.171,0,0,1,.026.021.226.226,0,0,1,.025.028l0,.007a.527.527,0,0,1,.025-.048l0-.006A.229.229,0,0,0,26.58,7.708Z" fill="#bc9c54"/>
            <path d="M26.584,7.932a.145.145,0,0,0-.022-.021.211.211,0,0,0-.027-.018l-.025-.009h0v.009a.128.128,0,0,0,0,.029l0,.026.006.023,0,.01L26.523,8a.191.191,0,0,0,.016.027l0,0v0l0-.015V8l0-.008,0-.01h0v0l0-.015v0l0-.01h0l.025.01,0,0,.014,0h0l0-.006A.148.148,0,0,0,26.584,7.932Z" fill="#bc9c54"/>
            <path d="M26.45,11.835a2.042,2.042,0,0,1-.174-.624c0-.017,0-.035,0-.052l-.222.07a1.691,1.691,0,0,1,.335.668A.325.325,0,0,1,26.45,11.835Z" fill="#bc9c54"/>
            <path d="M25.579,13.144a.05.05,0,0,0-.05.051.05.05,0,0,0,.05.05.05.05,0,0,0,.051-.05A.051.051,0,0,0,25.579,13.144Z" fill="#bc9c54"/>
            <path d="M26.626,12.148l.006-.013,0,0,.012-.02v0l.016-.022a.754.754,0,0,1,.061-.067c.022-.024.045-.047.065-.073l-.016-.014-.026-.019-.023-.017-.019-.017-.006-.006,0,.005,0,.012a.458.458,0,0,1-.072.115l-.021.021h0l0,0-.008.007h0l-.01.008-.008.006-.007.006-.009.006-.02.014a.414.414,0,0,1-.084.037h0l-.007,0-.009,0,0,.013a.314.314,0,0,1-.023.064l-.024.045-.025.041-.019.027-.02.028q-.035.048-.078.1l-.029.033-.031.034c-.029.032-.06.063-.092.095l-.067.063-.021.02c-.059.052-.121.1-.185.15l-.028.021-.028.02-.007,0-.024.017,0,0,.042.062.009.013.008.011.018.027.015.022,0,0,.02-.015,0,0,.009-.007.038-.03.079-.065a3.638,3.638,0,0,0,.536-.53l.019-.024h0l.016-.022.013-.018.03-.041.027-.041v0h0a.127.127,0,0,1,0-.055A.229.229,0,0,1,26.626,12.148Z" fill="#bc9c54"/>
            <path d="M26.338,7.922a.21.21,0,0,0,.091.142.193.193,0,0,1,.033,0,.21.21,0,0,1,.061.009A.211.211,0,0,1,26.48,8a.23.23,0,0,1-.01-.035l0-.023a.166.166,0,0,0-.037-.014.208.208,0,0,0-.036-.006h-.018A.223.223,0,0,0,26.338,7.922Z" fill="#bc9c54"/>
            <path d="M26.793,8.829,26.78,8.81a.435.435,0,0,1-.032-.065l-.007-.024-.007-.027v0a.414.414,0,0,0-.053-.03l-.017-.008a.362.362,0,0,0-.055-.02l-.033-.008a.54.54,0,0,0-.058-.009.325.325,0,0,0-.042,0,.423.423,0,0,0,.093.216l0,0c.016.014.032.026.048.038a.786.786,0,0,0,.18.1l.021.008a.4.4,0,0,1-.028-.135Z" fill="#bc9c54"/>
            <path d="M26.392,7.734a.308.308,0,0,0,0,.09.184.184,0,0,0,.025.066l.027.007.015,0a.236.236,0,0,1,0-.028l.006-.027,0-.013.026.006a.2.2,0,0,1,0-.064.242.242,0,0,0-.116-.042Z" fill="#bc9c54"/>
            <path d="M27.063,10.081l0-.008a.711.711,0,0,0-.049-.082L27,9.979a.616.616,0,0,0-.176-.155l-.014-.008-.082-.046L26.7,9.753l-.047-.026L26.61,9.7a.471.471,0,0,1-.056-.044,1.147,1.147,0,0,0,.029.31c.038.027.078.052.119.076s.09.055.134.087l0,0A.685.685,0,0,1,27,10.3q0-.036.009-.069h0l.008-.038.006-.024.008-.023a.438.438,0,0,1,.023-.058Z" fill="#bc9c54"/>
            <path d="M26.816,10.692l.015-.017.015-.017a1.976,1.976,0,0,1,.147-.144l.041-.035.005,0-.014-.033v0c-.008-.017-.016-.032-.024-.047a.632.632,0,0,0-.16-.2h0a1.251,1.251,0,0,0-.163-.109l-.071-.044-.028-.019-.026-.018-.022-.016a1.3,1.3,0,0,0,.218.789C26.761,10.76,26.8,10.709,26.816,10.692Z" fill="#bc9c54"/>
            <path d="M26.7,9.111a.048.048,0,0,0-.024.032.062.062,0,0,0,0,.013.024.024,0,0,0,.009.018.1.1,0,0,0,.034.014.063.063,0,0,1,.02.013.108.108,0,0,1,.025.043.036.036,0,0,0,.014.016l.015.005H26.8c.027,0,.026-.031.054-.048h0a.053.053,0,0,1,.02-.007h0a.1.1,0,0,1-.01-.021c0-.009,0-.017,0-.025V9.153a.049.049,0,0,0,0-.022v0a.029.029,0,0,0-.012-.013l0,0h0a.093.093,0,0,1-.03-.034.056.056,0,0,1-.006-.023.081.081,0,0,1,0-.022V9.025C26.787,9.018,26.776,9,26.758,9l-.012,0-.006,0a.031.031,0,0,0-.012.01.029.029,0,0,0-.005.02.105.105,0,0,1,0,.045A.1.1,0,0,1,26.7,9.111Zm.093,0a.026.026,0,1,1-.025.026A.026.026,0,0,1,26.79,9.109Z" fill="#bc9c54"/>
            <path d="M27.135,9a.045.045,0,0,0-.035-.022.1.1,0,0,1-.049-.011.163.163,0,0,1-.036-.038.04.04,0,0,0-.035-.016c-.02,0-.029.018-.036.034a.085.085,0,0,1-.038.047c-.015.008-.034.01-.046.023a.042.042,0,0,0,.007.064.1.1,0,0,1,.03.035.2.2,0,0,1,.007.054.04.04,0,0,0,.06.032A.172.172,0,0,1,27,9.181a.082.082,0,0,1,.044,0,.1.1,0,0,0,.041.008.039.039,0,0,0,.033-.042.218.218,0,0,1-.008-.057C27.112,9.058,27.152,9.031,27.135,9ZM27,9.09a.03.03,0,0,1-.03-.03.031.031,0,1,1,.061,0A.03.03,0,0,1,27,9.09Z" fill="#bc9c54"/>
            <path d="M26.768,8.318l.022.014a.209.209,0,0,1,.042.042.191.191,0,0,1,.035.068.624.624,0,0,0-.1-.048,1.159,1.159,0,0,0-.033.119.212.212,0,0,1-.02-.105.382.382,0,0,1,.02-.106l.027.013Z" fill="#bc9c54"/>
            <path d="M26.525,8.29h.024a.406.406,0,0,1,.07.009l0-.027,0-.027,0,0a.231.231,0,0,1-.056-.1l-.006-.023v0a.156.156,0,0,0-.081-.023h0l-.024,0-.013,0-.027.007.007.027a.361.361,0,0,0,.083.135l.021.021Z" fill="#bc9c54"/>
            <path d="M26.726,8.179a.235.235,0,0,0-.04-.027l-.019-.008h0l-.007,0h0l0,.022h0l0,.029,0,.02v.014l0,.027h0l0,.027a.2.2,0,0,0,.01.032l.006,0,.017.007,0-.021,0,0v0l0-.006,0-.007,0-.014,0-.006,0-.016.005,0,0,0h0l.015.006.009-.03.007-.021L26.747,8.2A.1.1,0,0,0,26.726,8.179Z" fill="#bc9c54"/>
            <path d="M26.658,8.605a.331.331,0,0,1,.052.023l.017.01c0-.02,0-.041,0-.063a.249.249,0,0,1-.05-.127V8.427h0a.162.162,0,0,1,0-.022v0l0-.018v-.02l-.013-.006h0l-.025-.009h0a.378.378,0,0,0-.065-.014l-.015,0h-.036l-.03,0h0a.5.5,0,0,0,.106.253A.489.489,0,0,1,26.658,8.605Z" fill="#bc9c54"/>
            <path d="M26.665,8.05l-.008-.006-.01-.008-.008,0h0l-.007,0-.009,0h0L26.6,8.012h0l-.006,0,0,0,0,.009h0l0,.009v.01l0,.022V8.1h0l0,.014h0l0,.013,0,.008,0,.01,0,.012.006.012.01.018V8.168l0-.011V8.152l0-.015v-.01h0l0-.02,0-.013h0V8.087h0l.017.006h0l.02.007h0a.245.245,0,0,1,.038.018.2.2,0,0,0-.031-.054Z" fill="#bc9c54"/>
            <path d="M26.917,9.647a.174.174,0,0,1,.155.1.167.167,0,0,1,.115-.121.083.083,0,0,0-.066-.046.088.088,0,0,0-.069.023.109.109,0,0,0-.081-.01A.086.086,0,0,0,26.917,9.647Z" fill="#bc9c54"/>
            <path d="M27.452,10.973h0l-.013,0,0-.012v0a.361.361,0,0,0-.216-.2l-.022-.008-.023-.007-.011,0a.32.32,0,0,0-.041-.007v.193l.03,0,.025,0h0l.018,0,.022.006a.556.556,0,0,1,.168.076l.021.016.022.016a.567.567,0,0,1,.15.2h.163a.438.438,0,0,0-.266-.258Z" fill="#bc9c54"/>
            <path d="M27.52,10.156l0,0-.019.02c-.013.013-.025.026-.038.038a1.916,1.916,0,0,1-.2.154c-.043.031-.087.063-.132.1-.027.021-.055.043-.083.068l-.02.017a1.667,1.667,0,0,0-.157.158l-.015.017-.015.017a1.279,1.279,0,0,0-.1.134l-.014.026-.015.026a.8.8,0,0,0-.074.2.559.559,0,0,1,.122-.116L26.788,11l.023-.014a.557.557,0,0,1,.144-.055l.023,0,.023,0a.407.407,0,0,1,.061-.005v-.251h.029a.344.344,0,0,1,.063.006l.051.012.022.007.021.008a.43.43,0,0,1,.224.2,1.347,1.347,0,0,0,.116-.825c-.016.024-.034.046-.051.067Z" fill="#bc9c54"/>
            <path d="M27.44,9.76c-.025.024-.055.052-.089.081l-.009.008c-.018.015-.038.032-.06.048a.932.932,0,0,0-.089.079l-.015.016L27.172,10c-.012.014-.023.029-.034.044a.555.555,0,0,0-.029.048l-.015.03a.6.6,0,0,0-.024.068l0,.012a.714.714,0,0,0-.021.171c.011.022.023.046.034.071l.045-.035c.038-.029.074-.055.108-.079s.09-.066.131-.1h0A.979.979,0,0,0,27.5,10.1c0-.019.009-.038.014-.058l0-.017a1.2,1.2,0,0,0,.017-.37l-.032.04L27.5,9.7l-.01.012-.013.015Z" fill="#bc9c54"/>
            <path d="M26.805,12.818a.481.481,0,0,0-.03-.157.586.586,0,0,0-.032-.067.55.55,0,0,0-.051-.075.515.515,0,0,0-.107-.1l-.02-.013-.009.011-.029.036a3.555,3.555,0,0,1-.378.385l-.07.061-.074.062c-.042.035-.086.07-.131.105a.494.494,0,0,0,.03.049l.018.025.021.023a.492.492,0,0,0,.354.164.486.486,0,0,0,.2-.035l0,0-.231-.266a.03.03,0,0,1,0-.04l0,0a.03.03,0,0,1,.029-.005.029.029,0,0,1,.014.008l.242.279a.485.485,0,0,0,.118-.093l-.241-.279a.03.03,0,1,1,.046-.04l.235.271a.489.489,0,0,0,.092-.249l0-.028h0A.281.281,0,0,0,26.805,12.818Z" fill="#bc9c54"/>
            <path d="M27.373,9.388l-.034.029-.035.029,0,.005-.011.009-.063.052a.261.261,0,0,0-.047.052.138.138,0,0,1,.057.083l-.021,0a.156.156,0,0,0-.125.129l-.01.043s-.011-.03-.018-.043a.17.17,0,0,0-.184-.1.126.126,0,0,1,.041-.09.547.547,0,0,0-.145-.144l-.025-.016h0L26.7,9.4l-.033-.017,0,0a.5.5,0,0,1-.077-.044.605.605,0,0,0,.062.341c.033.022.069.041.106.061l.057.031.016.009A.726.726,0,0,1,27,9.908l.012.013a.67.67,0,0,1,.052.07c.009.014.018.028.026.043l0,0a.552.552,0,0,1,.081-.1l.008-.007a.712.712,0,0,1,.079-.068l.082-.068.01-.009a1.289,1.289,0,0,0,.118-.119l.007-.044c0-.023,0-.045.006-.068a1.156,1.156,0,0,0-.023-.256s-.043.052-.049.058S27.385,9.377,27.373,9.388Z" fill="#bc9c54"/>
            <path d="M26.949,12.524a1.233,1.233,0,0,1-.236-.168.616.616,0,0,1-.044-.045l-.017-.021-.015.022-.037.052a.717.717,0,0,1,.063.045.514.514,0,0,1,.042.038c.016.017.031.035.046.053a.551.551,0,0,1,.112.32l.2.006-.021-.071A.657.657,0,0,0,26.949,12.524Z" fill="#bc9c54"/>
            <path d="M27.352,9.07a.063.063,0,0,1,.008.032.078.078,0,0,1-.042.074.04.04,0,0,0-.015.013l0,.017a.075.075,0,0,1-.028.058.1.1,0,0,1-.02.011h0a.1.1,0,0,1-.027.005.083.083,0,0,1-.055-.024.048.048,0,0,0-.017-.011h0l-.013,0a.09.09,0,0,1-.025,0c-.025,0-.036-.015-.051-.024a.07.07,0,0,0-.022-.007,1.739,1.739,0,0,1,.022.288.309.309,0,0,1,.1-.1.41.41,0,0,0-.082.134.04.04,0,0,0-.027.023.111.111,0,0,1,.083-.017.379.379,0,0,1,.061-.068c.025-.022.05-.042.075-.062l.006-.005L27.3,9.4c.026-.022.061-.052.083-.073a.455.455,0,0,0-.026-.383.663.663,0,0,1-.019.106A.089.089,0,0,1,27.352,9.07Z" fill="#bc9c54"/>
            <path d="M26.31,13.389H26.3a.55.55,0,0,1-.3-.1l.217.318h0a1.008,1.008,0,0,0-.175.427,3.11,3.11,0,0,0,.7-.459l-.2-.235A.549.549,0,0,1,26.31,13.389Z" fill="#bc9c54"/>
            <path d="M27.1,8.934a.073.073,0,0,1,.062.028l0,0a.056.056,0,0,1,.027-.016l.018,0,.023,0a.079.079,0,0,1,.056.064.044.044,0,0,0,.007.019l0,0a.5.5,0,0,0-.087-.471.777.777,0,0,1-.118.331A.314.314,0,0,1,27.1,8.934Z" fill="#bc9c54"/>
            <path d="M27.129,9.207l.019,0h.014c.03.008.038.033.061.033l.014,0,0,0a.033.033,0,0,0,.017-.032l0-.018a.045.045,0,0,1,.007-.018.115.115,0,0,1,.034-.03.036.036,0,0,0,.014-.016.043.043,0,0,0,0-.017.03.03,0,0,0,0-.015l-.007-.009-.019-.01a.065.065,0,0,1-.025-.018c-.023-.029-.007-.059-.043-.069l-.011,0H27.2c-.01,0-.016.012-.024.022v0a.089.089,0,0,1-.02.064.045.045,0,0,0-.012.024.048.048,0,0,0,0,.022.079.079,0,0,1-.02.088Zm.068-.122a.026.026,0,1,1-.026.026A.026.026,0,0,1,27.2,9.085Z" fill="#bc9c54"/>
            <path d="M27.568,11.727a.554.554,0,0,1-.49.3.543.543,0,0,1-.231-.052.854.854,0,0,1-.078.09c-.024.025-.045.047-.061.067l-.016.024a.138.138,0,0,0-.012.029.083.083,0,0,0,0,.047l0,.013h0a.638.638,0,0,0,.136.133l.04.03c.035.024.074.048.118.073l.006,0c.42-.145.427-.469.857-.709A1.34,1.34,0,0,0,27.568,11.727Z" fill="#bc9c54"/>
            <path d="M25.809,13.83l.175.163a.95.95,0,0,1,.116-.315C26.005,13.733,25.908,13.783,25.809,13.83Z" fill="#bc9c54"/>
            <path d="M24.277,11.786l1.095.35a3.467,3.467,0,0,1,.042-.481c.011-.081.021-.159.028-.235Z" fill="#bc9c54"/>
            <path d="M25.789,12.776l.033-.026c.048-.038.094-.077.138-.116-.021-.027-.04-.053-.059-.08l-.017-.025-.017-.025a1.253,1.253,0,0,1-.2-.587,1.926,1.926,0,0,1,.041-.5l-.055-.058h0l-.01-.01-.014-.014-.026-.025a.96.96,0,0,0-.089-.075c0,.034,0,.069,0,.105l0,.033,0,.033c-.021.242-.076.5-.073.753v.066c0,.031,0,.062.009.092s0,.033.008.049a.892.892,0,0,0,.028.116c.006.018.012.036.019.053a.805.805,0,0,0,.209.307l.054-.039Z" fill="#bc9c54"/>
            <path d="M26.18,12.409l.028-.032.026-.032h0l.025-.031.022-.031a.534.534,0,0,0,.088-.159,1.693,1.693,0,0,0-.381-.875l-.023-.025-.023-.025a.761.761,0,0,0-.134-.112,1.529,1.529,0,0,1-.016.159l-.005.034-.006.034-.014.081-.007.035-.007.038a1.731,1.731,0,0,0-.031.445,1.176,1.176,0,0,0,.184.546l.015.025.017.024c.02.029.041.058.064.088A2.328,2.328,0,0,0,26.18,12.409Z" fill="#bc9c54"/>
            <path d="M26.418,12.06v.008h.006l.01,0a.3.3,0,0,0,.089-.043l.011-.008L26.552,12l0,0,0,0,.021-.022a.365.365,0,0,0,.024-.031.4.4,0,0,0,.031-.052.352.352,0,0,0,.018-.04l.005-.013v0l0,0h-.022a.258.258,0,0,0-.062.009l-.03.01-.029.012,0,0a.275.275,0,0,0-.109.1.346.346,0,0,1,.006.041Z" fill="#bc9c54"/>
            <path d="M26.681,10.881A1.125,1.125,0,0,0,26.4,10.6l-.038-.028c0,.065-.009.133-.016.2-.009.089-.018.179-.019.271,0,.01,0,.021,0,.031v.064c0,.021,0,.043,0,.064a1.994,1.994,0,0,0,.167.6h0l.008,0,.029-.011.029-.01a.323.323,0,0,1,.053-.008.553.553,0,0,1-.092-.3.545.545,0,0,1,.045-.218A.858.858,0,0,1,26.681,10.881Z" fill="#bc9c54"/>
            <path d="M26.986,8.335a.425.425,0,0,0-.112-.276c0,.006-.017.032-.021.038l0,.007-.013.022-.012.023-.006.01c-.007.014-.013.028-.019.042l-.009.025-.01.029-.005.02.014.008.023.015h0l.019.015,0,0,.016.015a.242.242,0,0,1,.063.146l.015.014a.628.628,0,0,1,.026-.089.348.348,0,0,1,.021-.048Z" fill="#bc9c54"/>
            <path d="M27,8.4l-.005.014c0,.013-.009.026-.013.04a.462.462,0,0,0-.017.073l.014.02.015.026.013.03a.326.326,0,0,1,.02.087l0,.032a.4.4,0,0,1,.033.053l0,.006,0,0,0,.013.006.016,0,.008h0l0,0,0-.01.02-.04.021-.045.014-.036a.448.448,0,0,0,.02-.069.54.54,0,0,0-.069-.382,1.445,1.445,0,0,0-.081.137Z" fill="#bc9c54"/>
            <path d="M25.683,13.233c.045-.025.1-.056.143-.083l-.019-.028L25.79,13.1l-.018-.025-.007-.011-.018-.026-.018-.026-.054-.079-.006-.009-.025.015h0a2.849,2.849,0,0,1-.339.164l-.075.029A2.976,2.976,0,0,1,24.2,13.3h-.036a2.976,2.976,0,0,1-1.024-.169l-.075-.029a2.764,2.764,0,0,1-.338-.164h0L22.7,12.92l-.006.009-.054.079-.018.026-.018.026-.007.011-.017.025-.018.026-.019.028c.044.027.1.059.149.084A.073.073,0,0,0,22.7,13.2c0-.029-.024-.035-.011-.061s.031-.013.054-.027h0a.055.055,0,0,0,.02-.024.031.031,0,0,1,.027-.018c.028,0,.026.022.051.035s.043,0,.058.021a.029.029,0,0,1,.006.018.243.243,0,0,1-.009.03.035.035,0,0,0,0,.015c0,.029.024.036.011.062s-.032.012-.055.028a.058.058,0,0,0-.021.024,2.834,2.834,0,0,0,.318.131.069.069,0,0,0,0-.033c-.006-.028-.03-.031-.021-.059s.03-.017.051-.036a.116.116,0,0,0,.011-.016.079.079,0,0,1,.015-.027l.013-.006c.028-.007.029.018.056.026s.042-.01.061.011a.029.029,0,0,1,.008.023.147.147,0,0,0,0,.032v.008c.006.029.03.032.021.06s-.03.016-.051.036a.087.087,0,0,0-.016.027,3.251,3.251,0,0,0,.328.075.078.078,0,0,0,0-.033c-.01-.027-.034-.027-.03-.055a.034.034,0,0,1,.006-.017c.008-.009.02-.01.032-.02l.006-.008a.044.044,0,0,0,.01-.019c0-.015,0-.028.022-.035s.031.013.059.017.04-.017.062,0,0,.034.015.061a.054.054,0,0,0,.018.025.032.032,0,0,1,.012.031l0,.006c0,.014-.015.017-.026.023a.107.107,0,0,0-.017.015.068.068,0,0,0-.012.03c.062.007.124.013.187.018l.1.005h.052l0-.02,0-.012c-.014-.026-.037-.021-.037-.051s.024-.024.038-.05,0-.044.023-.058.033,0,.057.007h0c.024,0,.034-.021.057-.007s.009.033.023.058.038.021.038.05-.023.025-.037.051l0,.012,0,.02h.052l.1-.005c.063-.005.125-.011.187-.018a.068.068,0,0,0-.012-.03.076.076,0,0,0-.017-.015c-.011-.006-.021-.009-.026-.023V13.5a.032.032,0,0,1,.011-.031.063.063,0,0,0,.019-.025c.01-.027-.008-.043.014-.061s.034,0,.062,0,.033-.028.059-.017.018.02.022.035a.044.044,0,0,0,.01.019l.006.008c.012.01.024.011.032.02a.034.034,0,0,1,.006.017c0,.028-.019.028-.03.055a.078.078,0,0,0,0,.033,3.19,3.19,0,0,0,.328-.075.071.071,0,0,0-.016-.027c-.021-.02-.042-.008-.051-.036s.015-.031.021-.06V13.35a.147.147,0,0,0,0-.032.029.029,0,0,1,.008-.023c.019-.021.034,0,.061-.011s.028-.033.056-.026l.013.006a.079.079,0,0,1,.015.027.116.116,0,0,0,.011.016c.021.019.043.008.051.036s-.015.031-.021.059a.069.069,0,0,0,0,.033,2.84,2.84,0,0,0,.323-.132.073.073,0,0,0-.02-.025c-.024-.016-.043,0-.056-.028s.01-.033.012-.062a.077.077,0,0,0,0-.015.233.233,0,0,1-.009-.029.03.03,0,0,1,.006-.019c.015-.024.033-.007.058-.02s.023-.037.051-.035a.029.029,0,0,1,.027.018.059.059,0,0,0,.02.023h0c.023.014.041,0,.053.027s-.01.033-.011.062A.061.061,0,0,0,25.683,13.233Zm-2.621,0v0a.026.026,0,0,1-.031.017.028.028,0,0,1-.019-.033h0l0,0a.025.025,0,0,1,.031-.016A.027.027,0,0,1,23.062,13.237Zm.458.138,0,.01a.026.026,0,0,1-.046-.018v-.006h0a.027.027,0,0,1,.02-.019.019.019,0,0,1,.013,0,.023.023,0,0,1,.014.01A.031.031,0,0,1,23.52,13.375Zm.462.064a.027.027,0,0,1-.033.019.027.027,0,0,1-.018-.033h0a.025.025,0,0,1,.032-.019A.028.028,0,0,1,23.982,13.439Zm.441.019a.026.026,0,0,1-.032-.019.026.026,0,1,1,.051-.014h0A.028.028,0,0,1,24.423,13.458Zm.461-.064a.026.026,0,0,1-.027-.009l0-.01a.031.031,0,0,1,0-.023.023.023,0,0,1,.015-.01.017.017,0,0,1,.012,0,.027.027,0,0,1,.02.019h0v.006A.026.026,0,0,1,24.884,13.394Zm.458-.138a.026.026,0,0,1-.031-.017v0a.027.027,0,0,1,.018-.033.025.025,0,0,1,.031.016l0,0h0A.027.027,0,0,1,25.342,13.256Z" fill="#bc9c54"/>
            <path d="M25.869,13.213l-.008-.012a3.031,3.031,0,0,1-.5.25l-.032.013a3.244,3.244,0,0,1-1.091.2h-.1a3.244,3.244,0,0,1-1.091-.2l-.032-.013a3.031,3.031,0,0,1-.5-.25l-.008.012-.054.079a3.078,3.078,0,0,0,.446.229l.031.013.032.013a3.364,3.364,0,0,0,1.219.227H24.2a3.364,3.364,0,0,0,1.219-.227l.032-.013.032-.013a3.12,3.12,0,0,0,.445-.229Z" fill="#bc9c54"/>
            <path d="M24.185,14.019c-.029,0-.037.022-.062.008s-.008-.034-.022-.059-.038-.021-.038-.051.024-.024.038-.049a.082.082,0,0,0,.009-.033,3.643,3.643,0,0,1-.365-.027.089.089,0,0,0,0,.035c.011.027.035.026.031.055s-.027.021-.044.044,0,.044-.032.055-.031-.013-.059-.017-.039.017-.062,0,0-.034-.015-.061-.034-.027-.03-.055.026-.022.044-.045a.064.064,0,0,0,.012-.032,3.308,3.308,0,0,1-.373-.085.074.074,0,0,0,0,.034c.006.029.03.032.021.06s-.029.017-.05.036-.012.043-.039.049-.029-.018-.056-.026-.042.011-.061-.01,0-.035-.006-.064-.03-.031-.021-.059.03-.017.05-.036a.075.075,0,0,0,.018-.03c-.056-.019-.112-.04-.167-.062l-.031-.013-.031-.013c-.053-.023-.073-.03-.125-.056a.094.094,0,0,0-.008.033c0,.029.024.037.011.062s-.032.012-.056.027-.019.04-.047.042-.025-.023-.051-.036-.042,0-.058-.022.007-.034.006-.063-.024-.036-.011-.062.032-.011.056-.027a.073.073,0,0,0,.022-.026c-.046-.025-.125-.068-.17-.1l-.169.248a4.035,4.035,0,0,0,.367.194l.03.013.031.014a3.693,3.693,0,0,0,1.485.317h.057a3.692,3.692,0,0,0,1.484-.317l.031-.014.03-.013a3.907,3.907,0,0,0,.367-.194l-.169-.248c-.045.028-.128.075-.175.1a.085.085,0,0,0,.022.026c.024.015.043,0,.056.027s-.009.033-.011.062.021.038.006.063-.033.008-.058.021-.022.038-.05.036-.024-.025-.048-.041-.042,0-.056-.027.01-.033.011-.062a.068.068,0,0,0-.008-.034c-.052.026-.067.029-.12.052l-.031.013-.031.013c-.055.022-.111.043-.166.062a.062.062,0,0,0,.017.03c.021.019.042.008.05.036s-.015.031-.021.059.013.042-.006.064-.034,0-.061.01-.028.033-.056.026-.018-.029-.039-.049-.042-.008-.05-.036.015-.031.021-.06a.074.074,0,0,0,0-.034,3.308,3.308,0,0,1-.373.085.064.064,0,0,0,.012.032c.018.023.04.016.044.045s-.02.028-.03.055.007.043-.015.061-.034,0-.062,0-.033.028-.059.017-.014-.032-.031-.055-.041-.015-.045-.044.02-.028.031-.055a.089.089,0,0,0,0-.035,3.623,3.623,0,0,1-.364.027.066.066,0,0,0,.008.033c.014.025.037.02.038.049s-.024.025-.037.051,0,.044-.023.059-.033-.009-.062-.008Zm-1.324-.293a.026.026,0,0,1-.032.019.027.027,0,0,1-.019-.033h0a.026.026,0,0,1,.02-.018h.013A.027.027,0,0,1,22.861,13.726Zm.538.176a.026.026,0,0,1-.032.019.027.027,0,0,1-.019-.033h0a.026.026,0,1,1,.051.014Zm.547.088a.026.026,0,1,1-.051-.014h0a.026.026,0,0,1,.032-.019A.028.028,0,0,1,23.946,13.99Zm.519.02a.026.026,0,0,1-.032-.019.026.026,0,1,1,.051-.014h0A.028.028,0,0,1,24.465,14.01Zm.543-.09a.026.026,0,0,1-.032-.019.027.027,0,0,1,.018-.033.027.027,0,0,1,.033.019h0A.026.026,0,0,1,25.008,13.92Zm.528-.171a.027.027,0,0,1-.033-.019.027.027,0,0,1,.019-.033h.012a.027.027,0,0,1,.02.019h0A.026.026,0,0,1,25.536,13.749Z" fill="#bc9c54"/>
            <path d="M25.369,12.2a1,1,0,0,0-.494,0,.945.945,0,0,1-.237.024.8.8,0,0,1-.247-.044.578.578,0,0,0-.2-.033h-.006a.571.571,0,0,0-.2.033.813.813,0,0,1-.248.044A.945.945,0,0,1,23.5,12.2a1,1,0,0,0-.494,0h0c0,.033,0,.065-.008.1a1.166,1.166,0,0,1,.484.006,1,1,0,0,0,.237.024.884.884,0,0,0,.246-.042.659.659,0,0,1,.224-.035h.008a.655.655,0,0,1,.224.035.884.884,0,0,0,.246.042,1.012,1.012,0,0,0,.238-.024,1.161,1.161,0,0,1,.483-.006c0-.033-.006-.065-.008-.1Z" fill="#bc9c54"/>
            <path d="M24.65,12.064h-.021a.8.8,0,0,1-.242-.045.571.571,0,0,0-.2-.032h-.006a.576.576,0,0,0-.2.032.8.8,0,0,1-.242.045h-.021a1.262,1.262,0,0,1-.208-.027l-.263.084a1.264,1.264,0,0,1,.254.03.972.972,0,0,0,.227.023.789.789,0,0,0,.236-.042.6.6,0,0,1,.214-.035h.008a.608.608,0,0,1,.215.035.773.773,0,0,0,.235.042.972.972,0,0,0,.227-.023,1.273,1.273,0,0,1,.254-.03l-.263-.084A1.262,1.262,0,0,1,24.65,12.064Z" fill="#bc9c54"/>
            <path d="M24.906,12.654a.9.9,0,0,1-.248.028.8.8,0,0,1-.259-.051.535.535,0,0,0-.21-.037h-.006a.535.535,0,0,0-.21.037.792.792,0,0,1-.259.051.9.9,0,0,1-.248-.028.96.96,0,0,0-.6.035.8.8,0,0,1-.1.133,1.6,1.6,0,0,1,.683-.058,1.134,1.134,0,0,0,.246.024.9.9,0,0,0,.256-.043.718.718,0,0,1,.234-.035h.006a.718.718,0,0,1,.234.035.905.905,0,0,0,.256.043,1.149,1.149,0,0,0,.247-.024,1.6,1.6,0,0,1,.682.058.8.8,0,0,1-.1-.133A.96.96,0,0,0,24.906,12.654Z" fill="#bc9c54"/>
            <path d="M25.625,12.874a1.537,1.537,0,0,0-.692-.066,1.152,1.152,0,0,1-.256.025.966.966,0,0,1-.267-.044.666.666,0,0,0-.221-.033h-.006a.666.666,0,0,0-.221.033.966.966,0,0,1-.267.044,1.152,1.152,0,0,1-.256-.025,1.537,1.537,0,0,0-.692.066q.078.045.156.084a1.039,1.039,0,0,1,.6-.033.974.974,0,0,0,.227.024.765.765,0,0,0,.235-.043.639.639,0,0,1,.216-.035h.006a.634.634,0,0,1,.216.035.765.765,0,0,0,.235.043.974.974,0,0,0,.227-.024,1.039,1.039,0,0,1,.6.033Q25.547,12.919,25.625,12.874Z" fill="#bc9c54"/>
            <path d="M24.6,13.158a.752.752,0,0,1-.228-.04.564.564,0,0,0-.186-.029h-.006a.564.564,0,0,0-.186.029.752.752,0,0,1-.228.04.9.9,0,0,1-.22-.022,1.148,1.148,0,0,0-.262-.025,3.017,3.017,0,0,0,.882.125H24.2a3.017,3.017,0,0,0,.882-.125,1.148,1.148,0,0,0-.262.025A.9.9,0,0,1,24.6,13.158Z" fill="#bc9c54"/>
            <path d="M25.41,12.986a1,1,0,0,0-.535-.017.989.989,0,0,1-.237.025.8.8,0,0,1-.247-.045.588.588,0,0,0-.2-.032h-.006a.576.576,0,0,0-.2.032.8.8,0,0,1-.248.045.994.994,0,0,1-.237-.025,1,1,0,0,0-.535.017,2.292,2.292,0,0,0,.219.09,1.046,1.046,0,0,1,.376.016.873.873,0,0,0,.209.021.738.738,0,0,0,.218-.038.593.593,0,0,1,.2-.031h.006a.593.593,0,0,1,.2.031.738.738,0,0,0,.218.038.873.873,0,0,0,.209-.021,1.047,1.047,0,0,1,.376-.016A2.292,2.292,0,0,0,25.41,12.986Z" fill="#bc9c54"/>
            <path d="M24.658,12.374a.913.913,0,0,1-.258-.044.625.625,0,0,0-.211-.033h-.006a.625.625,0,0,0-.211.033.913.913,0,0,1-.258.044,1.02,1.02,0,0,1-.247-.024,1.112,1.112,0,0,0-.482,0,1.046,1.046,0,0,1-.024.114,1.142,1.142,0,0,1,.514,0,1,1,0,0,0,.237.024.884.884,0,0,0,.246-.042.662.662,0,0,1,.225-.035h.006a.662.662,0,0,1,.225.035.884.884,0,0,0,.246.042,1.012,1.012,0,0,0,.238-.024,1.137,1.137,0,0,1,.513,0,1.046,1.046,0,0,1-.024-.114,1.107,1.107,0,0,0-.481,0A1.033,1.033,0,0,1,24.658,12.374Z" fill="#bc9c54"/>
            <path d="M24.906,12.505a1.028,1.028,0,0,1-.248.024.913.913,0,0,1-.258-.044.625.625,0,0,0-.211-.033h-.006a.625.625,0,0,0-.211.033.913.913,0,0,1-.258.044,1.02,1.02,0,0,1-.247-.024,1.089,1.089,0,0,0-.521.006,1.089,1.089,0,0,1-.049.118.993.993,0,0,1,.578-.019.905.905,0,0,0,.236.027.765.765,0,0,0,.246-.048.572.572,0,0,1,.226-.041h.006a.572.572,0,0,1,.226.041.765.765,0,0,0,.246.048.905.905,0,0,0,.236-.027.993.993,0,0,1,.578.019.913.913,0,0,1-.048-.118A1.089,1.089,0,0,0,24.906,12.505Z" fill="#bc9c54"/>
            <path d="M25.453,11.23v-.113l.091.066a1.381,1.381,0,0,1,.118.1l.025.024.024.025.006.006v-.008l.006-.035.006-.034a1.3,1.3,0,0,0,.019-.18l0-.1.086.055a.935.935,0,0,1,.165.141l.265-.083v0l-.425-.181h0l-.112-.047-.106.071-.467-.29-.077.082-.9-.921h0l-.9.921-.077-.082-.466.29-.107-.071-.112.047h0l-.425.181v0l.265.083a.935.935,0,0,1,.165-.141l.087-.055,0,.1a1.3,1.3,0,0,0,.019.18l.006.034.006.035,0,.008,0-.006.024-.025.025-.024a1.381,1.381,0,0,1,.118-.1l.092-.066v.113c0,.04,0,.081,0,.123l1.262.4h0l1.262-.4C25.451,11.311,25.453,11.27,25.453,11.23Z" fill="#bc9c54"/>
            <path d="M25.536,6.743a2.764,2.764,0,0,0-1.33-.355h-.04a2.764,2.764,0,0,0-1.33.355,3.273,3.273,0,0,0-1.026.908l.027.049.01-.013A3.3,3.3,0,0,1,22.865,6.8a2.71,2.71,0,0,1,1.3-.341h.04a2.71,2.71,0,0,1,1.3.341,3.3,3.3,0,0,1,1.018.892l.01.013.027-.049A3.273,3.273,0,0,0,25.536,6.743Z" fill="#bc9c54"/>
            <path d="M25.457,6.9a2.583,2.583,0,0,0-1.265-.34H24.18a2.583,2.583,0,0,0-1.265.34,3.081,3.081,0,0,0-.9.779.236.236,0,0,1,.006.077,3.087,3.087,0,0,1,.922-.8,2.517,2.517,0,0,1,1.236-.326h.013a2.516,2.516,0,0,1,1.235.326,3.087,3.087,0,0,1,.922.8.236.236,0,0,1,.006-.077A3.068,3.068,0,0,0,25.457,6.9Z" fill="#bc9c54"/>
            <path d="M25.392,7.062a2.4,2.4,0,0,0-1.2-.327h-.02a2.4,2.4,0,0,0-1.2.327,2.908,2.908,0,0,0-.9.82.261.261,0,0,1-.033.131l.062-.085a3,3,0,0,1,.905-.814A2.355,2.355,0,0,1,24.176,6.8h.02a2.355,2.355,0,0,1,1.166.313,2.984,2.984,0,0,1,.905.814l.062.085a.261.261,0,0,1-.033-.131A2.908,2.908,0,0,0,25.392,7.062Z" fill="#bc9c54"/>
            <path d="M24.186,13.469a.051.051,0,0,0-.051.051.051.051,0,0,0,.1,0A.051.051,0,0,0,24.186,13.469Z" fill="#bc9c54"/>
            <path d="M24.66,13.435a.051.051,0,0,0-.051.051.051.051,0,0,0,.1,0A.05.05,0,0,0,24.66,13.435Z" fill="#bc9c54"/>
            <path d="M25.127,13.329a.051.051,0,1,0,.051.051A.051.051,0,0,0,25.127,13.329Z" fill="#bc9c54"/>
            <path d="M25.753,13.608a.051.051,0,1,0-.051-.051A.051.051,0,0,0,25.753,13.608Z" fill="#bc9c54"/>
            <path d="M25.2,13.758a.05.05,0,0,0,.05.051.051.051,0,0,0,0-.1A.05.05,0,0,0,25.2,13.758Z" fill="#bc9c54"/>
            <path d="M24.664,13.88a.05.05,0,0,0,.05.051.051.051,0,0,0,0-.1A.05.05,0,0,0,24.664,13.88Z" fill="#bc9c54"/>
            <path d="M24.135,13.918a.05.05,0,0,0,.05.051.051.051,0,0,0,0-.1A.05.05,0,0,0,24.135,13.918Z" fill="#bc9c54"/>
          </g>
          <g>
            <g>
              <path d="M8.441,17.971H8.9v.084l-.152.031.064,1.232.152.031v.084h-.6v-.084l.148-.031-.039-.992.01-.158H8.476a1.36,1.36,0,0,1-.062.255l-.289.8c-.039.11-.082.152-.191.152l-.331-1a1.224,1.224,0,0,1-.053-.205H7.539l.006.158-.047.992.152.031v.084H7.215v-.084l.152-.031.063-1.232-.152-.031v-.084h.463l.281.862a.785.785,0,0,1,.054.206h.008a.959.959,0,0,1,.057-.2Z"/>
              <path d="M9.848,18.8l-.008,0-.368.467v.053l.105.041v.078H9.07v-.078l.133-.041V18.56l-.133-.041v-.078h.507v.078l-.105.041v.514l.007,0,.369-.468v-.05l-.106-.041v-.078h.5v.078l-.126.041v.754l.126.041v.078h-.5v-.078l.106-.041Z"/>
              <path d="M11.106,18.854V18.56L11,18.519v-.078h.5v.078l-.127.041v.754l.127.041v.078H11v-.078l.105-.041v-.345H10.76v.345l.105.041v.078h-.507v-.078l.133-.041V18.56l-.133-.041v-.078h.507v.078l-.105.041v.294Z"/>
              <path d="M12.394,18.8l-.007,0-.369.467v.053l.106.041v.078h-.507v-.078l.132-.041V18.56l-.132-.041v-.078h.507v.078l-.106.041v.514l.008,0,.368-.468v-.05l-.105-.041v-.078h.5v.078l-.127.041v.754l.127.041v.078h-.5v-.078l.105-.041Z"/>
              <path d="M13.76,18.593a.209.209,0,0,1-.056.136l-.086.014-.078-.175a.226.226,0,0,0-.13-.041c-.156,0-.222.142-.222.411,0,.2.079.382.265.382a.579.579,0,0,0,.268-.068l.045.064a.533.533,0,0,1-.354.136.467.467,0,0,1-.509-.516.461.461,0,0,1,.5-.515C13.644,18.421,13.76,18.49,13.76,18.593Z"/>
              <path d="M14.83,18.441l.022.3-.084.017-.088-.169a.53.53,0,0,0-.187-.039v.76l.17.041v.078h-.61v-.078l.171-.041v-.76a.536.536,0,0,0-.189.039l-.088.169-.081-.017.019-.3Z"/>
              <path d="M15.4,18.421a.405.405,0,0,1,.456.466v.074l-.01.01h-.635c0,.208.08.349.312.349a.578.578,0,0,0,.253-.07l.039.066a.531.531,0,0,1-.388.136.462.462,0,0,1-.5-.516A.456.456,0,0,1,15.4,18.421Zm-.189.433h.382c0-.22-.054-.321-.191-.321S15.208,18.644,15.208,18.854Z"/>
              <path d="M16.348,19.38H16.34c0,.049.008.166.008.259v.1l.138.041v.078h-.539v-.078l.132-.041V18.56l-.128-.045.015-.074.292-.018.061.115h.008a.348.348,0,0,1,.267-.117c.265,0,.391.186.391.515s-.16.516-.44.516A.3.3,0,0,1,16.348,19.38Zm.351-.444c0-.234-.037-.378-.2-.378a.245.245,0,0,0-.148.054v.665a.312.312,0,0,0,.144.039C16.658,19.316,16.7,19.168,16.7,18.936Z"/>
              <path d="M17.983,18.593a.211.211,0,0,1-.057.136l-.085.014-.078-.175a.231.231,0,0,0-.131-.041c-.156,0-.222.142-.222.411,0,.2.08.382.265.382a.586.586,0,0,0,.269-.068l.045.064a.535.535,0,0,1-.355.136.466.466,0,0,1-.508-.516.461.461,0,0,1,.5-.515C17.866,18.421,17.983,18.49,17.983,18.593Z"/>
              <path d="M19.053,18.441l.021.3-.084.017-.087-.169a.534.534,0,0,0-.187-.039v.76l.169.041v.078h-.61v-.078l.172-.041v-.76a.531.531,0,0,0-.189.039l-.088.169-.082-.017.02-.3Z"/>
              <path d="M19.148,19.433v-.078l.133-.041V18.56l-.133-.041v-.078h.29c.117,0,.2-.008.3-.008.286,0,.362.137.362.24a.232.232,0,0,1-.173.21v.008a.27.27,0,0,1,.241.261c0,.156-.113.291-.391.291-.184,0-.265-.01-.339-.01Zm.462-.491.016-.082c.185,0,.212-.1.212-.16,0-.1-.078-.154-.179-.154a.7.7,0,0,0-.111.014v.754a.515.515,0,0,0,.122.012c.145,0,.217-.084.217-.189,0-.125-.094-.186-.271-.186Z"/>
              <path d="M21.26,18.938a.5.5,0,1,1-.5-.517A.459.459,0,0,1,21.26,18.938Zm-.29,0c0-.261-.051-.413-.208-.413s-.209.152-.209.413.051.411.209.411S20.97,19.2,20.97,18.938Z"/>
              <path d="M22.151,18.957l-.016-.1.006-.01c.174,0,.209-.115.209-.167a.155.155,0,0,0-.17-.158.213.213,0,0,0-.131.041l-.076.175-.087-.014a.234.234,0,0,1-.057-.136c0-.1.129-.172.355-.172.294,0,.433.082.433.25a.239.239,0,0,1-.186.214v.008a.259.259,0,0,1,.234.246c0,.163-.1.313-.456.313a.64.64,0,0,1-.417-.154l.063-.083a.569.569,0,0,0,.341.1.174.174,0,0,0,.183-.179C22.379,19.022,22.3,18.957,22.151,18.957Z"/>
              <path d="M23.645,18.745v.569l.137.045-.016.074-.3.019-.049-.122-.007,0a.4.4,0,0,1-.3.124c-.238,0-.33-.124-.33-.284,0-.246.228-.306.446-.306a.95.95,0,0,1,.149.013v-.132c0-.125-.037-.216-.178-.216a.231.231,0,0,0-.134.041l-.072.159-.086.014a.261.261,0,0,1-.062-.148c0-.107.138-.172.358-.172C23.47,18.421,23.645,18.492,23.645,18.745Zm-.45.569a.3.3,0,0,0,.18-.078v-.263h-.11c-.138,0-.216.066-.216.183A.143.143,0,0,0,23.2,19.314Z"/>
              <path d="M24.912,18.934c-.224.09-.187.526-.495.526a.469.469,0,0,1-.156-.029l-.016-.082.133-.06c.1-.1.094-.343.327-.415-.1-.08-.107-.228-.163-.265l-.187.035-.039-.076a.158.158,0,0,1,.157-.147c.248,0,.223.351.347.433l.082.014Zm-.059.421.1-.041V18.56l-.094-.041v-.078h.46v.078l-.093.041v.754l.1.041v.078h-.468Zm.421-.487.082-.014c.123-.082.1-.433.345-.433a.158.158,0,0,1,.158.147l-.037.076-.189-.035c-.055.037-.064.185-.164.265.234.072.23.317.328.415l.132.06-.015.082a.476.476,0,0,1-.154.029c-.308,0-.271-.436-.5-.526Z"/>
              <path d="M26.779,18.8l-.008,0-.368.467v.053l.105.041v.078H26v-.078l.133-.041V18.56L26,18.519v-.078h.507v.078l-.105.041v.514l.007,0,.369-.468v-.05l-.106-.041v-.078h.5v.078l-.126.041v.754l.126.041v.078h-.5v-.078l.106-.041Z"/>
              <path d="M27.289,19.433v-.078l.133-.041V18.56l-.133-.041v-.078h.29c.117,0,.2-.008.295-.008.286,0,.362.137.362.24a.232.232,0,0,1-.173.21v.008a.27.27,0,0,1,.241.261c0,.156-.113.291-.391.291-.183,0-.265-.01-.339-.01Zm.462-.491.016-.082c.185,0,.212-.1.212-.16,0-.1-.078-.154-.179-.154a.7.7,0,0,0-.111.014v.754a.515.515,0,0,0,.122.012c.145,0,.217-.084.217-.189,0-.125-.094-.186-.271-.186Z"/>
              <path d="M29.4,18.938a.5.5,0,1,1-.5-.517A.459.459,0,0,1,29.4,18.938Zm-.29,0c0-.261-.051-.413-.208-.413s-.209.152-.209.413.051.411.209.411S29.111,19.2,29.111,18.938Z"/>
              <path d="M30.44,18.441l.021.3-.083.017-.088-.169a.534.534,0,0,0-.187-.039v.76l.169.041v.078h-.61v-.078l.172-.041v-.76a.536.536,0,0,0-.189.039l-.088.169-.082-.017.02-.3Z"/>
              <path d="M31.284,18.854V18.56l-.106-.041v-.078h.5v.078l-.126.041v.754l.126.041v.078h-.5v-.078l.106-.041v-.345h-.347v.345l.105.041v.078h-.507v-.078l.133-.041V18.56l-.133-.041v-.078h.507v.078l-.105.041v.294Z"/>
              <path d="M32.661,18.745v.569l.137.045-.016.074-.3.019-.049-.122-.007,0a.4.4,0,0,1-.3.124c-.237,0-.329-.124-.329-.284,0-.246.228-.306.446-.306a.926.926,0,0,1,.148.013v-.132c0-.125-.037-.216-.177-.216a.231.231,0,0,0-.134.041l-.072.159-.086.014a.263.263,0,0,1-.063-.148c0-.107.139-.172.359-.172C32.486,18.421,32.661,18.492,32.661,18.745Zm-.45.569a.294.294,0,0,0,.179-.078v-.263h-.109c-.138,0-.216.066-.216.183A.143.143,0,0,0,32.211,19.314Z"/>
              <path d="M34.164,18.593a.211.211,0,0,1-.057.136l-.086.014-.078-.175a.226.226,0,0,0-.13-.041c-.156,0-.222.142-.222.411,0,.2.08.382.265.382a.586.586,0,0,0,.269-.068l.045.064a.535.535,0,0,1-.355.136.467.467,0,0,1-.509-.516.462.462,0,0,1,.505-.515C34.047,18.421,34.164,18.49,34.164,18.593Z"/>
              <path d="M34.643,19.38h-.008c0,.049.008.166.008.259v.1l.138.041v.078h-.539v-.078l.132-.041V18.56l-.129-.045.016-.074.292-.018.061.115h.008a.348.348,0,0,1,.267-.117c.265,0,.391.186.391.515s-.16.516-.44.516A.3.3,0,0,1,34.643,19.38Zm.351-.444c0-.234-.037-.378-.2-.378a.245.245,0,0,0-.148.054v.665a.312.312,0,0,0,.144.039C34.953,19.316,34.994,19.168,34.994,18.936Z"/>
              <path d="M35.874,18.421a.405.405,0,0,1,.456.466v.074l-.009.01h-.636c0,.208.08.349.312.349a.586.586,0,0,0,.254-.07l.039.066a.535.535,0,0,1-.388.136.462.462,0,0,1-.5-.516A.456.456,0,0,1,35.874,18.421Zm-.189.433h.382c0-.22-.054-.321-.191-.321S35.685,18.644,35.685,18.854Z"/>
              <path d="M36.414,19.326l.174-.069a1.429,1.429,0,0,0,.154-.7l-.17-.039v-.08h.941v.078l-.126.041v.711l.169.043-.062.452-.125.014-.037-.347h-.684l-.033.333-.125.014Zm.7-.012V18.56h-.23a1.99,1.99,0,0,1-.143.746l0,.008Z"/>
              <path d="M38.45,18.8l-.007,0-.369.467v.053l.106.041v.078h-.507v-.078l.132-.041V18.56l-.132-.041v-.078h.507v.078l-.106.041v.514l.008,0,.368-.468v-.05l-.105-.041v-.078h.5v.078l-.127.041v.754l.127.041v.078h-.5v-.078l.105-.041Z"/>
              <path d="M39.709,18.854V18.56l-.105-.041v-.078h.5v.078l-.127.041v.754l.127.041v.078h-.5v-.078l.105-.041v-.345h-.347v.345l.106.041v.078h-.507v-.078l.132-.041V18.56l-.132-.041v-.078h.507v.078l-.106.041v.294Z"/>
              <path d="M41.087,18.745v.569l.136.045-.015.074-.3.019-.049-.122-.008,0a.391.391,0,0,1-.3.124c-.238,0-.329-.124-.329-.284,0-.246.228-.306.446-.306a.948.948,0,0,1,.148.013v-.132c0-.125-.037-.216-.177-.216a.234.234,0,0,0-.135.041l-.072.159-.086.014a.261.261,0,0,1-.062-.148c0-.107.138-.172.359-.172C40.911,18.421,41.087,18.492,41.087,18.745Zm-.45.569a.3.3,0,0,0,.179-.078v-.263h-.109c-.138,0-.216.066-.216.183A.143.143,0,0,0,40.637,19.314Z"/>
              <path d="M13.385,21.233l-.008,0-.368.468v.053l.105.041v.078h-.506v-.078l.132-.041V21l-.132-.041v-.078h.506v.078L13.009,21v.514l.008,0,.368-.468V21l-.105-.041v-.078h.5v.078L13.652,21v.754l.127.041v.078h-.5v-.078l.105-.041Z"/>
              <path d="M14.328,20.877H15.47v.078L15.344,21v.754l.126.041v.078h-.5v-.078l.106-.041V21H14.73v.754l.105.041v.078h-.507v-.078l.133-.041V21l-.133-.041Z"/>
              <path d="M15.959,21.816h-.008c0,.049.008.166.008.259v.1l.139.04v.078h-.54v-.078l.132-.04V21l-.128-.045.015-.074.293-.018.06.115h.008a.348.348,0,0,1,.267-.117c.265,0,.391.185.391.515s-.159.516-.44.516A.3.3,0,0,1,15.959,21.816Zm.351-.444c0-.234-.037-.378-.2-.378a.239.239,0,0,0-.148.054v.665a.312.312,0,0,0,.144.039C16.269,21.752,16.31,21.6,16.31,21.372Z"/>
              <path d="M17.715,21.374a.5.5,0,1,1-.5-.517A.46.46,0,0,1,17.715,21.374Zm-.29,0c0-.262-.051-.414-.209-.414s-.208.152-.208.414.05.411.208.411S17.425,21.635,17.425,21.374Z"/>
              <path d="M18.685,21.029a.211.211,0,0,1-.056.136l-.086.014L18.465,21a.236.236,0,0,0-.13-.041c-.156,0-.223.143-.223.412,0,.2.08.381.265.381a.568.568,0,0,0,.269-.068l.045.065a.533.533,0,0,1-.354.136.467.467,0,0,1-.509-.516.461.461,0,0,1,.5-.515C18.568,20.857,18.685,20.925,18.685,21.029Z"/>
              <path d="M19.755,20.877l.022.3-.084.017-.088-.169a.513.513,0,0,0-.187-.039v.76l.169.041v.078h-.609v-.078l.171-.041v-.76a.514.514,0,0,0-.189.039l-.088.169-.081-.017.019-.3Z"/>
              <path d="M20.846,21.374a.5.5,0,1,1-.5-.517A.46.46,0,0,1,20.846,21.374Zm-.29,0c0-.262-.051-.414-.209-.414s-.208.152-.208.414.051.411.208.411S20.556,21.635,20.556,21.374Z"/>
              <path d="M21.314,21.816h-.008c0,.049.008.166.008.259v.1l.138.04v.078h-.539v-.078l.132-.04V21l-.129-.045.016-.074.292-.018.061.115h.008a.348.348,0,0,1,.266-.117c.265,0,.392.185.392.515s-.16.516-.44.516A.3.3,0,0,1,21.314,21.816Zm.351-.444c0-.234-.037-.378-.2-.378a.239.239,0,0,0-.148.054v.665a.312.312,0,0,0,.144.039C21.624,21.752,21.665,21.6,21.665,21.372Z"/>
              <path d="M22.822,21.29V21l-.105-.041v-.078h.5v.078L23.089,21v.754l.127.041v.078h-.5v-.078l.105-.041v-.345h-.347v.345l.106.041v.078h-.507v-.078l.132-.041V21l-.132-.041v-.078h.507v.078L22.475,21v.294Z"/>
              <path d="M24.328,21.374a.5.5,0,1,1-.5-.517A.459.459,0,0,1,24.328,21.374Zm-.29,0c0-.262-.051-.414-.208-.414s-.209.152-.209.414.051.411.209.411S24.038,21.635,24.038,21.374Z"/>
              <path d="M24.876,20.877h1.142v.078L25.891,21v.754l.127.041v.078h-.5v-.078l.105-.041V21h-.347v.754l.106.041v.078h-.507v-.078l.132-.041V21l-.132-.041Z"/>
              <path d="M26.287,20.957v-.08h.941v.078L27.1,21v.754l.127.041v.078h-.534v-.078l.14-.041V21h-.245c-.008.487-.057.892-.347.892a.154.154,0,0,1-.154-.142l.033-.07.173.017c.135-.121.156-.374.164-.7Z"/>
              <path d="M28.212,21.181v.569l.136.044-.015.075-.3.019-.049-.123-.008,0a.388.388,0,0,1-.3.125c-.238,0-.329-.125-.329-.284,0-.246.228-.306.446-.306a.84.84,0,0,1,.148.013v-.132c0-.125-.037-.217-.177-.217a.242.242,0,0,0-.135.041l-.072.16-.086.014a.261.261,0,0,1-.062-.148c0-.108.138-.172.359-.172C28.036,20.857,28.212,20.927,28.212,21.181Zm-.45.569a.3.3,0,0,0,.179-.078v-.263h-.109c-.139,0-.216.066-.216.183A.143.143,0,0,0,27.762,21.75Z"/>
              <path d="M29.174,21.29V21l-.105-.041v-.078h.5v.078L29.441,21v.754l.127.041v.078h-.5v-.078l.105-.041v-.345h-.346v.345l.105.041v.078h-.507v-.078l.133-.041V21l-.133-.041v-.078h.507v.078L28.828,21v.294Z"/>
              <path d="M30.462,21.233l-.007,0-.369.468v.053l.106.041v.078h-.507v-.078l.132-.041V21l-.132-.041v-.078h.507v.078L30.086,21v.514l.008,0,.368-.468V21l-.105-.041v-.078h.5v.078L30.729,21v.754l.127.041v.078h-.5v-.078l.105-.041Z"/>
              <path d="M31.345,21.816h-.008c0,.049.008.166.008.259v.1l.138.04v.078h-.539v-.078l.132-.04V21l-.128-.045.015-.074.292-.018.061.115h.008a.348.348,0,0,1,.267-.117c.265,0,.391.185.391.515s-.16.516-.44.516A.3.3,0,0,1,31.345,21.816Zm.351-.444c0-.234-.037-.378-.2-.378a.239.239,0,0,0-.148.054v.665a.312.312,0,0,0,.144.039C31.655,21.752,31.7,21.6,31.7,21.372Z"/>
              <path d="M32.972,21.181v.569l.137.044-.016.075-.3.019-.049-.123-.008,0a.388.388,0,0,1-.3.125c-.237,0-.329-.125-.329-.284,0-.246.228-.306.446-.306a.832.832,0,0,1,.148.013v-.132c0-.125-.037-.217-.177-.217A.236.236,0,0,0,32.39,21l-.073.16-.085.014a.263.263,0,0,1-.063-.148c0-.108.139-.172.359-.172C32.8,20.857,32.972,20.927,32.972,21.181Zm-.45.569a.3.3,0,0,0,.179-.078v-.263h-.109c-.138,0-.216.066-.216.183A.143.143,0,0,0,32.522,21.75Z"/>
              <path d="M34.328,21.374a.557.557,0,0,0-.066.005l-.015-.081.005-.012a.614.614,0,0,1,.172-.022c.165,0,.358.071.358.3,0,.184-.154.312-.4.312-.129,0-.222-.009-.331-.009h-.228v-.078l.105-.041V21.4h-.341v.351l.1.041v.078h-.507v-.078l.133-.041V21l-.133-.041v-.078h.507v.078l-.1.041v.286h.341V21l-.105-.041v-.078h.5v.078L34.2,21v.756a.788.788,0,0,0,.123.013.193.193,0,0,0,.2-.2A.169.169,0,0,0,34.328,21.374Z"/>
              <path d="M35.342,20.857a.406.406,0,0,1,.456.466V21.4l-.01.01h-.635c0,.208.079.348.311.348a.582.582,0,0,0,.254-.07l.039.067a.539.539,0,0,1-.388.136.462.462,0,0,1-.5-.516A.456.456,0,0,1,35.342,20.857Zm-.189.433h.381c0-.22-.054-.322-.19-.322S35.153,21.079,35.153,21.29Z"/>
            </g>
            <g>
              <path d="M13.522,15.87l0-.045a.692.692,0,0,0,.09.006.252.252,0,0,0,.269-.272.243.243,0,0,0-.26-.254,1.371,1.371,0,0,0-.175.014v.965l.131.025v.036h-.4v-.036l.121-.025v-.973l-.121-.024v-.038h.135c.082,0,.189-.009.307-.009.284,0,.407.147.407.321a.345.345,0,0,1-.373.333.564.564,0,0,1-.134-.016Z"/>
              <path d="M14.415,15.594a.287.287,0,0,1,.31.33v.056l-.007.007h-.489c0,.141.049.3.266.3a.462.462,0,0,0,.185-.045l.021.036a.438.438,0,0,1-.26.078.334.334,0,0,1-.356-.383C14.085,15.724,14.21,15.594,14.415,15.594Zm-.186.329h.36c0-.165-.041-.275-.172-.275S14.229,15.758,14.229,15.923Z"/>
              <path d="M14.779,15.609h.8v.032l-.1.034v.606l.1.032v.032h-.322v-.032l.088-.032v-.606h-.329v.606l.088.032v.032h-.323v-.032l.1-.032v-.606l-.1-.034Z"/>
              <path d="M16.259,15.675l-.115-.031v-.035h.283v.033l-.081.033-.3.784c-.048.125-.116.2-.2.2a.182.182,0,0,1-.1-.04l.013-.051.162-.034.1-.178v-.006l-.04-.014-.241-.656-.083-.033v-.033h.342v.035l-.117.031.151.425a.717.717,0,0,1,.036.128h.009c.013-.049.026-.09.039-.128Z"/>
              <path d="M16.869,15.328a.459.459,0,0,0-.284.452h.006a.253.253,0,0,1,.256-.186c.223,0,.345.133.345.383s-.127.383-.345.383c-.254,0-.354-.156-.354-.476,0-.408.164-.649.463-.649l.17-.047.034.036a.188.188,0,0,1-.185.119A.43.43,0,0,1,16.869,15.328Zm-.021.981c.141,0,.2-.123.2-.332s-.057-.332-.2-.332-.2.133-.2.332S16.709,16.309,16.848,16.309Z"/>
              <path d="M17.412,15.642v-.033h.649v.032l-.1.034v.606l.1.032v.032H17.73v-.032l.1-.032v-.606h-.215c0,.365-.028.685-.241.685a.105.105,0,0,1-.1-.083l.019-.044.121.011c.109-.093.126-.283.129-.569Z"/>
              <path d="M18.707,15.815H18.7l-.331.434v.032l.087.032v.032h-.323v-.032l.1-.032v-.606l-.1-.034v-.032h.323v.032l-.087.034v.466h0l.332-.435v-.032l-.087-.034v-.032h.321v.032l-.1.034v.606l.1.032v.032H18.62v-.032l.087-.032Z"/>
              <path d="M19.249,16.281l.088.032v.032h-.323v-.032l.1-.032v-.606l-.1-.034v-.032h.317v.032l-.082.034Zm.04-.355.077-.007c.088-.062.108-.325.253-.325a.107.107,0,0,1,.108.092l-.017.034-.132-.021c-.048.034-.066.167-.149.233.14.045.164.266.249.331l.115.044-.006.037a.287.287,0,0,1-.1.02c-.236,0-.188-.355-.4-.4Z"/>
              <path d="M20.446,15.81v.471l.1.034-.007.03-.19.015-.028-.1h-.006a.306.306,0,0,1-.231.105.208.208,0,0,1-.238-.213c0-.179.172-.225.333-.225a.817.817,0,0,1,.126.007v-.114c0-.094-.031-.167-.154-.167a.254.254,0,0,0-.125.034l-.053.118-.042.008a.162.162,0,0,1-.041-.094c0-.086.147-.12.263-.12C20.331,15.594,20.446,15.642,20.446,15.81Zm-.312.471a.292.292,0,0,0,.175-.077v-.22h-.116c-.137,0-.207.065-.207.152A.133.133,0,0,0,20.134,16.281Z"/>
              <path d="M21.912,16.268a.68.68,0,0,1-.356.092c-.285,0-.471-.177-.471-.564s.167-.561.462-.561a.809.809,0,0,1,.336.064l-.018.213-.039.008-.047-.166a.5.5,0,0,0-.232-.051c-.225,0-.312.195-.312.493s.095.5.321.5a.468.468,0,0,0,.308-.1H21.9Z"/>
              <path d="M22.307,15.594a.287.287,0,0,1,.309.33v.056l-.007.007h-.488c0,.141.048.3.266.3a.453.453,0,0,0,.184-.045l.022.036a.44.44,0,0,1-.26.078.335.335,0,0,1-.357-.383C21.976,15.724,22.1,15.594,22.307,15.594Zm-.186.329h.36c0-.165-.041-.275-.173-.275S22.121,15.758,22.121,15.923Z"/>
              <path d="M22.685,16.345v-.032l.1-.032v-.606l-.1-.034v-.032h.155c.113,0,.159-.008.221-.008.187,0,.263.072.263.179a.174.174,0,0,1-.139.15v.006a.2.2,0,0,1,.2.2c0,.1-.06.219-.291.219-.086,0-.156-.009-.232-.009Zm.284-.38.01-.042c.177,0,.209-.067.209-.134a.134.134,0,0,0-.149-.132.407.407,0,0,0-.119.018v.606a.883.883,0,0,0,.139.01.163.163,0,0,0,.179-.162c0-.123-.088-.156-.265-.156Z"/>
              <path d="M23.8,15.594a.287.287,0,0,1,.31.33v.056l-.008.007h-.488c0,.141.048.3.266.3a.453.453,0,0,0,.184-.045l.022.036a.44.44,0,0,1-.26.078.335.335,0,0,1-.357-.383C23.471,15.724,23.6,15.594,23.8,15.594Zm-.186.329h.36c0-.165-.041-.275-.173-.275S23.616,15.758,23.616,15.923Z"/>
              <path d="M24.392,16.3l0,0c0,.037.006.125.006.2v.1l.119.032v.032h-.356v-.032l.1-.032v-.922l-.1-.034.006-.032.179-.01.034.086h.006a.269.269,0,0,1,.193-.091c.2,0,.307.136.307.383s-.1.383-.3.383A.339.339,0,0,1,24.392,16.3Zm.348-.327c0-.19-.037-.307-.192-.307a.238.238,0,0,0-.154.06v.526a.414.414,0,0,0,.147.029C24.7,16.285,24.74,16.167,24.74,15.977Z"/>
              <path d="M25.552,15.922v-.247l-.087-.034v-.032h.321v.032l-.1.034v.606l.1.032v.032h-.321v-.032l.087-.032v-.295h-.328v.295l.087.032v.032h-.323v-.032l.1-.032v-.606l-.1-.034v-.032h.323v.032l-.087.034v.247Z"/>
              <path d="M26.47,15.81v.471l.1.034-.007.03-.19.015-.028-.1h-.006a.306.306,0,0,1-.231.105.208.208,0,0,1-.238-.213c0-.179.172-.225.333-.225a.824.824,0,0,1,.126.007v-.114c0-.094-.031-.167-.154-.167a.254.254,0,0,0-.125.034L26,15.8l-.042.008a.162.162,0,0,1-.041-.094c0-.086.147-.12.263-.12C26.355,15.594,26.47,15.642,26.47,15.81Zm-.312.471a.292.292,0,0,0,.175-.077v-.22h-.116c-.137,0-.207.065-.207.152A.133.133,0,0,0,26.158,16.281Z"/>
              <path d="M28,15.249h.276v.035l-.118.022.054.984.118.02v.035h-.386V16.31l.122-.02-.041-.792,0-.129h-.009a1.125,1.125,0,0,1-.045.156l-.254.7c-.021.056-.046.082-.106.082l-.282-.814a1.174,1.174,0,0,1-.038-.123h-.008l0,.129-.042.792.122.02v.035h-.315V16.31l.12-.02.054-.984-.12-.022v-.035h.282l.257.753a.586.586,0,0,1,.034.134h.006a.66.66,0,0,1,.04-.134Z"/>
              <path d="M29,15.81v.471l.1.034-.007.03-.19.015-.028-.1h-.006a.306.306,0,0,1-.231.105.208.208,0,0,1-.238-.213c0-.179.173-.225.333-.225a.817.817,0,0,1,.126.007v-.114c0-.094-.031-.167-.153-.167a.254.254,0,0,0-.126.034l-.053.118-.042.008a.162.162,0,0,1-.041-.094c0-.086.148-.12.263-.12C28.889,15.594,29,15.642,29,15.81Zm-.312.471a.292.292,0,0,0,.175-.077v-.22h-.116c-.137,0-.207.065-.207.152A.133.133,0,0,0,28.692,16.281Z"/>
              <path d="M29.431,16.281l.088.032v.032H29.2v-.032l.1-.032v-.606l-.1-.034v-.032h.317v.032l-.082.034Zm.04-.355.077-.007c.088-.062.108-.325.253-.325a.108.108,0,0,1,.108.092l-.018.034L29.76,15.7c-.048.034-.066.167-.149.233.14.045.163.266.248.331l.116.044-.006.037a.287.287,0,0,1-.1.02c-.237,0-.188-.355-.4-.4Z"/>
              <path d="M30.355,15.594a.287.287,0,0,1,.31.33v.056l-.008.007h-.488c0,.141.048.3.266.3a.453.453,0,0,0,.184-.045l.022.036a.44.44,0,0,1-.26.078.335.335,0,0,1-.357-.383C30.024,15.724,30.15,15.594,30.355,15.594Zm-.186.329h.36c0-.165-.041-.275-.173-.275S30.169,15.758,30.169,15.923Z"/>
              <path d="M30.719,16.284l.1-.028a1.011,1.011,0,0,0,.132-.581l-.127-.033v-.033h.649v.032l-.1.034v.583l.121.022-.029.315-.066.01-.022-.26h-.541l-.02.25-.066.01Zm.524,0v-.605h-.21a1.382,1.382,0,0,1-.108.6l0,.006Z"/>
              <path d="M32.256,15.977c0,.248-.126.383-.345.383s-.346-.135-.346-.383.117-.383.346-.383S32.256,15.732,32.256,15.977Zm-.148,0c0-.2-.046-.332-.2-.332s-.2.133-.2.332.049.332.2.332S32.108,16.176,32.108,15.977Z"/>
              <path d="M32.9,15.922v-.247l-.088-.034v-.032h.322v.032l-.1.034v.606l.1.032v.032h-.322v-.032l.088-.032v-.295h-.329v.295l.088.032v.032h-.323v-.032l.1-.032v-.606l-.1-.034v-.032h.323v.032l-.088.034v.247Z"/>
              <path d="M33.811,15.815h-.006l-.332.434v.032l.088.032v.032h-.323v-.032l.1-.032v-.606l-.1-.034v-.032h.323v.032l-.088.034v.466h.006l.332-.435v-.032l-.088-.034v-.032h.322v.032l-.1.034v.606l.1.032v.032h-.322v-.032l.088-.032Z"/>
              <path d="M34.375,16.318a.313.313,0,0,1-.229.349l-.024-.04a.373.373,0,0,0,.1-.127,1.313,1.313,0,0,0,.013-.182v-.629l-.109-.014v-.037l.223-.044h.022Zm-.074-.842a.093.093,0,0,1-.094-.094.091.091,0,0,1,.095-.09.089.089,0,0,1,.091.09A.092.092,0,0,1,34.3,15.476Z"/>
              <path d="M35.12,15.81v.471l.1.034-.007.03-.19.015-.028-.1h-.006a.306.306,0,0,1-.231.105.208.208,0,0,1-.238-.213c0-.179.173-.225.333-.225a.817.817,0,0,1,.126.007v-.114c0-.094-.031-.167-.153-.167a.254.254,0,0,0-.126.034l-.053.118-.042.008a.162.162,0,0,1-.041-.094c0-.086.148-.12.263-.12C35.005,15.594,35.12,15.642,35.12,15.81Zm-.312.471a.292.292,0,0,0,.175-.077v-.22h-.115c-.138,0-.208.065-.208.152A.133.133,0,0,0,34.808,16.281Z"/>
            </g>
          </g>
        </g>
      </g>
    </g>
  </g>
</svg>
