<?xml version="1.0" encoding="UTF-8"?>
<svg id="Layer_1" data-name="Layer 1" xmlns="http://www.w3.org/2000/svg" viewBox="0 0 42.93 41.55">
  <defs>
    <style>
      .cls-1 {
        fill: #cc783c;
      }

      .cls-1, .cls-2, .cls-3, .cls-4, .cls-5, .cls-6, .cls-7, .cls-8, .cls-9, .cls-10, .cls-11, .cls-12, .cls-13, .cls-14, .cls-15 {
        fillRule: evenodd;
      }

      .cls-16 {
        opacity: .83;
      }

      .cls-2 {
        fill: #dd905a;
      }

      .cls-17, .cls-12 {
        fill: #934e22;
      }

      .cls-3 {
        fill: #d07d3f;
      }

      .cls-18 {
        fill: #bf6e33;
      }

      .cls-19, .cls-6 {
        opacity: .89;
      }

      .cls-4, .cls-15 {
        fill: #ac5e27;
      }

      .cls-5 {
        fill: #bc7037;
      }

      .cls-6 {
        fill: #a25826;
      }

      .cls-6, .cls-7, .cls-14, .cls-15 {
        isolation: isolate;
      }

      .cls-7 {
        fill: #dd8d55;
        opacity: .59;
      }

      .cls-8 {
        fill: #facaa7;
      }

      .cls-9 {
        fill: #935426;
      }

      .cls-10 {
        fill: #ac642e;
      }

      .cls-20 {
        opacity: .81;
      }

      .cls-11 {
        fill: #f5ad79;
      }

      .cls-13 {
        fill: #df8c52;
      }

      .cls-14 {
        fill: #7a431c;
        opacity: .75;
      }

      .cls-15 {
        opacity: .5;
      }
    </style>
  </defs>
  <g>
    <rect class="cls-18" x="1.33" y="19.19" width="40.26" height="4.37" transform="translate(-.43 42.31) rotate(-88.61)"/>
    <path class="cls-15" d="M19.14,26.97l.51-21.17,4.36,.5-.43,18.03s-4.56-3.69-4.44,2.64Z"/>
    <g>
      <path class="cls-4" d="M23.93,9.63l.02-.66c-.32,.62-.57,1.12-.74,1.44-.06,.12-.12,.26-.19,.37-1.16,2.26-2.35,4.51-3.65,6.74l-.02,.68c1.44-2.43,2.72-4.9,3.97-7.37,.2-.4,.4-.8,.61-1.2h0ZM23.62,.09c-.15,.57-.32,1.11-.43,1.5-.9,2.85-2.04,5.78-3.1,8.63-.18,.47-.36,.93-.54,1.4l-.03,.08,.04-1.48c1.28-3.38,2.66-6.76,3.71-10.14h.36Z"/>
      <path class="cls-4" d="M23.98,7.69v-.52c-.14,.23-.27,.43-.39,.6-.18,.24-.34,.49-.48,.76-1.17,2.24-1.85,4.33-3.4,6.52-.1,.14-.19,.28-.29,.44l-.02,.65c.21-.35,.42-.69,.61-.96,1.84-2.66,2.42-5.2,3.82-7.29,.05-.06,.09-.13,.14-.19h0Zm.06-2.35c-.26,.73-.53,1.45-.82,2.19-.2,.48-.41,.96-.63,1.44-.61,1.33-1.25,2.59-1.98,3.9-.37,.64-.78,1.34-1.18,2.06l.02-.75,.75-1.39c1.51-2.89,2.8-5.89,3.87-8.97l-.04,1.52Z"/>
      <path class="cls-4" d="M22.91,.07h-.12c-.73,1.58-1.3,2.92-1.95,4.65-.4,1.08-.8,2.16-1.23,3.24l-.02,.95c.07-.15,.13-.3,.2-.45,.8-1.99,1.44-3.94,2.16-5.93,.05-.14,.59-1.5,.96-2.46Z"/>
      <path class="cls-4" d="M23.88,12.01l.02-.91c-.54,1.19-1.13,2.35-1.79,3.47-.01,.02-.03,.04-.04,.06-.97,1.64-1.86,3.29-2.75,4.94v.67c1.03-1.84,2-3.68,3.09-5.51,.52-.89,.98-1.71,1.42-2.61l.05-.1Z"/>
      <path class="cls-4" d="M23.74,17.75l.02-.92c-.19,.43-.39,.86-.6,1.29-.06,.14-.12,.28-.17,.41,0,0,.74-.78,.74-.78Zm.08-3.34c-.23,.45-.46,.92-.68,1.4-.06,.15-.15,.33-.22,.48-.67,1.3-1.63,2.75-2.52,4.18h-.17c.35-.62,.62-1.08,.65-1.13,.74-1.13,1.39-2.31,1.94-3.54,.32-.73,.67-1.42,1.02-2.11v.72Z"/>
      <path class="cls-4" d="M19.34,19.05v.36c.21-.5,.37-.94,.24-.92-.06,.19-.14,.38-.24,.56Z"/>
    </g>
    <g>
      <polygon class="cls-11" points="19.77 1.19 24.14 1.3 23.61 .08 20.2 0 19.77 1.19"/>
      <path class="cls-2" d="M19.77,1.19h.43c1.27-.18,2.56-.23,3.84-.13l-.1-.22c-1.38-.1-2.76-.03-4.12,.2,0,0-.05,.15-.05,.15Zm3.91-.95c-1.27,.11-2.52,.29-3.77,.55l.09-.24c1.07-.22,2.16-.38,3.25-.48h.37s.07,.17,.07,.17Zm-.6-.17l-1.79-.04c-.42,.05-.81,.1-1.16,.15l-.08,.23c.81-.11,1.87-.25,3.03-.33Z"/>
    </g>
    <g>
      <path class="cls-4" d="M19.08,29.64l-.02,.78c.32-.73,.58-1.32,.74-1.7,.06-.14,.13-.3,.19-.44,1.17-2.66,2.37-5.33,3.68-7.95l.02-.8c-1.45,2.87-2.74,5.78-4.01,8.69-.2,.47-.41,.94-.61,1.42h0Zm.27,11.25c.16-.67,.32-1.31,.44-1.76,.91-3.36,2.06-6.82,3.13-10.18l.55-1.65,.03-.09-.04,1.74c-1.3,3.99-2.68,7.98-3.75,11.96h-.36Z"/>
      <path class="cls-4" d="M19.02,31.92l-.02,.62c.15-.27,.29-.51,.4-.71,.18-.29,.34-.59,.48-.9,1.18-2.64,1.87-5.11,3.42-7.69,.1-.16,.2-.34,.3-.52l.02-.76c-.21,.41-.42,.81-.62,1.14-1.85,3.14-2.44,6.14-3.86,8.6-.05,.07-.09,.15-.14,.23h0Zm-.07,2.76c.26-.86,.54-1.71,.83-2.58,.2-.57,.41-1.13,.63-1.7,.62-1.57,1.26-3.05,2-4.6,.37-.75,.79-1.59,1.19-2.43l-.02,.89-.75,1.63c-1.53,3.44-2.84,6.98-3.9,10.59l.04-1.79Z"/>
      <path class="cls-4" d="M20.07,40.9h.12c.74-1.86,1.32-3.45,1.97-5.49,.41-1.28,.81-2.55,1.25-3.82l.03-1.11c-.07,.17-.13,.35-.2,.54-.81,2.34-1.46,4.65-2.19,6.99-.05,.17-.6,1.76-.97,2.9Z"/>
      <path class="cls-4" d="M19.15,26.84l-.03,1.07c.55-1.38,1.12-2.75,1.8-4.1,.01-.02,.02-.05,.03-.07,.98-1.94,1.88-3.88,2.78-5.83v-.79c-1.03,2.17-2.01,4.34-3.11,6.51-.53,1.04-.99,2.02-1.43,3.08l-.05,.12Z"/>
      <path class="cls-4" d="M19.31,20.08l-.03,1.09c.19-.5,.4-1.01,.61-1.52,.06-.17,.12-.33,.17-.48-.26,.31-.51,.62-.75,.92h0Zm-.1,3.94c.23-.53,.47-1.08,.68-1.65,.06-.18,.15-.39,.22-.57,.68-1.54,1.64-3.25,2.54-4.93h.17c-.35,.74-.62,1.28-.65,1.34-.75,1.35-1.4,2.74-1.96,4.18-.32,.87-.68,1.68-1.03,2.49l.02-.86Z"/>
      <path class="cls-4" d="M23.72,18.52v-.42c-.21,.59-.37,1.11-.24,1.08,.06-.22,.14-.44,.24-.66Z"/>
    </g>
  </g>
  <g>
    <path class="cls-11" d="M.04,10.7c.05-.51,.28-.99,.65-1.36,.66-.74,6.87-5.92,7.48-5.9s26.84-.35,28.23,.05c1.29,.53,2.53,1.17,3.71,1.91-1.15-.56-2.37-.98-3.62-1.25-2.93-.41-26.82-.61-28.08,.13C7.3,4.92,.22,9.73,.04,10.7Z"/>
    <path class="cls-2" d="M36.22,3.46c.06,0,.12,.02,.18,.03,1.29,.53,2.53,1.17,3.71,1.91-1.15-.56-2.37-.98-3.62-1.25l-.17-.02c-.07-.21-.1-.44-.09-.66Z"/>
    <path class="cls-2" d="M.04,10.7c.05-.51,.28-.99,.65-1.36,.63-.72,6.45-5.57,7.39-5.89,.13,.26,.23,.54,.3,.83C7.21,4.98,.22,9.74,.04,10.7Z"/>
    <path class="cls-3" d="M8.4,4.27C7.3,4.92,.22,9.73,.04,10.7c-.04,2.59,.13,5.18,.53,7.74,.24,.61,4.28,2.42,5.87,2.64,.28,.04,1.21,.07,2.59,.1l2.64-1.17,.08,1.21c5.89,.09,11.56,.3,17.48,.15,.92,0,4.43,.07,5.29-.43,1.1-.64,8.18-5.46,8.36-6.43,.04-2.59-.13-5.18-.53-7.74-.24-.61-4.28-2.42-5.87-2.64-2.93-.4-26.82-.61-28.08,.13Z"/>
    <g class="cls-20">
      <path class="cls-5" d="M.26,16.09c.02,.18,.03,.36,.05,.53,.56-.16,1.1-.37,1.62-.62,1.38-.56,2.79-1.09,4.15-1.68,1.42-.67,2.91-1.22,4.43-1.64,.46-.13,.94-.21,1.42-.26,4.37-.26,7.9-.57,12.03-2.17,.6-.24,1.16-.51,1.74-.81,3.15-1.54,6.45-2.73,9.86-3.54,1.3-.3,2.64-.58,3.98-.75-.14-.06-.27-.12-.41-.17-1.29,.17-2.55,.42-3.63,.65-3.44,.78-6.78,1.96-9.95,3.5-4.67,2.29-8.52,2.58-13.63,2.88-1.19,.16-2.36,.45-3.48,.87-1.71,.54-3.45,1.21-5.11,1.88-1,.41-2.08,.86-3.06,1.34Z"/>
      <path class="cls-5" d="M.41,17.5c.01,.1,.03,.2,.04,.29,.45-.3,.95-.54,1.48-.69,3.31-1.06,6.75-1.7,10.22-1.9,4.34-.17,7.8-1.13,11.99-2.07,4.22-1.03,8.08-3.12,12.03-4.85,1.41-.57,2.85-1.05,4.32-1.44,.57-.14,1.09-.25,1.62-.34-.46-.33-.95-.62-1.47-.86-.9,.18-1.78,.45-2.63,.82-1.37,.68-2.67,1.38-4.08,2.01-3.33,1.53-6.34,3.09-9.93,4.03-1.17,.27-2.34,.57-3.52,.83-2.74,.69-5.54,1.13-8.36,1.3-3.52,.25-6.99,.98-10.31,2.17-.49,.17-.96,.4-1.39,.7Z"/>
      <path class="cls-5" d="M0,11.14v.18c2-.64,4.37-1.64,5.61-2.12,5.68-2.16,7.19-2.44,13.36-2.31,3.98,.16,6.18,.63,1.18,1.21-4.74,.61-7.24,1.82-11.63,3.04-.55,.14-1.11,.26-1.66,.37-1.15,.23-2.29,.55-3.42,.86s-2.24,.62-3.39,.85c0,.18,.02,.37,.03,.56,.58-.07,1.15-.18,1.71-.34,1.41-.33,2.94-.75,4.33-1.17,.27-.09,.58-.19,.85-.26,1.25-.3,2.54-.72,3.77-1.1,3.58-1.15,5.54-1.91,9.46-2.45,1-.07,1.98-.28,2.92-.61,.08-.04,.16-.09,.22-.16,.02-.02,.04-.05,.05-.07,0-.02,.01-.05,0-.07,0-.02-.02-.05-.03-.07-.02-.03-.04-.05-.06-.07-.06-.06-.14-.11-.21-.14-.54-.23-1.11-.39-1.69-.48-.8-.14-1.61-.22-2.42-.25-6.1-.14-7.66,.17-13.47,2.41C3.79,9.66,1.87,10.52,0,11.14Z"/>
      <path class="cls-5" d="M0,11.82v.11c.17-.03,.35-.06,.51-.09,2.74-.59,5.39-1.39,8.1-2.07,1.33-.33,2.81-.84,4.16-1.22,.78-.22,1.59-.44,2.39-.59,1.48-.26-1.95,1.16-2.41,1.34-1.58,.58-3.19,1.09-4.82,1.51-.73,.19-1.45,.37-2.18,.54-1.28,.28-2.55,.54-3.84,.75-.64,.11-1.26,.2-1.9,.27,0,.11,0,.23,.01,.35,.27-.01,.55-.04,.82-.09,1-.12,1.98-.29,2.96-.51,1.29-.33,2.58-.66,3.87-.99,.11-.03,.22-.06,.32-.09,1.64-.42,3.25-.93,4.84-1.53,1.09-.35,2.1-.91,2.99-1.64,.02-.02,.04-.05,.06-.07,0,0,0-.02,.01-.03,0,0,0-.02,0-.02,0,0,0-.01-.01-.02s-.02-.01-.02-.02c-.02-.01-.05-.02-.07-.02-.22,0-.44,.01-.65,.06-.41,.08-.81,.17-1.21,.27s-.8,.21-1.2,.32c-1.38,.39-2.78,.87-4.15,1.23-2.71,.69-5.34,1.51-8.08,2.14l-.49,.1Z"/>
      <path class="cls-5" d="M5.37,20.82c.32,.1,.66,.19,.99,.25,.14-.1,.28-.2,.42-.3,.22-.13,.44-.23,.68-.32,.63-.22,1.26-.32,1.89-.52,.65-.21,1.29-.41,1.94-.61,.69-.24,1.39-.41,2.11-.51,3.72-.59,7.69-.61,11.47-.97,.67-.07,1.33-.15,2-.23,2.19-.28,4.34-.76,6.44-1.44,2.77-.83,5.29-2.35,7.32-4.4,.71-.77,1.37-1.56,2.05-2.34,0-.11-.02-.22-.03-.32-.77,.81-1.52,1.68-2.26,2.45-2.04,1.96-4.52,3.39-7.23,4.19-2.72,.83-5.51,1.37-8.34,1.61-4.43,.38-8.86,.31-13.23,1.22-.16,.03-.32,.07-.47,.11-1.23,.3-2.55,.51-3.74,.86-.09,.03-.17,.06-.26,.09-.66,.27-1.26,.68-1.77,1.19Z"/>
      <path class="cls-5" d="M15.28,21.3h.46s-.01-.07-.02-.1c-.02-.05-.05-.1-.09-.14-.04-.04-.08-.08-.14-.11,.64,.17,1.3,.25,1.96,.26,1.21,.06,2.42,.06,3.63,.04,1.92-.04,4.16-.08,6.07-.31,3.89-.59,7.72-1.51,11.45-2.76-.27,.2-.54,.39-.81,.58-3.44,1.18-6.97,2.06-10.56,2.61-.15,.02-.31,.04-.47,.06-3.64,.03-7.21-.04-10.82-.12l.04-.02c.23-.12,.47-.21,.71-.28,.55-.16,1.1-.26,1.64-.42,4.26-1.25,8.48-1.55,12.87-1.89,.99-.08,1.97-.27,2.91-.56,1.87-.59,3.66-1.4,5.34-2.41,1.16-.66,2.29-1.33,3.46-1.98,0-.24,0-.51-.01-.8-.75,.27-1.46,.62-2.14,1.04-1.41,.77-2.85,1.56-4.25,2.34-1.55,.97-3.3,1.58-5.12,1.78-.08,0-.16,.01-.24,.02-4.5,.36-8.61,.69-12.98,1.98-.53,.16-1.09,.27-1.63,.43-.28,.08-.55,.19-.81,.33-.11,.06-.21,.13-.3,.21-.07,.06-.12,.14-.17,.22Z"/>
      <path class="cls-5" d="M41.3,16.14c.61-.42,1.14-.95,1.57-1.56-.29,.1-.58,.23-.85,.38-.66,.46-1.36,.85-2.09,1.17-2.29,1.04-5.14,2.43-7.46,3.23-.17,.06-.34,.11-.51,.16-3.19,.89-6.31,.86-9.6,.87-.22,.01-.78,.05-.16,.14,3.3,.38,6.65,.19,9.89-.56,3.11-1.1,6.16-2.37,9.13-3.81l.07-.03Z"/>
      <path class="cls-5" d="M42.62,8.62c-.04-.35-.07-.68-.11-.95-.48,.28-.92,.6-1.18,.76-1.72,1.03-3.5,1.99-5.21,3.01-.81,.54-1.67,1.02-2.55,1.44-.64,.21-1.28,.42-1.93,.62-2.87,1.03-5.85,1.71-8.88,2.04-.1,.02-9.48,1.14-5.37,.24,.55-.11,1.11-.22,1.66-.33,2.86-.49,5.66-1.25,8.36-2.28,5.66-2.34,7.41-4.25,13.93-5.61,.38-.07,.75-.15,1.13-.23-.01-.09-.03-.17-.04-.24-.39,.09-.77,.16-1.14,.22-6.3,1.15-8.4,3.1-14.04,5.44-3.23,1.17-6.56,2.02-9.95,2.55-6.1,1.25,4.38,1.14,5.5,.76,4.22-.38,6.98-1.4,10.95-2.63,.12-.04,.24-.08,.35-.13,1.91-.84,3.77-1.8,5.55-2.88,.92-.54,1.99-1.17,2.97-1.82Z"/>
      <path class="cls-5" d="M34.34,6.63c-.75,.26-1.48,.6-2.17,1.01-.69,.52-1.41,.99-2.16,1.4-2.41,1.45-5,2.57-7.72,3.31-1.34,.31-2.72,.48-4.09,.52-3.16-.02-6.28,.67-9.12,2.04-.23,.13-.88,.53-.12,.22,2.93-1.24,6.08-1.85,9.25-1.8,5.46-.2,8.42-1.8,13.1-4.34,.79-.41,1.65-.8,2.46-1.17,.69-.31,1.37-.59,2.05-.89,.16-.08,.53-.34,.26-.52-.59-.18-1.23-.09-1.75,.23Z"/>
      <path class="cls-5" d="M5.5,6.21c-.41,.29-.84,.59-1.27,.9,.37,.01,.74,0,1.11-.04,.91,.02,1.81-.02,2.71-.1,1.09-.2,2.21-.41,3.3-.65,.37-.09,.71-.18,1.08-.28,2.23-.65,4.51-1.08,6.82-1.3,.95-.1,1.9-.14,2.85-.13,.35,0,.68,.03,1.02,.05,.98,.03,1.94,.29,2.81,.76,.1,.06,.17,.14,.23,.24,.05,.09,.06,.19,.05,.29-.02,.12-.05,.23-.11,.33-.07,.13-.15,.25-.25,.36-.58,.62-1.26,1.16-2,1.59-1.48,.98-3.14,1.66-4.88,2-.96,0-2.15,.12-3.14,.17-.08,0-.16,.02-.24,.04,.05,.62,.37,.45,.01,.28,.02-.29-.04-.19,.09-.17,.8,.11,2.37-.09,3.3-.04,1.56-.03,3.76-1.17,5.08-1.93,.79-.44,1.5-1,2.13-1.65,.12-.14,.22-.28,.3-.44,.08-.15,.14-.32,.16-.49,.02-.19-.01-.38-.1-.54-.09-.17-.22-.32-.39-.42-.92-.52-1.96-.82-3.02-.85-1.32-.09-2.64-.08-3.95,.05-2.34,.2-4.66,.62-6.93,1.25-.85,.25-1.72,.43-2.6,.55-1.1,.1-2.14,.12-3.24,.14-.3,0-.61,.02-.92,.04Z"/>
      <path class="cls-5" d="M36.01,4.1c-.26-.02-.57-.04-.94-.06-.72,.28-1.46,.51-2.21,.69-1.72,.32-2.33,.83-3.85,1.37-.73,.24-.83,.45-.56-.24,0,0,.01-.02,.01-.03,.19-.43,.43-.87,.64-1.3v-.04c.1-.21,.18-.42,.24-.64-.29,0-.59-.01-.89-.02-.05,.1-.09,.21-.14,.31-.12,.23-.22,.47-.29,.72-.03,.24-.07,.47-.12,.71-.05,.2-.1,.39-.13,.59,0,.05-.01,.1-.01,.16,0,.03,0,.07,.01,.1,0,.08,.04,.16,.09,.23,.05,.07,.13,.12,.21,.14,.09,.03,.19,.04,.28,.03,.28-.04,.56-.1,.83-.2,.95-.35,1.82-.91,2.74-1.19,.34-.1,.68-.18,1.03-.24,1.04-.3,2.06-.67,3.06-1.1Z"/>
    </g>
    <path class="cls-1" d="M8.4,4.27C7.3,4.92,.22,9.73,.04,10.7c-.04,2.59,.13,5.18,.53,7.74,.24,.61,4.28,2.42,5.87,2.64,.28,.04,1.21,.07,2.59,.1l2.64-1.17,.08,1.21c5.89,.09,11.56,.3,17.48,.15,.92,0,4.43,.07,5.29-.43,1.1-.64,8.18-5.46,8.36-6.43,.04-2.59-.13-5.18-.53-7.74-.24-.61-4.28-2.42-5.87-2.64-.61-.09-2.14-.16-4.17-.22,0,0,1.45,3.7,3.99,5.05s3.78,5.53-.51,9.13-17.11,2.2-18.72,2.29-3.08-1.05-4.51-2.36S4.5,12,7.38,8.07c2.88-3.92,9.16-4.26,9.17-4.26-4.3,.06-7.7,.2-8.16,.46h0Z"/>
    <g class="cls-16">
      <path class="cls-10" d="M.26,16.09v.35H.26v.12H.26v.06c.56-.16,1.1-.37,1.62-.62,1.38-.56,2.79-1.09,4.15-1.68,.61-.27,1.24-.55,1.88-.8-.1-.13-.19-.27-.28-.4-1.47,.49-2.95,1.07-4.37,1.64-1,.41-2.08,.85-3.06,1.33h.05ZM39.53,5.15h-.05l-.06-.02h-.1s0-.01,0-.01h-.11s0,0,0,0h-.08c-1.29,.17-2.55,.42-3.63,.65-.68,.16-1.35,.33-2.01,.52,.06,.09,.11,.17,.17,.26,.63-.18,1.27-.35,1.9-.51,1.31-.43,2.64-.71,3.98-.88Z"/>
      <path class="cls-10" d="M.41,17.5v.09H.41v.2c.45-.3,.95-.54,1.48-.69,2.5-.79,5.07-1.35,7.68-1.68-.15-.15-.3-.31-.45-.46-2.49,.39-4.93,1.01-7.31,1.85-.49,.17-.96,.4-1.39,.69h0ZM42.09,6.5l-.05-.04h0l-.05-.04h0l-.05-.04h0l-.06-.05h0l-.06-.04h-.02s-.06-.05-.06-.05h-.02s-.06-.05-.06-.05l-.03-.02-.05-.03h-.01s0-.01,0-.01h0l-.04-.03h-.02s0-.02,0-.02h-.01s-.03-.03-.03-.03h-.02s-.02-.03-.02-.03h-.02s-.05-.04-.05-.04l-.03-.02h-.03s-.03-.03-.03-.03h-.03s-.02-.03-.02-.03h-.03s-.03-.03-.03-.03h-.02s0-.01,0-.01h-.03s-.03-.03-.03-.03l-.02-.02h-.03s-.03-.03-.03-.03h-.03s0-.01,0-.01l-.05-.03h-.03s-.03-.03-.03-.03h-.03s-.03-.03-.03-.03h-.03s-.03-.03-.03-.03h-.03s-.03-.03-.03-.03h-.03c-.9,.16-1.78,.44-2.63,.8-1.02,.51-2.01,1.03-3.04,1.52,.2,.19,.41,.37,.64,.54,.19-.09,.37-.17,.56-.25,1.41-.57,2.85-1.05,4.32-1.44,.57-.14,1.09-.25,1.62-.34h0Z"/>
      <path class="cls-10" d="M0,11.14v.18c2-.64,4.37-1.64,5.61-2.12,.5-.19,.96-.36,1.4-.52,.06-.12,.12-.23,.2-.35-.52,.19-1.09,.41-1.69,.64C3.79,9.66,1.88,10.52,0,11.14h0Zm.05,2.09v.03H.06v.16H.06v.38c.58-.07,1.15-.18,1.71-.34,1.41-.33,2.94-.75,4.33-1.17,.27-.09,.58-.19,.85-.26l.11-.03c-.07-.16-.13-.33-.19-.49h-.02c-1.15,.23-2.29,.55-3.42,.86s-2.21,.63-3.36,.85Z"/>
      <path class="cls-10" d="M0,11.82H0v.11c.17-.03,.35-.06,.51-.09,2.08-.44,4.1-1.01,6.15-1.56v-.19c-2.05,.56-4.08,1.15-6.18,1.63l-.49,.11Zm.01,.55c.64-.08,1.26-.17,1.9-.27,1.29-.21,2.56-.47,3.84-.75,.34-.08,.68-.16,1.02-.24,.02,.08,.04,.16,.06,.24-1.01,.26-2.02,.52-3.03,.77-.98,.23-1.96,.4-2.96,.51-.27,.05-.55,.07-.82,.09v-.06H.03v-.29H.01Z"/>
      <path class="cls-10" d="M5.37,20.82h.04s.05,.02,.05,.02h.02s.02,.01,.02,.01h.02s.02,.01,.02,.01h.03s.02,.01,.02,.01h.02s.02,0,.02,0h.02s.03,.01,.03,.01h.03s.02,0,.02,0h.02s.03,.01,.03,.01h.02s.02,0,.02,0h.06s.02,.01,.02,.01h.03s.02,0,.02,0h.03s.03,.01,.03,.01h.06s.02,0,.02,0h.04s.01,.01,.01,.01h.08s.02,.01,.02,.01h.07s0,.01,0,.01h.07c.14-.09,.28-.19,.42-.29,.22-.13,.44-.23,.68-.32,.63-.22,1.26-.32,1.89-.52,.65-.21,1.29-.41,1.94-.61,.69-.24,1.39-.41,2.11-.51h.03c-.18-.16-.37-.32-.55-.48-.43,.07-.86,.15-1.28,.24-.16,.03-.32,.07-.47,.11-1.23,.3-2.55,.51-3.74,.86-.09,.03-.17,.06-.26,.09-.67,.29-1.27,.71-1.77,1.24ZM42.69,9.44v-.04h0v-.29c-.77,.81-1.52,1.68-2.26,2.45-.57,.55-1.18,1.06-1.82,1.53,0,.16-.02,.32-.04,.48,.74-.54,1.43-1.14,2.07-1.79,.71-.77,1.37-1.56,2.05-2.34Z"/>
      <path class="cls-10" d="M15.28,21.3h.31s.15,0,.15,0c0-.04-.01-.07-.02-.11-.02-.05-.05-.1-.09-.14-.04-.04-.08-.08-.14-.11,.64,.17,1.3,.25,1.96,.26,1.21,.06,2.42,.06,3.63,.04,1.92-.04,4.16-.08,6.07-.31,3.89-.58,7.72-1.51,11.45-2.75h-.01s-.01,.02-.01,.02h-.01s-.01,.02-.01,.02l-.09,.06h-.01s-.01,.02-.01,.02h-.01s-.01,.02-.01,.02h-.01s-.01,.02-.01,.02h-.01s-.01,.02-.01,.02h-.01s-.01,.02-.01,.02h-.01s-.01,.02-.01,.02h-.01s-.01,.02-.01,.02h-.01s-.01,.02-.01,.02l-.03,.02h-.01s-.01,.02-.01,.02h-.01s-.01,.02-.01,.02h-.02s-.01,.02-.01,.02h-.01s0,.01,0,.01h0s-.01,.01-.01,.01h-.01s-.01,.02-.01,.02h-.01s-.01,.02-.01,.02h-.01s-.01,.02-.01,.02l-.03,.02h-.01s-.01,.02-.01,.02h-.01s-.01,.02-.01,.02h0s-.01,.01-.01,.01h-.01s-.01,.02-.01,.02h-.01s-.01,.02-.01,.02h-.01s-.01,.02-.01,.02h-.01s-.01,.02-.01,.02h-.01s-.01,.02-.01,.02h-.01s-.01,.02-.01,.02c-3.44,1.18-6.97,2.06-10.56,2.61-.15,.02-.31,.04-.47,.06H15.9l.04-.02c.23-.12,.47-.21,.71-.28,.55-.16,1.1-.26,1.64-.42,.16-.05,.33-.1,.49-.14-.84-.04-1.45-.07-1.74-.05-.18,.04-.35,.09-.53,.14-.28,.08-.55,.19-.81,.33-.11,.06-.21,.13-.3,.21-.07,.06-.13,.14-.17,.22l.05-.11Zm27.64-7.55v-.24h0v-.12h0v-.43h0c-.75,.25-1.47,.6-2.15,1.03-.94,.52-1.9,1.04-2.85,1.56-.3,.56-.68,1.09-1.11,1.56,.91-.43,1.8-.9,2.64-1.38,1.16-.66,2.29-1.33,3.46-1.98h0Z"/>
      <path class="cls-10" d="M41.3,16.14h0l.04-.03,.08-.06,.04-.03h.01s.1-.09,.1-.09h0l.04-.03h0l.1-.09h0s.04-.04,.04-.04l.07-.06,.03-.03,.03-.03,.06-.05h0s.03-.03,.03-.03h0s.07-.07,.07-.07l.05-.05,.05-.05h0l.03-.03,.03-.03,.04-.04,.05-.05,.04-.04,.05-.05,.04-.04,.06-.06,.02-.02,.05-.06,.02-.02s.03-.04,.05-.06l.02-.02s.03-.04,.05-.06v-.02s.04-.04,.05-.06h0s.02-.05,.03-.06h0s.03-.06,.03-.06h0s.01-.04,.02-.05c-.29,.1-.58,.23-.85,.38-.66,.46-1.36,.85-2.09,1.17-1.22,.55-2.6,1.21-3.98,1.82-.06,.05-.12,.1-.17,.15-2.66,2.23-8.62,2.53-13.13,2.47,3.17,.33,6.36,.12,9.46-.6,3.11-1.1,6.16-2.37,9.13-3.81l.06-.03Z"/>
      <path class="cls-10" d="M42.62,8.62v-.26h0v-.08h0v-.03h0v-.03h0v-.03h0v-.03h0v-.03h0v-.03h0v-.03h0v-.03h0v-.06h0v-.03h0v-.03h0v-.03h0v-.04h0v-.03h0v-.03h0v-.03h0v-.04h0v-.03h0v-.03h0c-.48,.27-.92,.58-1.18,.74-1.14,.68-2.31,1.33-3.46,2,.16,.25,.3,.52,.41,.79,.47-.26,.92-.52,1.36-.77,.93-.54,2-1.17,2.98-1.82h-.11Zm-.15-1.29c-.38,.09-.75,.16-1.13,.23-1.7,.34-3.36,.82-4.98,1.44l-.05-.03c-.12-.06-.23-.13-.35-.2,1.73-.65,3.51-1.14,5.33-1.46,.37-.06,.75-.14,1.14-.22h0s.01,.07,.01,.07h0v.06s0,.02,0,.02h0v.07s0,0,0,0h.01Z"/>
      <path class="cls-10" d="M33.92,6.79c.17,.24,.37,.47,.57,.7,.45-.19,.9-.38,1.35-.58,.16-.08,.53-.34,.26-.52-.59-.18-1.23-.1-1.75,.23-.13,.05-.28,.1-.42,.16h0ZM9.21,15.01l-.12-.12h-.02c-.23,.14-.88,.54-.12,.23,.08-.04,.17-.07,.25-.11Z"/>
      <path class="cls-10" d="M5.5,6.21h-.02s-.02,.02-.02,.02l-.1,.07h-.02s-.02,.03-.02,.03h-.02s-.02,.03-.02,.03l-.04,.03h-.02s-.04,.04-.04,.04h-.02s-.02,.03-.02,.03h-.02s-.02,.02-.02,.02h-.02s-.02,.03-.02,.03h-.02s-.02,.03-.02,.03h-.02s-.02,.03-.02,.03h-.02s0,.01,0,.01h-.02s-.02,.03-.02,.03h-.02s-.02,.03-.02,.03h-.02s-.02,.03-.02,.03l-.02,.02h-.02s-.02,.03-.02,.03h0s-.01,.01-.01,.01h-.02s-.02,.03-.02,.03l-.02,.02h-.02s-.04,.04-.04,.04h-.02s-.02,.03-.02,.03h-.01s0,.02,0,.02h-.02s-.02,.03-.02,.03h-.02s-.02,.03-.02,.03h-.02s-.02,.03-.02,.03h-.02s-.02,.03-.02,.03l-.04,.03h-.02s-.02,.03-.02,.03h-.02s-.02,.03-.02,.03h-.02s-.02,.03-.02,.03h-.02s-.01,.02-.01,.02h-.01c.37,.02,.74,0,1.11-.03,.91,.02,1.81-.02,2.71-.1l.42-.08c.35-.31,.72-.59,1.11-.85-1.07,.09-2.08,.11-3.16,.13-.3,0-.61,.02-.92,.03Z"/>
      <path class="cls-10" d="M32.69,4.76c.07,.14,.14,.28,.23,.44h.03c1.04-.3,2.06-.67,3.06-1.1-.26-.02-.57-.04-.94-.06-.72,.28-1.46,.51-2.21,.69l-.17,.03Z"/>
    </g>
    <polygon class="cls-9" points="9.03 21.18 10.77 20.96 11.7 20.39 11.68 20.02 9.03 21.18"/>
    <path class="cls-6" d="M3.05,16.77c1.65-.29,5.69-1.14,5.99-.04s-4.68,2.17-6.61,1.51-.21-1.37,.61-1.48Z"/>
    <g class="cls-19">
      <path class="cls-12" d="M4.34,17.9c1.72-.12,3.25-.47,3.36-1.01,.25-1.31-1.94-.57-2.75-.45-2.35,.36-2.74,1.62-.61,1.46Z"/>
      <path class="cls-17" d="M3.91,17.94c-.6-.01-.97-.17-1-.43-.04-.37,.66-.89,2.03-1.1,.14-.02,.31-.06,.51-.1,.74-.16,1.76-.39,2.14-.01,.15,.16,.2,.39,.13,.6-.14,.74-2.63,.98-3.38,1.04h0c-.15,0-.3,.01-.43,0Zm3.04-1.79c-.5,.02-.99,.09-1.48,.22-.2,.04-.38,.08-.51,.1-1.29,.2-2.02,.68-1.98,1.03s.76,.41,1.37,.37h0c1.96-.14,3.24-.52,3.33-.99,.06-.19,.02-.4-.11-.55-.17-.13-.39-.2-.6-.19h0Z"/>
    </g>
    <path class="cls-13" d="M1.58,17.47c.18-.31,.45-.55,.78-.68,1.26-.32,2.54-.56,3.84-.71,.9-.16,1.84-.02,2.66,.38-1.26-.36-2.59-.38-3.86-.03-3.03,.58-3.28,.83-3.42,1.04Z"/>
    <path class="cls-8" d="M.05,10.62s.36-.71,2.99-2.71c1.75-1.44,3.6-2.75,5.53-3.92,.54-.16,9.01-.35,15.04-.28s12.29,.26,13.24,.42,5.03,1.79,5.5,2.54-2.37-2.08-5.73-2.38-26.97-.65-28.21,.12C5.38,6.13,2.57,8.22,.05,10.62Z"/>
    <path class="cls-14" d="M.02,12.54s6.53-.77,10.02-.7,17.08,.63,23.48,.21c6.4-.42,9.3-.77,9.3-.77l.02,.33s-8.32,.96-11.74,.96-21.18-.55-22.3-.53-6.96,.55-7.67,.6-1.11,.08-1.11,.08v-.17Z"/>
    <path class="cls-7" d="M10.85,7.46c2.58-.79,17.19-2.14,18.83-1.24,1.95,1.2,3.72,2.68,5.25,4.39,1.24,1.43,3.34,6.34-3.84,7.57-7.18,1.23-17.19-2.35-18.89-3.93s-5-5.92-1.36-6.79Z"/>
  </g>
  <path d="M25.61,10.83c-.25,.21-.5,.42-.68,.58-.19-.16-.37-.32-.56-.47-1.16-.94-2.96-.36-3.31,1.22-.25,1.15,.46,2.24,1.59,2.51,.81,.19,1.74-.23,2.08-.94,.05-.11,.08-.24,.13-.38h-1.65v-.93h2.67c0,.25,.02,.51,0,.76-.16,1.45-1.32,2.48-2.79,2.48-1.56,0-2.85-1.13-3.05-2.67-.2-1.59,.91-3.11,2.5-3.37,1.21-.2,2.22,.17,3,1.14,.02,.02,.03,.04,.06,.08Z"/>
  <path d="M33.23,9.57c1.73-.05,3.13,1.49,3.09,3.11-.05,1.68-1.43,3.01-3.16,2.98-1.66-.02-3.01-1.38-3.01-3.06,0-1.68,1.38-3.03,3.08-3.03Zm0,.94c-1.17,0-2.1,.93-2.1,2.09,0,1.17,.93,2.11,2.08,2.13,1.07,.02,2.12-.88,2.12-2.12,0-1.18-.93-2.1-2.1-2.1Z"/>
  <path d="M7.75,15.59v-5.91s.03-.01,.05,0c.6,0,1.21,0,1.81,.03,.69,.04,1.35,.23,1.89,.7,.63,.55,.93,1.25,.96,2.07,.04,1.05-.34,1.9-1.19,2.53-.41,.3-.88,.46-1.38,.5-.7,.06-1.41,.06-2.13,.09Zm1.02-4.98v4.03c.3-.02,.59-.02,.88-.05,.45-.05,.87-.19,1.21-.51,.51-.49,.67-1.09,.59-1.77-.08-.64-.39-1.13-.97-1.43-.53-.28-1.12-.29-1.71-.27Z"/>
  <path d="M20.22,15.56c-.35,0-.68,0-1.02,0-.03,0-.08-.05-.1-.09-.18-.42-.36-.85-.54-1.27-.76,.28-1.51,.27-2.28-.02-.09,.21-.18,.42-.27,.64-.1,.22-.19,.44-.29,.66-.02,.03-.05,.08-.08,.08-.34,0-.68,0-1.03,0,.09-.21,.18-.4,.26-.6,.76-1.74,1.52-3.47,2.28-5.21,.04-.09,.08-.12,.18-.11,.12,0,.27-.04,.35,.02,.09,.06,.11,.21,.16,.32,.78,1.82,1.56,3.65,2.34,5.48,.01,.03,.02,.06,.05,.11Zm-2.79-4.14c-.27,.65-.53,1.27-.79,1.9,.38,.17,1.12,.18,1.56,.02-.26-.63-.51-1.26-.77-1.92Z"/>
  <path d="M27.52,14.62h2.24v.93h-3.22v-5.88h3.22v.93h-2.24v1.28h2.05v.93h-2.05v1.81Z"/>
  <path d="M14.22,15.55h-.96v-5.89h.96v5.89Z"/>
</svg>